G04 #@! TF.GenerationSoftware,KiCad,Pcbnew,(5.0.0)*
G04 #@! TF.CreationDate,2019-06-02T19:33:40-03:00*
G04 #@! TF.ProjectId,arduino-unoesc,61726475696E6F2D756E6F6573632E6B,0*
G04 #@! TF.SameCoordinates,Original*
G04 #@! TF.FileFunction,Soldermask,Top*
G04 #@! TF.FilePolarity,Negative*
%FSLAX46Y46*%
G04 Gerber Fmt 4.6, Leading zero omitted, Abs format (unit mm)*
G04 Created by KiCad (PCBNEW (5.0.0)) date 06/02/19 19:33:40*
%MOMM*%
%LPD*%
G01*
G04 APERTURE LIST*
%ADD10C,0.100000*%
G04 APERTURE END LIST*
D10*
G36*
X166634239Y-127811467D02*
X166948282Y-127873934D01*
X167539926Y-128119001D01*
X168004072Y-128429134D01*
X168072395Y-128474786D01*
X168525214Y-128927605D01*
X168525216Y-128927608D01*
X168880999Y-129460074D01*
X169105468Y-130001990D01*
X169126066Y-130051719D01*
X169251000Y-130679803D01*
X169251000Y-131320197D01*
X169224660Y-131452616D01*
X169126066Y-131948282D01*
X168880999Y-132539926D01*
X168633265Y-132910685D01*
X168525214Y-133072395D01*
X168072395Y-133525214D01*
X168072392Y-133525216D01*
X167539926Y-133880999D01*
X166948282Y-134126066D01*
X166634239Y-134188533D01*
X166320197Y-134251000D01*
X165679803Y-134251000D01*
X165365761Y-134188533D01*
X165051718Y-134126066D01*
X164460074Y-133880999D01*
X163927608Y-133525216D01*
X163927605Y-133525214D01*
X163474786Y-133072395D01*
X163366735Y-132910685D01*
X163119001Y-132539926D01*
X162873934Y-131948282D01*
X162775340Y-131452616D01*
X162749000Y-131320197D01*
X162749000Y-130679803D01*
X162873934Y-130051719D01*
X162894532Y-130001990D01*
X163119001Y-129460074D01*
X163474784Y-128927608D01*
X163474786Y-128927605D01*
X163927605Y-128474786D01*
X163995928Y-128429134D01*
X164460074Y-128119001D01*
X165051718Y-127873934D01*
X165365761Y-127811467D01*
X165679803Y-127749000D01*
X166320197Y-127749000D01*
X166634239Y-127811467D01*
X166634239Y-127811467D01*
G37*
G36*
X84634239Y-127811467D02*
X84948282Y-127873934D01*
X85539926Y-128119001D01*
X86004072Y-128429134D01*
X86072395Y-128474786D01*
X86525214Y-128927605D01*
X86525216Y-128927608D01*
X86880999Y-129460074D01*
X87105468Y-130001990D01*
X87126066Y-130051719D01*
X87251000Y-130679803D01*
X87251000Y-131320197D01*
X87224660Y-131452616D01*
X87126066Y-131948282D01*
X86880999Y-132539926D01*
X86633265Y-132910685D01*
X86525214Y-133072395D01*
X86072395Y-133525214D01*
X86072392Y-133525216D01*
X85539926Y-133880999D01*
X84948282Y-134126066D01*
X84634239Y-134188533D01*
X84320197Y-134251000D01*
X83679803Y-134251000D01*
X83365761Y-134188533D01*
X83051718Y-134126066D01*
X82460074Y-133880999D01*
X81927608Y-133525216D01*
X81927605Y-133525214D01*
X81474786Y-133072395D01*
X81366735Y-132910685D01*
X81119001Y-132539926D01*
X80873934Y-131948282D01*
X80775340Y-131452616D01*
X80749000Y-131320197D01*
X80749000Y-130679803D01*
X80873934Y-130051719D01*
X80894532Y-130001990D01*
X81119001Y-129460074D01*
X81474784Y-128927608D01*
X81474786Y-128927605D01*
X81927605Y-128474786D01*
X81995928Y-128429134D01*
X82460074Y-128119001D01*
X83051718Y-127873934D01*
X83365761Y-127811467D01*
X83679803Y-127749000D01*
X84320197Y-127749000D01*
X84634239Y-127811467D01*
X84634239Y-127811467D01*
G37*
G36*
X119061000Y-132370600D02*
X117159000Y-132370600D01*
X117159000Y-130468600D01*
X119061000Y-130468600D01*
X119061000Y-132370600D01*
X119061000Y-132370600D01*
G37*
G36*
X123560021Y-130530113D02*
X123560024Y-130530114D01*
X123560025Y-130530114D01*
X123720439Y-130578775D01*
X123720441Y-130578776D01*
X123720444Y-130578777D01*
X123868278Y-130657795D01*
X123997859Y-130764141D01*
X124104205Y-130893722D01*
X124183223Y-131041556D01*
X124183224Y-131041559D01*
X124183225Y-131041561D01*
X124231886Y-131201975D01*
X124231887Y-131201979D01*
X124248317Y-131368800D01*
X124231887Y-131535621D01*
X124231886Y-131535624D01*
X124231886Y-131535625D01*
X124194418Y-131659141D01*
X124183223Y-131696044D01*
X124104205Y-131843878D01*
X123997859Y-131973459D01*
X123868278Y-132079805D01*
X123720444Y-132158823D01*
X123720441Y-132158824D01*
X123720439Y-132158825D01*
X123560025Y-132207486D01*
X123560024Y-132207486D01*
X123560021Y-132207487D01*
X123435004Y-132219800D01*
X123351396Y-132219800D01*
X123226379Y-132207487D01*
X123226376Y-132207486D01*
X123226375Y-132207486D01*
X123065961Y-132158825D01*
X123065959Y-132158824D01*
X123065956Y-132158823D01*
X122918122Y-132079805D01*
X122788541Y-131973459D01*
X122682195Y-131843878D01*
X122603177Y-131696044D01*
X122591983Y-131659141D01*
X122554514Y-131535625D01*
X122554514Y-131535624D01*
X122554513Y-131535621D01*
X122538083Y-131368800D01*
X122554513Y-131201979D01*
X122554514Y-131201975D01*
X122603175Y-131041561D01*
X122603176Y-131041559D01*
X122603177Y-131041556D01*
X122682195Y-130893722D01*
X122788541Y-130764141D01*
X122918122Y-130657795D01*
X123065956Y-130578777D01*
X123065959Y-130578776D01*
X123065961Y-130578775D01*
X123226375Y-130530114D01*
X123226376Y-130530114D01*
X123226379Y-130530113D01*
X123351396Y-130517800D01*
X123435004Y-130517800D01*
X123560021Y-130530113D01*
X123560021Y-130530113D01*
G37*
G36*
X131261428Y-130550503D02*
X131416300Y-130614653D01*
X131555681Y-130707785D01*
X131674215Y-130826319D01*
X131767347Y-130965700D01*
X131831497Y-131120572D01*
X131864200Y-131284984D01*
X131864200Y-131452616D01*
X131831497Y-131617028D01*
X131767347Y-131771900D01*
X131674215Y-131911281D01*
X131555681Y-132029815D01*
X131416300Y-132122947D01*
X131261428Y-132187097D01*
X131097016Y-132219800D01*
X130929384Y-132219800D01*
X130764972Y-132187097D01*
X130610100Y-132122947D01*
X130470719Y-132029815D01*
X130352185Y-131911281D01*
X130259053Y-131771900D01*
X130194903Y-131617028D01*
X130162200Y-131452616D01*
X130162200Y-131284984D01*
X130194903Y-131120572D01*
X130259053Y-130965700D01*
X130352185Y-130826319D01*
X130470719Y-130707785D01*
X130610100Y-130614653D01*
X130764972Y-130550503D01*
X130929384Y-130517800D01*
X131097016Y-130517800D01*
X131261428Y-130550503D01*
X131261428Y-130550503D01*
G37*
G36*
X99493400Y-132005400D02*
X96391400Y-132005400D01*
X96391400Y-128903400D01*
X99493400Y-128903400D01*
X99493400Y-132005400D01*
X99493400Y-132005400D01*
G37*
G36*
X93214927Y-128943136D02*
X93314810Y-128963004D01*
X93597074Y-129079921D01*
X93851105Y-129249659D01*
X94067141Y-129465695D01*
X94236879Y-129719726D01*
X94282804Y-129830600D01*
X94353796Y-130001991D01*
X94413400Y-130301638D01*
X94413400Y-130607162D01*
X94393384Y-130707786D01*
X94353796Y-130906810D01*
X94236879Y-131189074D01*
X94067141Y-131443105D01*
X93851105Y-131659141D01*
X93597074Y-131828879D01*
X93314810Y-131945796D01*
X93214927Y-131965664D01*
X93015162Y-132005400D01*
X92709638Y-132005400D01*
X92509873Y-131965664D01*
X92409990Y-131945796D01*
X92127726Y-131828879D01*
X91873695Y-131659141D01*
X91657659Y-131443105D01*
X91487921Y-131189074D01*
X91371004Y-130906810D01*
X91331416Y-130707786D01*
X91311400Y-130607162D01*
X91311400Y-130301638D01*
X91371004Y-130001991D01*
X91441996Y-129830600D01*
X91487921Y-129719726D01*
X91657659Y-129465695D01*
X91873695Y-129249659D01*
X92127726Y-129079921D01*
X92409990Y-128963004D01*
X92509873Y-128943136D01*
X92709638Y-128903400D01*
X93015162Y-128903400D01*
X93214927Y-128943136D01*
X93214927Y-128943136D01*
G37*
G36*
X108531800Y-130940200D02*
X104929800Y-130940200D01*
X104929800Y-127338200D01*
X108531800Y-127338200D01*
X108531800Y-130940200D01*
X108531800Y-130940200D01*
G37*
G36*
X118387396Y-127965146D02*
X118560466Y-128036834D01*
X118716230Y-128140912D01*
X118848688Y-128273370D01*
X118952766Y-128429134D01*
X119024454Y-128602204D01*
X119061000Y-128785933D01*
X119061000Y-128973267D01*
X119024454Y-129156996D01*
X118952766Y-129330066D01*
X118848688Y-129485830D01*
X118716230Y-129618288D01*
X118560466Y-129722366D01*
X118387396Y-129794054D01*
X118203667Y-129830600D01*
X118016333Y-129830600D01*
X117832604Y-129794054D01*
X117659534Y-129722366D01*
X117503770Y-129618288D01*
X117371312Y-129485830D01*
X117267234Y-129330066D01*
X117195546Y-129156996D01*
X117159000Y-128973267D01*
X117159000Y-128785933D01*
X117195546Y-128602204D01*
X117267234Y-128429134D01*
X117371312Y-128273370D01*
X117503770Y-128140912D01*
X117659534Y-128036834D01*
X117832604Y-127965146D01*
X118016333Y-127928600D01*
X118203667Y-127928600D01*
X118387396Y-127965146D01*
X118387396Y-127965146D01*
G37*
G36*
X113231800Y-127940200D02*
X109629800Y-127940200D01*
X109629800Y-124338200D01*
X113231800Y-124338200D01*
X113231800Y-127940200D01*
X113231800Y-127940200D01*
G37*
G36*
X132683828Y-123347703D02*
X132838700Y-123411853D01*
X132978081Y-123504985D01*
X133096615Y-123623519D01*
X133189747Y-123762900D01*
X133253897Y-123917772D01*
X133286600Y-124082184D01*
X133286600Y-124249816D01*
X133253897Y-124414228D01*
X133189747Y-124569100D01*
X133096615Y-124708481D01*
X132978081Y-124827015D01*
X132838700Y-124920147D01*
X132683828Y-124984297D01*
X132519416Y-125017000D01*
X132351784Y-125017000D01*
X132187372Y-124984297D01*
X132032500Y-124920147D01*
X131893119Y-124827015D01*
X131774585Y-124708481D01*
X131681453Y-124569100D01*
X131617303Y-124414228D01*
X131584600Y-124249816D01*
X131584600Y-124082184D01*
X131617303Y-123917772D01*
X131681453Y-123762900D01*
X131774585Y-123623519D01*
X131893119Y-123504985D01*
X132032500Y-123411853D01*
X132187372Y-123347703D01*
X132351784Y-123315000D01*
X132519416Y-123315000D01*
X132683828Y-123347703D01*
X132683828Y-123347703D01*
G37*
G36*
X108531800Y-124940200D02*
X104929800Y-124940200D01*
X104929800Y-121338200D01*
X108531800Y-121338200D01*
X108531800Y-124940200D01*
X108531800Y-124940200D01*
G37*
G36*
X86051000Y-123166200D02*
X82949000Y-123166200D01*
X82949000Y-120064200D01*
X86051000Y-120064200D01*
X86051000Y-123166200D01*
X86051000Y-123166200D01*
G37*
G36*
X141430032Y-120330207D02*
X141628146Y-120390305D01*
X141810729Y-120487897D01*
X141970765Y-120619235D01*
X142102103Y-120779271D01*
X142121200Y-120815000D01*
X142199695Y-120961853D01*
X142202635Y-120971546D01*
X142259793Y-121159969D01*
X142275000Y-121314371D01*
X142275000Y-122017630D01*
X142259793Y-122172032D01*
X142199695Y-122370146D01*
X142102103Y-122552729D01*
X142102101Y-122552731D01*
X141970768Y-122712762D01*
X141970766Y-122712763D01*
X141970765Y-122712765D01*
X141810729Y-122844103D01*
X141628145Y-122941695D01*
X141430031Y-123001793D01*
X141224000Y-123022085D01*
X141017968Y-123001793D01*
X140819854Y-122941695D01*
X140637271Y-122844103D01*
X140573257Y-122791568D01*
X140477238Y-122712768D01*
X140477237Y-122712766D01*
X140477235Y-122712765D01*
X140345897Y-122552729D01*
X140248305Y-122370145D01*
X140188207Y-122172031D01*
X140173000Y-122017629D01*
X140173000Y-121314370D01*
X140188207Y-121159968D01*
X140228273Y-121027892D01*
X140248306Y-120961852D01*
X140345899Y-120779269D01*
X140477236Y-120619235D01*
X140637272Y-120487897D01*
X140819855Y-120390305D01*
X141017969Y-120330207D01*
X141224000Y-120309915D01*
X141430032Y-120330207D01*
X141430032Y-120330207D01*
G37*
G36*
X138890032Y-120330207D02*
X139088146Y-120390305D01*
X139270729Y-120487897D01*
X139430765Y-120619235D01*
X139562103Y-120779271D01*
X139581200Y-120815000D01*
X139659695Y-120961853D01*
X139662635Y-120971546D01*
X139719793Y-121159969D01*
X139735000Y-121314371D01*
X139735000Y-122017630D01*
X139719793Y-122172032D01*
X139659695Y-122370146D01*
X139562103Y-122552729D01*
X139562101Y-122552731D01*
X139430768Y-122712762D01*
X139430766Y-122712763D01*
X139430765Y-122712765D01*
X139270729Y-122844103D01*
X139088145Y-122941695D01*
X138890031Y-123001793D01*
X138684000Y-123022085D01*
X138477968Y-123001793D01*
X138279854Y-122941695D01*
X138097271Y-122844103D01*
X138033257Y-122791568D01*
X137937238Y-122712768D01*
X137937237Y-122712766D01*
X137937235Y-122712765D01*
X137805897Y-122552729D01*
X137708305Y-122370145D01*
X137648207Y-122172031D01*
X137633000Y-122017629D01*
X137633000Y-121314370D01*
X137648207Y-121159968D01*
X137688273Y-121027892D01*
X137708306Y-120961852D01*
X137805899Y-120779269D01*
X137937236Y-120619235D01*
X138097272Y-120487897D01*
X138279855Y-120390305D01*
X138477969Y-120330207D01*
X138684000Y-120309915D01*
X138890032Y-120330207D01*
X138890032Y-120330207D01*
G37*
G36*
X136350032Y-120330207D02*
X136548146Y-120390305D01*
X136730729Y-120487897D01*
X136890765Y-120619235D01*
X137022103Y-120779271D01*
X137041200Y-120815000D01*
X137119695Y-120961853D01*
X137122635Y-120971546D01*
X137179793Y-121159969D01*
X137195000Y-121314371D01*
X137195000Y-122017630D01*
X137179793Y-122172032D01*
X137119695Y-122370146D01*
X137022103Y-122552729D01*
X137022101Y-122552731D01*
X136890768Y-122712762D01*
X136890766Y-122712763D01*
X136890765Y-122712765D01*
X136730729Y-122844103D01*
X136548145Y-122941695D01*
X136350031Y-123001793D01*
X136144000Y-123022085D01*
X135937968Y-123001793D01*
X135739854Y-122941695D01*
X135557271Y-122844103D01*
X135493257Y-122791568D01*
X135397238Y-122712768D01*
X135397237Y-122712766D01*
X135397235Y-122712765D01*
X135265897Y-122552729D01*
X135168305Y-122370145D01*
X135108207Y-122172031D01*
X135093000Y-122017629D01*
X135093000Y-121314370D01*
X135108207Y-121159968D01*
X135148273Y-121027892D01*
X135168306Y-120961852D01*
X135265899Y-120779269D01*
X135397236Y-120619235D01*
X135557272Y-120487897D01*
X135739855Y-120390305D01*
X135937969Y-120330207D01*
X136144000Y-120309915D01*
X136350032Y-120330207D01*
X136350032Y-120330207D01*
G37*
G36*
X144815000Y-123017000D02*
X142713000Y-123017000D01*
X142713000Y-120315000D01*
X144815000Y-120315000D01*
X144815000Y-123017000D01*
X144815000Y-123017000D01*
G37*
G36*
X132683828Y-120847703D02*
X132838700Y-120911853D01*
X132978081Y-121004985D01*
X133096615Y-121123519D01*
X133189747Y-121262900D01*
X133253897Y-121417772D01*
X133286600Y-121582184D01*
X133286600Y-121749816D01*
X133253897Y-121914228D01*
X133189747Y-122069100D01*
X133096615Y-122208481D01*
X132978081Y-122327015D01*
X132838700Y-122420147D01*
X132683828Y-122484297D01*
X132519416Y-122517000D01*
X132351784Y-122517000D01*
X132187372Y-122484297D01*
X132032500Y-122420147D01*
X131893119Y-122327015D01*
X131774585Y-122208481D01*
X131681453Y-122069100D01*
X131617303Y-121914228D01*
X131584600Y-121749816D01*
X131584600Y-121582184D01*
X131617303Y-121417772D01*
X131681453Y-121262900D01*
X131774585Y-121123519D01*
X131893119Y-121004985D01*
X132032500Y-120911853D01*
X132187372Y-120847703D01*
X132351784Y-120815000D01*
X132519416Y-120815000D01*
X132683828Y-120847703D01*
X132683828Y-120847703D01*
G37*
G36*
X97507780Y-118692862D02*
X97609235Y-118702854D01*
X97826200Y-118768670D01*
X97826202Y-118768671D01*
X97826205Y-118768672D01*
X98026156Y-118875547D01*
X98201418Y-119019382D01*
X98345253Y-119194644D01*
X98452128Y-119394595D01*
X98452129Y-119394598D01*
X98452130Y-119394600D01*
X98517946Y-119611565D01*
X98540169Y-119837200D01*
X98517946Y-120062835D01*
X98452130Y-120279800D01*
X98452128Y-120279805D01*
X98345253Y-120479756D01*
X98201418Y-120655018D01*
X98026156Y-120798853D01*
X97826205Y-120905728D01*
X97826202Y-120905729D01*
X97826200Y-120905730D01*
X97609235Y-120971546D01*
X97507780Y-120981538D01*
X97440145Y-120988200D01*
X97327055Y-120988200D01*
X97259420Y-120981538D01*
X97157965Y-120971546D01*
X96941000Y-120905730D01*
X96940998Y-120905729D01*
X96940995Y-120905728D01*
X96741044Y-120798853D01*
X96565782Y-120655018D01*
X96421947Y-120479756D01*
X96315072Y-120279805D01*
X96315070Y-120279800D01*
X96249254Y-120062835D01*
X96227031Y-119837200D01*
X96249254Y-119611565D01*
X96315070Y-119394600D01*
X96315071Y-119394598D01*
X96315072Y-119394595D01*
X96421947Y-119194644D01*
X96565782Y-119019382D01*
X96741044Y-118875547D01*
X96940995Y-118768672D01*
X96940998Y-118768671D01*
X96941000Y-118768670D01*
X97157965Y-118702854D01*
X97259420Y-118692862D01*
X97327055Y-118686200D01*
X97440145Y-118686200D01*
X97507780Y-118692862D01*
X97507780Y-118692862D01*
G37*
G36*
X154662094Y-118681833D02*
X154834494Y-118734131D01*
X154834496Y-118734132D01*
X154993383Y-118819059D01*
X155132649Y-118933351D01*
X155197829Y-119012773D01*
X155246940Y-119072616D01*
X155331869Y-119231506D01*
X155384167Y-119403906D01*
X155401825Y-119583200D01*
X155384167Y-119762494D01*
X155331869Y-119934894D01*
X155331868Y-119934896D01*
X155246941Y-120093783D01*
X155132649Y-120233049D01*
X154993383Y-120347341D01*
X154913003Y-120390305D01*
X154834494Y-120432269D01*
X154662094Y-120484567D01*
X154527731Y-120497800D01*
X154437869Y-120497800D01*
X154303506Y-120484567D01*
X154131106Y-120432269D01*
X154052597Y-120390305D01*
X153972217Y-120347341D01*
X153832951Y-120233049D01*
X153718659Y-120093783D01*
X153633732Y-119934896D01*
X153633731Y-119934894D01*
X153581433Y-119762494D01*
X153563775Y-119583200D01*
X153581433Y-119403906D01*
X153633731Y-119231506D01*
X153718660Y-119072616D01*
X153767772Y-119012773D01*
X153832951Y-118933351D01*
X153972217Y-118819059D01*
X154131104Y-118734132D01*
X154131106Y-118734131D01*
X154303506Y-118681833D01*
X154437869Y-118668600D01*
X154527731Y-118668600D01*
X154662094Y-118681833D01*
X154662094Y-118681833D01*
G37*
G36*
X157202094Y-118681833D02*
X157374494Y-118734131D01*
X157374496Y-118734132D01*
X157533383Y-118819059D01*
X157672649Y-118933351D01*
X157737829Y-119012773D01*
X157786940Y-119072616D01*
X157871869Y-119231506D01*
X157924167Y-119403906D01*
X157941825Y-119583200D01*
X157924167Y-119762494D01*
X157871869Y-119934894D01*
X157871868Y-119934896D01*
X157786941Y-120093783D01*
X157672649Y-120233049D01*
X157533383Y-120347341D01*
X157453003Y-120390305D01*
X157374494Y-120432269D01*
X157202094Y-120484567D01*
X157067731Y-120497800D01*
X156977869Y-120497800D01*
X156843506Y-120484567D01*
X156671106Y-120432269D01*
X156592597Y-120390305D01*
X156512217Y-120347341D01*
X156372951Y-120233049D01*
X156258659Y-120093783D01*
X156173732Y-119934896D01*
X156173731Y-119934894D01*
X156121433Y-119762494D01*
X156103775Y-119583200D01*
X156121433Y-119403906D01*
X156173731Y-119231506D01*
X156258660Y-119072616D01*
X156307772Y-119012773D01*
X156372951Y-118933351D01*
X156512217Y-118819059D01*
X156671104Y-118734132D01*
X156671106Y-118734131D01*
X156843506Y-118681833D01*
X156977869Y-118668600D01*
X157067731Y-118668600D01*
X157202094Y-118681833D01*
X157202094Y-118681833D01*
G37*
G36*
X159742094Y-118681833D02*
X159914494Y-118734131D01*
X159914496Y-118734132D01*
X160073383Y-118819059D01*
X160212649Y-118933351D01*
X160277829Y-119012773D01*
X160326940Y-119072616D01*
X160411869Y-119231506D01*
X160464167Y-119403906D01*
X160481825Y-119583200D01*
X160464167Y-119762494D01*
X160411869Y-119934894D01*
X160411868Y-119934896D01*
X160326941Y-120093783D01*
X160212649Y-120233049D01*
X160073383Y-120347341D01*
X159993003Y-120390305D01*
X159914494Y-120432269D01*
X159742094Y-120484567D01*
X159607731Y-120497800D01*
X159517869Y-120497800D01*
X159383506Y-120484567D01*
X159211106Y-120432269D01*
X159132597Y-120390305D01*
X159052217Y-120347341D01*
X158912951Y-120233049D01*
X158798659Y-120093783D01*
X158713732Y-119934896D01*
X158713731Y-119934894D01*
X158661433Y-119762494D01*
X158643775Y-119583200D01*
X158661433Y-119403906D01*
X158713731Y-119231506D01*
X158798660Y-119072616D01*
X158847772Y-119012773D01*
X158912951Y-118933351D01*
X159052217Y-118819059D01*
X159211104Y-118734132D01*
X159211106Y-118734131D01*
X159383506Y-118681833D01*
X159517869Y-118668600D01*
X159607731Y-118668600D01*
X159742094Y-118681833D01*
X159742094Y-118681833D01*
G37*
G36*
X166770628Y-118460103D02*
X166925500Y-118524253D01*
X167064881Y-118617385D01*
X167183415Y-118735919D01*
X167276547Y-118875300D01*
X167340697Y-119030172D01*
X167373400Y-119194584D01*
X167373400Y-119362216D01*
X167340697Y-119526628D01*
X167276547Y-119681500D01*
X167183415Y-119820881D01*
X167064881Y-119939415D01*
X166925500Y-120032547D01*
X166770628Y-120096697D01*
X166606216Y-120129400D01*
X166438584Y-120129400D01*
X166274172Y-120096697D01*
X166119300Y-120032547D01*
X165979919Y-119939415D01*
X165861385Y-119820881D01*
X165768253Y-119681500D01*
X165704103Y-119526628D01*
X165671400Y-119362216D01*
X165671400Y-119194584D01*
X165704103Y-119030172D01*
X165768253Y-118875300D01*
X165861385Y-118735919D01*
X165979919Y-118617385D01*
X166119300Y-118524253D01*
X166274172Y-118460103D01*
X166438584Y-118427400D01*
X166606216Y-118427400D01*
X166770628Y-118460103D01*
X166770628Y-118460103D01*
G37*
G36*
X118365765Y-117332189D02*
X118557034Y-117411415D01*
X118729176Y-117526437D01*
X118875563Y-117672824D01*
X118990585Y-117844966D01*
X119069811Y-118036235D01*
X119110200Y-118239284D01*
X119110200Y-118446316D01*
X119069811Y-118649365D01*
X118990585Y-118840634D01*
X118875563Y-119012776D01*
X118729176Y-119159163D01*
X118557034Y-119274185D01*
X118365765Y-119353411D01*
X118162716Y-119393800D01*
X117955684Y-119393800D01*
X117752635Y-119353411D01*
X117561366Y-119274185D01*
X117389224Y-119159163D01*
X117242837Y-119012776D01*
X117127815Y-118840634D01*
X117048589Y-118649365D01*
X117008200Y-118446316D01*
X117008200Y-118239284D01*
X117048589Y-118036235D01*
X117127815Y-117844966D01*
X117242837Y-117672824D01*
X117389224Y-117526437D01*
X117561366Y-117411415D01*
X117752635Y-117332189D01*
X117955684Y-117291800D01*
X118162716Y-117291800D01*
X118365765Y-117332189D01*
X118365765Y-117332189D01*
G37*
G36*
X124865765Y-117332189D02*
X125057034Y-117411415D01*
X125229176Y-117526437D01*
X125375563Y-117672824D01*
X125490585Y-117844966D01*
X125569811Y-118036235D01*
X125610200Y-118239284D01*
X125610200Y-118446316D01*
X125569811Y-118649365D01*
X125490585Y-118840634D01*
X125375563Y-119012776D01*
X125229176Y-119159163D01*
X125057034Y-119274185D01*
X124865765Y-119353411D01*
X124662716Y-119393800D01*
X124455684Y-119393800D01*
X124252635Y-119353411D01*
X124061366Y-119274185D01*
X123889224Y-119159163D01*
X123742837Y-119012776D01*
X123627815Y-118840634D01*
X123548589Y-118649365D01*
X123508200Y-118446316D01*
X123508200Y-118239284D01*
X123548589Y-118036235D01*
X123627815Y-117844966D01*
X123742837Y-117672824D01*
X123889224Y-117526437D01*
X124061366Y-117411415D01*
X124252635Y-117332189D01*
X124455684Y-117291800D01*
X124662716Y-117291800D01*
X124865765Y-117332189D01*
X124865765Y-117332189D01*
G37*
G36*
X132734628Y-116732903D02*
X132889500Y-116797053D01*
X133028881Y-116890185D01*
X133147415Y-117008719D01*
X133240547Y-117148100D01*
X133304697Y-117302972D01*
X133337400Y-117467384D01*
X133337400Y-117635016D01*
X133304697Y-117799428D01*
X133240547Y-117954300D01*
X133147415Y-118093681D01*
X133028881Y-118212215D01*
X132889500Y-118305347D01*
X132734628Y-118369497D01*
X132570216Y-118402200D01*
X132402584Y-118402200D01*
X132238172Y-118369497D01*
X132083300Y-118305347D01*
X131943919Y-118212215D01*
X131825385Y-118093681D01*
X131732253Y-117954300D01*
X131668103Y-117799428D01*
X131635400Y-117635016D01*
X131635400Y-117467384D01*
X131668103Y-117302972D01*
X131732253Y-117148100D01*
X131825385Y-117008719D01*
X131943919Y-116890185D01*
X132083300Y-116797053D01*
X132238172Y-116732903D01*
X132402584Y-116700200D01*
X132570216Y-116700200D01*
X132734628Y-116732903D01*
X132734628Y-116732903D01*
G37*
G36*
X84852527Y-115023936D02*
X84952410Y-115043804D01*
X85234674Y-115160721D01*
X85488705Y-115330459D01*
X85704741Y-115546495D01*
X85874479Y-115800526D01*
X85991396Y-116082790D01*
X86011264Y-116182673D01*
X86051000Y-116382438D01*
X86051000Y-116687962D01*
X86042060Y-116732904D01*
X85991396Y-116987610D01*
X85874479Y-117269874D01*
X85704741Y-117523905D01*
X85488705Y-117739941D01*
X85234674Y-117909679D01*
X84952410Y-118026596D01*
X84903951Y-118036235D01*
X84652762Y-118086200D01*
X84347238Y-118086200D01*
X84096049Y-118036235D01*
X84047590Y-118026596D01*
X83765326Y-117909679D01*
X83511295Y-117739941D01*
X83295259Y-117523905D01*
X83125521Y-117269874D01*
X83008604Y-116987610D01*
X82957940Y-116732904D01*
X82949000Y-116687962D01*
X82949000Y-116382438D01*
X82988736Y-116182673D01*
X83008604Y-116082790D01*
X83125521Y-115800526D01*
X83295259Y-115546495D01*
X83511295Y-115330459D01*
X83765326Y-115160721D01*
X84047590Y-115043804D01*
X84147473Y-115023936D01*
X84347238Y-114984200D01*
X84652762Y-114984200D01*
X84852527Y-115023936D01*
X84852527Y-115023936D01*
G37*
G36*
X160477400Y-117957800D02*
X158648200Y-117957800D01*
X158648200Y-116128600D01*
X160477400Y-116128600D01*
X160477400Y-117957800D01*
X160477400Y-117957800D01*
G37*
G36*
X157202094Y-116141833D02*
X157374494Y-116194131D01*
X157374496Y-116194132D01*
X157533383Y-116279059D01*
X157533385Y-116279060D01*
X157533384Y-116279060D01*
X157672649Y-116393351D01*
X157786940Y-116532616D01*
X157871869Y-116691506D01*
X157924167Y-116863906D01*
X157941825Y-117043200D01*
X157924167Y-117222494D01*
X157890890Y-117332190D01*
X157871868Y-117394896D01*
X157786941Y-117553783D01*
X157672649Y-117693049D01*
X157533383Y-117807341D01*
X157374496Y-117892268D01*
X157374494Y-117892269D01*
X157202094Y-117944567D01*
X157067731Y-117957800D01*
X156977869Y-117957800D01*
X156843506Y-117944567D01*
X156671106Y-117892269D01*
X156671104Y-117892268D01*
X156512217Y-117807341D01*
X156372951Y-117693049D01*
X156258659Y-117553783D01*
X156173732Y-117394896D01*
X156154710Y-117332190D01*
X156121433Y-117222494D01*
X156103775Y-117043200D01*
X156121433Y-116863906D01*
X156173731Y-116691506D01*
X156258660Y-116532616D01*
X156372951Y-116393351D01*
X156512216Y-116279060D01*
X156512215Y-116279060D01*
X156512217Y-116279059D01*
X156671104Y-116194132D01*
X156671106Y-116194131D01*
X156843506Y-116141833D01*
X156977869Y-116128600D01*
X157067731Y-116128600D01*
X157202094Y-116141833D01*
X157202094Y-116141833D01*
G37*
G36*
X154662094Y-116141833D02*
X154834494Y-116194131D01*
X154834496Y-116194132D01*
X154993383Y-116279059D01*
X154993385Y-116279060D01*
X154993384Y-116279060D01*
X155132649Y-116393351D01*
X155246940Y-116532616D01*
X155331869Y-116691506D01*
X155384167Y-116863906D01*
X155401825Y-117043200D01*
X155384167Y-117222494D01*
X155350890Y-117332190D01*
X155331868Y-117394896D01*
X155246941Y-117553783D01*
X155132649Y-117693049D01*
X154993383Y-117807341D01*
X154834496Y-117892268D01*
X154834494Y-117892269D01*
X154662094Y-117944567D01*
X154527731Y-117957800D01*
X154437869Y-117957800D01*
X154303506Y-117944567D01*
X154131106Y-117892269D01*
X154131104Y-117892268D01*
X153972217Y-117807341D01*
X153832951Y-117693049D01*
X153718659Y-117553783D01*
X153633732Y-117394896D01*
X153614710Y-117332190D01*
X153581433Y-117222494D01*
X153563775Y-117043200D01*
X153581433Y-116863906D01*
X153633731Y-116691506D01*
X153718660Y-116532616D01*
X153832951Y-116393351D01*
X153972216Y-116279060D01*
X153972215Y-116279060D01*
X153972217Y-116279059D01*
X154131104Y-116194132D01*
X154131106Y-116194131D01*
X154303506Y-116141833D01*
X154437869Y-116128600D01*
X154527731Y-116128600D01*
X154662094Y-116141833D01*
X154662094Y-116141833D01*
G37*
G36*
X166770628Y-115960103D02*
X166925500Y-116024253D01*
X167064881Y-116117385D01*
X167183415Y-116235919D01*
X167276547Y-116375300D01*
X167340697Y-116530172D01*
X167373400Y-116694584D01*
X167373400Y-116862216D01*
X167340697Y-117026628D01*
X167276547Y-117181500D01*
X167183415Y-117320881D01*
X167064881Y-117439415D01*
X166925500Y-117532547D01*
X166770628Y-117596697D01*
X166606216Y-117629400D01*
X166438584Y-117629400D01*
X166274172Y-117596697D01*
X166119300Y-117532547D01*
X165979919Y-117439415D01*
X165861385Y-117320881D01*
X165768253Y-117181500D01*
X165704103Y-117026628D01*
X165671400Y-116862216D01*
X165671400Y-116694584D01*
X165704103Y-116530172D01*
X165768253Y-116375300D01*
X165861385Y-116235919D01*
X165979919Y-116117385D01*
X166119300Y-116024253D01*
X166274172Y-115960103D01*
X166438584Y-115927400D01*
X166606216Y-115927400D01*
X166770628Y-115960103D01*
X166770628Y-115960103D01*
G37*
G36*
X138233728Y-114294503D02*
X138388600Y-114358653D01*
X138527981Y-114451785D01*
X138646515Y-114570319D01*
X138739647Y-114709700D01*
X138803797Y-114864572D01*
X138836500Y-115028984D01*
X138836500Y-115196616D01*
X138803797Y-115361028D01*
X138739647Y-115515900D01*
X138646515Y-115655281D01*
X138527981Y-115773815D01*
X138388600Y-115866947D01*
X138233728Y-115931097D01*
X138069316Y-115963800D01*
X137901684Y-115963800D01*
X137737272Y-115931097D01*
X137582400Y-115866947D01*
X137443019Y-115773815D01*
X137324485Y-115655281D01*
X137231353Y-115515900D01*
X137167203Y-115361028D01*
X137134500Y-115196616D01*
X137134500Y-115028984D01*
X137167203Y-114864572D01*
X137231353Y-114709700D01*
X137324485Y-114570319D01*
X137443019Y-114451785D01*
X137582400Y-114358653D01*
X137737272Y-114294503D01*
X137901684Y-114261800D01*
X138069316Y-114261800D01*
X138233728Y-114294503D01*
X138233728Y-114294503D01*
G37*
G36*
X132734628Y-114232903D02*
X132889500Y-114297053D01*
X133028881Y-114390185D01*
X133147415Y-114508719D01*
X133240547Y-114648100D01*
X133304697Y-114802972D01*
X133337400Y-114967384D01*
X133337400Y-115135016D01*
X133304697Y-115299428D01*
X133240547Y-115454300D01*
X133147415Y-115593681D01*
X133028881Y-115712215D01*
X132889500Y-115805347D01*
X132734628Y-115869497D01*
X132570216Y-115902200D01*
X132402584Y-115902200D01*
X132238172Y-115869497D01*
X132083300Y-115805347D01*
X131943919Y-115712215D01*
X131825385Y-115593681D01*
X131732253Y-115454300D01*
X131668103Y-115299428D01*
X131635400Y-115135016D01*
X131635400Y-114967384D01*
X131668103Y-114802972D01*
X131732253Y-114648100D01*
X131825385Y-114508719D01*
X131943919Y-114390185D01*
X132083300Y-114297053D01*
X132238172Y-114232903D01*
X132402584Y-114200200D01*
X132570216Y-114200200D01*
X132734628Y-114232903D01*
X132734628Y-114232903D01*
G37*
G36*
X103365400Y-115252600D02*
X101663400Y-115252600D01*
X101663400Y-113550600D01*
X103365400Y-113550600D01*
X103365400Y-115252600D01*
X103365400Y-115252600D01*
G37*
G36*
X105262628Y-113583303D02*
X105417500Y-113647453D01*
X105556881Y-113740585D01*
X105675415Y-113859119D01*
X105768547Y-113998500D01*
X105832697Y-114153372D01*
X105865400Y-114317784D01*
X105865400Y-114485416D01*
X105832697Y-114649828D01*
X105768547Y-114804700D01*
X105675415Y-114944081D01*
X105556881Y-115062615D01*
X105417500Y-115155747D01*
X105262628Y-115219897D01*
X105098216Y-115252600D01*
X104930584Y-115252600D01*
X104766172Y-115219897D01*
X104611300Y-115155747D01*
X104471919Y-115062615D01*
X104353385Y-114944081D01*
X104260253Y-114804700D01*
X104196103Y-114649828D01*
X104163400Y-114485416D01*
X104163400Y-114317784D01*
X104196103Y-114153372D01*
X104260253Y-113998500D01*
X104353385Y-113859119D01*
X104471919Y-113740585D01*
X104611300Y-113647453D01*
X104766172Y-113583303D01*
X104930584Y-113550600D01*
X105098216Y-113550600D01*
X105262628Y-113583303D01*
X105262628Y-113583303D01*
G37*
G36*
X118365765Y-112832189D02*
X118557034Y-112911415D01*
X118729176Y-113026437D01*
X118875563Y-113172824D01*
X118990585Y-113344966D01*
X119069811Y-113536235D01*
X119110200Y-113739284D01*
X119110200Y-113946316D01*
X119069811Y-114149365D01*
X118990585Y-114340634D01*
X118875563Y-114512776D01*
X118729176Y-114659163D01*
X118557034Y-114774185D01*
X118365765Y-114853411D01*
X118162716Y-114893800D01*
X117955684Y-114893800D01*
X117752635Y-114853411D01*
X117561366Y-114774185D01*
X117389224Y-114659163D01*
X117242837Y-114512776D01*
X117127815Y-114340634D01*
X117048589Y-114149365D01*
X117008200Y-113946316D01*
X117008200Y-113739284D01*
X117048589Y-113536235D01*
X117127815Y-113344966D01*
X117242837Y-113172824D01*
X117389224Y-113026437D01*
X117561366Y-112911415D01*
X117752635Y-112832189D01*
X117955684Y-112791800D01*
X118162716Y-112791800D01*
X118365765Y-112832189D01*
X118365765Y-112832189D01*
G37*
G36*
X124865765Y-112832189D02*
X125057034Y-112911415D01*
X125229176Y-113026437D01*
X125375563Y-113172824D01*
X125490585Y-113344966D01*
X125569811Y-113536235D01*
X125610200Y-113739284D01*
X125610200Y-113946316D01*
X125569811Y-114149365D01*
X125490585Y-114340634D01*
X125375563Y-114512776D01*
X125229176Y-114659163D01*
X125057034Y-114774185D01*
X124865765Y-114853411D01*
X124662716Y-114893800D01*
X124455684Y-114893800D01*
X124252635Y-114853411D01*
X124061366Y-114774185D01*
X123889224Y-114659163D01*
X123742837Y-114512776D01*
X123627815Y-114340634D01*
X123548589Y-114149365D01*
X123508200Y-113946316D01*
X123508200Y-113739284D01*
X123548589Y-113536235D01*
X123627815Y-113344966D01*
X123742837Y-113172824D01*
X123889224Y-113026437D01*
X124061366Y-112911415D01*
X124252635Y-112832189D01*
X124455684Y-112791800D01*
X124662716Y-112791800D01*
X124865765Y-112832189D01*
X124865765Y-112832189D01*
G37*
G36*
X142256000Y-114570000D02*
X140954000Y-114570000D01*
X140954000Y-113268000D01*
X142256000Y-113268000D01*
X142256000Y-114570000D01*
X142256000Y-114570000D01*
G37*
G36*
X143794890Y-113293017D02*
X143913361Y-113342089D01*
X143913364Y-113342091D01*
X143950564Y-113366947D01*
X144019992Y-113413338D01*
X144110662Y-113504008D01*
X144181911Y-113610639D01*
X144230983Y-113729110D01*
X144256000Y-113854881D01*
X144256000Y-113983119D01*
X144230983Y-114108890D01*
X144181911Y-114227361D01*
X144181909Y-114227364D01*
X144135344Y-114297054D01*
X144110662Y-114333992D01*
X144019992Y-114424662D01*
X144019989Y-114424664D01*
X144019988Y-114424665D01*
X143929068Y-114485416D01*
X143913361Y-114495911D01*
X143794890Y-114544983D01*
X143669119Y-114570000D01*
X143540881Y-114570000D01*
X143415110Y-114544983D01*
X143296639Y-114495911D01*
X143280932Y-114485416D01*
X143190012Y-114424665D01*
X143190011Y-114424664D01*
X143190008Y-114424662D01*
X143099338Y-114333992D01*
X143074657Y-114297054D01*
X143028091Y-114227364D01*
X143028089Y-114227361D01*
X142979017Y-114108890D01*
X142954000Y-113983119D01*
X142954000Y-113854881D01*
X142979017Y-113729110D01*
X143028089Y-113610639D01*
X143099338Y-113504008D01*
X143190008Y-113413338D01*
X143259437Y-113366947D01*
X143296636Y-113342091D01*
X143296639Y-113342089D01*
X143415110Y-113293017D01*
X143540881Y-113268000D01*
X143669119Y-113268000D01*
X143794890Y-113293017D01*
X143794890Y-113293017D01*
G37*
G36*
X138233728Y-111794503D02*
X138388600Y-111858653D01*
X138527981Y-111951785D01*
X138646515Y-112070319D01*
X138739647Y-112209700D01*
X138803797Y-112364572D01*
X138836500Y-112528984D01*
X138836500Y-112696616D01*
X138803797Y-112861028D01*
X138739647Y-113015900D01*
X138646515Y-113155281D01*
X138527981Y-113273815D01*
X138388600Y-113366947D01*
X138233728Y-113431097D01*
X138069316Y-113463800D01*
X137901684Y-113463800D01*
X137737272Y-113431097D01*
X137582400Y-113366947D01*
X137443019Y-113273815D01*
X137324485Y-113155281D01*
X137231353Y-113015900D01*
X137167203Y-112861028D01*
X137134500Y-112696616D01*
X137134500Y-112528984D01*
X137167203Y-112364572D01*
X137231353Y-112209700D01*
X137324485Y-112070319D01*
X137443019Y-111951785D01*
X137582400Y-111858653D01*
X137737272Y-111794503D01*
X137901684Y-111761800D01*
X138069316Y-111761800D01*
X138233728Y-111794503D01*
X138233728Y-111794503D01*
G37*
G36*
X98534600Y-113368200D02*
X96232600Y-113368200D01*
X96232600Y-111066200D01*
X98534600Y-111066200D01*
X98534600Y-113368200D01*
X98534600Y-113368200D01*
G37*
G36*
X92856628Y-111551303D02*
X93011500Y-111615453D01*
X93150881Y-111708585D01*
X93269415Y-111827119D01*
X93362547Y-111966500D01*
X93426697Y-112121372D01*
X93459400Y-112285784D01*
X93459400Y-112453416D01*
X93426697Y-112617828D01*
X93362547Y-112772700D01*
X93269415Y-112912081D01*
X93150881Y-113030615D01*
X93011500Y-113123747D01*
X92856628Y-113187897D01*
X92692216Y-113220600D01*
X92524584Y-113220600D01*
X92360172Y-113187897D01*
X92205300Y-113123747D01*
X92065919Y-113030615D01*
X91947385Y-112912081D01*
X91854253Y-112772700D01*
X91790103Y-112617828D01*
X91757400Y-112453416D01*
X91757400Y-112285784D01*
X91790103Y-112121372D01*
X91854253Y-111966500D01*
X91947385Y-111827119D01*
X92065919Y-111708585D01*
X92205300Y-111615453D01*
X92360172Y-111551303D01*
X92524584Y-111518600D01*
X92692216Y-111518600D01*
X92856628Y-111551303D01*
X92856628Y-111551303D01*
G37*
G36*
X112069828Y-111348103D02*
X112224700Y-111412253D01*
X112364081Y-111505385D01*
X112482615Y-111623919D01*
X112575747Y-111763300D01*
X112639897Y-111918172D01*
X112672600Y-112082584D01*
X112672600Y-112250216D01*
X112639897Y-112414628D01*
X112575747Y-112569500D01*
X112482615Y-112708881D01*
X112364081Y-112827415D01*
X112224700Y-112920547D01*
X112069828Y-112984697D01*
X111905416Y-113017400D01*
X111737784Y-113017400D01*
X111573372Y-112984697D01*
X111418500Y-112920547D01*
X111279119Y-112827415D01*
X111160585Y-112708881D01*
X111067453Y-112569500D01*
X111003303Y-112414628D01*
X110970600Y-112250216D01*
X110970600Y-112082584D01*
X111003303Y-111918172D01*
X111067453Y-111763300D01*
X111160585Y-111623919D01*
X111279119Y-111505385D01*
X111418500Y-111412253D01*
X111573372Y-111348103D01*
X111737784Y-111315400D01*
X111905416Y-111315400D01*
X112069828Y-111348103D01*
X112069828Y-111348103D01*
G37*
G36*
X109569828Y-111348103D02*
X109724700Y-111412253D01*
X109864081Y-111505385D01*
X109982615Y-111623919D01*
X110075747Y-111763300D01*
X110139897Y-111918172D01*
X110172600Y-112082584D01*
X110172600Y-112250216D01*
X110139897Y-112414628D01*
X110075747Y-112569500D01*
X109982615Y-112708881D01*
X109864081Y-112827415D01*
X109724700Y-112920547D01*
X109569828Y-112984697D01*
X109405416Y-113017400D01*
X109237784Y-113017400D01*
X109073372Y-112984697D01*
X108918500Y-112920547D01*
X108779119Y-112827415D01*
X108660585Y-112708881D01*
X108567453Y-112569500D01*
X108503303Y-112414628D01*
X108470600Y-112250216D01*
X108470600Y-112082584D01*
X108503303Y-111918172D01*
X108567453Y-111763300D01*
X108660585Y-111623919D01*
X108779119Y-111505385D01*
X108918500Y-111412253D01*
X109073372Y-111348103D01*
X109237784Y-111315400D01*
X109405416Y-111315400D01*
X109569828Y-111348103D01*
X109569828Y-111348103D01*
G37*
G36*
X92856628Y-109051303D02*
X93011500Y-109115453D01*
X93150881Y-109208585D01*
X93269415Y-109327119D01*
X93362547Y-109466500D01*
X93426697Y-109621372D01*
X93459400Y-109785784D01*
X93459400Y-109953416D01*
X93426697Y-110117828D01*
X93362547Y-110272700D01*
X93269415Y-110412081D01*
X93150881Y-110530615D01*
X93011500Y-110623747D01*
X92856628Y-110687897D01*
X92692216Y-110720600D01*
X92524584Y-110720600D01*
X92360172Y-110687897D01*
X92205300Y-110623747D01*
X92065919Y-110530615D01*
X91947385Y-110412081D01*
X91854253Y-110272700D01*
X91790103Y-110117828D01*
X91757400Y-109953416D01*
X91757400Y-109785784D01*
X91790103Y-109621372D01*
X91854253Y-109466500D01*
X91947385Y-109327119D01*
X92065919Y-109208585D01*
X92205300Y-109115453D01*
X92360172Y-109051303D01*
X92524584Y-109018600D01*
X92692216Y-109018600D01*
X92856628Y-109051303D01*
X92856628Y-109051303D01*
G37*
G36*
X160046910Y-107156041D02*
X160170432Y-107168207D01*
X160368546Y-107228305D01*
X160551129Y-107325897D01*
X160711165Y-107457235D01*
X160842503Y-107617271D01*
X160940095Y-107799854D01*
X161000193Y-107997968D01*
X161020485Y-108204000D01*
X161000193Y-108410032D01*
X160940095Y-108608146D01*
X160842503Y-108790729D01*
X160711165Y-108950765D01*
X160551129Y-109082103D01*
X160368546Y-109179695D01*
X160170432Y-109239793D01*
X160046910Y-109251959D01*
X160016031Y-109255000D01*
X159312769Y-109255000D01*
X159281890Y-109251959D01*
X159158368Y-109239793D01*
X158960254Y-109179695D01*
X158777671Y-109082103D01*
X158617635Y-108950765D01*
X158486297Y-108790729D01*
X158388705Y-108608146D01*
X158328607Y-108410032D01*
X158308315Y-108204000D01*
X158328607Y-107997968D01*
X158388705Y-107799854D01*
X158486297Y-107617271D01*
X158617635Y-107457235D01*
X158777671Y-107325897D01*
X158960254Y-107228305D01*
X159158368Y-107168207D01*
X159281890Y-107156041D01*
X159312769Y-107153000D01*
X160016031Y-107153000D01*
X160046910Y-107156041D01*
X160046910Y-107156041D01*
G37*
G36*
X124728421Y-107365313D02*
X124728424Y-107365314D01*
X124728425Y-107365314D01*
X124888839Y-107413975D01*
X124888841Y-107413976D01*
X124888844Y-107413977D01*
X125036678Y-107492995D01*
X125166259Y-107599341D01*
X125272605Y-107728922D01*
X125351623Y-107876756D01*
X125351624Y-107876759D01*
X125351625Y-107876761D01*
X125400286Y-108037175D01*
X125400287Y-108037179D01*
X125416717Y-108204000D01*
X125400287Y-108370821D01*
X125400286Y-108370824D01*
X125400286Y-108370825D01*
X125353009Y-108526678D01*
X125351623Y-108531244D01*
X125272605Y-108679078D01*
X125166259Y-108808659D01*
X125036678Y-108915005D01*
X124888844Y-108994023D01*
X124888841Y-108994024D01*
X124888839Y-108994025D01*
X124728425Y-109042686D01*
X124728424Y-109042686D01*
X124728421Y-109042687D01*
X124603404Y-109055000D01*
X124519796Y-109055000D01*
X124394779Y-109042687D01*
X124394776Y-109042686D01*
X124394775Y-109042686D01*
X124234361Y-108994025D01*
X124234359Y-108994024D01*
X124234356Y-108994023D01*
X124086522Y-108915005D01*
X123956941Y-108808659D01*
X123850595Y-108679078D01*
X123771577Y-108531244D01*
X123770192Y-108526678D01*
X123722914Y-108370825D01*
X123722914Y-108370824D01*
X123722913Y-108370821D01*
X123706483Y-108204000D01*
X123722913Y-108037179D01*
X123722914Y-108037175D01*
X123771575Y-107876761D01*
X123771576Y-107876759D01*
X123771577Y-107876756D01*
X123850595Y-107728922D01*
X123956941Y-107599341D01*
X124086522Y-107492995D01*
X124234356Y-107413977D01*
X124234359Y-107413976D01*
X124234361Y-107413975D01*
X124394775Y-107365314D01*
X124394776Y-107365314D01*
X124394779Y-107365313D01*
X124519796Y-107353000D01*
X124603404Y-107353000D01*
X124728421Y-107365313D01*
X124728421Y-107365313D01*
G37*
G36*
X117189828Y-107385703D02*
X117344700Y-107449853D01*
X117484081Y-107542985D01*
X117602615Y-107661519D01*
X117695747Y-107800900D01*
X117759897Y-107955772D01*
X117792600Y-108120184D01*
X117792600Y-108287816D01*
X117759897Y-108452228D01*
X117695747Y-108607100D01*
X117602615Y-108746481D01*
X117484081Y-108865015D01*
X117344700Y-108958147D01*
X117189828Y-109022297D01*
X117025416Y-109055000D01*
X116857784Y-109055000D01*
X116693372Y-109022297D01*
X116538500Y-108958147D01*
X116399119Y-108865015D01*
X116280585Y-108746481D01*
X116187453Y-108607100D01*
X116123303Y-108452228D01*
X116090600Y-108287816D01*
X116090600Y-108120184D01*
X116123303Y-107955772D01*
X116187453Y-107800900D01*
X116280585Y-107661519D01*
X116399119Y-107542985D01*
X116538500Y-107449853D01*
X116693372Y-107385703D01*
X116857784Y-107353000D01*
X117025416Y-107353000D01*
X117189828Y-107385703D01*
X117189828Y-107385703D01*
G37*
G36*
X143264021Y-107212913D02*
X143264024Y-107212914D01*
X143264025Y-107212914D01*
X143424439Y-107261575D01*
X143424441Y-107261576D01*
X143424444Y-107261577D01*
X143572278Y-107340595D01*
X143701859Y-107446941D01*
X143808205Y-107576522D01*
X143887223Y-107724356D01*
X143887224Y-107724359D01*
X143887225Y-107724361D01*
X143933453Y-107876756D01*
X143935887Y-107884779D01*
X143952317Y-108051600D01*
X143935887Y-108218421D01*
X143887223Y-108378844D01*
X143808205Y-108526678D01*
X143701859Y-108656259D01*
X143572278Y-108762605D01*
X143424444Y-108841623D01*
X143424441Y-108841624D01*
X143424439Y-108841625D01*
X143264025Y-108890286D01*
X143264024Y-108890286D01*
X143264021Y-108890287D01*
X143139004Y-108902600D01*
X142255396Y-108902600D01*
X142130379Y-108890287D01*
X142130376Y-108890286D01*
X142130375Y-108890286D01*
X141969961Y-108841625D01*
X141969959Y-108841624D01*
X141969956Y-108841623D01*
X141822122Y-108762605D01*
X141692541Y-108656259D01*
X141586195Y-108526678D01*
X141507177Y-108378844D01*
X141458513Y-108218421D01*
X141442083Y-108051600D01*
X141458513Y-107884779D01*
X141460947Y-107876756D01*
X141507175Y-107724361D01*
X141507176Y-107724359D01*
X141507177Y-107724356D01*
X141586195Y-107576522D01*
X141692541Y-107446941D01*
X141822122Y-107340595D01*
X141969956Y-107261577D01*
X141969959Y-107261576D01*
X141969961Y-107261575D01*
X142130375Y-107212914D01*
X142130376Y-107212914D01*
X142130379Y-107212913D01*
X142255396Y-107200600D01*
X143139004Y-107200600D01*
X143264021Y-107212913D01*
X143264021Y-107212913D01*
G37*
G36*
X135644021Y-107212913D02*
X135644024Y-107212914D01*
X135644025Y-107212914D01*
X135804439Y-107261575D01*
X135804441Y-107261576D01*
X135804444Y-107261577D01*
X135952278Y-107340595D01*
X136081859Y-107446941D01*
X136188205Y-107576522D01*
X136267223Y-107724356D01*
X136267224Y-107724359D01*
X136267225Y-107724361D01*
X136313453Y-107876756D01*
X136315887Y-107884779D01*
X136332317Y-108051600D01*
X136315887Y-108218421D01*
X136267223Y-108378844D01*
X136188205Y-108526678D01*
X136081859Y-108656259D01*
X135952278Y-108762605D01*
X135804444Y-108841623D01*
X135804441Y-108841624D01*
X135804439Y-108841625D01*
X135644025Y-108890286D01*
X135644024Y-108890286D01*
X135644021Y-108890287D01*
X135519004Y-108902600D01*
X134635396Y-108902600D01*
X134510379Y-108890287D01*
X134510376Y-108890286D01*
X134510375Y-108890286D01*
X134349961Y-108841625D01*
X134349959Y-108841624D01*
X134349956Y-108841623D01*
X134202122Y-108762605D01*
X134072541Y-108656259D01*
X133966195Y-108526678D01*
X133887177Y-108378844D01*
X133838513Y-108218421D01*
X133822083Y-108051600D01*
X133838513Y-107884779D01*
X133840947Y-107876756D01*
X133887175Y-107724361D01*
X133887176Y-107724359D01*
X133887177Y-107724356D01*
X133966195Y-107576522D01*
X134072541Y-107446941D01*
X134202122Y-107340595D01*
X134349956Y-107261577D01*
X134349959Y-107261576D01*
X134349961Y-107261575D01*
X134510375Y-107212914D01*
X134510376Y-107212914D01*
X134510379Y-107212913D01*
X134635396Y-107200600D01*
X135519004Y-107200600D01*
X135644021Y-107212913D01*
X135644021Y-107212913D01*
G37*
G36*
X84852527Y-105321136D02*
X84952410Y-105341004D01*
X85234674Y-105457921D01*
X85488705Y-105627659D01*
X85704741Y-105843695D01*
X85874479Y-106097726D01*
X85991396Y-106379990D01*
X86008645Y-106466705D01*
X86043055Y-106639695D01*
X86051000Y-106679640D01*
X86051000Y-106985160D01*
X85991396Y-107284810D01*
X85874479Y-107567074D01*
X85704741Y-107821105D01*
X85488705Y-108037141D01*
X85234674Y-108206879D01*
X84952410Y-108323796D01*
X84852527Y-108343664D01*
X84652762Y-108383400D01*
X84347238Y-108383400D01*
X84147473Y-108343664D01*
X84047590Y-108323796D01*
X83765326Y-108206879D01*
X83511295Y-108037141D01*
X83295259Y-107821105D01*
X83125521Y-107567074D01*
X83008604Y-107284810D01*
X82949000Y-106985160D01*
X82949000Y-106679640D01*
X82956946Y-106639695D01*
X82991355Y-106466705D01*
X83008604Y-106379990D01*
X83125521Y-106097726D01*
X83295259Y-105843695D01*
X83511295Y-105627659D01*
X83765326Y-105457921D01*
X84047590Y-105341004D01*
X84147473Y-105321136D01*
X84347238Y-105281400D01*
X84652762Y-105281400D01*
X84852527Y-105321136D01*
X84852527Y-105321136D01*
G37*
G36*
X100719625Y-105895160D02*
X100719628Y-105895161D01*
X100719629Y-105895161D01*
X100898893Y-105949540D01*
X100898895Y-105949541D01*
X101064105Y-106037848D01*
X101208912Y-106156688D01*
X101327752Y-106301495D01*
X101416059Y-106466705D01*
X101470440Y-106645975D01*
X101488801Y-106832400D01*
X101470440Y-107018825D01*
X101470439Y-107018828D01*
X101470439Y-107018829D01*
X101425126Y-107168207D01*
X101416059Y-107198095D01*
X101327752Y-107363305D01*
X101208912Y-107508112D01*
X101064105Y-107626952D01*
X101064103Y-107626953D01*
X100898893Y-107715260D01*
X100719629Y-107769639D01*
X100719628Y-107769639D01*
X100719625Y-107769640D01*
X100579918Y-107783400D01*
X100486482Y-107783400D01*
X100346775Y-107769640D01*
X100346772Y-107769639D01*
X100346771Y-107769639D01*
X100167507Y-107715260D01*
X100002297Y-107626953D01*
X100002295Y-107626952D01*
X99857488Y-107508112D01*
X99738648Y-107363305D01*
X99650341Y-107198095D01*
X99641275Y-107168207D01*
X99595961Y-107018829D01*
X99595961Y-107018828D01*
X99595960Y-107018825D01*
X99577599Y-106832400D01*
X99595960Y-106645975D01*
X99650341Y-106466705D01*
X99738648Y-106301495D01*
X99857488Y-106156688D01*
X100002295Y-106037848D01*
X100167505Y-105949541D01*
X100167507Y-105949540D01*
X100346771Y-105895161D01*
X100346772Y-105895161D01*
X100346775Y-105895160D01*
X100486482Y-105881400D01*
X100579918Y-105881400D01*
X100719625Y-105895160D01*
X100719625Y-105895160D01*
G37*
G36*
X103259625Y-105895160D02*
X103259628Y-105895161D01*
X103259629Y-105895161D01*
X103438893Y-105949540D01*
X103438895Y-105949541D01*
X103604105Y-106037848D01*
X103748912Y-106156688D01*
X103867752Y-106301495D01*
X103956059Y-106466705D01*
X104010440Y-106645975D01*
X104028801Y-106832400D01*
X104010440Y-107018825D01*
X104010439Y-107018828D01*
X104010439Y-107018829D01*
X103965126Y-107168207D01*
X103956059Y-107198095D01*
X103867752Y-107363305D01*
X103748912Y-107508112D01*
X103604105Y-107626952D01*
X103604103Y-107626953D01*
X103438893Y-107715260D01*
X103259629Y-107769639D01*
X103259628Y-107769639D01*
X103259625Y-107769640D01*
X103119918Y-107783400D01*
X103026482Y-107783400D01*
X102886775Y-107769640D01*
X102886772Y-107769639D01*
X102886771Y-107769639D01*
X102707507Y-107715260D01*
X102542297Y-107626953D01*
X102542295Y-107626952D01*
X102397488Y-107508112D01*
X102278648Y-107363305D01*
X102190341Y-107198095D01*
X102181275Y-107168207D01*
X102135961Y-107018829D01*
X102135961Y-107018828D01*
X102135960Y-107018825D01*
X102117599Y-106832400D01*
X102135960Y-106645975D01*
X102190341Y-106466705D01*
X102278648Y-106301495D01*
X102397488Y-106156688D01*
X102542295Y-106037848D01*
X102707505Y-105949541D01*
X102707507Y-105949540D01*
X102886771Y-105895161D01*
X102886772Y-105895161D01*
X102886775Y-105895160D01*
X103026482Y-105881400D01*
X103119918Y-105881400D01*
X103259625Y-105895160D01*
X103259625Y-105895160D01*
G37*
G36*
X98944200Y-107783400D02*
X97042200Y-107783400D01*
X97042200Y-105881400D01*
X98944200Y-105881400D01*
X98944200Y-107783400D01*
X98944200Y-107783400D01*
G37*
G36*
X112069828Y-105201303D02*
X112224700Y-105265453D01*
X112364081Y-105358585D01*
X112482615Y-105477119D01*
X112575747Y-105616500D01*
X112639897Y-105771372D01*
X112672600Y-105935784D01*
X112672600Y-106103416D01*
X112639897Y-106267828D01*
X112575747Y-106422700D01*
X112482615Y-106562081D01*
X112364081Y-106680615D01*
X112224700Y-106773747D01*
X112069828Y-106837897D01*
X111905416Y-106870600D01*
X111737784Y-106870600D01*
X111573372Y-106837897D01*
X111418500Y-106773747D01*
X111279119Y-106680615D01*
X111160585Y-106562081D01*
X111067453Y-106422700D01*
X111003303Y-106267828D01*
X110970600Y-106103416D01*
X110970600Y-105935784D01*
X111003303Y-105771372D01*
X111067453Y-105616500D01*
X111160585Y-105477119D01*
X111279119Y-105358585D01*
X111418500Y-105265453D01*
X111573372Y-105201303D01*
X111737784Y-105168600D01*
X111905416Y-105168600D01*
X112069828Y-105201303D01*
X112069828Y-105201303D01*
G37*
G36*
X110172600Y-106870600D02*
X108470600Y-106870600D01*
X108470600Y-105168600D01*
X110172600Y-105168600D01*
X110172600Y-106870600D01*
X110172600Y-106870600D01*
G37*
G36*
X160046910Y-104616041D02*
X160170432Y-104628207D01*
X160368546Y-104688305D01*
X160551129Y-104785897D01*
X160711165Y-104917235D01*
X160842503Y-105077271D01*
X160940095Y-105259854D01*
X161000193Y-105457968D01*
X161020485Y-105664000D01*
X161000193Y-105870032D01*
X160940095Y-106068146D01*
X160842503Y-106250729D01*
X160711165Y-106410765D01*
X160551129Y-106542103D01*
X160368546Y-106639695D01*
X160170432Y-106699793D01*
X160046910Y-106711959D01*
X160016031Y-106715000D01*
X159312769Y-106715000D01*
X159281890Y-106711959D01*
X159158368Y-106699793D01*
X158960254Y-106639695D01*
X158777671Y-106542103D01*
X158617635Y-106410765D01*
X158486297Y-106250729D01*
X158388705Y-106068146D01*
X158328607Y-105870032D01*
X158308315Y-105664000D01*
X158328607Y-105457968D01*
X158388705Y-105259854D01*
X158486297Y-105077271D01*
X158617635Y-104917235D01*
X158777671Y-104785897D01*
X158960254Y-104688305D01*
X159158368Y-104628207D01*
X159281890Y-104616041D01*
X159312769Y-104613000D01*
X160016031Y-104613000D01*
X160046910Y-104616041D01*
X160046910Y-104616041D01*
G37*
G36*
X135644021Y-104672913D02*
X135644024Y-104672914D01*
X135644025Y-104672914D01*
X135804439Y-104721575D01*
X135804441Y-104721576D01*
X135804444Y-104721577D01*
X135952278Y-104800595D01*
X136081859Y-104906941D01*
X136188205Y-105036522D01*
X136267223Y-105184356D01*
X136267224Y-105184359D01*
X136267225Y-105184361D01*
X136291824Y-105265453D01*
X136315887Y-105344779D01*
X136332317Y-105511600D01*
X136315887Y-105678421D01*
X136315886Y-105678424D01*
X136315886Y-105678425D01*
X136287691Y-105771372D01*
X136267223Y-105838844D01*
X136188205Y-105986678D01*
X136081859Y-106116259D01*
X135952278Y-106222605D01*
X135804444Y-106301623D01*
X135804441Y-106301624D01*
X135804439Y-106301625D01*
X135644025Y-106350286D01*
X135644024Y-106350286D01*
X135644021Y-106350287D01*
X135519004Y-106362600D01*
X134635396Y-106362600D01*
X134510379Y-106350287D01*
X134510376Y-106350286D01*
X134510375Y-106350286D01*
X134349961Y-106301625D01*
X134349959Y-106301624D01*
X134349956Y-106301623D01*
X134202122Y-106222605D01*
X134072541Y-106116259D01*
X133966195Y-105986678D01*
X133887177Y-105838844D01*
X133866710Y-105771372D01*
X133838514Y-105678425D01*
X133838514Y-105678424D01*
X133838513Y-105678421D01*
X133822083Y-105511600D01*
X133838513Y-105344779D01*
X133862576Y-105265453D01*
X133887175Y-105184361D01*
X133887176Y-105184359D01*
X133887177Y-105184356D01*
X133966195Y-105036522D01*
X134072541Y-104906941D01*
X134202122Y-104800595D01*
X134349956Y-104721577D01*
X134349959Y-104721576D01*
X134349961Y-104721575D01*
X134510375Y-104672914D01*
X134510376Y-104672914D01*
X134510379Y-104672913D01*
X134635396Y-104660600D01*
X135519004Y-104660600D01*
X135644021Y-104672913D01*
X135644021Y-104672913D01*
G37*
G36*
X143264021Y-104672913D02*
X143264024Y-104672914D01*
X143264025Y-104672914D01*
X143424439Y-104721575D01*
X143424441Y-104721576D01*
X143424444Y-104721577D01*
X143572278Y-104800595D01*
X143701859Y-104906941D01*
X143808205Y-105036522D01*
X143887223Y-105184356D01*
X143887224Y-105184359D01*
X143887225Y-105184361D01*
X143911824Y-105265453D01*
X143935887Y-105344779D01*
X143952317Y-105511600D01*
X143935887Y-105678421D01*
X143935886Y-105678424D01*
X143935886Y-105678425D01*
X143907691Y-105771372D01*
X143887223Y-105838844D01*
X143808205Y-105986678D01*
X143701859Y-106116259D01*
X143572278Y-106222605D01*
X143424444Y-106301623D01*
X143424441Y-106301624D01*
X143424439Y-106301625D01*
X143264025Y-106350286D01*
X143264024Y-106350286D01*
X143264021Y-106350287D01*
X143139004Y-106362600D01*
X142255396Y-106362600D01*
X142130379Y-106350287D01*
X142130376Y-106350286D01*
X142130375Y-106350286D01*
X141969961Y-106301625D01*
X141969959Y-106301624D01*
X141969956Y-106301623D01*
X141822122Y-106222605D01*
X141692541Y-106116259D01*
X141586195Y-105986678D01*
X141507177Y-105838844D01*
X141486710Y-105771372D01*
X141458514Y-105678425D01*
X141458514Y-105678424D01*
X141458513Y-105678421D01*
X141442083Y-105511600D01*
X141458513Y-105344779D01*
X141482576Y-105265453D01*
X141507175Y-105184361D01*
X141507176Y-105184359D01*
X141507177Y-105184356D01*
X141586195Y-105036522D01*
X141692541Y-104906941D01*
X141822122Y-104800595D01*
X141969956Y-104721577D01*
X141969959Y-104721576D01*
X141969961Y-104721575D01*
X142130375Y-104672914D01*
X142130376Y-104672914D01*
X142130379Y-104672913D01*
X142255396Y-104660600D01*
X143139004Y-104660600D01*
X143264021Y-104672913D01*
X143264021Y-104672913D01*
G37*
G36*
X160046910Y-102076041D02*
X160170432Y-102088207D01*
X160368546Y-102148305D01*
X160551129Y-102245897D01*
X160711165Y-102377235D01*
X160842503Y-102537271D01*
X160940095Y-102719854D01*
X161000193Y-102917968D01*
X161020485Y-103124000D01*
X161000193Y-103330032D01*
X160940095Y-103528146D01*
X160842503Y-103710729D01*
X160711165Y-103870765D01*
X160551129Y-104002103D01*
X160368546Y-104099695D01*
X160170432Y-104159793D01*
X160046910Y-104171959D01*
X160016031Y-104175000D01*
X159312769Y-104175000D01*
X159281890Y-104171959D01*
X159158368Y-104159793D01*
X158960254Y-104099695D01*
X158777671Y-104002103D01*
X158617635Y-103870765D01*
X158486297Y-103710729D01*
X158388705Y-103528146D01*
X158328607Y-103330032D01*
X158308315Y-103124000D01*
X158328607Y-102917968D01*
X158388705Y-102719854D01*
X158486297Y-102537271D01*
X158617635Y-102377235D01*
X158777671Y-102245897D01*
X158960254Y-102148305D01*
X159158368Y-102088207D01*
X159281890Y-102076041D01*
X159312769Y-102073000D01*
X160016031Y-102073000D01*
X160046910Y-102076041D01*
X160046910Y-102076041D01*
G37*
G36*
X143264021Y-102132913D02*
X143264024Y-102132914D01*
X143264025Y-102132914D01*
X143424439Y-102181575D01*
X143424441Y-102181576D01*
X143424444Y-102181577D01*
X143572278Y-102260595D01*
X143701859Y-102366941D01*
X143808205Y-102496522D01*
X143887223Y-102644356D01*
X143887224Y-102644359D01*
X143887225Y-102644361D01*
X143934867Y-102801416D01*
X143935887Y-102804779D01*
X143952317Y-102971600D01*
X143935887Y-103138421D01*
X143887223Y-103298844D01*
X143808205Y-103446678D01*
X143701859Y-103576259D01*
X143572278Y-103682605D01*
X143424444Y-103761623D01*
X143424441Y-103761624D01*
X143424439Y-103761625D01*
X143264025Y-103810286D01*
X143264024Y-103810286D01*
X143264021Y-103810287D01*
X143139004Y-103822600D01*
X142255396Y-103822600D01*
X142130379Y-103810287D01*
X142130376Y-103810286D01*
X142130375Y-103810286D01*
X141969961Y-103761625D01*
X141969959Y-103761624D01*
X141969956Y-103761623D01*
X141822122Y-103682605D01*
X141692541Y-103576259D01*
X141586195Y-103446678D01*
X141507177Y-103298844D01*
X141458513Y-103138421D01*
X141442083Y-102971600D01*
X141458513Y-102804779D01*
X141459533Y-102801416D01*
X141507175Y-102644361D01*
X141507176Y-102644359D01*
X141507177Y-102644356D01*
X141586195Y-102496522D01*
X141692541Y-102366941D01*
X141822122Y-102260595D01*
X141969956Y-102181577D01*
X141969959Y-102181576D01*
X141969961Y-102181575D01*
X142130375Y-102132914D01*
X142130376Y-102132914D01*
X142130379Y-102132913D01*
X142255396Y-102120600D01*
X143139004Y-102120600D01*
X143264021Y-102132913D01*
X143264021Y-102132913D01*
G37*
G36*
X135644021Y-102132913D02*
X135644024Y-102132914D01*
X135644025Y-102132914D01*
X135804439Y-102181575D01*
X135804441Y-102181576D01*
X135804444Y-102181577D01*
X135952278Y-102260595D01*
X136081859Y-102366941D01*
X136188205Y-102496522D01*
X136267223Y-102644356D01*
X136267224Y-102644359D01*
X136267225Y-102644361D01*
X136314867Y-102801416D01*
X136315887Y-102804779D01*
X136332317Y-102971600D01*
X136315887Y-103138421D01*
X136267223Y-103298844D01*
X136188205Y-103446678D01*
X136081859Y-103576259D01*
X135952278Y-103682605D01*
X135804444Y-103761623D01*
X135804441Y-103761624D01*
X135804439Y-103761625D01*
X135644025Y-103810286D01*
X135644024Y-103810286D01*
X135644021Y-103810287D01*
X135519004Y-103822600D01*
X134635396Y-103822600D01*
X134510379Y-103810287D01*
X134510376Y-103810286D01*
X134510375Y-103810286D01*
X134349961Y-103761625D01*
X134349959Y-103761624D01*
X134349956Y-103761623D01*
X134202122Y-103682605D01*
X134072541Y-103576259D01*
X133966195Y-103446678D01*
X133887177Y-103298844D01*
X133838513Y-103138421D01*
X133822083Y-102971600D01*
X133838513Y-102804779D01*
X133839533Y-102801416D01*
X133887175Y-102644361D01*
X133887176Y-102644359D01*
X133887177Y-102644356D01*
X133966195Y-102496522D01*
X134072541Y-102366941D01*
X134202122Y-102260595D01*
X134349956Y-102181577D01*
X134349959Y-102181576D01*
X134349961Y-102181575D01*
X134510375Y-102132914D01*
X134510376Y-102132914D01*
X134510379Y-102132913D01*
X134635396Y-102120600D01*
X135519004Y-102120600D01*
X135644021Y-102132913D01*
X135644021Y-102132913D01*
G37*
G36*
X128873828Y-101899303D02*
X129028700Y-101963453D01*
X129168081Y-102056585D01*
X129286615Y-102175119D01*
X129379747Y-102314500D01*
X129443897Y-102469372D01*
X129476600Y-102633784D01*
X129476600Y-102801416D01*
X129443897Y-102965828D01*
X129379747Y-103120700D01*
X129286615Y-103260081D01*
X129168081Y-103378615D01*
X129028700Y-103471747D01*
X128873828Y-103535897D01*
X128709416Y-103568600D01*
X128541784Y-103568600D01*
X128377372Y-103535897D01*
X128222500Y-103471747D01*
X128083119Y-103378615D01*
X127964585Y-103260081D01*
X127871453Y-103120700D01*
X127807303Y-102965828D01*
X127774600Y-102801416D01*
X127774600Y-102633784D01*
X127807303Y-102469372D01*
X127871453Y-102314500D01*
X127964585Y-102175119D01*
X128083119Y-102056585D01*
X128222500Y-101963453D01*
X128377372Y-101899303D01*
X128541784Y-101866600D01*
X128709416Y-101866600D01*
X128873828Y-101899303D01*
X128873828Y-101899303D01*
G37*
G36*
X86051000Y-103303400D02*
X82949000Y-103303400D01*
X82949000Y-100201400D01*
X86051000Y-100201400D01*
X86051000Y-103303400D01*
X86051000Y-103303400D01*
G37*
G36*
X160046910Y-99536041D02*
X160170432Y-99548207D01*
X160368546Y-99608305D01*
X160551129Y-99705897D01*
X160711165Y-99837235D01*
X160842503Y-99997271D01*
X160940095Y-100179854D01*
X161000193Y-100377968D01*
X161020485Y-100584000D01*
X161000193Y-100790032D01*
X160940095Y-100988146D01*
X160842503Y-101170729D01*
X160711165Y-101330765D01*
X160551129Y-101462103D01*
X160368546Y-101559695D01*
X160170432Y-101619793D01*
X160046910Y-101631959D01*
X160016031Y-101635000D01*
X159312769Y-101635000D01*
X159281890Y-101631959D01*
X159158368Y-101619793D01*
X158960254Y-101559695D01*
X158777671Y-101462103D01*
X158617635Y-101330765D01*
X158486297Y-101170729D01*
X158388705Y-100988146D01*
X158328607Y-100790032D01*
X158308315Y-100584000D01*
X158328607Y-100377968D01*
X158388705Y-100179854D01*
X158486297Y-99997271D01*
X158617635Y-99837235D01*
X158777671Y-99705897D01*
X158960254Y-99608305D01*
X159158368Y-99548207D01*
X159281890Y-99536041D01*
X159312769Y-99533000D01*
X160016031Y-99533000D01*
X160046910Y-99536041D01*
X160046910Y-99536041D01*
G37*
G36*
X122407643Y-99712181D02*
X122553415Y-99772562D01*
X122684611Y-99860224D01*
X122796176Y-99971789D01*
X122883838Y-100102985D01*
X122944219Y-100248757D01*
X122975000Y-100403507D01*
X122975000Y-100561293D01*
X122944219Y-100716043D01*
X122883838Y-100861815D01*
X122796176Y-100993011D01*
X122684611Y-101104576D01*
X122553415Y-101192238D01*
X122407643Y-101252619D01*
X122252893Y-101283400D01*
X122095107Y-101283400D01*
X121940357Y-101252619D01*
X121794585Y-101192238D01*
X121663389Y-101104576D01*
X121551824Y-100993011D01*
X121464162Y-100861815D01*
X121403781Y-100716043D01*
X121373000Y-100561293D01*
X121373000Y-100403507D01*
X121403781Y-100248757D01*
X121464162Y-100102985D01*
X121551824Y-99971789D01*
X121663389Y-99860224D01*
X121794585Y-99772562D01*
X121940357Y-99712181D01*
X122095107Y-99681400D01*
X122252893Y-99681400D01*
X122407643Y-99712181D01*
X122407643Y-99712181D01*
G37*
G36*
X143264021Y-99592913D02*
X143264024Y-99592914D01*
X143264025Y-99592914D01*
X143424439Y-99641575D01*
X143424441Y-99641576D01*
X143424444Y-99641577D01*
X143572278Y-99720595D01*
X143701859Y-99826941D01*
X143808205Y-99956522D01*
X143887223Y-100104356D01*
X143887224Y-100104359D01*
X143887225Y-100104361D01*
X143916661Y-100201400D01*
X143935887Y-100264779D01*
X143952317Y-100431600D01*
X143935887Y-100598421D01*
X143935886Y-100598424D01*
X143935886Y-100598425D01*
X143893466Y-100738266D01*
X143887223Y-100758844D01*
X143808205Y-100906678D01*
X143701859Y-101036259D01*
X143572278Y-101142605D01*
X143424444Y-101221623D01*
X143424441Y-101221624D01*
X143424439Y-101221625D01*
X143264025Y-101270286D01*
X143264024Y-101270286D01*
X143264021Y-101270287D01*
X143139004Y-101282600D01*
X142255396Y-101282600D01*
X142130379Y-101270287D01*
X142130376Y-101270286D01*
X142130375Y-101270286D01*
X141969961Y-101221625D01*
X141969959Y-101221624D01*
X141969956Y-101221623D01*
X141822122Y-101142605D01*
X141692541Y-101036259D01*
X141586195Y-100906678D01*
X141507177Y-100758844D01*
X141500935Y-100738266D01*
X141458514Y-100598425D01*
X141458514Y-100598424D01*
X141458513Y-100598421D01*
X141442083Y-100431600D01*
X141458513Y-100264779D01*
X141477739Y-100201400D01*
X141507175Y-100104361D01*
X141507176Y-100104359D01*
X141507177Y-100104356D01*
X141586195Y-99956522D01*
X141692541Y-99826941D01*
X141822122Y-99720595D01*
X141969956Y-99641577D01*
X141969959Y-99641576D01*
X141969961Y-99641575D01*
X142130375Y-99592914D01*
X142130376Y-99592914D01*
X142130379Y-99592913D01*
X142255396Y-99580600D01*
X143139004Y-99580600D01*
X143264021Y-99592913D01*
X143264021Y-99592913D01*
G37*
G36*
X135644021Y-99592913D02*
X135644024Y-99592914D01*
X135644025Y-99592914D01*
X135804439Y-99641575D01*
X135804441Y-99641576D01*
X135804444Y-99641577D01*
X135952278Y-99720595D01*
X136081859Y-99826941D01*
X136188205Y-99956522D01*
X136267223Y-100104356D01*
X136267224Y-100104359D01*
X136267225Y-100104361D01*
X136296661Y-100201400D01*
X136315887Y-100264779D01*
X136332317Y-100431600D01*
X136315887Y-100598421D01*
X136315886Y-100598424D01*
X136315886Y-100598425D01*
X136273466Y-100738266D01*
X136267223Y-100758844D01*
X136188205Y-100906678D01*
X136081859Y-101036259D01*
X135952278Y-101142605D01*
X135804444Y-101221623D01*
X135804441Y-101221624D01*
X135804439Y-101221625D01*
X135644025Y-101270286D01*
X135644024Y-101270286D01*
X135644021Y-101270287D01*
X135519004Y-101282600D01*
X134635396Y-101282600D01*
X134510379Y-101270287D01*
X134510376Y-101270286D01*
X134510375Y-101270286D01*
X134349961Y-101221625D01*
X134349959Y-101221624D01*
X134349956Y-101221623D01*
X134202122Y-101142605D01*
X134072541Y-101036259D01*
X133966195Y-100906678D01*
X133887177Y-100758844D01*
X133880935Y-100738266D01*
X133838514Y-100598425D01*
X133838514Y-100598424D01*
X133838513Y-100598421D01*
X133822083Y-100431600D01*
X133838513Y-100264779D01*
X133857739Y-100201400D01*
X133887175Y-100104361D01*
X133887176Y-100104359D01*
X133887177Y-100104356D01*
X133966195Y-99956522D01*
X134072541Y-99826941D01*
X134202122Y-99720595D01*
X134349956Y-99641577D01*
X134349959Y-99641576D01*
X134349961Y-99641575D01*
X134510375Y-99592914D01*
X134510376Y-99592914D01*
X134510379Y-99592913D01*
X134635396Y-99580600D01*
X135519004Y-99580600D01*
X135644021Y-99592913D01*
X135644021Y-99592913D01*
G37*
G36*
X128873828Y-99399303D02*
X129028700Y-99463453D01*
X129168081Y-99556585D01*
X129286615Y-99675119D01*
X129379747Y-99814500D01*
X129443897Y-99969372D01*
X129476600Y-100133784D01*
X129476600Y-100301416D01*
X129443897Y-100465828D01*
X129379747Y-100620700D01*
X129286615Y-100760081D01*
X129168081Y-100878615D01*
X129028700Y-100971747D01*
X128873828Y-101035897D01*
X128709416Y-101068600D01*
X128541784Y-101068600D01*
X128377372Y-101035897D01*
X128222500Y-100971747D01*
X128083119Y-100878615D01*
X127964585Y-100760081D01*
X127871453Y-100620700D01*
X127807303Y-100465828D01*
X127774600Y-100301416D01*
X127774600Y-100133784D01*
X127807303Y-99969372D01*
X127871453Y-99814500D01*
X127964585Y-99675119D01*
X128083119Y-99556585D01*
X128222500Y-99463453D01*
X128377372Y-99399303D01*
X128541784Y-99366600D01*
X128709416Y-99366600D01*
X128873828Y-99399303D01*
X128873828Y-99399303D01*
G37*
G36*
X107974639Y-94423667D02*
X108288682Y-94486134D01*
X108880326Y-94731201D01*
X109280473Y-94998571D01*
X109412795Y-95086986D01*
X109865614Y-95539805D01*
X109865616Y-95539808D01*
X110221399Y-96072274D01*
X110466466Y-96663918D01*
X110466466Y-96663919D01*
X110591400Y-97292003D01*
X110591400Y-97932397D01*
X110534423Y-98218839D01*
X110466466Y-98560482D01*
X110221399Y-99152126D01*
X110013376Y-99463454D01*
X109865614Y-99684595D01*
X109412795Y-100137414D01*
X109412792Y-100137416D01*
X108880326Y-100493199D01*
X108288682Y-100738266D01*
X107974639Y-100800733D01*
X107660597Y-100863200D01*
X107020203Y-100863200D01*
X106706161Y-100800733D01*
X106392118Y-100738266D01*
X105800474Y-100493199D01*
X105268008Y-100137416D01*
X105268005Y-100137414D01*
X104815186Y-99684595D01*
X104667424Y-99463454D01*
X104459401Y-99152126D01*
X104214334Y-98560482D01*
X104146377Y-98218839D01*
X104089400Y-97932397D01*
X104089400Y-97292003D01*
X104214334Y-96663919D01*
X104214334Y-96663918D01*
X104459401Y-96072274D01*
X104815184Y-95539808D01*
X104815186Y-95539805D01*
X105268005Y-95086986D01*
X105400327Y-94998571D01*
X105800474Y-94731201D01*
X106392118Y-94486134D01*
X106706161Y-94423667D01*
X107020203Y-94361200D01*
X107660597Y-94361200D01*
X107974639Y-94423667D01*
X107974639Y-94423667D01*
G37*
G36*
X160046910Y-96996041D02*
X160170432Y-97008207D01*
X160368546Y-97068305D01*
X160551129Y-97165897D01*
X160711165Y-97297235D01*
X160842503Y-97457271D01*
X160940095Y-97639854D01*
X161000193Y-97837968D01*
X161020485Y-98044000D01*
X161000193Y-98250032D01*
X160940095Y-98448146D01*
X160842503Y-98630729D01*
X160711165Y-98790765D01*
X160551129Y-98922103D01*
X160368546Y-99019695D01*
X160170432Y-99079793D01*
X160046910Y-99091959D01*
X160016031Y-99095000D01*
X159312769Y-99095000D01*
X159281890Y-99091959D01*
X159158368Y-99079793D01*
X158960254Y-99019695D01*
X158777671Y-98922103D01*
X158617635Y-98790765D01*
X158486297Y-98630729D01*
X158388705Y-98448146D01*
X158328607Y-98250032D01*
X158308315Y-98044000D01*
X158328607Y-97837968D01*
X158388705Y-97639854D01*
X158486297Y-97457271D01*
X158617635Y-97297235D01*
X158777671Y-97165897D01*
X158960254Y-97068305D01*
X159158368Y-97008207D01*
X159281890Y-96996041D01*
X159312769Y-96993000D01*
X160016031Y-96993000D01*
X160046910Y-96996041D01*
X160046910Y-96996041D01*
G37*
G36*
X135644021Y-97052913D02*
X135644024Y-97052914D01*
X135644025Y-97052914D01*
X135804439Y-97101575D01*
X135804441Y-97101576D01*
X135804444Y-97101577D01*
X135952278Y-97180595D01*
X136081859Y-97286941D01*
X136188205Y-97416522D01*
X136267223Y-97564356D01*
X136267224Y-97564359D01*
X136267225Y-97564361D01*
X136295211Y-97656620D01*
X136315887Y-97724779D01*
X136332317Y-97891600D01*
X136315887Y-98058421D01*
X136315886Y-98058424D01*
X136315886Y-98058425D01*
X136314438Y-98063200D01*
X136267223Y-98218844D01*
X136188205Y-98366678D01*
X136081859Y-98496259D01*
X135952278Y-98602605D01*
X135804444Y-98681623D01*
X135804441Y-98681624D01*
X135804439Y-98681625D01*
X135644025Y-98730286D01*
X135644024Y-98730286D01*
X135644021Y-98730287D01*
X135519004Y-98742600D01*
X134635396Y-98742600D01*
X134510379Y-98730287D01*
X134510376Y-98730286D01*
X134510375Y-98730286D01*
X134349961Y-98681625D01*
X134349959Y-98681624D01*
X134349956Y-98681623D01*
X134202122Y-98602605D01*
X134072541Y-98496259D01*
X133966195Y-98366678D01*
X133887177Y-98218844D01*
X133839963Y-98063200D01*
X133838514Y-98058425D01*
X133838514Y-98058424D01*
X133838513Y-98058421D01*
X133822083Y-97891600D01*
X133838513Y-97724779D01*
X133859189Y-97656620D01*
X133887175Y-97564361D01*
X133887176Y-97564359D01*
X133887177Y-97564356D01*
X133966195Y-97416522D01*
X134072541Y-97286941D01*
X134202122Y-97180595D01*
X134349956Y-97101577D01*
X134349959Y-97101576D01*
X134349961Y-97101575D01*
X134510375Y-97052914D01*
X134510376Y-97052914D01*
X134510379Y-97052913D01*
X134635396Y-97040600D01*
X135519004Y-97040600D01*
X135644021Y-97052913D01*
X135644021Y-97052913D01*
G37*
G36*
X143264021Y-97052913D02*
X143264024Y-97052914D01*
X143264025Y-97052914D01*
X143424439Y-97101575D01*
X143424441Y-97101576D01*
X143424444Y-97101577D01*
X143572278Y-97180595D01*
X143701859Y-97286941D01*
X143808205Y-97416522D01*
X143887223Y-97564356D01*
X143887224Y-97564359D01*
X143887225Y-97564361D01*
X143915211Y-97656620D01*
X143935887Y-97724779D01*
X143952317Y-97891600D01*
X143935887Y-98058421D01*
X143935886Y-98058424D01*
X143935886Y-98058425D01*
X143934438Y-98063200D01*
X143887223Y-98218844D01*
X143808205Y-98366678D01*
X143701859Y-98496259D01*
X143572278Y-98602605D01*
X143424444Y-98681623D01*
X143424441Y-98681624D01*
X143424439Y-98681625D01*
X143264025Y-98730286D01*
X143264024Y-98730286D01*
X143264021Y-98730287D01*
X143139004Y-98742600D01*
X142255396Y-98742600D01*
X142130379Y-98730287D01*
X142130376Y-98730286D01*
X142130375Y-98730286D01*
X141969961Y-98681625D01*
X141969959Y-98681624D01*
X141969956Y-98681623D01*
X141822122Y-98602605D01*
X141692541Y-98496259D01*
X141586195Y-98366678D01*
X141507177Y-98218844D01*
X141459963Y-98063200D01*
X141458514Y-98058425D01*
X141458514Y-98058424D01*
X141458513Y-98058421D01*
X141442083Y-97891600D01*
X141458513Y-97724779D01*
X141479189Y-97656620D01*
X141507175Y-97564361D01*
X141507176Y-97564359D01*
X141507177Y-97564356D01*
X141586195Y-97416522D01*
X141692541Y-97286941D01*
X141822122Y-97180595D01*
X141969956Y-97101577D01*
X141969959Y-97101576D01*
X141969961Y-97101575D01*
X142130375Y-97052914D01*
X142130376Y-97052914D01*
X142130379Y-97052913D01*
X142255396Y-97040600D01*
X143139004Y-97040600D01*
X143264021Y-97052913D01*
X143264021Y-97052913D01*
G37*
G36*
X161015400Y-96555000D02*
X158313400Y-96555000D01*
X158313400Y-94453000D01*
X161015400Y-94453000D01*
X161015400Y-96555000D01*
X161015400Y-96555000D01*
G37*
G36*
X122407643Y-94832181D02*
X122553415Y-94892562D01*
X122684611Y-94980224D01*
X122796176Y-95091789D01*
X122883838Y-95222985D01*
X122944219Y-95368757D01*
X122975000Y-95523507D01*
X122975000Y-95681293D01*
X122944219Y-95836043D01*
X122883838Y-95981815D01*
X122796176Y-96113011D01*
X122684611Y-96224576D01*
X122553415Y-96312238D01*
X122407643Y-96372619D01*
X122252893Y-96403400D01*
X122095107Y-96403400D01*
X121940357Y-96372619D01*
X121794585Y-96312238D01*
X121663389Y-96224576D01*
X121551824Y-96113011D01*
X121464162Y-95981815D01*
X121403781Y-95836043D01*
X121373000Y-95681293D01*
X121373000Y-95523507D01*
X121403781Y-95368757D01*
X121464162Y-95222985D01*
X121551824Y-95091789D01*
X121663389Y-94980224D01*
X121794585Y-94892562D01*
X121940357Y-94832181D01*
X122095107Y-94801400D01*
X122252893Y-94801400D01*
X122407643Y-94832181D01*
X122407643Y-94832181D01*
G37*
G36*
X135644021Y-94512913D02*
X135644024Y-94512914D01*
X135644025Y-94512914D01*
X135804439Y-94561575D01*
X135804441Y-94561576D01*
X135804444Y-94561577D01*
X135952278Y-94640595D01*
X136081859Y-94746941D01*
X136188205Y-94876522D01*
X136267223Y-95024356D01*
X136267224Y-95024359D01*
X136267225Y-95024361D01*
X136315886Y-95184775D01*
X136315887Y-95184779D01*
X136332317Y-95351600D01*
X136315887Y-95518421D01*
X136315886Y-95518424D01*
X136315886Y-95518425D01*
X136277227Y-95645868D01*
X136267223Y-95678844D01*
X136188205Y-95826678D01*
X136081859Y-95956259D01*
X135952278Y-96062605D01*
X135804444Y-96141623D01*
X135804441Y-96141624D01*
X135804439Y-96141625D01*
X135644025Y-96190286D01*
X135644024Y-96190286D01*
X135644021Y-96190287D01*
X135519004Y-96202600D01*
X134635396Y-96202600D01*
X134510379Y-96190287D01*
X134510376Y-96190286D01*
X134510375Y-96190286D01*
X134349961Y-96141625D01*
X134349959Y-96141624D01*
X134349956Y-96141623D01*
X134202122Y-96062605D01*
X134072541Y-95956259D01*
X133966195Y-95826678D01*
X133887177Y-95678844D01*
X133877174Y-95645868D01*
X133838514Y-95518425D01*
X133838514Y-95518424D01*
X133838513Y-95518421D01*
X133822083Y-95351600D01*
X133838513Y-95184779D01*
X133838514Y-95184775D01*
X133887175Y-95024361D01*
X133887176Y-95024359D01*
X133887177Y-95024356D01*
X133966195Y-94876522D01*
X134072541Y-94746941D01*
X134202122Y-94640595D01*
X134349956Y-94561577D01*
X134349959Y-94561576D01*
X134349961Y-94561575D01*
X134510375Y-94512914D01*
X134510376Y-94512914D01*
X134510379Y-94512913D01*
X134635396Y-94500600D01*
X135519004Y-94500600D01*
X135644021Y-94512913D01*
X135644021Y-94512913D01*
G37*
G36*
X143264021Y-94512913D02*
X143264024Y-94512914D01*
X143264025Y-94512914D01*
X143424439Y-94561575D01*
X143424441Y-94561576D01*
X143424444Y-94561577D01*
X143572278Y-94640595D01*
X143701859Y-94746941D01*
X143808205Y-94876522D01*
X143887223Y-95024356D01*
X143887224Y-95024359D01*
X143887225Y-95024361D01*
X143935886Y-95184775D01*
X143935887Y-95184779D01*
X143952317Y-95351600D01*
X143935887Y-95518421D01*
X143935886Y-95518424D01*
X143935886Y-95518425D01*
X143897227Y-95645868D01*
X143887223Y-95678844D01*
X143808205Y-95826678D01*
X143701859Y-95956259D01*
X143572278Y-96062605D01*
X143424444Y-96141623D01*
X143424441Y-96141624D01*
X143424439Y-96141625D01*
X143264025Y-96190286D01*
X143264024Y-96190286D01*
X143264021Y-96190287D01*
X143139004Y-96202600D01*
X142255396Y-96202600D01*
X142130379Y-96190287D01*
X142130376Y-96190286D01*
X142130375Y-96190286D01*
X141969961Y-96141625D01*
X141969959Y-96141624D01*
X141969956Y-96141623D01*
X141822122Y-96062605D01*
X141692541Y-95956259D01*
X141586195Y-95826678D01*
X141507177Y-95678844D01*
X141497174Y-95645868D01*
X141458514Y-95518425D01*
X141458514Y-95518424D01*
X141458513Y-95518421D01*
X141442083Y-95351600D01*
X141458513Y-95184779D01*
X141458514Y-95184775D01*
X141507175Y-95024361D01*
X141507176Y-95024359D01*
X141507177Y-95024356D01*
X141586195Y-94876522D01*
X141692541Y-94746941D01*
X141822122Y-94640595D01*
X141969956Y-94561577D01*
X141969959Y-94561576D01*
X141969961Y-94561575D01*
X142130375Y-94512914D01*
X142130376Y-94512914D01*
X142130379Y-94512913D01*
X142255396Y-94500600D01*
X143139004Y-94500600D01*
X143264021Y-94512913D01*
X143264021Y-94512913D01*
G37*
G36*
X128873828Y-94391703D02*
X129028700Y-94455853D01*
X129168081Y-94548985D01*
X129286615Y-94667519D01*
X129379747Y-94806900D01*
X129443897Y-94961772D01*
X129476600Y-95126184D01*
X129476600Y-95293816D01*
X129443897Y-95458228D01*
X129379747Y-95613100D01*
X129286615Y-95752481D01*
X129168081Y-95871015D01*
X129028700Y-95964147D01*
X128873828Y-96028297D01*
X128709416Y-96061000D01*
X128541784Y-96061000D01*
X128377372Y-96028297D01*
X128222500Y-95964147D01*
X128083119Y-95871015D01*
X127964585Y-95752481D01*
X127871453Y-95613100D01*
X127807303Y-95458228D01*
X127774600Y-95293816D01*
X127774600Y-95126184D01*
X127807303Y-94961772D01*
X127871453Y-94806900D01*
X127964585Y-94667519D01*
X128083119Y-94548985D01*
X128222500Y-94455853D01*
X128377372Y-94391703D01*
X128541784Y-94359000D01*
X128709416Y-94359000D01*
X128873828Y-94391703D01*
X128873828Y-94391703D01*
G37*
G36*
X148381028Y-94126903D02*
X148535900Y-94191053D01*
X148675281Y-94284185D01*
X148793815Y-94402719D01*
X148886947Y-94542100D01*
X148951097Y-94696972D01*
X148983800Y-94861384D01*
X148983800Y-95029016D01*
X148951097Y-95193428D01*
X148886947Y-95348300D01*
X148793815Y-95487681D01*
X148675281Y-95606215D01*
X148535900Y-95699347D01*
X148381028Y-95763497D01*
X148216616Y-95796200D01*
X148048984Y-95796200D01*
X147884572Y-95763497D01*
X147729700Y-95699347D01*
X147590319Y-95606215D01*
X147471785Y-95487681D01*
X147378653Y-95348300D01*
X147314503Y-95193428D01*
X147281800Y-95029016D01*
X147281800Y-94861384D01*
X147314503Y-94696972D01*
X147378653Y-94542100D01*
X147471785Y-94402719D01*
X147590319Y-94284185D01*
X147729700Y-94191053D01*
X147884572Y-94126903D01*
X148048984Y-94094200D01*
X148216616Y-94094200D01*
X148381028Y-94126903D01*
X148381028Y-94126903D01*
G37*
G36*
X153101800Y-95139000D02*
X151799800Y-95139000D01*
X151799800Y-93837000D01*
X153101800Y-93837000D01*
X153101800Y-95139000D01*
X153101800Y-95139000D01*
G37*
G36*
X143264021Y-91972913D02*
X143264024Y-91972914D01*
X143264025Y-91972914D01*
X143424439Y-92021575D01*
X143424441Y-92021576D01*
X143424444Y-92021577D01*
X143572278Y-92100595D01*
X143701859Y-92206941D01*
X143808205Y-92336522D01*
X143887223Y-92484356D01*
X143887224Y-92484359D01*
X143887225Y-92484361D01*
X143907779Y-92552119D01*
X143935887Y-92644779D01*
X143952317Y-92811600D01*
X143935887Y-92978421D01*
X143935886Y-92978424D01*
X143935886Y-92978425D01*
X143895033Y-93113100D01*
X143887223Y-93138844D01*
X143808205Y-93286678D01*
X143701859Y-93416259D01*
X143572278Y-93522605D01*
X143424444Y-93601623D01*
X143424441Y-93601624D01*
X143424439Y-93601625D01*
X143264025Y-93650286D01*
X143264024Y-93650286D01*
X143264021Y-93650287D01*
X143139004Y-93662600D01*
X142255396Y-93662600D01*
X142130379Y-93650287D01*
X142130376Y-93650286D01*
X142130375Y-93650286D01*
X141969961Y-93601625D01*
X141969959Y-93601624D01*
X141969956Y-93601623D01*
X141822122Y-93522605D01*
X141692541Y-93416259D01*
X141586195Y-93286678D01*
X141507177Y-93138844D01*
X141499368Y-93113100D01*
X141458514Y-92978425D01*
X141458514Y-92978424D01*
X141458513Y-92978421D01*
X141442083Y-92811600D01*
X141458513Y-92644779D01*
X141486621Y-92552119D01*
X141507175Y-92484361D01*
X141507176Y-92484359D01*
X141507177Y-92484356D01*
X141586195Y-92336522D01*
X141692541Y-92206941D01*
X141822122Y-92100595D01*
X141969956Y-92021577D01*
X141969959Y-92021576D01*
X141969961Y-92021575D01*
X142130375Y-91972914D01*
X142130376Y-91972914D01*
X142130379Y-91972913D01*
X142255396Y-91960600D01*
X143139004Y-91960600D01*
X143264021Y-91972913D01*
X143264021Y-91972913D01*
G37*
G36*
X135644021Y-91972913D02*
X135644024Y-91972914D01*
X135644025Y-91972914D01*
X135804439Y-92021575D01*
X135804441Y-92021576D01*
X135804444Y-92021577D01*
X135952278Y-92100595D01*
X136081859Y-92206941D01*
X136188205Y-92336522D01*
X136267223Y-92484356D01*
X136267224Y-92484359D01*
X136267225Y-92484361D01*
X136287779Y-92552119D01*
X136315887Y-92644779D01*
X136332317Y-92811600D01*
X136315887Y-92978421D01*
X136315886Y-92978424D01*
X136315886Y-92978425D01*
X136275033Y-93113100D01*
X136267223Y-93138844D01*
X136188205Y-93286678D01*
X136081859Y-93416259D01*
X135952278Y-93522605D01*
X135804444Y-93601623D01*
X135804441Y-93601624D01*
X135804439Y-93601625D01*
X135644025Y-93650286D01*
X135644024Y-93650286D01*
X135644021Y-93650287D01*
X135519004Y-93662600D01*
X134635396Y-93662600D01*
X134510379Y-93650287D01*
X134510376Y-93650286D01*
X134510375Y-93650286D01*
X134349961Y-93601625D01*
X134349959Y-93601624D01*
X134349956Y-93601623D01*
X134202122Y-93522605D01*
X134072541Y-93416259D01*
X133966195Y-93286678D01*
X133887177Y-93138844D01*
X133879368Y-93113100D01*
X133838514Y-92978425D01*
X133838514Y-92978424D01*
X133838513Y-92978421D01*
X133822083Y-92811600D01*
X133838513Y-92644779D01*
X133866621Y-92552119D01*
X133887175Y-92484361D01*
X133887176Y-92484359D01*
X133887177Y-92484356D01*
X133966195Y-92336522D01*
X134072541Y-92206941D01*
X134202122Y-92100595D01*
X134349956Y-92021577D01*
X134349959Y-92021576D01*
X134349961Y-92021575D01*
X134510375Y-91972914D01*
X134510376Y-91972914D01*
X134510379Y-91972913D01*
X134635396Y-91960600D01*
X135519004Y-91960600D01*
X135644021Y-91972913D01*
X135644021Y-91972913D01*
G37*
G36*
X128873828Y-91891703D02*
X129028700Y-91955853D01*
X129168081Y-92048985D01*
X129286615Y-92167519D01*
X129379747Y-92306900D01*
X129443897Y-92461772D01*
X129476600Y-92626184D01*
X129476600Y-92793816D01*
X129443897Y-92958228D01*
X129379747Y-93113100D01*
X129286615Y-93252481D01*
X129168081Y-93371015D01*
X129028700Y-93464147D01*
X128873828Y-93528297D01*
X128709416Y-93561000D01*
X128541784Y-93561000D01*
X128377372Y-93528297D01*
X128222500Y-93464147D01*
X128083119Y-93371015D01*
X127964585Y-93252481D01*
X127871453Y-93113100D01*
X127807303Y-92958228D01*
X127774600Y-92793816D01*
X127774600Y-92626184D01*
X127807303Y-92461772D01*
X127871453Y-92306900D01*
X127964585Y-92167519D01*
X128083119Y-92048985D01*
X128222500Y-91955853D01*
X128377372Y-91891703D01*
X128541784Y-91859000D01*
X128709416Y-91859000D01*
X128873828Y-91891703D01*
X128873828Y-91891703D01*
G37*
G36*
X148381028Y-91626903D02*
X148535900Y-91691053D01*
X148675281Y-91784185D01*
X148793815Y-91902719D01*
X148886947Y-92042100D01*
X148951097Y-92196972D01*
X148983800Y-92361384D01*
X148983800Y-92529016D01*
X148951097Y-92693428D01*
X148886947Y-92848300D01*
X148793815Y-92987681D01*
X148675281Y-93106215D01*
X148535900Y-93199347D01*
X148381028Y-93263497D01*
X148216616Y-93296200D01*
X148048984Y-93296200D01*
X147884572Y-93263497D01*
X147729700Y-93199347D01*
X147590319Y-93106215D01*
X147471785Y-92987681D01*
X147378653Y-92848300D01*
X147314503Y-92693428D01*
X147281800Y-92529016D01*
X147281800Y-92361384D01*
X147314503Y-92196972D01*
X147378653Y-92042100D01*
X147471785Y-91902719D01*
X147590319Y-91784185D01*
X147729700Y-91691053D01*
X147884572Y-91626903D01*
X148048984Y-91594200D01*
X148216616Y-91594200D01*
X148381028Y-91626903D01*
X148381028Y-91626903D01*
G37*
G36*
X152640690Y-91862017D02*
X152759161Y-91911089D01*
X152759164Y-91911091D01*
X152851689Y-91972914D01*
X152865792Y-91982338D01*
X152956462Y-92073008D01*
X153027711Y-92179639D01*
X153076783Y-92298110D01*
X153101800Y-92423881D01*
X153101800Y-92552119D01*
X153076783Y-92677890D01*
X153027711Y-92796361D01*
X152956462Y-92902992D01*
X152865792Y-92993662D01*
X152759161Y-93064911D01*
X152640690Y-93113983D01*
X152514919Y-93139000D01*
X152386681Y-93139000D01*
X152260910Y-93113983D01*
X152142439Y-93064911D01*
X152035808Y-92993662D01*
X151945138Y-92902992D01*
X151873889Y-92796361D01*
X151824817Y-92677890D01*
X151799800Y-92552119D01*
X151799800Y-92423881D01*
X151824817Y-92298110D01*
X151873889Y-92179639D01*
X151945138Y-92073008D01*
X152035808Y-91982338D01*
X152049912Y-91972914D01*
X152142436Y-91911091D01*
X152142439Y-91911089D01*
X152260910Y-91862017D01*
X152386681Y-91837000D01*
X152514919Y-91837000D01*
X152640690Y-91862017D01*
X152640690Y-91862017D01*
G37*
G36*
X102124996Y-89403546D02*
X102298066Y-89475234D01*
X102453830Y-89579312D01*
X102586288Y-89711770D01*
X102690366Y-89867534D01*
X102762054Y-90040604D01*
X102798600Y-90224333D01*
X102798600Y-90411667D01*
X102762054Y-90595396D01*
X102690366Y-90768466D01*
X102586288Y-90924230D01*
X102453830Y-91056688D01*
X102298066Y-91160766D01*
X102124996Y-91232454D01*
X101941267Y-91269000D01*
X101753933Y-91269000D01*
X101570204Y-91232454D01*
X101397134Y-91160766D01*
X101241370Y-91056688D01*
X101108912Y-90924230D01*
X101004834Y-90768466D01*
X100933146Y-90595396D01*
X100896600Y-90411667D01*
X100896600Y-90224333D01*
X100933146Y-90040604D01*
X101004834Y-89867534D01*
X101108912Y-89711770D01*
X101241370Y-89579312D01*
X101397134Y-89475234D01*
X101570204Y-89403546D01*
X101753933Y-89367000D01*
X101941267Y-89367000D01*
X102124996Y-89403546D01*
X102124996Y-89403546D01*
G37*
G36*
X100258600Y-91269000D02*
X98356600Y-91269000D01*
X98356600Y-89367000D01*
X100258600Y-89367000D01*
X100258600Y-91269000D01*
X100258600Y-91269000D01*
G37*
G36*
X143264021Y-89432913D02*
X143264024Y-89432914D01*
X143264025Y-89432914D01*
X143424439Y-89481575D01*
X143424441Y-89481576D01*
X143424444Y-89481577D01*
X143572278Y-89560595D01*
X143701859Y-89666941D01*
X143808205Y-89796522D01*
X143887223Y-89944356D01*
X143887224Y-89944359D01*
X143887225Y-89944361D01*
X143935311Y-90102881D01*
X143935887Y-90104779D01*
X143952317Y-90271600D01*
X143935887Y-90438421D01*
X143935886Y-90438424D01*
X143935886Y-90438425D01*
X143923185Y-90480296D01*
X143887223Y-90598844D01*
X143808205Y-90746678D01*
X143701859Y-90876259D01*
X143572278Y-90982605D01*
X143424444Y-91061623D01*
X143424441Y-91061624D01*
X143424439Y-91061625D01*
X143264025Y-91110286D01*
X143264024Y-91110286D01*
X143264021Y-91110287D01*
X143139004Y-91122600D01*
X142255396Y-91122600D01*
X142130379Y-91110287D01*
X142130376Y-91110286D01*
X142130375Y-91110286D01*
X141969961Y-91061625D01*
X141969959Y-91061624D01*
X141969956Y-91061623D01*
X141822122Y-90982605D01*
X141692541Y-90876259D01*
X141586195Y-90746678D01*
X141507177Y-90598844D01*
X141471216Y-90480296D01*
X141458514Y-90438425D01*
X141458514Y-90438424D01*
X141458513Y-90438421D01*
X141442083Y-90271600D01*
X141458513Y-90104779D01*
X141459089Y-90102881D01*
X141507175Y-89944361D01*
X141507176Y-89944359D01*
X141507177Y-89944356D01*
X141586195Y-89796522D01*
X141692541Y-89666941D01*
X141822122Y-89560595D01*
X141969956Y-89481577D01*
X141969959Y-89481576D01*
X141969961Y-89481575D01*
X142130375Y-89432914D01*
X142130376Y-89432914D01*
X142130379Y-89432913D01*
X142255396Y-89420600D01*
X143139004Y-89420600D01*
X143264021Y-89432913D01*
X143264021Y-89432913D01*
G37*
G36*
X135644021Y-89432913D02*
X135644024Y-89432914D01*
X135644025Y-89432914D01*
X135804439Y-89481575D01*
X135804441Y-89481576D01*
X135804444Y-89481577D01*
X135952278Y-89560595D01*
X136081859Y-89666941D01*
X136188205Y-89796522D01*
X136267223Y-89944356D01*
X136267224Y-89944359D01*
X136267225Y-89944361D01*
X136315311Y-90102881D01*
X136315887Y-90104779D01*
X136332317Y-90271600D01*
X136315887Y-90438421D01*
X136315886Y-90438424D01*
X136315886Y-90438425D01*
X136303185Y-90480296D01*
X136267223Y-90598844D01*
X136188205Y-90746678D01*
X136081859Y-90876259D01*
X135952278Y-90982605D01*
X135804444Y-91061623D01*
X135804441Y-91061624D01*
X135804439Y-91061625D01*
X135644025Y-91110286D01*
X135644024Y-91110286D01*
X135644021Y-91110287D01*
X135519004Y-91122600D01*
X134635396Y-91122600D01*
X134510379Y-91110287D01*
X134510376Y-91110286D01*
X134510375Y-91110286D01*
X134349961Y-91061625D01*
X134349959Y-91061624D01*
X134349956Y-91061623D01*
X134202122Y-90982605D01*
X134072541Y-90876259D01*
X133966195Y-90746678D01*
X133887177Y-90598844D01*
X133851216Y-90480296D01*
X133838514Y-90438425D01*
X133838514Y-90438424D01*
X133838513Y-90438421D01*
X133822083Y-90271600D01*
X133838513Y-90104779D01*
X133839089Y-90102881D01*
X133887175Y-89944361D01*
X133887176Y-89944359D01*
X133887177Y-89944356D01*
X133966195Y-89796522D01*
X134072541Y-89666941D01*
X134202122Y-89560595D01*
X134349956Y-89481577D01*
X134349959Y-89481576D01*
X134349961Y-89481575D01*
X134510375Y-89432914D01*
X134510376Y-89432914D01*
X134510379Y-89432913D01*
X134635396Y-89420600D01*
X135519004Y-89420600D01*
X135644021Y-89432913D01*
X135644021Y-89432913D01*
G37*
G36*
X116094421Y-88823313D02*
X116094424Y-88823314D01*
X116094425Y-88823314D01*
X116254839Y-88871975D01*
X116254841Y-88871976D01*
X116254844Y-88871977D01*
X116402678Y-88950995D01*
X116532259Y-89057341D01*
X116638605Y-89186922D01*
X116717623Y-89334756D01*
X116717624Y-89334759D01*
X116717625Y-89334761D01*
X116743664Y-89420600D01*
X116766287Y-89495179D01*
X116782717Y-89662000D01*
X116766287Y-89828821D01*
X116766286Y-89828824D01*
X116766286Y-89828825D01*
X116725433Y-89963500D01*
X116717623Y-89989244D01*
X116638605Y-90137078D01*
X116532259Y-90266659D01*
X116402678Y-90373005D01*
X116254844Y-90452023D01*
X116254841Y-90452024D01*
X116254839Y-90452025D01*
X116094425Y-90500686D01*
X116094424Y-90500686D01*
X116094421Y-90500687D01*
X115969404Y-90513000D01*
X115885796Y-90513000D01*
X115760779Y-90500687D01*
X115760776Y-90500686D01*
X115760775Y-90500686D01*
X115600361Y-90452025D01*
X115600359Y-90452024D01*
X115600356Y-90452023D01*
X115452522Y-90373005D01*
X115322941Y-90266659D01*
X115216595Y-90137078D01*
X115137577Y-89989244D01*
X115129768Y-89963500D01*
X115088914Y-89828825D01*
X115088914Y-89828824D01*
X115088913Y-89828821D01*
X115072483Y-89662000D01*
X115088913Y-89495179D01*
X115111536Y-89420600D01*
X115137575Y-89334761D01*
X115137576Y-89334759D01*
X115137577Y-89334756D01*
X115216595Y-89186922D01*
X115322941Y-89057341D01*
X115452522Y-88950995D01*
X115600356Y-88871977D01*
X115600359Y-88871976D01*
X115600361Y-88871975D01*
X115760775Y-88823314D01*
X115760776Y-88823314D01*
X115760779Y-88823313D01*
X115885796Y-88811000D01*
X115969404Y-88811000D01*
X116094421Y-88823313D01*
X116094421Y-88823313D01*
G37*
G36*
X108555828Y-88843703D02*
X108710700Y-88907853D01*
X108850081Y-89000985D01*
X108968615Y-89119519D01*
X109061747Y-89258900D01*
X109125897Y-89413772D01*
X109158600Y-89578184D01*
X109158600Y-89745816D01*
X109125897Y-89910228D01*
X109061747Y-90065100D01*
X108968615Y-90204481D01*
X108850081Y-90323015D01*
X108710700Y-90416147D01*
X108555828Y-90480297D01*
X108391416Y-90513000D01*
X108223784Y-90513000D01*
X108059372Y-90480297D01*
X107904500Y-90416147D01*
X107765119Y-90323015D01*
X107646585Y-90204481D01*
X107553453Y-90065100D01*
X107489303Y-89910228D01*
X107456600Y-89745816D01*
X107456600Y-89578184D01*
X107489303Y-89413772D01*
X107553453Y-89258900D01*
X107646585Y-89119519D01*
X107765119Y-89000985D01*
X107904500Y-88907853D01*
X108059372Y-88843703D01*
X108223784Y-88811000D01*
X108391416Y-88811000D01*
X108555828Y-88843703D01*
X108555828Y-88843703D01*
G37*
G36*
X128873828Y-88742103D02*
X129028700Y-88806253D01*
X129168081Y-88899385D01*
X129286615Y-89017919D01*
X129379747Y-89157300D01*
X129443897Y-89312172D01*
X129476600Y-89476584D01*
X129476600Y-89644216D01*
X129443897Y-89808628D01*
X129379747Y-89963500D01*
X129286615Y-90102881D01*
X129168081Y-90221415D01*
X129028700Y-90314547D01*
X128873828Y-90378697D01*
X128709416Y-90411400D01*
X128541784Y-90411400D01*
X128377372Y-90378697D01*
X128222500Y-90314547D01*
X128083119Y-90221415D01*
X127964585Y-90102881D01*
X127871453Y-89963500D01*
X127807303Y-89808628D01*
X127774600Y-89644216D01*
X127774600Y-89476584D01*
X127807303Y-89312172D01*
X127871453Y-89157300D01*
X127964585Y-89017919D01*
X128083119Y-88899385D01*
X128222500Y-88806253D01*
X128377372Y-88742103D01*
X128541784Y-88709400D01*
X128709416Y-88709400D01*
X128873828Y-88742103D01*
X128873828Y-88742103D01*
G37*
G36*
X124907800Y-90211400D02*
X123605800Y-90211400D01*
X123605800Y-88909400D01*
X124907800Y-88909400D01*
X124907800Y-90211400D01*
X124907800Y-90211400D01*
G37*
G36*
X135644021Y-86892913D02*
X135644024Y-86892914D01*
X135644025Y-86892914D01*
X135804439Y-86941575D01*
X135804441Y-86941576D01*
X135804444Y-86941577D01*
X135952278Y-87020595D01*
X136081859Y-87126941D01*
X136188205Y-87256522D01*
X136267223Y-87404356D01*
X136267224Y-87404359D01*
X136267225Y-87404361D01*
X136315886Y-87564775D01*
X136315887Y-87564779D01*
X136332317Y-87731600D01*
X136315887Y-87898421D01*
X136315886Y-87898424D01*
X136315886Y-87898425D01*
X136292540Y-87975388D01*
X136267223Y-88058844D01*
X136188205Y-88206678D01*
X136081859Y-88336259D01*
X135952278Y-88442605D01*
X135804444Y-88521623D01*
X135804441Y-88521624D01*
X135804439Y-88521625D01*
X135644025Y-88570286D01*
X135644024Y-88570286D01*
X135644021Y-88570287D01*
X135519004Y-88582600D01*
X134635396Y-88582600D01*
X134510379Y-88570287D01*
X134510376Y-88570286D01*
X134510375Y-88570286D01*
X134349961Y-88521625D01*
X134349959Y-88521624D01*
X134349956Y-88521623D01*
X134202122Y-88442605D01*
X134072541Y-88336259D01*
X133966195Y-88206678D01*
X133887177Y-88058844D01*
X133861861Y-87975388D01*
X133838514Y-87898425D01*
X133838514Y-87898424D01*
X133838513Y-87898421D01*
X133822083Y-87731600D01*
X133838513Y-87564779D01*
X133838514Y-87564775D01*
X133887175Y-87404361D01*
X133887176Y-87404359D01*
X133887177Y-87404356D01*
X133966195Y-87256522D01*
X134072541Y-87126941D01*
X134202122Y-87020595D01*
X134349956Y-86941577D01*
X134349959Y-86941576D01*
X134349961Y-86941575D01*
X134510375Y-86892914D01*
X134510376Y-86892914D01*
X134510379Y-86892913D01*
X134635396Y-86880600D01*
X135519004Y-86880600D01*
X135644021Y-86892913D01*
X135644021Y-86892913D01*
G37*
G36*
X143264021Y-86892913D02*
X143264024Y-86892914D01*
X143264025Y-86892914D01*
X143424439Y-86941575D01*
X143424441Y-86941576D01*
X143424444Y-86941577D01*
X143572278Y-87020595D01*
X143701859Y-87126941D01*
X143808205Y-87256522D01*
X143887223Y-87404356D01*
X143887224Y-87404359D01*
X143887225Y-87404361D01*
X143935886Y-87564775D01*
X143935887Y-87564779D01*
X143952317Y-87731600D01*
X143935887Y-87898421D01*
X143935886Y-87898424D01*
X143935886Y-87898425D01*
X143912540Y-87975388D01*
X143887223Y-88058844D01*
X143808205Y-88206678D01*
X143701859Y-88336259D01*
X143572278Y-88442605D01*
X143424444Y-88521623D01*
X143424441Y-88521624D01*
X143424439Y-88521625D01*
X143264025Y-88570286D01*
X143264024Y-88570286D01*
X143264021Y-88570287D01*
X143139004Y-88582600D01*
X142255396Y-88582600D01*
X142130379Y-88570287D01*
X142130376Y-88570286D01*
X142130375Y-88570286D01*
X141969961Y-88521625D01*
X141969959Y-88521624D01*
X141969956Y-88521623D01*
X141822122Y-88442605D01*
X141692541Y-88336259D01*
X141586195Y-88206678D01*
X141507177Y-88058844D01*
X141481861Y-87975388D01*
X141458514Y-87898425D01*
X141458514Y-87898424D01*
X141458513Y-87898421D01*
X141442083Y-87731600D01*
X141458513Y-87564779D01*
X141458514Y-87564775D01*
X141507175Y-87404361D01*
X141507176Y-87404359D01*
X141507177Y-87404356D01*
X141586195Y-87256522D01*
X141692541Y-87126941D01*
X141822122Y-87020595D01*
X141969956Y-86941577D01*
X141969959Y-86941576D01*
X141969961Y-86941575D01*
X142130375Y-86892914D01*
X142130376Y-86892914D01*
X142130379Y-86892913D01*
X142255396Y-86880600D01*
X143139004Y-86880600D01*
X143264021Y-86892913D01*
X143264021Y-86892913D01*
G37*
G36*
X124446690Y-86934417D02*
X124565161Y-86983489D01*
X124671792Y-87054738D01*
X124762462Y-87145408D01*
X124833711Y-87252039D01*
X124882783Y-87370510D01*
X124907800Y-87496281D01*
X124907800Y-87624519D01*
X124882783Y-87750290D01*
X124833711Y-87868761D01*
X124762462Y-87975392D01*
X124671792Y-88066062D01*
X124565161Y-88137311D01*
X124446690Y-88186383D01*
X124320919Y-88211400D01*
X124192681Y-88211400D01*
X124066910Y-88186383D01*
X123948439Y-88137311D01*
X123841808Y-88066062D01*
X123751138Y-87975392D01*
X123679889Y-87868761D01*
X123630817Y-87750290D01*
X123605800Y-87624519D01*
X123605800Y-87496281D01*
X123630817Y-87370510D01*
X123679889Y-87252039D01*
X123751138Y-87145408D01*
X123841808Y-87054738D01*
X123948439Y-86983489D01*
X124066910Y-86934417D01*
X124192681Y-86909400D01*
X124320919Y-86909400D01*
X124446690Y-86934417D01*
X124446690Y-86934417D01*
G37*
G36*
X128873828Y-86242103D02*
X129028700Y-86306253D01*
X129168081Y-86399385D01*
X129286615Y-86517919D01*
X129379747Y-86657300D01*
X129443897Y-86812172D01*
X129476600Y-86976584D01*
X129476600Y-87144216D01*
X129443897Y-87308628D01*
X129379747Y-87463500D01*
X129286615Y-87602881D01*
X129168081Y-87721415D01*
X129028700Y-87814547D01*
X128873828Y-87878697D01*
X128709416Y-87911400D01*
X128541784Y-87911400D01*
X128377372Y-87878697D01*
X128222500Y-87814547D01*
X128083119Y-87721415D01*
X127964585Y-87602881D01*
X127871453Y-87463500D01*
X127807303Y-87308628D01*
X127774600Y-87144216D01*
X127774600Y-86976584D01*
X127807303Y-86812172D01*
X127871453Y-86657300D01*
X127964585Y-86517919D01*
X128083119Y-86399385D01*
X128222500Y-86306253D01*
X128377372Y-86242103D01*
X128541784Y-86209400D01*
X128709416Y-86209400D01*
X128873828Y-86242103D01*
X128873828Y-86242103D01*
G37*
G36*
X159384628Y-85871303D02*
X159539500Y-85935453D01*
X159678881Y-86028585D01*
X159797415Y-86147119D01*
X159890547Y-86286500D01*
X159954697Y-86441372D01*
X159987400Y-86605784D01*
X159987400Y-86773416D01*
X159954697Y-86937828D01*
X159890547Y-87092700D01*
X159797415Y-87232081D01*
X159678881Y-87350615D01*
X159539500Y-87443747D01*
X159384628Y-87507897D01*
X159220216Y-87540600D01*
X159052584Y-87540600D01*
X158888172Y-87507897D01*
X158733300Y-87443747D01*
X158593919Y-87350615D01*
X158475385Y-87232081D01*
X158382253Y-87092700D01*
X158318103Y-86937828D01*
X158285400Y-86773416D01*
X158285400Y-86605784D01*
X158318103Y-86441372D01*
X158382253Y-86286500D01*
X158475385Y-86147119D01*
X158593919Y-86028585D01*
X158733300Y-85935453D01*
X158888172Y-85871303D01*
X159052584Y-85838600D01*
X159220216Y-85838600D01*
X159384628Y-85871303D01*
X159384628Y-85871303D01*
G37*
G36*
X154384628Y-85871303D02*
X154539500Y-85935453D01*
X154678881Y-86028585D01*
X154797415Y-86147119D01*
X154890547Y-86286500D01*
X154954697Y-86441372D01*
X154987400Y-86605784D01*
X154987400Y-86773416D01*
X154954697Y-86937828D01*
X154890547Y-87092700D01*
X154797415Y-87232081D01*
X154678881Y-87350615D01*
X154539500Y-87443747D01*
X154384628Y-87507897D01*
X154220216Y-87540600D01*
X154052584Y-87540600D01*
X153888172Y-87507897D01*
X153733300Y-87443747D01*
X153593919Y-87350615D01*
X153475385Y-87232081D01*
X153382253Y-87092700D01*
X153318103Y-86937828D01*
X153285400Y-86773416D01*
X153285400Y-86605784D01*
X153318103Y-86441372D01*
X153382253Y-86286500D01*
X153475385Y-86147119D01*
X153593919Y-86028585D01*
X153733300Y-85935453D01*
X153888172Y-85871303D01*
X154052584Y-85838600D01*
X154220216Y-85838600D01*
X154384628Y-85871303D01*
X154384628Y-85871303D01*
G37*
G36*
X164384628Y-85871303D02*
X164539500Y-85935453D01*
X164678881Y-86028585D01*
X164797415Y-86147119D01*
X164890547Y-86286500D01*
X164954697Y-86441372D01*
X164987400Y-86605784D01*
X164987400Y-86773416D01*
X164954697Y-86937828D01*
X164890547Y-87092700D01*
X164797415Y-87232081D01*
X164678881Y-87350615D01*
X164539500Y-87443747D01*
X164384628Y-87507897D01*
X164220216Y-87540600D01*
X164052584Y-87540600D01*
X163888172Y-87507897D01*
X163733300Y-87443747D01*
X163593919Y-87350615D01*
X163475385Y-87232081D01*
X163382253Y-87092700D01*
X163318103Y-86937828D01*
X163285400Y-86773416D01*
X163285400Y-86605784D01*
X163318103Y-86441372D01*
X163382253Y-86286500D01*
X163475385Y-86147119D01*
X163593919Y-86028585D01*
X163733300Y-85935453D01*
X163888172Y-85871303D01*
X164052584Y-85838600D01*
X164220216Y-85838600D01*
X164384628Y-85871303D01*
X164384628Y-85871303D01*
G37*
G36*
X149384628Y-85871303D02*
X149539500Y-85935453D01*
X149678881Y-86028585D01*
X149797415Y-86147119D01*
X149890547Y-86286500D01*
X149954697Y-86441372D01*
X149987400Y-86605784D01*
X149987400Y-86773416D01*
X149954697Y-86937828D01*
X149890547Y-87092700D01*
X149797415Y-87232081D01*
X149678881Y-87350615D01*
X149539500Y-87443747D01*
X149384628Y-87507897D01*
X149220216Y-87540600D01*
X149052584Y-87540600D01*
X148888172Y-87507897D01*
X148733300Y-87443747D01*
X148593919Y-87350615D01*
X148475385Y-87232081D01*
X148382253Y-87092700D01*
X148318103Y-86937828D01*
X148285400Y-86773416D01*
X148285400Y-86605784D01*
X148318103Y-86441372D01*
X148382253Y-86286500D01*
X148475385Y-86147119D01*
X148593919Y-86028585D01*
X148733300Y-85935453D01*
X148888172Y-85871303D01*
X149052584Y-85838600D01*
X149220216Y-85838600D01*
X149384628Y-85871303D01*
X149384628Y-85871303D01*
G37*
G36*
X143264021Y-84352913D02*
X143264024Y-84352914D01*
X143264025Y-84352914D01*
X143424439Y-84401575D01*
X143424441Y-84401576D01*
X143424444Y-84401577D01*
X143572278Y-84480595D01*
X143701859Y-84586941D01*
X143808205Y-84716522D01*
X143887223Y-84864356D01*
X143887224Y-84864359D01*
X143887225Y-84864361D01*
X143911306Y-84943746D01*
X143935887Y-85024779D01*
X143952317Y-85191600D01*
X143935887Y-85358421D01*
X143935886Y-85358424D01*
X143935886Y-85358425D01*
X143924666Y-85395414D01*
X143887223Y-85518844D01*
X143808205Y-85666678D01*
X143701859Y-85796259D01*
X143572278Y-85902605D01*
X143424444Y-85981623D01*
X143424441Y-85981624D01*
X143424439Y-85981625D01*
X143264025Y-86030286D01*
X143264024Y-86030286D01*
X143264021Y-86030287D01*
X143139004Y-86042600D01*
X142255396Y-86042600D01*
X142130379Y-86030287D01*
X142130376Y-86030286D01*
X142130375Y-86030286D01*
X141969961Y-85981625D01*
X141969959Y-85981624D01*
X141969956Y-85981623D01*
X141822122Y-85902605D01*
X141692541Y-85796259D01*
X141586195Y-85666678D01*
X141507177Y-85518844D01*
X141469735Y-85395414D01*
X141458514Y-85358425D01*
X141458514Y-85358424D01*
X141458513Y-85358421D01*
X141442083Y-85191600D01*
X141458513Y-85024779D01*
X141483094Y-84943746D01*
X141507175Y-84864361D01*
X141507176Y-84864359D01*
X141507177Y-84864356D01*
X141586195Y-84716522D01*
X141692541Y-84586941D01*
X141822122Y-84480595D01*
X141969956Y-84401577D01*
X141969959Y-84401576D01*
X141969961Y-84401575D01*
X142130375Y-84352914D01*
X142130376Y-84352914D01*
X142130379Y-84352913D01*
X142255396Y-84340600D01*
X143139004Y-84340600D01*
X143264021Y-84352913D01*
X143264021Y-84352913D01*
G37*
G36*
X135644021Y-84352913D02*
X135644024Y-84352914D01*
X135644025Y-84352914D01*
X135804439Y-84401575D01*
X135804441Y-84401576D01*
X135804444Y-84401577D01*
X135952278Y-84480595D01*
X136081859Y-84586941D01*
X136188205Y-84716522D01*
X136267223Y-84864356D01*
X136267224Y-84864359D01*
X136267225Y-84864361D01*
X136291306Y-84943746D01*
X136315887Y-85024779D01*
X136332317Y-85191600D01*
X136315887Y-85358421D01*
X136315886Y-85358424D01*
X136315886Y-85358425D01*
X136304666Y-85395414D01*
X136267223Y-85518844D01*
X136188205Y-85666678D01*
X136081859Y-85796259D01*
X135952278Y-85902605D01*
X135804444Y-85981623D01*
X135804441Y-85981624D01*
X135804439Y-85981625D01*
X135644025Y-86030286D01*
X135644024Y-86030286D01*
X135644021Y-86030287D01*
X135519004Y-86042600D01*
X134635396Y-86042600D01*
X134510379Y-86030287D01*
X134510376Y-86030286D01*
X134510375Y-86030286D01*
X134349961Y-85981625D01*
X134349959Y-85981624D01*
X134349956Y-85981623D01*
X134202122Y-85902605D01*
X134072541Y-85796259D01*
X133966195Y-85666678D01*
X133887177Y-85518844D01*
X133849735Y-85395414D01*
X133838514Y-85358425D01*
X133838514Y-85358424D01*
X133838513Y-85358421D01*
X133822083Y-85191600D01*
X133838513Y-85024779D01*
X133863094Y-84943746D01*
X133887175Y-84864361D01*
X133887176Y-84864359D01*
X133887177Y-84864356D01*
X133966195Y-84716522D01*
X134072541Y-84586941D01*
X134202122Y-84480595D01*
X134349956Y-84401577D01*
X134349959Y-84401576D01*
X134349961Y-84401575D01*
X134510375Y-84352914D01*
X134510376Y-84352914D01*
X134510379Y-84352913D01*
X134635396Y-84340600D01*
X135519004Y-84340600D01*
X135644021Y-84352913D01*
X135644021Y-84352913D01*
G37*
G36*
X116094421Y-83895713D02*
X116094424Y-83895714D01*
X116094425Y-83895714D01*
X116254839Y-83944375D01*
X116254841Y-83944376D01*
X116254844Y-83944377D01*
X116402678Y-84023395D01*
X116532259Y-84129741D01*
X116638605Y-84259322D01*
X116717623Y-84407156D01*
X116717624Y-84407159D01*
X116717625Y-84407161D01*
X116766286Y-84567575D01*
X116766287Y-84567579D01*
X116782717Y-84734400D01*
X116766287Y-84901221D01*
X116766286Y-84901224D01*
X116766286Y-84901225D01*
X116728808Y-85024775D01*
X116717623Y-85061644D01*
X116638605Y-85209478D01*
X116532259Y-85339059D01*
X116402678Y-85445405D01*
X116254844Y-85524423D01*
X116254841Y-85524424D01*
X116254839Y-85524425D01*
X116094425Y-85573086D01*
X116094424Y-85573086D01*
X116094421Y-85573087D01*
X115969404Y-85585400D01*
X115885796Y-85585400D01*
X115760779Y-85573087D01*
X115760776Y-85573086D01*
X115760775Y-85573086D01*
X115600361Y-85524425D01*
X115600359Y-85524424D01*
X115600356Y-85524423D01*
X115452522Y-85445405D01*
X115322941Y-85339059D01*
X115216595Y-85209478D01*
X115137577Y-85061644D01*
X115126393Y-85024775D01*
X115088914Y-84901225D01*
X115088914Y-84901224D01*
X115088913Y-84901221D01*
X115072483Y-84734400D01*
X115088913Y-84567579D01*
X115088914Y-84567575D01*
X115137575Y-84407161D01*
X115137576Y-84407159D01*
X115137577Y-84407156D01*
X115216595Y-84259322D01*
X115322941Y-84129741D01*
X115452522Y-84023395D01*
X115600356Y-83944377D01*
X115600359Y-83944376D01*
X115600361Y-83944375D01*
X115760775Y-83895714D01*
X115760776Y-83895714D01*
X115760779Y-83895713D01*
X115885796Y-83883400D01*
X115969404Y-83883400D01*
X116094421Y-83895713D01*
X116094421Y-83895713D01*
G37*
G36*
X108555828Y-83916103D02*
X108710700Y-83980253D01*
X108850081Y-84073385D01*
X108968615Y-84191919D01*
X109061747Y-84331300D01*
X109125897Y-84486172D01*
X109158600Y-84650584D01*
X109158600Y-84818216D01*
X109125897Y-84982628D01*
X109061747Y-85137500D01*
X108968615Y-85276881D01*
X108850081Y-85395415D01*
X108710700Y-85488547D01*
X108555828Y-85552697D01*
X108391416Y-85585400D01*
X108223784Y-85585400D01*
X108059372Y-85552697D01*
X107904500Y-85488547D01*
X107765119Y-85395415D01*
X107646585Y-85276881D01*
X107553453Y-85137500D01*
X107489303Y-84982628D01*
X107456600Y-84818216D01*
X107456600Y-84650584D01*
X107489303Y-84486172D01*
X107553453Y-84331300D01*
X107646585Y-84191919D01*
X107765119Y-84073385D01*
X107904500Y-83980253D01*
X108059372Y-83916103D01*
X108223784Y-83883400D01*
X108391416Y-83883400D01*
X108555828Y-83916103D01*
X108555828Y-83916103D01*
G37*
G36*
X154384628Y-83371303D02*
X154539500Y-83435453D01*
X154678881Y-83528585D01*
X154797415Y-83647119D01*
X154890547Y-83786500D01*
X154954697Y-83941372D01*
X154987400Y-84105784D01*
X154987400Y-84273416D01*
X154954697Y-84437828D01*
X154890547Y-84592700D01*
X154797415Y-84732081D01*
X154678881Y-84850615D01*
X154539500Y-84943747D01*
X154384628Y-85007897D01*
X154220216Y-85040600D01*
X154052584Y-85040600D01*
X153888172Y-85007897D01*
X153733300Y-84943747D01*
X153593919Y-84850615D01*
X153475385Y-84732081D01*
X153382253Y-84592700D01*
X153318103Y-84437828D01*
X153285400Y-84273416D01*
X153285400Y-84105784D01*
X153318103Y-83941372D01*
X153382253Y-83786500D01*
X153475385Y-83647119D01*
X153593919Y-83528585D01*
X153733300Y-83435453D01*
X153888172Y-83371303D01*
X154052584Y-83338600D01*
X154220216Y-83338600D01*
X154384628Y-83371303D01*
X154384628Y-83371303D01*
G37*
G36*
X149384628Y-83371303D02*
X149539500Y-83435453D01*
X149678881Y-83528585D01*
X149797415Y-83647119D01*
X149890547Y-83786500D01*
X149954697Y-83941372D01*
X149987400Y-84105784D01*
X149987400Y-84273416D01*
X149954697Y-84437828D01*
X149890547Y-84592700D01*
X149797415Y-84732081D01*
X149678881Y-84850615D01*
X149539500Y-84943747D01*
X149384628Y-85007897D01*
X149220216Y-85040600D01*
X149052584Y-85040600D01*
X148888172Y-85007897D01*
X148733300Y-84943747D01*
X148593919Y-84850615D01*
X148475385Y-84732081D01*
X148382253Y-84592700D01*
X148318103Y-84437828D01*
X148285400Y-84273416D01*
X148285400Y-84105784D01*
X148318103Y-83941372D01*
X148382253Y-83786500D01*
X148475385Y-83647119D01*
X148593919Y-83528585D01*
X148733300Y-83435453D01*
X148888172Y-83371303D01*
X149052584Y-83338600D01*
X149220216Y-83338600D01*
X149384628Y-83371303D01*
X149384628Y-83371303D01*
G37*
G36*
X164384628Y-83371303D02*
X164539500Y-83435453D01*
X164678881Y-83528585D01*
X164797415Y-83647119D01*
X164890547Y-83786500D01*
X164954697Y-83941372D01*
X164987400Y-84105784D01*
X164987400Y-84273416D01*
X164954697Y-84437828D01*
X164890547Y-84592700D01*
X164797415Y-84732081D01*
X164678881Y-84850615D01*
X164539500Y-84943747D01*
X164384628Y-85007897D01*
X164220216Y-85040600D01*
X164052584Y-85040600D01*
X163888172Y-85007897D01*
X163733300Y-84943747D01*
X163593919Y-84850615D01*
X163475385Y-84732081D01*
X163382253Y-84592700D01*
X163318103Y-84437828D01*
X163285400Y-84273416D01*
X163285400Y-84105784D01*
X163318103Y-83941372D01*
X163382253Y-83786500D01*
X163475385Y-83647119D01*
X163593919Y-83528585D01*
X163733300Y-83435453D01*
X163888172Y-83371303D01*
X164052584Y-83338600D01*
X164220216Y-83338600D01*
X164384628Y-83371303D01*
X164384628Y-83371303D01*
G37*
G36*
X159384628Y-83371303D02*
X159539500Y-83435453D01*
X159678881Y-83528585D01*
X159797415Y-83647119D01*
X159890547Y-83786500D01*
X159954697Y-83941372D01*
X159987400Y-84105784D01*
X159987400Y-84273416D01*
X159954697Y-84437828D01*
X159890547Y-84592700D01*
X159797415Y-84732081D01*
X159678881Y-84850615D01*
X159539500Y-84943747D01*
X159384628Y-85007897D01*
X159220216Y-85040600D01*
X159052584Y-85040600D01*
X158888172Y-85007897D01*
X158733300Y-84943747D01*
X158593919Y-84850615D01*
X158475385Y-84732081D01*
X158382253Y-84592700D01*
X158318103Y-84437828D01*
X158285400Y-84273416D01*
X158285400Y-84105784D01*
X158318103Y-83941372D01*
X158382253Y-83786500D01*
X158475385Y-83647119D01*
X158593919Y-83528585D01*
X158733300Y-83435453D01*
X158888172Y-83371303D01*
X159052584Y-83338600D01*
X159220216Y-83338600D01*
X159384628Y-83371303D01*
X159384628Y-83371303D01*
G37*
G36*
X135644021Y-81812913D02*
X135644024Y-81812914D01*
X135644025Y-81812914D01*
X135804439Y-81861575D01*
X135804441Y-81861576D01*
X135804444Y-81861577D01*
X135952278Y-81940595D01*
X136081859Y-82046941D01*
X136188205Y-82176522D01*
X136267223Y-82324356D01*
X136315887Y-82484779D01*
X136332317Y-82651600D01*
X136315887Y-82818421D01*
X136267223Y-82978844D01*
X136188205Y-83126678D01*
X136081859Y-83256259D01*
X135952278Y-83362605D01*
X135804444Y-83441623D01*
X135804441Y-83441624D01*
X135804439Y-83441625D01*
X135644025Y-83490286D01*
X135644024Y-83490286D01*
X135644021Y-83490287D01*
X135519004Y-83502600D01*
X134635396Y-83502600D01*
X134510379Y-83490287D01*
X134510376Y-83490286D01*
X134510375Y-83490286D01*
X134349961Y-83441625D01*
X134349959Y-83441624D01*
X134349956Y-83441623D01*
X134202122Y-83362605D01*
X134072541Y-83256259D01*
X133966195Y-83126678D01*
X133887177Y-82978844D01*
X133838513Y-82818421D01*
X133822083Y-82651600D01*
X133838513Y-82484779D01*
X133887177Y-82324356D01*
X133966195Y-82176522D01*
X134072541Y-82046941D01*
X134202122Y-81940595D01*
X134349956Y-81861577D01*
X134349959Y-81861576D01*
X134349961Y-81861575D01*
X134510375Y-81812914D01*
X134510376Y-81812914D01*
X134510379Y-81812913D01*
X134635396Y-81800600D01*
X135519004Y-81800600D01*
X135644021Y-81812913D01*
X135644021Y-81812913D01*
G37*
G36*
X143264021Y-81812913D02*
X143264024Y-81812914D01*
X143264025Y-81812914D01*
X143424439Y-81861575D01*
X143424441Y-81861576D01*
X143424444Y-81861577D01*
X143572278Y-81940595D01*
X143701859Y-82046941D01*
X143808205Y-82176522D01*
X143887223Y-82324356D01*
X143935887Y-82484779D01*
X143952317Y-82651600D01*
X143935887Y-82818421D01*
X143887223Y-82978844D01*
X143808205Y-83126678D01*
X143701859Y-83256259D01*
X143572278Y-83362605D01*
X143424444Y-83441623D01*
X143424441Y-83441624D01*
X143424439Y-83441625D01*
X143264025Y-83490286D01*
X143264024Y-83490286D01*
X143264021Y-83490287D01*
X143139004Y-83502600D01*
X142255396Y-83502600D01*
X142130379Y-83490287D01*
X142130376Y-83490286D01*
X142130375Y-83490286D01*
X141969961Y-83441625D01*
X141969959Y-83441624D01*
X141969956Y-83441623D01*
X141822122Y-83362605D01*
X141692541Y-83256259D01*
X141586195Y-83126678D01*
X141507177Y-82978844D01*
X141458513Y-82818421D01*
X141442083Y-82651600D01*
X141458513Y-82484779D01*
X141507177Y-82324356D01*
X141586195Y-82176522D01*
X141692541Y-82046941D01*
X141822122Y-81940595D01*
X141969956Y-81861577D01*
X141969959Y-81861576D01*
X141969961Y-81861575D01*
X142130375Y-81812914D01*
X142130376Y-81812914D01*
X142130379Y-81812913D01*
X142255396Y-81800600D01*
X143139004Y-81800600D01*
X143264021Y-81812913D01*
X143264021Y-81812913D01*
G37*
G36*
X164303221Y-80970913D02*
X164303224Y-80970914D01*
X164303225Y-80970914D01*
X164463639Y-81019575D01*
X164463641Y-81019576D01*
X164463644Y-81019577D01*
X164611478Y-81098595D01*
X164741059Y-81204941D01*
X164847405Y-81334522D01*
X164926423Y-81482356D01*
X164975087Y-81642779D01*
X164991517Y-81809600D01*
X164975087Y-81976421D01*
X164926423Y-82136844D01*
X164847405Y-82284678D01*
X164741059Y-82414259D01*
X164611478Y-82520605D01*
X164463644Y-82599623D01*
X164463641Y-82599624D01*
X164463639Y-82599625D01*
X164303225Y-82648286D01*
X164303224Y-82648286D01*
X164303221Y-82648287D01*
X164178204Y-82660600D01*
X164094596Y-82660600D01*
X163969579Y-82648287D01*
X163969576Y-82648286D01*
X163969575Y-82648286D01*
X163809161Y-82599625D01*
X163809159Y-82599624D01*
X163809156Y-82599623D01*
X163661322Y-82520605D01*
X163531741Y-82414259D01*
X163425395Y-82284678D01*
X163346377Y-82136844D01*
X163297713Y-81976421D01*
X163281283Y-81809600D01*
X163297713Y-81642779D01*
X163346377Y-81482356D01*
X163425395Y-81334522D01*
X163531741Y-81204941D01*
X163661322Y-81098595D01*
X163809156Y-81019577D01*
X163809159Y-81019576D01*
X163809161Y-81019575D01*
X163969575Y-80970914D01*
X163969576Y-80970914D01*
X163969579Y-80970913D01*
X164094596Y-80958600D01*
X164178204Y-80958600D01*
X164303221Y-80970913D01*
X164303221Y-80970913D01*
G37*
G36*
X154303221Y-80970913D02*
X154303224Y-80970914D01*
X154303225Y-80970914D01*
X154463639Y-81019575D01*
X154463641Y-81019576D01*
X154463644Y-81019577D01*
X154611478Y-81098595D01*
X154741059Y-81204941D01*
X154847405Y-81334522D01*
X154926423Y-81482356D01*
X154975087Y-81642779D01*
X154991517Y-81809600D01*
X154975087Y-81976421D01*
X154926423Y-82136844D01*
X154847405Y-82284678D01*
X154741059Y-82414259D01*
X154611478Y-82520605D01*
X154463644Y-82599623D01*
X154463641Y-82599624D01*
X154463639Y-82599625D01*
X154303225Y-82648286D01*
X154303224Y-82648286D01*
X154303221Y-82648287D01*
X154178204Y-82660600D01*
X154094596Y-82660600D01*
X153969579Y-82648287D01*
X153969576Y-82648286D01*
X153969575Y-82648286D01*
X153809161Y-82599625D01*
X153809159Y-82599624D01*
X153809156Y-82599623D01*
X153661322Y-82520605D01*
X153531741Y-82414259D01*
X153425395Y-82284678D01*
X153346377Y-82136844D01*
X153297713Y-81976421D01*
X153281283Y-81809600D01*
X153297713Y-81642779D01*
X153346377Y-81482356D01*
X153425395Y-81334522D01*
X153531741Y-81204941D01*
X153661322Y-81098595D01*
X153809156Y-81019577D01*
X153809159Y-81019576D01*
X153809161Y-81019575D01*
X153969575Y-80970914D01*
X153969576Y-80970914D01*
X153969579Y-80970913D01*
X154094596Y-80958600D01*
X154178204Y-80958600D01*
X154303221Y-80970913D01*
X154303221Y-80970913D01*
G37*
G36*
X159303221Y-80970913D02*
X159303224Y-80970914D01*
X159303225Y-80970914D01*
X159463639Y-81019575D01*
X159463641Y-81019576D01*
X159463644Y-81019577D01*
X159611478Y-81098595D01*
X159741059Y-81204941D01*
X159847405Y-81334522D01*
X159926423Y-81482356D01*
X159975087Y-81642779D01*
X159991517Y-81809600D01*
X159975087Y-81976421D01*
X159926423Y-82136844D01*
X159847405Y-82284678D01*
X159741059Y-82414259D01*
X159611478Y-82520605D01*
X159463644Y-82599623D01*
X159463641Y-82599624D01*
X159463639Y-82599625D01*
X159303225Y-82648286D01*
X159303224Y-82648286D01*
X159303221Y-82648287D01*
X159178204Y-82660600D01*
X159094596Y-82660600D01*
X158969579Y-82648287D01*
X158969576Y-82648286D01*
X158969575Y-82648286D01*
X158809161Y-82599625D01*
X158809159Y-82599624D01*
X158809156Y-82599623D01*
X158661322Y-82520605D01*
X158531741Y-82414259D01*
X158425395Y-82284678D01*
X158346377Y-82136844D01*
X158297713Y-81976421D01*
X158281283Y-81809600D01*
X158297713Y-81642779D01*
X158346377Y-81482356D01*
X158425395Y-81334522D01*
X158531741Y-81204941D01*
X158661322Y-81098595D01*
X158809156Y-81019577D01*
X158809159Y-81019576D01*
X158809161Y-81019575D01*
X158969575Y-80970914D01*
X158969576Y-80970914D01*
X158969579Y-80970913D01*
X159094596Y-80958600D01*
X159178204Y-80958600D01*
X159303221Y-80970913D01*
X159303221Y-80970913D01*
G37*
G36*
X149303221Y-80970913D02*
X149303224Y-80970914D01*
X149303225Y-80970914D01*
X149463639Y-81019575D01*
X149463641Y-81019576D01*
X149463644Y-81019577D01*
X149611478Y-81098595D01*
X149741059Y-81204941D01*
X149847405Y-81334522D01*
X149926423Y-81482356D01*
X149975087Y-81642779D01*
X149991517Y-81809600D01*
X149975087Y-81976421D01*
X149926423Y-82136844D01*
X149847405Y-82284678D01*
X149741059Y-82414259D01*
X149611478Y-82520605D01*
X149463644Y-82599623D01*
X149463641Y-82599624D01*
X149463639Y-82599625D01*
X149303225Y-82648286D01*
X149303224Y-82648286D01*
X149303221Y-82648287D01*
X149178204Y-82660600D01*
X149094596Y-82660600D01*
X148969579Y-82648287D01*
X148969576Y-82648286D01*
X148969575Y-82648286D01*
X148809161Y-82599625D01*
X148809159Y-82599624D01*
X148809156Y-82599623D01*
X148661322Y-82520605D01*
X148531741Y-82414259D01*
X148425395Y-82284678D01*
X148346377Y-82136844D01*
X148297713Y-81976421D01*
X148281283Y-81809600D01*
X148297713Y-81642779D01*
X148346377Y-81482356D01*
X148425395Y-81334522D01*
X148531741Y-81204941D01*
X148661322Y-81098595D01*
X148809156Y-81019577D01*
X148809159Y-81019576D01*
X148809161Y-81019575D01*
X148969575Y-80970914D01*
X148969576Y-80970914D01*
X148969579Y-80970913D01*
X149094596Y-80958600D01*
X149178204Y-80958600D01*
X149303221Y-80970913D01*
X149303221Y-80970913D01*
G37*
G36*
X100258600Y-81269000D02*
X98356600Y-81269000D01*
X98356600Y-79367000D01*
X100258600Y-79367000D01*
X100258600Y-81269000D01*
X100258600Y-81269000D01*
G37*
G36*
X102124996Y-79403546D02*
X102298066Y-79475234D01*
X102453830Y-79579312D01*
X102586288Y-79711770D01*
X102690366Y-79867534D01*
X102762054Y-80040604D01*
X102798600Y-80224333D01*
X102798600Y-80411667D01*
X102762054Y-80595396D01*
X102690366Y-80768466D01*
X102586288Y-80924230D01*
X102453830Y-81056688D01*
X102298066Y-81160766D01*
X102124996Y-81232454D01*
X101941267Y-81269000D01*
X101753933Y-81269000D01*
X101570204Y-81232454D01*
X101397134Y-81160766D01*
X101241370Y-81056688D01*
X101108912Y-80924230D01*
X101004834Y-80768466D01*
X100933146Y-80595396D01*
X100896600Y-80411667D01*
X100896600Y-80224333D01*
X100933146Y-80040604D01*
X101004834Y-79867534D01*
X101108912Y-79711770D01*
X101241370Y-79579312D01*
X101397134Y-79475234D01*
X101570204Y-79403546D01*
X101753933Y-79367000D01*
X101941267Y-79367000D01*
X102124996Y-79403546D01*
X102124996Y-79403546D01*
G37*
G36*
X135644021Y-79272913D02*
X135644024Y-79272914D01*
X135644025Y-79272914D01*
X135804439Y-79321575D01*
X135804441Y-79321576D01*
X135804444Y-79321577D01*
X135952278Y-79400595D01*
X136081859Y-79506941D01*
X136188205Y-79636522D01*
X136267223Y-79784356D01*
X136315887Y-79944779D01*
X136332317Y-80111600D01*
X136315887Y-80278421D01*
X136315886Y-80278424D01*
X136315886Y-80278425D01*
X136275468Y-80411667D01*
X136267223Y-80438844D01*
X136188205Y-80586678D01*
X136081859Y-80716259D01*
X135952278Y-80822605D01*
X135804444Y-80901623D01*
X135804441Y-80901624D01*
X135804439Y-80901625D01*
X135644025Y-80950286D01*
X135644024Y-80950286D01*
X135644021Y-80950287D01*
X135519004Y-80962600D01*
X134635396Y-80962600D01*
X134510379Y-80950287D01*
X134510376Y-80950286D01*
X134510375Y-80950286D01*
X134349961Y-80901625D01*
X134349959Y-80901624D01*
X134349956Y-80901623D01*
X134202122Y-80822605D01*
X134072541Y-80716259D01*
X133966195Y-80586678D01*
X133887177Y-80438844D01*
X133878933Y-80411667D01*
X133838514Y-80278425D01*
X133838514Y-80278424D01*
X133838513Y-80278421D01*
X133822083Y-80111600D01*
X133838513Y-79944779D01*
X133887177Y-79784356D01*
X133966195Y-79636522D01*
X134072541Y-79506941D01*
X134202122Y-79400595D01*
X134349956Y-79321577D01*
X134349959Y-79321576D01*
X134349961Y-79321575D01*
X134510375Y-79272914D01*
X134510376Y-79272914D01*
X134510379Y-79272913D01*
X134635396Y-79260600D01*
X135519004Y-79260600D01*
X135644021Y-79272913D01*
X135644021Y-79272913D01*
G37*
G36*
X143264021Y-79272913D02*
X143264024Y-79272914D01*
X143264025Y-79272914D01*
X143424439Y-79321575D01*
X143424441Y-79321576D01*
X143424444Y-79321577D01*
X143572278Y-79400595D01*
X143701859Y-79506941D01*
X143808205Y-79636522D01*
X143887223Y-79784356D01*
X143935887Y-79944779D01*
X143952317Y-80111600D01*
X143935887Y-80278421D01*
X143935886Y-80278424D01*
X143935886Y-80278425D01*
X143895468Y-80411667D01*
X143887223Y-80438844D01*
X143808205Y-80586678D01*
X143701859Y-80716259D01*
X143572278Y-80822605D01*
X143424444Y-80901623D01*
X143424441Y-80901624D01*
X143424439Y-80901625D01*
X143264025Y-80950286D01*
X143264024Y-80950286D01*
X143264021Y-80950287D01*
X143139004Y-80962600D01*
X142255396Y-80962600D01*
X142130379Y-80950287D01*
X142130376Y-80950286D01*
X142130375Y-80950286D01*
X141969961Y-80901625D01*
X141969959Y-80901624D01*
X141969956Y-80901623D01*
X141822122Y-80822605D01*
X141692541Y-80716259D01*
X141586195Y-80586678D01*
X141507177Y-80438844D01*
X141498933Y-80411667D01*
X141458514Y-80278425D01*
X141458514Y-80278424D01*
X141458513Y-80278421D01*
X141442083Y-80111600D01*
X141458513Y-79944779D01*
X141507177Y-79784356D01*
X141586195Y-79636522D01*
X141692541Y-79506941D01*
X141822122Y-79400595D01*
X141969956Y-79321577D01*
X141969959Y-79321576D01*
X141969961Y-79321575D01*
X142130375Y-79272914D01*
X142130376Y-79272914D01*
X142130379Y-79272913D01*
X142255396Y-79260600D01*
X143139004Y-79260600D01*
X143264021Y-79272913D01*
X143264021Y-79272913D01*
G37*
G36*
X143264021Y-76732913D02*
X143264024Y-76732914D01*
X143264025Y-76732914D01*
X143424439Y-76781575D01*
X143424441Y-76781576D01*
X143424444Y-76781577D01*
X143572278Y-76860595D01*
X143701859Y-76966941D01*
X143808205Y-77096522D01*
X143887223Y-77244356D01*
X143935887Y-77404779D01*
X143952317Y-77571600D01*
X143935887Y-77738421D01*
X143887223Y-77898844D01*
X143808205Y-78046678D01*
X143701859Y-78176259D01*
X143572278Y-78282605D01*
X143424444Y-78361623D01*
X143424441Y-78361624D01*
X143424439Y-78361625D01*
X143264025Y-78410286D01*
X143264024Y-78410286D01*
X143264021Y-78410287D01*
X143139004Y-78422600D01*
X142255396Y-78422600D01*
X142130379Y-78410287D01*
X142130376Y-78410286D01*
X142130375Y-78410286D01*
X141969961Y-78361625D01*
X141969959Y-78361624D01*
X141969956Y-78361623D01*
X141822122Y-78282605D01*
X141692541Y-78176259D01*
X141586195Y-78046678D01*
X141507177Y-77898844D01*
X141458513Y-77738421D01*
X141442083Y-77571600D01*
X141458513Y-77404779D01*
X141507177Y-77244356D01*
X141586195Y-77096522D01*
X141692541Y-76966941D01*
X141822122Y-76860595D01*
X141969956Y-76781577D01*
X141969959Y-76781576D01*
X141969961Y-76781575D01*
X142130375Y-76732914D01*
X142130376Y-76732914D01*
X142130379Y-76732913D01*
X142255396Y-76720600D01*
X143139004Y-76720600D01*
X143264021Y-76732913D01*
X143264021Y-76732913D01*
G37*
G36*
X135644021Y-76732913D02*
X135644024Y-76732914D01*
X135644025Y-76732914D01*
X135804439Y-76781575D01*
X135804441Y-76781576D01*
X135804444Y-76781577D01*
X135952278Y-76860595D01*
X136081859Y-76966941D01*
X136188205Y-77096522D01*
X136267223Y-77244356D01*
X136315887Y-77404779D01*
X136332317Y-77571600D01*
X136315887Y-77738421D01*
X136267223Y-77898844D01*
X136188205Y-78046678D01*
X136081859Y-78176259D01*
X135952278Y-78282605D01*
X135804444Y-78361623D01*
X135804441Y-78361624D01*
X135804439Y-78361625D01*
X135644025Y-78410286D01*
X135644024Y-78410286D01*
X135644021Y-78410287D01*
X135519004Y-78422600D01*
X134635396Y-78422600D01*
X134510379Y-78410287D01*
X134510376Y-78410286D01*
X134510375Y-78410286D01*
X134349961Y-78361625D01*
X134349959Y-78361624D01*
X134349956Y-78361623D01*
X134202122Y-78282605D01*
X134072541Y-78176259D01*
X133966195Y-78046678D01*
X133887177Y-77898844D01*
X133838513Y-77738421D01*
X133822083Y-77571600D01*
X133838513Y-77404779D01*
X133887177Y-77244356D01*
X133966195Y-77096522D01*
X134072541Y-76966941D01*
X134202122Y-76860595D01*
X134349956Y-76781577D01*
X134349959Y-76781576D01*
X134349961Y-76781575D01*
X134510375Y-76732914D01*
X134510376Y-76732914D01*
X134510379Y-76732913D01*
X134635396Y-76720600D01*
X135519004Y-76720600D01*
X135644021Y-76732913D01*
X135644021Y-76732913D01*
G37*
G36*
X143264021Y-74192913D02*
X143264024Y-74192914D01*
X143264025Y-74192914D01*
X143424439Y-74241575D01*
X143424441Y-74241576D01*
X143424444Y-74241577D01*
X143572278Y-74320595D01*
X143701859Y-74426941D01*
X143808205Y-74556522D01*
X143887223Y-74704356D01*
X143887224Y-74704359D01*
X143887225Y-74704361D01*
X143935886Y-74864775D01*
X143935887Y-74864779D01*
X143952317Y-75031600D01*
X143935887Y-75198421D01*
X143887223Y-75358844D01*
X143808205Y-75506678D01*
X143701859Y-75636259D01*
X143572278Y-75742605D01*
X143424444Y-75821623D01*
X143424441Y-75821624D01*
X143424439Y-75821625D01*
X143264025Y-75870286D01*
X143264024Y-75870286D01*
X143264021Y-75870287D01*
X143139004Y-75882600D01*
X142255396Y-75882600D01*
X142130379Y-75870287D01*
X142130376Y-75870286D01*
X142130375Y-75870286D01*
X141969961Y-75821625D01*
X141969959Y-75821624D01*
X141969956Y-75821623D01*
X141822122Y-75742605D01*
X141692541Y-75636259D01*
X141586195Y-75506678D01*
X141507177Y-75358844D01*
X141458513Y-75198421D01*
X141442083Y-75031600D01*
X141458513Y-74864779D01*
X141458514Y-74864775D01*
X141507175Y-74704361D01*
X141507176Y-74704359D01*
X141507177Y-74704356D01*
X141586195Y-74556522D01*
X141692541Y-74426941D01*
X141822122Y-74320595D01*
X141969956Y-74241577D01*
X141969959Y-74241576D01*
X141969961Y-74241575D01*
X142130375Y-74192914D01*
X142130376Y-74192914D01*
X142130379Y-74192913D01*
X142255396Y-74180600D01*
X143139004Y-74180600D01*
X143264021Y-74192913D01*
X143264021Y-74192913D01*
G37*
G36*
X136328200Y-75882600D02*
X133826200Y-75882600D01*
X133826200Y-74180600D01*
X136328200Y-74180600D01*
X136328200Y-75882600D01*
X136328200Y-75882600D01*
G37*
G36*
X164384628Y-73371303D02*
X164539500Y-73435453D01*
X164678881Y-73528585D01*
X164797415Y-73647119D01*
X164890547Y-73786500D01*
X164954697Y-73941372D01*
X164987400Y-74105784D01*
X164987400Y-74273416D01*
X164954697Y-74437828D01*
X164890547Y-74592700D01*
X164797415Y-74732081D01*
X164678881Y-74850615D01*
X164539500Y-74943747D01*
X164384628Y-75007897D01*
X164220216Y-75040600D01*
X164052584Y-75040600D01*
X163888172Y-75007897D01*
X163733300Y-74943747D01*
X163593919Y-74850615D01*
X163475385Y-74732081D01*
X163382253Y-74592700D01*
X163318103Y-74437828D01*
X163285400Y-74273416D01*
X163285400Y-74105784D01*
X163318103Y-73941372D01*
X163382253Y-73786500D01*
X163475385Y-73647119D01*
X163593919Y-73528585D01*
X163733300Y-73435453D01*
X163888172Y-73371303D01*
X164052584Y-73338600D01*
X164220216Y-73338600D01*
X164384628Y-73371303D01*
X164384628Y-73371303D01*
G37*
G36*
X154384628Y-73371303D02*
X154539500Y-73435453D01*
X154678881Y-73528585D01*
X154797415Y-73647119D01*
X154890547Y-73786500D01*
X154954697Y-73941372D01*
X154987400Y-74105784D01*
X154987400Y-74273416D01*
X154954697Y-74437828D01*
X154890547Y-74592700D01*
X154797415Y-74732081D01*
X154678881Y-74850615D01*
X154539500Y-74943747D01*
X154384628Y-75007897D01*
X154220216Y-75040600D01*
X154052584Y-75040600D01*
X153888172Y-75007897D01*
X153733300Y-74943747D01*
X153593919Y-74850615D01*
X153475385Y-74732081D01*
X153382253Y-74592700D01*
X153318103Y-74437828D01*
X153285400Y-74273416D01*
X153285400Y-74105784D01*
X153318103Y-73941372D01*
X153382253Y-73786500D01*
X153475385Y-73647119D01*
X153593919Y-73528585D01*
X153733300Y-73435453D01*
X153888172Y-73371303D01*
X154052584Y-73338600D01*
X154220216Y-73338600D01*
X154384628Y-73371303D01*
X154384628Y-73371303D01*
G37*
G36*
X149384628Y-73371303D02*
X149539500Y-73435453D01*
X149678881Y-73528585D01*
X149797415Y-73647119D01*
X149890547Y-73786500D01*
X149954697Y-73941372D01*
X149987400Y-74105784D01*
X149987400Y-74273416D01*
X149954697Y-74437828D01*
X149890547Y-74592700D01*
X149797415Y-74732081D01*
X149678881Y-74850615D01*
X149539500Y-74943747D01*
X149384628Y-75007897D01*
X149220216Y-75040600D01*
X149052584Y-75040600D01*
X148888172Y-75007897D01*
X148733300Y-74943747D01*
X148593919Y-74850615D01*
X148475385Y-74732081D01*
X148382253Y-74592700D01*
X148318103Y-74437828D01*
X148285400Y-74273416D01*
X148285400Y-74105784D01*
X148318103Y-73941372D01*
X148382253Y-73786500D01*
X148475385Y-73647119D01*
X148593919Y-73528585D01*
X148733300Y-73435453D01*
X148888172Y-73371303D01*
X149052584Y-73338600D01*
X149220216Y-73338600D01*
X149384628Y-73371303D01*
X149384628Y-73371303D01*
G37*
G36*
X159384628Y-73371303D02*
X159539500Y-73435453D01*
X159678881Y-73528585D01*
X159797415Y-73647119D01*
X159890547Y-73786500D01*
X159954697Y-73941372D01*
X159987400Y-74105784D01*
X159987400Y-74273416D01*
X159954697Y-74437828D01*
X159890547Y-74592700D01*
X159797415Y-74732081D01*
X159678881Y-74850615D01*
X159539500Y-74943747D01*
X159384628Y-75007897D01*
X159220216Y-75040600D01*
X159052584Y-75040600D01*
X158888172Y-75007897D01*
X158733300Y-74943747D01*
X158593919Y-74850615D01*
X158475385Y-74732081D01*
X158382253Y-74592700D01*
X158318103Y-74437828D01*
X158285400Y-74273416D01*
X158285400Y-74105784D01*
X158318103Y-73941372D01*
X158382253Y-73786500D01*
X158475385Y-73647119D01*
X158593919Y-73528585D01*
X158733300Y-73435453D01*
X158888172Y-73371303D01*
X159052584Y-73338600D01*
X159220216Y-73338600D01*
X159384628Y-73371303D01*
X159384628Y-73371303D01*
G37*
G36*
X115270228Y-72181303D02*
X115425100Y-72245453D01*
X115564481Y-72338585D01*
X115683015Y-72457119D01*
X115776147Y-72596500D01*
X115840297Y-72751372D01*
X115873000Y-72915784D01*
X115873000Y-73083416D01*
X115840297Y-73247828D01*
X115776147Y-73402700D01*
X115683015Y-73542081D01*
X115564481Y-73660615D01*
X115425100Y-73753747D01*
X115270228Y-73817897D01*
X115105816Y-73850600D01*
X114938184Y-73850600D01*
X114773772Y-73817897D01*
X114618900Y-73753747D01*
X114479519Y-73660615D01*
X114360985Y-73542081D01*
X114267853Y-73402700D01*
X114203703Y-73247828D01*
X114171000Y-73083416D01*
X114171000Y-72915784D01*
X114203703Y-72751372D01*
X114267853Y-72596500D01*
X114360985Y-72457119D01*
X114479519Y-72338585D01*
X114618900Y-72245453D01*
X114773772Y-72181303D01*
X114938184Y-72148600D01*
X115105816Y-72148600D01*
X115270228Y-72181303D01*
X115270228Y-72181303D01*
G37*
G36*
X112770228Y-72181303D02*
X112925100Y-72245453D01*
X113064481Y-72338585D01*
X113183015Y-72457119D01*
X113276147Y-72596500D01*
X113340297Y-72751372D01*
X113373000Y-72915784D01*
X113373000Y-73083416D01*
X113340297Y-73247828D01*
X113276147Y-73402700D01*
X113183015Y-73542081D01*
X113064481Y-73660615D01*
X112925100Y-73753747D01*
X112770228Y-73817897D01*
X112605816Y-73850600D01*
X112438184Y-73850600D01*
X112273772Y-73817897D01*
X112118900Y-73753747D01*
X111979519Y-73660615D01*
X111860985Y-73542081D01*
X111767853Y-73402700D01*
X111703703Y-73247828D01*
X111671000Y-73083416D01*
X111671000Y-72915784D01*
X111703703Y-72751372D01*
X111767853Y-72596500D01*
X111860985Y-72457119D01*
X111979519Y-72338585D01*
X112118900Y-72245453D01*
X112273772Y-72181303D01*
X112438184Y-72148600D01*
X112605816Y-72148600D01*
X112770228Y-72181303D01*
X112770228Y-72181303D01*
G37*
G36*
X110074200Y-73549000D02*
X108772200Y-73549000D01*
X108772200Y-72247000D01*
X110074200Y-72247000D01*
X110074200Y-73549000D01*
X110074200Y-73549000D01*
G37*
G36*
X107613090Y-72272017D02*
X107731561Y-72321089D01*
X107731564Y-72321091D01*
X107757746Y-72338585D01*
X107838192Y-72392338D01*
X107928862Y-72483008D01*
X108000111Y-72589639D01*
X108049183Y-72708110D01*
X108074200Y-72833881D01*
X108074200Y-72962119D01*
X108049183Y-73087890D01*
X108000111Y-73206361D01*
X108000109Y-73206364D01*
X107972404Y-73247828D01*
X107928862Y-73312992D01*
X107838192Y-73403662D01*
X107731561Y-73474911D01*
X107613090Y-73523983D01*
X107487319Y-73549000D01*
X107359081Y-73549000D01*
X107233310Y-73523983D01*
X107114839Y-73474911D01*
X107008208Y-73403662D01*
X106917538Y-73312992D01*
X106873997Y-73247828D01*
X106846291Y-73206364D01*
X106846289Y-73206361D01*
X106797217Y-73087890D01*
X106772200Y-72962119D01*
X106772200Y-72833881D01*
X106797217Y-72708110D01*
X106846289Y-72589639D01*
X106917538Y-72483008D01*
X107008208Y-72392338D01*
X107088655Y-72338585D01*
X107114836Y-72321091D01*
X107114839Y-72321089D01*
X107233310Y-72272017D01*
X107359081Y-72247000D01*
X107487319Y-72247000D01*
X107613090Y-72272017D01*
X107613090Y-72272017D01*
G37*
G36*
X135325428Y-69438103D02*
X135480300Y-69502253D01*
X135619681Y-69595385D01*
X135738215Y-69713919D01*
X135831347Y-69853300D01*
X135895497Y-70008172D01*
X135928200Y-70172584D01*
X135928200Y-70340216D01*
X135895497Y-70504628D01*
X135831347Y-70659500D01*
X135738215Y-70798881D01*
X135619681Y-70917415D01*
X135480300Y-71010547D01*
X135325428Y-71074697D01*
X135161016Y-71107400D01*
X134993384Y-71107400D01*
X134828972Y-71074697D01*
X134674100Y-71010547D01*
X134534719Y-70917415D01*
X134416185Y-70798881D01*
X134323053Y-70659500D01*
X134258903Y-70504628D01*
X134226200Y-70340216D01*
X134226200Y-70172584D01*
X134258903Y-70008172D01*
X134323053Y-69853300D01*
X134416185Y-69713919D01*
X134534719Y-69595385D01*
X134674100Y-69502253D01*
X134828972Y-69438103D01*
X134993384Y-69405400D01*
X135161016Y-69405400D01*
X135325428Y-69438103D01*
X135325428Y-69438103D01*
G37*
G36*
X123194165Y-68280589D02*
X123385434Y-68359815D01*
X123557576Y-68474837D01*
X123703963Y-68621224D01*
X123818985Y-68793366D01*
X123898211Y-68984635D01*
X123938600Y-69187684D01*
X123938600Y-69394716D01*
X123898211Y-69597765D01*
X123818985Y-69789034D01*
X123703963Y-69961176D01*
X123557576Y-70107563D01*
X123385434Y-70222585D01*
X123194165Y-70301811D01*
X122991116Y-70342200D01*
X122784084Y-70342200D01*
X122581035Y-70301811D01*
X122389766Y-70222585D01*
X122217624Y-70107563D01*
X122071237Y-69961176D01*
X121956215Y-69789034D01*
X121876989Y-69597765D01*
X121836600Y-69394716D01*
X121836600Y-69187684D01*
X121876989Y-68984635D01*
X121956215Y-68793366D01*
X122071237Y-68621224D01*
X122217624Y-68474837D01*
X122389766Y-68359815D01*
X122581035Y-68280589D01*
X122784084Y-68240200D01*
X122991116Y-68240200D01*
X123194165Y-68280589D01*
X123194165Y-68280589D01*
G37*
G36*
X129694165Y-68280589D02*
X129885434Y-68359815D01*
X130057576Y-68474837D01*
X130203963Y-68621224D01*
X130318985Y-68793366D01*
X130398211Y-68984635D01*
X130438600Y-69187684D01*
X130438600Y-69394716D01*
X130398211Y-69597765D01*
X130318985Y-69789034D01*
X130203963Y-69961176D01*
X130057576Y-70107563D01*
X129885434Y-70222585D01*
X129694165Y-70301811D01*
X129491116Y-70342200D01*
X129284084Y-70342200D01*
X129081035Y-70301811D01*
X128889766Y-70222585D01*
X128717624Y-70107563D01*
X128571237Y-69961176D01*
X128456215Y-69789034D01*
X128376989Y-69597765D01*
X128336600Y-69394716D01*
X128336600Y-69187684D01*
X128376989Y-68984635D01*
X128456215Y-68793366D01*
X128571237Y-68621224D01*
X128717624Y-68474837D01*
X128889766Y-68359815D01*
X129081035Y-68280589D01*
X129284084Y-68240200D01*
X129491116Y-68240200D01*
X129694165Y-68280589D01*
X129694165Y-68280589D01*
G37*
G36*
X144825028Y-67721703D02*
X144979900Y-67785853D01*
X145119281Y-67878985D01*
X145237815Y-67997519D01*
X145330947Y-68136900D01*
X145395097Y-68291772D01*
X145427800Y-68456184D01*
X145427800Y-68623816D01*
X145395097Y-68788228D01*
X145330947Y-68943100D01*
X145237815Y-69082481D01*
X145119281Y-69201015D01*
X144979900Y-69294147D01*
X144825028Y-69358297D01*
X144660616Y-69391000D01*
X144492984Y-69391000D01*
X144328572Y-69358297D01*
X144173700Y-69294147D01*
X144034319Y-69201015D01*
X143915785Y-69082481D01*
X143822653Y-68943100D01*
X143758503Y-68788228D01*
X143725800Y-68623816D01*
X143725800Y-68456184D01*
X143758503Y-68291772D01*
X143822653Y-68136900D01*
X143915785Y-67997519D01*
X144034319Y-67878985D01*
X144173700Y-67785853D01*
X144328572Y-67721703D01*
X144492984Y-67689000D01*
X144660616Y-67689000D01*
X144825028Y-67721703D01*
X144825028Y-67721703D01*
G37*
G36*
X141109090Y-67820417D02*
X141227561Y-67869489D01*
X141334192Y-67940738D01*
X141424862Y-68031408D01*
X141496111Y-68138039D01*
X141545183Y-68256510D01*
X141570200Y-68382281D01*
X141570200Y-68510519D01*
X141545183Y-68636290D01*
X141496111Y-68754761D01*
X141496109Y-68754764D01*
X141470317Y-68793365D01*
X141424862Y-68861392D01*
X141334192Y-68952062D01*
X141334189Y-68952064D01*
X141334188Y-68952065D01*
X141227564Y-69023309D01*
X141227561Y-69023311D01*
X141109090Y-69072383D01*
X140983319Y-69097400D01*
X140855081Y-69097400D01*
X140729310Y-69072383D01*
X140610839Y-69023311D01*
X140610836Y-69023309D01*
X140504212Y-68952065D01*
X140504211Y-68952064D01*
X140504208Y-68952062D01*
X140413538Y-68861392D01*
X140368084Y-68793365D01*
X140342291Y-68754764D01*
X140342289Y-68754761D01*
X140293217Y-68636290D01*
X140268200Y-68510519D01*
X140268200Y-68382281D01*
X140293217Y-68256510D01*
X140342289Y-68138039D01*
X140413538Y-68031408D01*
X140504208Y-67940738D01*
X140610839Y-67869489D01*
X140729310Y-67820417D01*
X140855081Y-67795400D01*
X140983319Y-67795400D01*
X141109090Y-67820417D01*
X141109090Y-67820417D01*
G37*
G36*
X113134431Y-65618607D02*
X113332545Y-65678705D01*
X113515129Y-65776297D01*
X113675165Y-65907635D01*
X113675166Y-65907637D01*
X113675168Y-65907638D01*
X113715008Y-65956184D01*
X113806503Y-66067671D01*
X113904095Y-66250254D01*
X113964193Y-66448368D01*
X113979400Y-66602770D01*
X113979400Y-67306029D01*
X113964193Y-67460431D01*
X113934144Y-67559488D01*
X113904095Y-67658547D01*
X113867986Y-67726101D01*
X113806503Y-67841129D01*
X113675165Y-68001165D01*
X113515129Y-68132503D01*
X113332546Y-68230095D01*
X113134432Y-68290193D01*
X112928400Y-68310485D01*
X112722369Y-68290193D01*
X112524255Y-68230095D01*
X112341672Y-68132503D01*
X112181636Y-68001165D01*
X112132042Y-67940735D01*
X112050299Y-67841131D01*
X111952706Y-67658548D01*
X111932673Y-67592508D01*
X111892607Y-67460432D01*
X111877400Y-67306030D01*
X111877400Y-66602771D01*
X111892607Y-66448369D01*
X111952705Y-66250255D01*
X112050297Y-66067671D01*
X112181635Y-65907635D01*
X112181637Y-65907634D01*
X112181638Y-65907632D01*
X112310582Y-65801811D01*
X112341671Y-65776297D01*
X112524254Y-65678705D01*
X112722368Y-65618607D01*
X112928400Y-65598315D01*
X113134431Y-65618607D01*
X113134431Y-65618607D01*
G37*
G36*
X110594431Y-65618607D02*
X110792545Y-65678705D01*
X110975129Y-65776297D01*
X111135165Y-65907635D01*
X111135166Y-65907637D01*
X111135168Y-65907638D01*
X111175008Y-65956184D01*
X111266503Y-66067671D01*
X111364095Y-66250254D01*
X111424193Y-66448368D01*
X111439400Y-66602770D01*
X111439400Y-67306029D01*
X111424193Y-67460431D01*
X111394144Y-67559488D01*
X111364095Y-67658547D01*
X111327986Y-67726101D01*
X111266503Y-67841129D01*
X111135165Y-68001165D01*
X110975129Y-68132503D01*
X110792546Y-68230095D01*
X110594432Y-68290193D01*
X110388400Y-68310485D01*
X110182369Y-68290193D01*
X109984255Y-68230095D01*
X109801672Y-68132503D01*
X109641636Y-68001165D01*
X109592042Y-67940735D01*
X109510299Y-67841131D01*
X109412706Y-67658548D01*
X109392673Y-67592508D01*
X109352607Y-67460432D01*
X109337400Y-67306030D01*
X109337400Y-66602771D01*
X109352607Y-66448369D01*
X109412705Y-66250255D01*
X109510297Y-66067671D01*
X109641635Y-65907635D01*
X109641637Y-65907634D01*
X109641638Y-65907632D01*
X109770582Y-65801811D01*
X109801671Y-65776297D01*
X109984254Y-65678705D01*
X110182368Y-65618607D01*
X110388400Y-65598315D01*
X110594431Y-65618607D01*
X110594431Y-65618607D01*
G37*
G36*
X115674431Y-65618607D02*
X115872545Y-65678705D01*
X116055129Y-65776297D01*
X116215165Y-65907635D01*
X116215166Y-65907637D01*
X116215168Y-65907638D01*
X116255008Y-65956184D01*
X116346503Y-66067671D01*
X116444095Y-66250254D01*
X116504193Y-66448368D01*
X116519400Y-66602770D01*
X116519400Y-67306029D01*
X116504193Y-67460431D01*
X116474144Y-67559488D01*
X116444095Y-67658547D01*
X116407986Y-67726101D01*
X116346503Y-67841129D01*
X116215165Y-68001165D01*
X116055129Y-68132503D01*
X115872546Y-68230095D01*
X115674432Y-68290193D01*
X115468400Y-68310485D01*
X115262369Y-68290193D01*
X115064255Y-68230095D01*
X114881672Y-68132503D01*
X114721636Y-68001165D01*
X114672042Y-67940735D01*
X114590299Y-67841131D01*
X114492706Y-67658548D01*
X114472673Y-67592508D01*
X114432607Y-67460432D01*
X114417400Y-67306030D01*
X114417400Y-66602771D01*
X114432607Y-66448369D01*
X114492705Y-66250255D01*
X114590297Y-66067671D01*
X114721635Y-65907635D01*
X114721637Y-65907634D01*
X114721638Y-65907632D01*
X114850582Y-65801811D01*
X114881671Y-65776297D01*
X115064254Y-65678705D01*
X115262368Y-65618607D01*
X115468400Y-65598315D01*
X115674431Y-65618607D01*
X115674431Y-65618607D01*
G37*
G36*
X108899400Y-68305400D02*
X106797400Y-68305400D01*
X106797400Y-65603400D01*
X108899400Y-65603400D01*
X108899400Y-68305400D01*
X108899400Y-68305400D01*
G37*
G36*
X158600431Y-65212207D02*
X158798545Y-65272305D01*
X158981129Y-65369897D01*
X159141165Y-65501235D01*
X159141166Y-65501237D01*
X159141168Y-65501238D01*
X159219968Y-65597257D01*
X159272503Y-65661271D01*
X159370095Y-65843854D01*
X159430193Y-66041968D01*
X159445400Y-66196370D01*
X159445400Y-66899629D01*
X159430193Y-67054031D01*
X159417037Y-67097400D01*
X159370095Y-67252147D01*
X159341293Y-67306031D01*
X159272503Y-67434729D01*
X159141165Y-67594765D01*
X158981129Y-67726103D01*
X158798546Y-67823695D01*
X158600432Y-67883793D01*
X158394400Y-67904085D01*
X158188369Y-67883793D01*
X157990255Y-67823695D01*
X157807672Y-67726103D01*
X157647636Y-67594765D01*
X157516299Y-67434731D01*
X157418706Y-67252148D01*
X157398673Y-67186108D01*
X157358607Y-67054032D01*
X157343400Y-66899630D01*
X157343400Y-66196371D01*
X157358607Y-66041969D01*
X157418705Y-65843855D01*
X157516297Y-65661271D01*
X157647635Y-65501235D01*
X157647637Y-65501234D01*
X157647638Y-65501232D01*
X157796596Y-65378986D01*
X157807671Y-65369897D01*
X157990254Y-65272305D01*
X158188368Y-65212207D01*
X158394400Y-65191915D01*
X158600431Y-65212207D01*
X158600431Y-65212207D01*
G37*
G36*
X161140431Y-65212207D02*
X161338545Y-65272305D01*
X161521129Y-65369897D01*
X161681165Y-65501235D01*
X161681166Y-65501237D01*
X161681168Y-65501238D01*
X161759968Y-65597257D01*
X161812503Y-65661271D01*
X161910095Y-65843854D01*
X161970193Y-66041968D01*
X161985400Y-66196370D01*
X161985400Y-66899629D01*
X161970193Y-67054031D01*
X161957037Y-67097400D01*
X161910095Y-67252147D01*
X161881293Y-67306031D01*
X161812503Y-67434729D01*
X161681165Y-67594765D01*
X161521129Y-67726103D01*
X161338546Y-67823695D01*
X161140432Y-67883793D01*
X160934400Y-67904085D01*
X160728369Y-67883793D01*
X160530255Y-67823695D01*
X160347672Y-67726103D01*
X160187636Y-67594765D01*
X160056299Y-67434731D01*
X159958706Y-67252148D01*
X159938673Y-67186108D01*
X159898607Y-67054032D01*
X159883400Y-66899630D01*
X159883400Y-66196371D01*
X159898607Y-66041969D01*
X159958705Y-65843855D01*
X160056297Y-65661271D01*
X160187635Y-65501235D01*
X160187637Y-65501234D01*
X160187638Y-65501232D01*
X160336596Y-65378986D01*
X160347671Y-65369897D01*
X160530254Y-65272305D01*
X160728368Y-65212207D01*
X160934400Y-65191915D01*
X161140431Y-65212207D01*
X161140431Y-65212207D01*
G37*
G36*
X153520431Y-65212207D02*
X153718545Y-65272305D01*
X153901129Y-65369897D01*
X154061165Y-65501235D01*
X154061166Y-65501237D01*
X154061168Y-65501238D01*
X154139968Y-65597257D01*
X154192503Y-65661271D01*
X154290095Y-65843854D01*
X154350193Y-66041968D01*
X154365400Y-66196370D01*
X154365400Y-66899629D01*
X154350193Y-67054031D01*
X154337037Y-67097400D01*
X154290095Y-67252147D01*
X154261293Y-67306031D01*
X154192503Y-67434729D01*
X154061165Y-67594765D01*
X153901129Y-67726103D01*
X153718546Y-67823695D01*
X153520432Y-67883793D01*
X153314400Y-67904085D01*
X153108369Y-67883793D01*
X152910255Y-67823695D01*
X152727672Y-67726103D01*
X152567636Y-67594765D01*
X152436299Y-67434731D01*
X152338706Y-67252148D01*
X152318673Y-67186108D01*
X152278607Y-67054032D01*
X152263400Y-66899630D01*
X152263400Y-66196371D01*
X152278607Y-66041969D01*
X152338705Y-65843855D01*
X152436297Y-65661271D01*
X152567635Y-65501235D01*
X152567637Y-65501234D01*
X152567638Y-65501232D01*
X152716596Y-65378986D01*
X152727671Y-65369897D01*
X152910254Y-65272305D01*
X153108368Y-65212207D01*
X153314400Y-65191915D01*
X153520431Y-65212207D01*
X153520431Y-65212207D01*
G37*
G36*
X150980431Y-65212207D02*
X151178545Y-65272305D01*
X151361129Y-65369897D01*
X151521165Y-65501235D01*
X151521166Y-65501237D01*
X151521168Y-65501238D01*
X151599968Y-65597257D01*
X151652503Y-65661271D01*
X151750095Y-65843854D01*
X151810193Y-66041968D01*
X151825400Y-66196370D01*
X151825400Y-66899629D01*
X151810193Y-67054031D01*
X151797037Y-67097400D01*
X151750095Y-67252147D01*
X151721293Y-67306031D01*
X151652503Y-67434729D01*
X151521165Y-67594765D01*
X151361129Y-67726103D01*
X151178546Y-67823695D01*
X150980432Y-67883793D01*
X150774400Y-67904085D01*
X150568369Y-67883793D01*
X150370255Y-67823695D01*
X150187672Y-67726103D01*
X150027636Y-67594765D01*
X149896299Y-67434731D01*
X149798706Y-67252148D01*
X149778673Y-67186108D01*
X149738607Y-67054032D01*
X149723400Y-66899630D01*
X149723400Y-66196371D01*
X149738607Y-66041969D01*
X149798705Y-65843855D01*
X149896297Y-65661271D01*
X150027635Y-65501235D01*
X150027637Y-65501234D01*
X150027638Y-65501232D01*
X150176596Y-65378986D01*
X150187671Y-65369897D01*
X150370254Y-65272305D01*
X150568368Y-65212207D01*
X150774400Y-65191915D01*
X150980431Y-65212207D01*
X150980431Y-65212207D01*
G37*
G36*
X156060431Y-65212207D02*
X156258545Y-65272305D01*
X156441129Y-65369897D01*
X156601165Y-65501235D01*
X156601166Y-65501237D01*
X156601168Y-65501238D01*
X156679968Y-65597257D01*
X156732503Y-65661271D01*
X156830095Y-65843854D01*
X156890193Y-66041968D01*
X156905400Y-66196370D01*
X156905400Y-66899629D01*
X156890193Y-67054031D01*
X156877037Y-67097400D01*
X156830095Y-67252147D01*
X156801293Y-67306031D01*
X156732503Y-67434729D01*
X156601165Y-67594765D01*
X156441129Y-67726103D01*
X156258546Y-67823695D01*
X156060432Y-67883793D01*
X155854400Y-67904085D01*
X155648369Y-67883793D01*
X155450255Y-67823695D01*
X155267672Y-67726103D01*
X155107636Y-67594765D01*
X154976299Y-67434731D01*
X154878706Y-67252148D01*
X154858673Y-67186108D01*
X154818607Y-67054032D01*
X154803400Y-66899630D01*
X154803400Y-66196371D01*
X154818607Y-66041969D01*
X154878705Y-65843855D01*
X154976297Y-65661271D01*
X155107635Y-65501235D01*
X155107637Y-65501234D01*
X155107638Y-65501232D01*
X155256596Y-65378986D01*
X155267671Y-65369897D01*
X155450254Y-65272305D01*
X155648368Y-65212207D01*
X155854400Y-65191915D01*
X156060431Y-65212207D01*
X156060431Y-65212207D01*
G37*
G36*
X149285400Y-67899000D02*
X147183400Y-67899000D01*
X147183400Y-65197000D01*
X149285400Y-65197000D01*
X149285400Y-67899000D01*
X149285400Y-67899000D01*
G37*
G36*
X141570200Y-67097400D02*
X140268200Y-67097400D01*
X140268200Y-65795400D01*
X141570200Y-65795400D01*
X141570200Y-67097400D01*
X141570200Y-67097400D01*
G37*
G36*
X144825028Y-65221703D02*
X144979900Y-65285853D01*
X145119281Y-65378985D01*
X145237815Y-65497519D01*
X145330947Y-65636900D01*
X145395097Y-65791772D01*
X145427800Y-65956184D01*
X145427800Y-66123816D01*
X145395097Y-66288228D01*
X145330947Y-66443100D01*
X145237815Y-66582481D01*
X145119281Y-66701015D01*
X144979900Y-66794147D01*
X144825028Y-66858297D01*
X144660616Y-66891000D01*
X144492984Y-66891000D01*
X144328572Y-66858297D01*
X144173700Y-66794147D01*
X144034319Y-66701015D01*
X143915785Y-66582481D01*
X143822653Y-66443100D01*
X143758503Y-66288228D01*
X143725800Y-66123816D01*
X143725800Y-65956184D01*
X143758503Y-65791772D01*
X143822653Y-65636900D01*
X143915785Y-65497519D01*
X144034319Y-65378985D01*
X144173700Y-65285853D01*
X144328572Y-65221703D01*
X144492984Y-65189000D01*
X144660616Y-65189000D01*
X144825028Y-65221703D01*
X144825028Y-65221703D01*
G37*
G36*
X123194165Y-63780589D02*
X123385434Y-63859815D01*
X123557576Y-63974837D01*
X123703963Y-64121224D01*
X123818985Y-64293366D01*
X123898211Y-64484635D01*
X123938600Y-64687684D01*
X123938600Y-64894716D01*
X123898211Y-65097765D01*
X123818985Y-65289034D01*
X123703963Y-65461176D01*
X123557576Y-65607563D01*
X123385434Y-65722585D01*
X123194165Y-65801811D01*
X122991116Y-65842200D01*
X122784084Y-65842200D01*
X122581035Y-65801811D01*
X122389766Y-65722585D01*
X122217624Y-65607563D01*
X122071237Y-65461176D01*
X121956215Y-65289034D01*
X121876989Y-65097765D01*
X121836600Y-64894716D01*
X121836600Y-64687684D01*
X121876989Y-64484635D01*
X121956215Y-64293366D01*
X122071237Y-64121224D01*
X122217624Y-63974837D01*
X122389766Y-63859815D01*
X122581035Y-63780589D01*
X122784084Y-63740200D01*
X122991116Y-63740200D01*
X123194165Y-63780589D01*
X123194165Y-63780589D01*
G37*
G36*
X129694165Y-63780589D02*
X129885434Y-63859815D01*
X130057576Y-63974837D01*
X130203963Y-64121224D01*
X130318985Y-64293366D01*
X130398211Y-64484635D01*
X130438600Y-64687684D01*
X130438600Y-64894716D01*
X130398211Y-65097765D01*
X130318985Y-65289034D01*
X130203963Y-65461176D01*
X130057576Y-65607563D01*
X129885434Y-65722585D01*
X129694165Y-65801811D01*
X129491116Y-65842200D01*
X129284084Y-65842200D01*
X129081035Y-65801811D01*
X128889766Y-65722585D01*
X128717624Y-65607563D01*
X128571237Y-65461176D01*
X128456215Y-65289034D01*
X128376989Y-65097765D01*
X128336600Y-64894716D01*
X128336600Y-64687684D01*
X128376989Y-64484635D01*
X128456215Y-64293366D01*
X128571237Y-64121224D01*
X128717624Y-63974837D01*
X128889766Y-63859815D01*
X129081035Y-63780589D01*
X129284084Y-63740200D01*
X129491116Y-63740200D01*
X129694165Y-63780589D01*
X129694165Y-63780589D01*
G37*
G36*
X84634239Y-57811467D02*
X84948282Y-57873934D01*
X85539926Y-58119001D01*
X85829523Y-58312504D01*
X86072395Y-58474786D01*
X86525214Y-58927605D01*
X86525216Y-58927608D01*
X86880999Y-59460074D01*
X87002724Y-59753944D01*
X87126066Y-60051719D01*
X87251000Y-60679803D01*
X87251000Y-61320197D01*
X87188533Y-61634239D01*
X87126066Y-61948282D01*
X86880999Y-62539926D01*
X86597879Y-62963644D01*
X86525214Y-63072395D01*
X86072395Y-63525214D01*
X86072392Y-63525216D01*
X85539926Y-63880999D01*
X84948282Y-64126066D01*
X84634239Y-64188533D01*
X84320197Y-64251000D01*
X83679803Y-64251000D01*
X83365761Y-64188533D01*
X83051718Y-64126066D01*
X82460074Y-63880999D01*
X81927608Y-63525216D01*
X81927605Y-63525214D01*
X81474786Y-63072395D01*
X81402121Y-62963644D01*
X81119001Y-62539926D01*
X80873934Y-61948282D01*
X80811467Y-61634239D01*
X80749000Y-61320197D01*
X80749000Y-60679803D01*
X80873934Y-60051719D01*
X80997276Y-59753944D01*
X81119001Y-59460074D01*
X81474784Y-58927608D01*
X81474786Y-58927605D01*
X81927605Y-58474786D01*
X82170477Y-58312504D01*
X82460074Y-58119001D01*
X83051718Y-57873934D01*
X83365761Y-57811467D01*
X83679803Y-57749000D01*
X84320197Y-57749000D01*
X84634239Y-57811467D01*
X84634239Y-57811467D01*
G37*
G36*
X166634239Y-57811467D02*
X166948282Y-57873934D01*
X167539926Y-58119001D01*
X167829523Y-58312504D01*
X168072395Y-58474786D01*
X168525214Y-58927605D01*
X168525216Y-58927608D01*
X168880999Y-59460074D01*
X169002724Y-59753944D01*
X169126066Y-60051719D01*
X169251000Y-60679803D01*
X169251000Y-61320197D01*
X169188533Y-61634239D01*
X169126066Y-61948282D01*
X168880999Y-62539926D01*
X168597879Y-62963644D01*
X168525214Y-63072395D01*
X168072395Y-63525214D01*
X168072392Y-63525216D01*
X167539926Y-63880999D01*
X166948282Y-64126066D01*
X166634239Y-64188533D01*
X166320197Y-64251000D01*
X165679803Y-64251000D01*
X165365761Y-64188533D01*
X165051718Y-64126066D01*
X164460074Y-63880999D01*
X163927608Y-63525216D01*
X163927605Y-63525214D01*
X163474786Y-63072395D01*
X163402121Y-62963644D01*
X163119001Y-62539926D01*
X162873934Y-61948282D01*
X162811467Y-61634239D01*
X162749000Y-61320197D01*
X162749000Y-60679803D01*
X162873934Y-60051719D01*
X162997276Y-59753944D01*
X163119001Y-59460074D01*
X163474784Y-58927608D01*
X163474786Y-58927605D01*
X163927605Y-58474786D01*
X164170477Y-58312504D01*
X164460074Y-58119001D01*
X165051718Y-57873934D01*
X165365761Y-57811467D01*
X165679803Y-57749000D01*
X166320197Y-57749000D01*
X166634239Y-57811467D01*
X166634239Y-57811467D01*
G37*
G36*
X135244021Y-61797713D02*
X135244024Y-61797714D01*
X135244025Y-61797714D01*
X135404439Y-61846375D01*
X135404441Y-61846376D01*
X135404444Y-61846377D01*
X135552278Y-61925395D01*
X135681859Y-62031741D01*
X135788205Y-62161322D01*
X135867223Y-62309156D01*
X135867224Y-62309159D01*
X135867225Y-62309161D01*
X135915886Y-62469575D01*
X135915887Y-62469579D01*
X135932317Y-62636400D01*
X135915887Y-62803221D01*
X135915886Y-62803224D01*
X135915886Y-62803225D01*
X135871666Y-62949000D01*
X135867223Y-62963644D01*
X135788205Y-63111478D01*
X135681859Y-63241059D01*
X135552278Y-63347405D01*
X135404444Y-63426423D01*
X135404441Y-63426424D01*
X135404439Y-63426425D01*
X135244025Y-63475086D01*
X135244024Y-63475086D01*
X135244021Y-63475087D01*
X135119004Y-63487400D01*
X135035396Y-63487400D01*
X134910379Y-63475087D01*
X134910376Y-63475086D01*
X134910375Y-63475086D01*
X134749961Y-63426425D01*
X134749959Y-63426424D01*
X134749956Y-63426423D01*
X134602122Y-63347405D01*
X134472541Y-63241059D01*
X134366195Y-63111478D01*
X134287177Y-62963644D01*
X134282735Y-62949000D01*
X134238514Y-62803225D01*
X134238514Y-62803224D01*
X134238513Y-62803221D01*
X134222083Y-62636400D01*
X134238513Y-62469579D01*
X134238514Y-62469575D01*
X134287175Y-62309161D01*
X134287176Y-62309159D01*
X134287177Y-62309156D01*
X134366195Y-62161322D01*
X134472541Y-62031741D01*
X134602122Y-61925395D01*
X134749956Y-61846377D01*
X134749959Y-61846376D01*
X134749961Y-61846375D01*
X134910375Y-61797714D01*
X134910376Y-61797714D01*
X134910379Y-61797713D01*
X135035396Y-61785400D01*
X135119004Y-61785400D01*
X135244021Y-61797713D01*
X135244021Y-61797713D01*
G37*
M02*
