G04 #@! TF.GenerationSoftware,KiCad,Pcbnew,(5.0.0)*
G04 #@! TF.CreationDate,2019-06-02T19:33:40-03:00*
G04 #@! TF.ProjectId,arduino-unoesc,61726475696E6F2D756E6F6573632E6B,0*
G04 #@! TF.SameCoordinates,Original*
G04 #@! TF.FileFunction,Copper,L1,Top,Signal*
G04 #@! TF.FilePolarity,Positive*
%FSLAX46Y46*%
G04 Gerber Fmt 4.6, Leading zero omitted, Abs format (unit mm)*
G04 Created by KiCad (PCBNEW (5.0.0)) date 06/02/19 19:33:40*
%MOMM*%
%LPD*%
G01*
G04 APERTURE LIST*
G04 #@! TA.AperFunction,ComponentPad*
%ADD10C,6.400000*%
G04 #@! TD*
G04 #@! TA.AperFunction,ComponentPad*
%ADD11C,0.800000*%
G04 #@! TD*
G04 #@! TA.AperFunction,ComponentPad*
%ADD12C,1.600000*%
G04 #@! TD*
G04 #@! TA.AperFunction,ComponentPad*
%ADD13C,1.200000*%
G04 #@! TD*
G04 #@! TA.AperFunction,ComponentPad*
%ADD14R,1.200000X1.200000*%
G04 #@! TD*
G04 #@! TA.AperFunction,ComponentPad*
%ADD15R,1.600000X1.600000*%
G04 #@! TD*
G04 #@! TA.AperFunction,ComponentPad*
%ADD16R,1.800000X1.800000*%
G04 #@! TD*
G04 #@! TA.AperFunction,ComponentPad*
%ADD17C,1.800000*%
G04 #@! TD*
G04 #@! TA.AperFunction,ComponentPad*
%ADD18O,2.200000X2.200000*%
G04 #@! TD*
G04 #@! TA.AperFunction,ComponentPad*
%ADD19R,2.200000X2.200000*%
G04 #@! TD*
G04 #@! TA.AperFunction,ComponentPad*
%ADD20R,2.000000X2.600000*%
G04 #@! TD*
G04 #@! TA.AperFunction,ComponentPad*
%ADD21O,2.000000X2.600000*%
G04 #@! TD*
G04 #@! TA.AperFunction,ComponentPad*
%ADD22O,2.600000X2.000000*%
G04 #@! TD*
G04 #@! TA.AperFunction,ComponentPad*
%ADD23R,2.600000X2.000000*%
G04 #@! TD*
G04 #@! TA.AperFunction,ComponentPad*
%ADD24C,3.000000*%
G04 #@! TD*
G04 #@! TA.AperFunction,ComponentPad*
%ADD25R,3.000000X3.000000*%
G04 #@! TD*
G04 #@! TA.AperFunction,ComponentPad*
%ADD26O,1.727200X1.727200*%
G04 #@! TD*
G04 #@! TA.AperFunction,ComponentPad*
%ADD27R,1.727200X1.727200*%
G04 #@! TD*
G04 #@! TA.AperFunction,ComponentPad*
%ADD28R,3.500000X3.500000*%
G04 #@! TD*
G04 #@! TA.AperFunction,ComponentPad*
%ADD29O,1.600000X1.600000*%
G04 #@! TD*
G04 #@! TA.AperFunction,ComponentPad*
%ADD30C,2.000000*%
G04 #@! TD*
G04 #@! TA.AperFunction,ComponentPad*
%ADD31O,2.400000X1.600000*%
G04 #@! TD*
G04 #@! TA.AperFunction,ComponentPad*
%ADD32R,2.400000X1.600000*%
G04 #@! TD*
G04 #@! TA.AperFunction,ComponentPad*
%ADD33O,1.800000X1.800000*%
G04 #@! TD*
G04 #@! TA.AperFunction,ComponentPad*
%ADD34C,1.500000*%
G04 #@! TD*
G04 #@! TA.AperFunction,ViaPad*
%ADD35C,0.890000*%
G04 #@! TD*
G04 #@! TA.AperFunction,ViaPad*
%ADD36C,0.889000*%
G04 #@! TD*
G04 #@! TA.AperFunction,Conductor*
%ADD37C,1.016000*%
G04 #@! TD*
G04 #@! TA.AperFunction,Conductor*
%ADD38C,0.508000*%
G04 #@! TD*
G04 #@! TA.AperFunction,Conductor*
%ADD39C,0.254000*%
G04 #@! TD*
G04 APERTURE END LIST*
D10*
G04 #@! TO.P,REF\002A\002A,*
G04 #@! TO.N,*
X107340400Y-97612200D03*
D11*
G04 #@! TO.P,REF\002A\002A,1*
G04 #@! TO.N,N/C*
X109740400Y-97612200D03*
X109037456Y-99309256D03*
X107340400Y-100012200D03*
X105643344Y-99309256D03*
X104940400Y-97612200D03*
X105643344Y-95915144D03*
X107340400Y-95212200D03*
X109037456Y-95915144D03*
G04 #@! TD*
G04 #@! TO.P,REF\002A\002A,1*
G04 #@! TO.N,N/C*
X85697056Y-129302944D03*
X84000000Y-128600000D03*
X82302944Y-129302944D03*
X81600000Y-131000000D03*
X82302944Y-132697056D03*
X84000000Y-133400000D03*
X85697056Y-132697056D03*
X86400000Y-131000000D03*
D10*
G04 #@! TO.P,REF\002A\002A,*
G04 #@! TO.N,*
X84000000Y-131000000D03*
G04 #@! TD*
D11*
G04 #@! TO.P,REF\002A\002A,1*
G04 #@! TO.N,N/C*
X167697056Y-129302944D03*
X166000000Y-128600000D03*
X164302944Y-129302944D03*
X163600000Y-131000000D03*
X164302944Y-132697056D03*
X166000000Y-133400000D03*
X167697056Y-132697056D03*
X168400000Y-131000000D03*
D10*
G04 #@! TO.P,REF\002A\002A,*
G04 #@! TO.N,*
X166000000Y-131000000D03*
G04 #@! TD*
D12*
G04 #@! TO.P,C1,1*
G04 #@! TO.N,+5V*
X148132800Y-94945200D03*
G04 #@! TO.P,C1,2*
G04 #@! TO.N,GND*
X148132800Y-92445200D03*
G04 #@! TD*
D13*
G04 #@! TO.P,C2,2*
G04 #@! TO.N,GND*
X152450800Y-92488000D03*
D14*
G04 #@! TO.P,C2,1*
G04 #@! TO.N,+5V*
X152450800Y-94488000D03*
G04 #@! TD*
D12*
G04 #@! TO.P,C3,2*
G04 #@! TO.N,GND*
X164136400Y-86689600D03*
G04 #@! TO.P,C3,1*
G04 #@! TO.N,/REFLECT-1*
X164136400Y-84189600D03*
G04 #@! TD*
G04 #@! TO.P,C4,1*
G04 #@! TO.N,+5V*
X137985500Y-115112800D03*
G04 #@! TO.P,C4,2*
G04 #@! TO.N,GND*
X137985500Y-112612800D03*
G04 #@! TD*
D14*
G04 #@! TO.P,C5,1*
G04 #@! TO.N,+5V*
X141605000Y-113919000D03*
D13*
G04 #@! TO.P,C5,2*
G04 #@! TO.N,GND*
X143605000Y-113919000D03*
G04 #@! TD*
D12*
G04 #@! TO.P,C6,2*
G04 #@! TO.N,GND*
X144576800Y-68540000D03*
G04 #@! TO.P,C6,1*
G04 #@! TO.N,+5V*
X144576800Y-66040000D03*
G04 #@! TD*
D14*
G04 #@! TO.P,C7,1*
G04 #@! TO.N,+5V*
X140919200Y-66446400D03*
D13*
G04 #@! TO.P,C7,2*
G04 #@! TO.N,GND*
X140919200Y-68446400D03*
G04 #@! TD*
D12*
G04 #@! TO.P,C8,1*
G04 #@! TO.N,/REFLECT-2*
X159136400Y-84189600D03*
G04 #@! TO.P,C8,2*
G04 #@! TO.N,GND*
X159136400Y-86689600D03*
G04 #@! TD*
G04 #@! TO.P,C9,1*
G04 #@! TO.N,+5V*
X128625600Y-89560400D03*
G04 #@! TO.P,C9,2*
G04 #@! TO.N,GND*
X128625600Y-87060400D03*
G04 #@! TD*
D13*
G04 #@! TO.P,C10,2*
G04 #@! TO.N,GND*
X124256800Y-87560400D03*
D14*
G04 #@! TO.P,C10,1*
G04 #@! TO.N,+5V*
X124256800Y-89560400D03*
G04 #@! TD*
D12*
G04 #@! TO.P,C11,2*
G04 #@! TO.N,Net-(C11-Pad2)*
X128625600Y-95210000D03*
G04 #@! TO.P,C11,1*
G04 #@! TO.N,GND*
X128625600Y-92710000D03*
G04 #@! TD*
G04 #@! TO.P,C12,2*
G04 #@! TO.N,GND*
X132435600Y-124166000D03*
G04 #@! TO.P,C12,1*
G04 #@! TO.N,/ULTRASONIC-TRIGGER*
X132435600Y-121666000D03*
G04 #@! TD*
G04 #@! TO.P,C13,1*
G04 #@! TO.N,/328P_ICSP_MIS0*
X132486400Y-117551200D03*
G04 #@! TO.P,C13,2*
G04 #@! TO.N,GND*
X132486400Y-115051200D03*
G04 #@! TD*
G04 #@! TO.P,C14,2*
G04 #@! TO.N,Net-(C14-Pad2)*
X128625600Y-100217600D03*
G04 #@! TO.P,C14,1*
G04 #@! TO.N,GND*
X128625600Y-102717600D03*
G04 #@! TD*
G04 #@! TO.P,C15,2*
G04 #@! TO.N,GND*
X154136400Y-86689600D03*
G04 #@! TO.P,C15,1*
G04 #@! TO.N,/REFLECT-3*
X154136400Y-84189600D03*
G04 #@! TD*
G04 #@! TO.P,C16,1*
G04 #@! TO.N,/REFLECT-4*
X149136400Y-84189600D03*
G04 #@! TO.P,C16,2*
G04 #@! TO.N,GND*
X149136400Y-86689600D03*
G04 #@! TD*
G04 #@! TO.P,C17,2*
G04 #@! TO.N,GND*
X115022000Y-72999600D03*
G04 #@! TO.P,C17,1*
G04 #@! TO.N,+5V*
X112522000Y-72999600D03*
G04 #@! TD*
D14*
G04 #@! TO.P,C18,1*
G04 #@! TO.N,+5V*
X109423200Y-72898000D03*
D13*
G04 #@! TO.P,C18,2*
G04 #@! TO.N,GND*
X107423200Y-72898000D03*
G04 #@! TD*
D12*
G04 #@! TO.P,C21,2*
G04 #@! TO.N,GND*
X166522400Y-116778400D03*
G04 #@! TO.P,C21,1*
G04 #@! TO.N,+5V*
X166522400Y-119278400D03*
G04 #@! TD*
G04 #@! TO.P,C22,1*
G04 #@! TO.N,Net-(C22-Pad1)*
X92608400Y-112369600D03*
G04 #@! TO.P,C22,2*
G04 #@! TO.N,GND*
X92608400Y-109869600D03*
G04 #@! TD*
D15*
G04 #@! TO.P,C23,1*
G04 #@! TO.N,Net-(C22-Pad1)*
X102514400Y-114401600D03*
D12*
G04 #@! TO.P,C23,2*
G04 #@! TO.N,GND*
X105014400Y-114401600D03*
G04 #@! TD*
G04 #@! TO.P,C24,2*
G04 #@! TO.N,GND*
X111821600Y-106019600D03*
D15*
G04 #@! TO.P,C24,1*
G04 #@! TO.N,+5V*
X109321600Y-106019600D03*
G04 #@! TD*
D12*
G04 #@! TO.P,C25,2*
G04 #@! TO.N,GND*
X111821600Y-112166400D03*
G04 #@! TO.P,C25,1*
G04 #@! TO.N,+5V*
X109321600Y-112166400D03*
G04 #@! TD*
D16*
G04 #@! TO.P,D1,1*
G04 #@! TO.N,GND*
X99307600Y-90318000D03*
D17*
G04 #@! TO.P,D1,2*
G04 #@! TO.N,Net-(D1-Pad2)*
X101847600Y-90318000D03*
G04 #@! TD*
G04 #@! TO.P,D2,2*
G04 #@! TO.N,Net-(D2-Pad2)*
X101847600Y-80318000D03*
D16*
G04 #@! TO.P,D2,1*
G04 #@! TO.N,GND*
X99307600Y-80318000D03*
G04 #@! TD*
D18*
G04 #@! TO.P,D3,2*
G04 #@! TO.N,Net-(D3-Pad2)*
X97383600Y-119837200D03*
D19*
G04 #@! TO.P,D3,1*
G04 #@! TO.N,Net-(C22-Pad1)*
X97383600Y-112217200D03*
G04 #@! TD*
D17*
G04 #@! TO.P,D4,2*
G04 #@! TO.N,+5V*
X118110000Y-128879600D03*
D16*
G04 #@! TO.P,D4,1*
G04 #@! TO.N,Net-(D4-Pad1)*
X118110000Y-131419600D03*
G04 #@! TD*
D20*
G04 #@! TO.P,J1,1*
G04 #@! TO.N,GND*
X143764000Y-121666000D03*
D21*
G04 #@! TO.P,J1,2*
G04 #@! TO.N,+5V*
X141224000Y-121666000D03*
G04 #@! TO.P,J1,3*
G04 #@! TO.N,/328P_ICSP_MIS0*
X138684000Y-121666000D03*
G04 #@! TO.P,J1,4*
G04 #@! TO.N,/ULTRASONIC-TRIGGER*
X136144000Y-121666000D03*
G04 #@! TD*
D20*
G04 #@! TO.P,J2,1*
G04 #@! TO.N,GND*
X148234400Y-66548000D03*
D21*
G04 #@! TO.P,J2,2*
G04 #@! TO.N,+5V*
X150774400Y-66548000D03*
G04 #@! TO.P,J2,3*
G04 #@! TO.N,/REFLECT-4IN*
X153314400Y-66548000D03*
G04 #@! TO.P,J2,4*
G04 #@! TO.N,/REFLECT-3IN*
X155854400Y-66548000D03*
G04 #@! TO.P,J2,5*
G04 #@! TO.N,/REFLECT-2IN*
X158394400Y-66548000D03*
G04 #@! TO.P,J2,6*
G04 #@! TO.N,/REFLECT-1IN*
X160934400Y-66548000D03*
G04 #@! TD*
G04 #@! TO.P,J3,4*
G04 #@! TO.N,/UART_RX*
X115468400Y-66954400D03*
G04 #@! TO.P,J3,3*
G04 #@! TO.N,/UART_TX*
X112928400Y-66954400D03*
G04 #@! TO.P,J3,2*
G04 #@! TO.N,+5V*
X110388400Y-66954400D03*
D20*
G04 #@! TO.P,J3,1*
G04 #@! TO.N,GND*
X107848400Y-66954400D03*
G04 #@! TD*
D22*
G04 #@! TO.P,J4,6*
G04 #@! TO.N,/PWM-1*
X159664400Y-108204000D03*
G04 #@! TO.P,J4,5*
G04 #@! TO.N,/PWM-2*
X159664400Y-105664000D03*
G04 #@! TO.P,J4,4*
G04 #@! TO.N,/328P_ICSP_MOSI*
X159664400Y-103124000D03*
G04 #@! TO.P,J4,3*
G04 #@! TO.N,/PWM-4*
X159664400Y-100584000D03*
G04 #@! TO.P,J4,2*
G04 #@! TO.N,+5V*
X159664400Y-98044000D03*
D23*
G04 #@! TO.P,J4,1*
G04 #@! TO.N,GND*
X159664400Y-95504000D03*
G04 #@! TD*
D24*
G04 #@! TO.P,J5,2*
G04 #@! TO.N,Net-(D3-Pad2)*
X84500000Y-116535200D03*
D25*
G04 #@! TO.P,J5,1*
G04 #@! TO.N,GND*
X84500000Y-121615200D03*
G04 #@! TD*
D26*
G04 #@! TO.P,J6,6*
G04 #@! TO.N,GND*
X154482800Y-119583200D03*
G04 #@! TO.P,J6,5*
G04 #@! TO.N,/328P_ICSP_RESET*
X154482800Y-117043200D03*
G04 #@! TO.P,J6,4*
G04 #@! TO.N,/328P_ICSP_MOSI*
X157022800Y-119583200D03*
G04 #@! TO.P,J6,3*
G04 #@! TO.N,/328P_ICSP_SCK*
X157022800Y-117043200D03*
G04 #@! TO.P,J6,2*
G04 #@! TO.N,+5V*
X159562800Y-119583200D03*
D27*
G04 #@! TO.P,J6,1*
G04 #@! TO.N,/328P_ICSP_MIS0*
X159562800Y-117043200D03*
G04 #@! TD*
D28*
G04 #@! TO.P,J8,3*
G04 #@! TO.N,GND*
X111430800Y-126139200D03*
G04 #@! TO.P,J8,2*
X106730800Y-129139200D03*
G04 #@! TO.P,J8,1*
G04 #@! TO.N,Net-(D3-Pad2)*
X106730800Y-123139200D03*
G04 #@! TD*
D29*
G04 #@! TO.P,R1,2*
G04 #@! TO.N,/REFLECT-1*
X164136400Y-81809600D03*
D12*
G04 #@! TO.P,R1,1*
G04 #@! TO.N,/REFLECT-1IN*
X164136400Y-74189600D03*
G04 #@! TD*
G04 #@! TO.P,R2,1*
G04 #@! TO.N,/REFLECT-2IN*
X159136400Y-74189600D03*
D29*
G04 #@! TO.P,R2,2*
G04 #@! TO.N,/REFLECT-2*
X159136400Y-81809600D03*
G04 #@! TD*
D12*
G04 #@! TO.P,R3,1*
G04 #@! TO.N,/REFLECT-3IN*
X154136400Y-74189600D03*
D29*
G04 #@! TO.P,R3,2*
G04 #@! TO.N,/REFLECT-3*
X154136400Y-81809600D03*
G04 #@! TD*
G04 #@! TO.P,R4,2*
G04 #@! TO.N,+5V*
X135077200Y-62636400D03*
D12*
G04 #@! TO.P,R4,1*
G04 #@! TO.N,/328P_ICSP_RESET*
X135077200Y-70256400D03*
G04 #@! TD*
D29*
G04 #@! TO.P,R5,2*
G04 #@! TO.N,/REFLECT-4*
X149136400Y-81809600D03*
D12*
G04 #@! TO.P,R5,1*
G04 #@! TO.N,/REFLECT-4IN*
X149136400Y-74189600D03*
G04 #@! TD*
G04 #@! TO.P,R6,1*
G04 #@! TO.N,Net-(D1-Pad2)*
X108307600Y-89662000D03*
D29*
G04 #@! TO.P,R6,2*
G04 #@! TO.N,Net-(R6-Pad2)*
X115927600Y-89662000D03*
G04 #@! TD*
D12*
G04 #@! TO.P,R7,1*
G04 #@! TO.N,GND*
X116941600Y-108204000D03*
D29*
G04 #@! TO.P,R7,2*
G04 #@! TO.N,/START*
X124561600Y-108204000D03*
G04 #@! TD*
G04 #@! TO.P,R8,2*
G04 #@! TO.N,/INIT*
X115927600Y-84734400D03*
D12*
G04 #@! TO.P,R8,1*
G04 #@! TO.N,Net-(D2-Pad2)*
X108307600Y-84734400D03*
G04 #@! TD*
D29*
G04 #@! TO.P,R9,2*
G04 #@! TO.N,Net-(D4-Pad1)*
X123393200Y-131368800D03*
D12*
G04 #@! TO.P,R9,1*
G04 #@! TO.N,GND*
X131013200Y-131368800D03*
G04 #@! TD*
D30*
G04 #@! TO.P,SW1,1*
G04 #@! TO.N,/328P_ICSP_RESET*
X122887600Y-69291200D03*
G04 #@! TO.P,SW1,2*
G04 #@! TO.N,GND*
X122887600Y-64791200D03*
G04 #@! TO.P,SW1,1*
G04 #@! TO.N,/328P_ICSP_RESET*
X129387600Y-69291200D03*
G04 #@! TO.P,SW1,2*
G04 #@! TO.N,GND*
X129387600Y-64791200D03*
G04 #@! TD*
G04 #@! TO.P,SW2,2*
G04 #@! TO.N,+5V*
X118059200Y-118342800D03*
G04 #@! TO.P,SW2,1*
G04 #@! TO.N,/START*
X118059200Y-113842800D03*
G04 #@! TO.P,SW2,2*
G04 #@! TO.N,+5V*
X124559200Y-118342800D03*
G04 #@! TO.P,SW2,1*
G04 #@! TO.N,/START*
X124559200Y-113842800D03*
G04 #@! TD*
D31*
G04 #@! TO.P,U1,28*
G04 #@! TO.N,Net-(U1-Pad28)*
X142697200Y-75031600D03*
G04 #@! TO.P,U1,14*
G04 #@! TO.N,/START*
X135077200Y-108051600D03*
G04 #@! TO.P,U1,27*
G04 #@! TO.N,Net-(U1-Pad27)*
X142697200Y-77571600D03*
G04 #@! TO.P,U1,13*
G04 #@! TO.N,/ULTRASONIC-TRIGGER*
X135077200Y-105511600D03*
G04 #@! TO.P,U1,26*
G04 #@! TO.N,/REFLECT-3*
X142697200Y-80111600D03*
G04 #@! TO.P,U1,12*
G04 #@! TO.N,Net-(U1-Pad12)*
X135077200Y-102971600D03*
G04 #@! TO.P,U1,25*
G04 #@! TO.N,/REFLECT-4*
X142697200Y-82651600D03*
G04 #@! TO.P,U1,11*
G04 #@! TO.N,/PWM-4*
X135077200Y-100431600D03*
G04 #@! TO.P,U1,24*
G04 #@! TO.N,/REFLECT-2*
X142697200Y-85191600D03*
G04 #@! TO.P,U1,10*
G04 #@! TO.N,Net-(C14-Pad2)*
X135077200Y-97891600D03*
G04 #@! TO.P,U1,23*
G04 #@! TO.N,/REFLECT-1*
X142697200Y-87731600D03*
G04 #@! TO.P,U1,9*
G04 #@! TO.N,Net-(C11-Pad2)*
X135077200Y-95351600D03*
G04 #@! TO.P,U1,22*
G04 #@! TO.N,GND*
X142697200Y-90271600D03*
G04 #@! TO.P,U1,8*
X135077200Y-92811600D03*
G04 #@! TO.P,U1,21*
G04 #@! TO.N,+5V*
X142697200Y-92811600D03*
G04 #@! TO.P,U1,7*
X135077200Y-90271600D03*
G04 #@! TO.P,U1,20*
X142697200Y-95351600D03*
G04 #@! TO.P,U1,6*
G04 #@! TO.N,Net-(U1-Pad6)*
X135077200Y-87731600D03*
G04 #@! TO.P,U1,19*
G04 #@! TO.N,/328P_ICSP_SCK*
X142697200Y-97891600D03*
G04 #@! TO.P,U1,5*
G04 #@! TO.N,Net-(R6-Pad2)*
X135077200Y-85191600D03*
G04 #@! TO.P,U1,18*
G04 #@! TO.N,/328P_ICSP_MIS0*
X142697200Y-100431600D03*
G04 #@! TO.P,U1,4*
G04 #@! TO.N,/INIT*
X135077200Y-82651600D03*
G04 #@! TO.P,U1,17*
G04 #@! TO.N,/328P_ICSP_MOSI*
X142697200Y-102971600D03*
G04 #@! TO.P,U1,3*
G04 #@! TO.N,/UART_TX*
X135077200Y-80111600D03*
G04 #@! TO.P,U1,16*
G04 #@! TO.N,/PWM-2*
X142697200Y-105511600D03*
G04 #@! TO.P,U1,2*
G04 #@! TO.N,/UART_RX*
X135077200Y-77571600D03*
G04 #@! TO.P,U1,15*
G04 #@! TO.N,/PWM-1*
X142697200Y-108051600D03*
D32*
G04 #@! TO.P,U1,1*
G04 #@! TO.N,/328P_ICSP_RESET*
X135077200Y-75031600D03*
G04 #@! TD*
D33*
G04 #@! TO.P,U2,3*
G04 #@! TO.N,+5V*
X103073200Y-106832400D03*
G04 #@! TO.P,U2,2*
G04 #@! TO.N,GND*
X100533200Y-106832400D03*
D16*
G04 #@! TO.P,U2,1*
G04 #@! TO.N,Net-(C22-Pad1)*
X97993200Y-106832400D03*
G04 #@! TD*
D34*
G04 #@! TO.P,Y1,2*
G04 #@! TO.N,Net-(C11-Pad2)*
X122174000Y-95602400D03*
G04 #@! TO.P,Y1,1*
G04 #@! TO.N,Net-(C14-Pad2)*
X122174000Y-100482400D03*
G04 #@! TD*
D24*
G04 #@! TO.P,J7,2*
G04 #@! TO.N,Net-(D3-Pad2)*
X92862400Y-130454400D03*
D25*
G04 #@! TO.P,J7,1*
G04 #@! TO.N,GND*
X97942400Y-130454400D03*
G04 #@! TD*
D10*
G04 #@! TO.P,REF\002A\002A,*
G04 #@! TO.N,*
X84000000Y-61000000D03*
D11*
G04 #@! TO.P,REF\002A\002A,1*
G04 #@! TO.N,N/C*
X86400000Y-61000000D03*
X85697056Y-62697056D03*
X84000000Y-63400000D03*
X82302944Y-62697056D03*
X81600000Y-61000000D03*
X82302944Y-59302944D03*
X84000000Y-58600000D03*
X85697056Y-59302944D03*
G04 #@! TD*
D10*
G04 #@! TO.P,REF\002A\002A,*
G04 #@! TO.N,*
X166000000Y-61000000D03*
D11*
G04 #@! TO.P,REF\002A\002A,1*
G04 #@! TO.N,N/C*
X168400000Y-61000000D03*
X167697056Y-62697056D03*
X166000000Y-63400000D03*
X164302944Y-62697056D03*
X163600000Y-61000000D03*
X164302944Y-59302944D03*
X166000000Y-58600000D03*
X167697056Y-59302944D03*
G04 #@! TD*
D24*
G04 #@! TO.P,J9,2*
G04 #@! TO.N,+5V*
X84500000Y-106832400D03*
D25*
G04 #@! TO.P,J9,1*
G04 #@! TO.N,GND*
X84500000Y-101752400D03*
G04 #@! TD*
D35*
G04 #@! TO.N,GND*
X149555200Y-113893600D03*
G04 #@! TO.N,/328P_ICSP_MIS0*
X145034000Y-116967000D03*
D36*
G04 #@! TO.N,/328P_ICSP_MOSI*
X147637500Y-112204500D03*
G04 #@! TO.N,/328P_ICSP_SCK*
X152298400Y-99618800D03*
X155892500Y-112204500D03*
G04 #@! TD*
D37*
G04 #@! TO.N,+5V*
X135077200Y-90271600D02*
X135477200Y-90271600D01*
D38*
G04 #@! TO.N,/REFLECT-1IN*
X164136400Y-71558000D02*
X164136400Y-74189600D01*
X160934400Y-66548000D02*
X160934400Y-68356000D01*
X160934400Y-68356000D02*
X164136400Y-71558000D01*
G04 #@! TO.N,/REFLECT-2IN*
X158394400Y-68356000D02*
X159156400Y-69118000D01*
X158394400Y-66548000D02*
X158394400Y-68356000D01*
X159136400Y-69138000D02*
X159136400Y-74189600D01*
X159156400Y-69118000D02*
X159136400Y-69138000D01*
G04 #@! TO.N,Net-(C11-Pad2)*
X135077200Y-95351600D02*
X130708400Y-95351600D01*
X130566800Y-95210000D02*
X128625600Y-95210000D01*
X130708400Y-95351600D02*
X130566800Y-95210000D01*
X122174000Y-95602400D02*
X124869600Y-95602400D01*
X125262000Y-95210000D02*
X128625600Y-95210000D01*
X124869600Y-95602400D02*
X125262000Y-95210000D01*
G04 #@! TO.N,/328P_ICSP_MIS0*
X133286399Y-118351199D02*
X138061599Y-118351199D01*
X132486400Y-117551200D02*
X133286399Y-118351199D01*
X138684000Y-118973600D02*
X138684000Y-121666000D01*
X138061599Y-118351199D02*
X138684000Y-118973600D01*
X138684000Y-121666000D02*
X138684000Y-118681500D01*
X138684000Y-118681500D02*
X140398500Y-116967000D01*
X140398500Y-116967000D02*
X145034000Y-116967000D01*
G04 #@! TO.N,/ULTRASONIC-TRIGGER*
X132435600Y-121666000D02*
X136144000Y-121666000D01*
G04 #@! TO.N,Net-(C14-Pad2)*
X130951600Y-97891600D02*
X128625600Y-100217600D01*
X135077200Y-97891600D02*
X130951600Y-97891600D01*
X122174000Y-100482400D02*
X124815600Y-100482400D01*
X125080400Y-100217600D02*
X128625600Y-100217600D01*
X124815600Y-100482400D02*
X125080400Y-100217600D01*
G04 #@! TO.N,/REFLECT-3IN*
X154136400Y-70074000D02*
X154136400Y-74189600D01*
X155854400Y-66548000D02*
X155854400Y-68356000D01*
X155854400Y-68356000D02*
X154136400Y-70074000D01*
G04 #@! TO.N,/REFLECT-4IN*
X153314400Y-68356000D02*
X153314400Y-66548000D01*
X152277600Y-69392800D02*
X153314400Y-68356000D01*
X151790400Y-69392800D02*
X152277600Y-69392800D01*
X149136400Y-72046800D02*
X151790400Y-69392800D01*
X149136400Y-74189600D02*
X149136400Y-72046800D01*
G04 #@! TO.N,Net-(D1-Pad2)*
X108307600Y-89662000D02*
X104597200Y-89662000D01*
X103941200Y-90318000D02*
X101847600Y-90318000D01*
X104597200Y-89662000D02*
X103941200Y-90318000D01*
G04 #@! TO.N,Net-(D2-Pad2)*
X106264000Y-84734400D02*
X108307600Y-84734400D01*
X101847600Y-80318000D02*
X106264000Y-84734400D01*
G04 #@! TO.N,/UART_TX*
X135077200Y-80111600D02*
X126644400Y-80111600D01*
X126644400Y-80111600D02*
X116687600Y-70154800D01*
X116687600Y-70154800D02*
X113792000Y-70154800D01*
X112928400Y-69291200D02*
X112928400Y-66954400D01*
X113792000Y-70154800D02*
X112928400Y-69291200D01*
G04 #@! TO.N,/UART_RX*
X125785600Y-77571600D02*
X120243600Y-72029600D01*
X135077200Y-77571600D02*
X125785600Y-77571600D01*
X120243600Y-72029600D02*
X120243600Y-68732400D01*
X118465600Y-66954400D02*
X115468400Y-66954400D01*
X120243600Y-68732400D02*
X118465600Y-66954400D01*
G04 #@! TO.N,/PWM-1*
X142849600Y-108204000D02*
X142697200Y-108051600D01*
X159664400Y-108204000D02*
X142849600Y-108204000D01*
G04 #@! TO.N,/PWM-2*
X159512000Y-105511600D02*
X159664400Y-105664000D01*
X142697200Y-105511600D02*
X159512000Y-105511600D01*
G04 #@! TO.N,/328P_ICSP_MOSI*
X159512000Y-102971600D02*
X159664400Y-103124000D01*
X142697200Y-102971600D02*
X159512000Y-102971600D01*
X157022800Y-120804514D02*
X157022800Y-119583200D01*
X147624800Y-118922800D02*
X152196800Y-123494800D01*
X152196800Y-123494800D02*
X156057600Y-123494800D01*
X156057600Y-123494800D02*
X157022800Y-122529600D01*
X157022800Y-122529600D02*
X157022800Y-120804514D01*
X147637500Y-112204500D02*
X147624800Y-118922800D01*
G04 #@! TO.N,/PWM-4*
X161472400Y-100584000D02*
X163703000Y-102814600D01*
X159664400Y-100584000D02*
X161472400Y-100584000D01*
X163703000Y-102814600D02*
X163703000Y-108458000D01*
X163703000Y-108458000D02*
X161798000Y-110363000D01*
X161798000Y-110363000D02*
X141224000Y-110363000D01*
X141224000Y-110363000D02*
X139192000Y-108331000D01*
X139192000Y-108331000D02*
X139192000Y-101854000D01*
X137769600Y-100431600D02*
X135077200Y-100431600D01*
X139192000Y-101854000D02*
X137769600Y-100431600D01*
G04 #@! TO.N,/328P_ICSP_RESET*
X135077200Y-75031600D02*
X135077200Y-70256400D01*
X129387600Y-69291200D02*
X131419600Y-69291200D01*
X132384800Y-70256400D02*
X135077200Y-70256400D01*
X131419600Y-69291200D02*
X132384800Y-70256400D01*
X122887600Y-69291200D02*
X129387600Y-69291200D01*
G04 #@! TO.N,/328P_ICSP_SCK*
X152298400Y-98990183D02*
X151199817Y-97891600D01*
X152298400Y-99618800D02*
X152298400Y-98990183D01*
X151199817Y-97891600D02*
X142697200Y-97891600D01*
X157022800Y-113334800D02*
X157022800Y-117043200D01*
X155892500Y-112204500D02*
X157022800Y-113334800D01*
G04 #@! TO.N,/REFLECT-1*
X164136400Y-81809600D02*
X164136400Y-84189600D01*
X144405200Y-87731600D02*
X145776800Y-89103200D01*
X142697200Y-87731600D02*
X144405200Y-87731600D01*
X145776800Y-89103200D02*
X160223200Y-89103200D01*
X160223200Y-89103200D02*
X161747200Y-87579200D01*
X161747200Y-87579200D02*
X161747200Y-84836000D01*
X162393600Y-84189600D02*
X164136400Y-84189600D01*
X161747200Y-84836000D02*
X162393600Y-84189600D01*
G04 #@! TO.N,/REFLECT-2*
X159136400Y-81809600D02*
X159136400Y-84189600D01*
X157516800Y-84189600D02*
X159136400Y-84189600D01*
X144405200Y-85191600D02*
X147453200Y-88239600D01*
X142697200Y-85191600D02*
X144405200Y-85191600D01*
X147453200Y-88239600D02*
X155600400Y-88239600D01*
X155600400Y-88239600D02*
X156413200Y-87426800D01*
X156413200Y-87426800D02*
X156413200Y-85293200D01*
X156413200Y-85293200D02*
X157516800Y-84189600D01*
G04 #@! TO.N,/REFLECT-3*
X154136400Y-81809600D02*
X154136400Y-84189600D01*
X154136400Y-80678230D02*
X153569770Y-80111600D01*
X154136400Y-81809600D02*
X154136400Y-80678230D01*
X153569770Y-80111600D02*
X142697200Y-80111600D01*
G04 #@! TO.N,/REFLECT-4*
X149136400Y-81809600D02*
X146079200Y-81809600D01*
X145237200Y-82651600D02*
X142697200Y-82651600D01*
X146079200Y-81809600D02*
X145237200Y-82651600D01*
X149136400Y-84189600D02*
X149136400Y-81809600D01*
G04 #@! TO.N,Net-(R6-Pad2)*
X135077200Y-85191600D02*
X118211600Y-85191600D01*
X115927600Y-87475600D02*
X115927600Y-89662000D01*
X118211600Y-85191600D02*
X115927600Y-87475600D01*
G04 #@! TO.N,/START*
X124714000Y-108051600D02*
X124561600Y-108204000D01*
X135077200Y-108051600D02*
X124714000Y-108051600D01*
X124559200Y-108206400D02*
X124561600Y-108204000D01*
X124559200Y-113842800D02*
X124559200Y-108206400D01*
X119473413Y-113842800D02*
X124559200Y-113842800D01*
X118059200Y-113842800D02*
X119473413Y-113842800D01*
G04 #@! TO.N,/INIT*
X133369200Y-82651600D02*
X133115200Y-82397600D01*
X135077200Y-82651600D02*
X133369200Y-82651600D01*
X118264400Y-82397600D02*
X115927600Y-84734400D01*
X133115200Y-82397600D02*
X118264400Y-82397600D01*
G04 #@! TD*
D39*
G04 #@! TO.N,GND*
G36*
X163827647Y-57748844D02*
X162748844Y-58827647D01*
X162165000Y-60237171D01*
X162165000Y-61762829D01*
X162748844Y-63172353D01*
X163827647Y-64251156D01*
X165237171Y-64835000D01*
X166762829Y-64835000D01*
X168172353Y-64251156D01*
X169251156Y-63172353D01*
X169290000Y-63078575D01*
X169290001Y-128921427D01*
X169251156Y-128827647D01*
X168172353Y-127748844D01*
X166762829Y-127165000D01*
X165237171Y-127165000D01*
X163827647Y-127748844D01*
X162748844Y-128827647D01*
X162165000Y-130237171D01*
X162165000Y-131762829D01*
X162748844Y-133172353D01*
X163827647Y-134251156D01*
X163921425Y-134290000D01*
X86078575Y-134290000D01*
X86172353Y-134251156D01*
X87251156Y-133172353D01*
X87835000Y-131762829D01*
X87835000Y-130237171D01*
X87749072Y-130029722D01*
X90727400Y-130029722D01*
X90727400Y-130879078D01*
X91052434Y-131663780D01*
X91653020Y-132264366D01*
X92437722Y-132589400D01*
X93287078Y-132589400D01*
X94071780Y-132264366D01*
X94672366Y-131663780D01*
X94997400Y-130879078D01*
X94997400Y-130740150D01*
X95807400Y-130740150D01*
X95807400Y-132080710D01*
X95904073Y-132314099D01*
X96082702Y-132492727D01*
X96316091Y-132589400D01*
X97656650Y-132589400D01*
X97815400Y-132430650D01*
X97815400Y-130581400D01*
X98069400Y-130581400D01*
X98069400Y-132430650D01*
X98228150Y-132589400D01*
X99568709Y-132589400D01*
X99802098Y-132492727D01*
X99980727Y-132314099D01*
X100077400Y-132080710D01*
X100077400Y-130740150D01*
X99918650Y-130581400D01*
X98069400Y-130581400D01*
X97815400Y-130581400D01*
X95966150Y-130581400D01*
X95807400Y-130740150D01*
X94997400Y-130740150D01*
X94997400Y-130029722D01*
X94672366Y-129245020D01*
X94255436Y-128828090D01*
X95807400Y-128828090D01*
X95807400Y-130168650D01*
X95966150Y-130327400D01*
X97815400Y-130327400D01*
X97815400Y-128478150D01*
X98069400Y-128478150D01*
X98069400Y-130327400D01*
X99918650Y-130327400D01*
X100077400Y-130168650D01*
X100077400Y-129424950D01*
X104345800Y-129424950D01*
X104345800Y-131015509D01*
X104442473Y-131248898D01*
X104621101Y-131427527D01*
X104854490Y-131524200D01*
X106445050Y-131524200D01*
X106603800Y-131365450D01*
X106603800Y-129266200D01*
X106857800Y-129266200D01*
X106857800Y-131365450D01*
X107016550Y-131524200D01*
X108607110Y-131524200D01*
X108840499Y-131427527D01*
X109019127Y-131248898D01*
X109115800Y-131015509D01*
X109115800Y-130519600D01*
X116562560Y-130519600D01*
X116562560Y-132319600D01*
X116611843Y-132567365D01*
X116752191Y-132777409D01*
X116962235Y-132917757D01*
X117210000Y-132967040D01*
X119010000Y-132967040D01*
X119257765Y-132917757D01*
X119467809Y-132777409D01*
X119608157Y-132567365D01*
X119657440Y-132319600D01*
X119657440Y-131368800D01*
X121930087Y-131368800D01*
X122041460Y-131928709D01*
X122358623Y-132403377D01*
X122833291Y-132720540D01*
X123251867Y-132803800D01*
X123534533Y-132803800D01*
X123953109Y-132720540D01*
X124427777Y-132403377D01*
X124445705Y-132376545D01*
X130185061Y-132376545D01*
X130259195Y-132622664D01*
X130796423Y-132815765D01*
X131366654Y-132788578D01*
X131767205Y-132622664D01*
X131841339Y-132376545D01*
X131013200Y-131548405D01*
X130185061Y-132376545D01*
X124445705Y-132376545D01*
X124744940Y-131928709D01*
X124856313Y-131368800D01*
X124813194Y-131152023D01*
X129566235Y-131152023D01*
X129593422Y-131722254D01*
X129759336Y-132122805D01*
X130005455Y-132196939D01*
X130833595Y-131368800D01*
X131192805Y-131368800D01*
X132020945Y-132196939D01*
X132267064Y-132122805D01*
X132460165Y-131585577D01*
X132432978Y-131015346D01*
X132267064Y-130614795D01*
X132020945Y-130540661D01*
X131192805Y-131368800D01*
X130833595Y-131368800D01*
X130005455Y-130540661D01*
X129759336Y-130614795D01*
X129566235Y-131152023D01*
X124813194Y-131152023D01*
X124744940Y-130808891D01*
X124445706Y-130361055D01*
X130185061Y-130361055D01*
X131013200Y-131189195D01*
X131841339Y-130361055D01*
X131767205Y-130114936D01*
X131229977Y-129921835D01*
X130659746Y-129949022D01*
X130259195Y-130114936D01*
X130185061Y-130361055D01*
X124445706Y-130361055D01*
X124427777Y-130334223D01*
X123953109Y-130017060D01*
X123534533Y-129933800D01*
X123251867Y-129933800D01*
X122833291Y-130017060D01*
X122358623Y-130334223D01*
X122041460Y-130808891D01*
X121930087Y-131368800D01*
X119657440Y-131368800D01*
X119657440Y-130519600D01*
X119608157Y-130271835D01*
X119467809Y-130061791D01*
X119257765Y-129921443D01*
X119242092Y-129918325D01*
X119411310Y-129749107D01*
X119645000Y-129184930D01*
X119645000Y-128574270D01*
X119411310Y-128010093D01*
X118979507Y-127578290D01*
X118415330Y-127344600D01*
X117804670Y-127344600D01*
X117240493Y-127578290D01*
X116808690Y-128010093D01*
X116575000Y-128574270D01*
X116575000Y-129184930D01*
X116808690Y-129749107D01*
X116977908Y-129918325D01*
X116962235Y-129921443D01*
X116752191Y-130061791D01*
X116611843Y-130271835D01*
X116562560Y-130519600D01*
X109115800Y-130519600D01*
X109115800Y-129424950D01*
X108957050Y-129266200D01*
X106857800Y-129266200D01*
X106603800Y-129266200D01*
X104504550Y-129266200D01*
X104345800Y-129424950D01*
X100077400Y-129424950D01*
X100077400Y-128828090D01*
X99980727Y-128594701D01*
X99802098Y-128416073D01*
X99568709Y-128319400D01*
X98228150Y-128319400D01*
X98069400Y-128478150D01*
X97815400Y-128478150D01*
X97656650Y-128319400D01*
X96316091Y-128319400D01*
X96082702Y-128416073D01*
X95904073Y-128594701D01*
X95807400Y-128828090D01*
X94255436Y-128828090D01*
X94071780Y-128644434D01*
X93287078Y-128319400D01*
X92437722Y-128319400D01*
X91653020Y-128644434D01*
X91052434Y-129245020D01*
X90727400Y-130029722D01*
X87749072Y-130029722D01*
X87251156Y-128827647D01*
X86172353Y-127748844D01*
X84999159Y-127262891D01*
X104345800Y-127262891D01*
X104345800Y-128853450D01*
X104504550Y-129012200D01*
X106603800Y-129012200D01*
X106603800Y-126912950D01*
X106857800Y-126912950D01*
X106857800Y-129012200D01*
X108957050Y-129012200D01*
X109115800Y-128853450D01*
X109115800Y-128184504D01*
X109142473Y-128248898D01*
X109321101Y-128427527D01*
X109554490Y-128524200D01*
X111145050Y-128524200D01*
X111303800Y-128365450D01*
X111303800Y-126266200D01*
X111557800Y-126266200D01*
X111557800Y-128365450D01*
X111716550Y-128524200D01*
X113307110Y-128524200D01*
X113540499Y-128427527D01*
X113719127Y-128248898D01*
X113815800Y-128015509D01*
X113815800Y-126424950D01*
X113657050Y-126266200D01*
X111557800Y-126266200D01*
X111303800Y-126266200D01*
X109204550Y-126266200D01*
X109045800Y-126424950D01*
X109045800Y-127093896D01*
X109019127Y-127029502D01*
X108840499Y-126850873D01*
X108607110Y-126754200D01*
X107016550Y-126754200D01*
X106857800Y-126912950D01*
X106603800Y-126912950D01*
X106445050Y-126754200D01*
X104854490Y-126754200D01*
X104621101Y-126850873D01*
X104442473Y-127029502D01*
X104345800Y-127262891D01*
X84999159Y-127262891D01*
X84762829Y-127165000D01*
X83237171Y-127165000D01*
X81827647Y-127748844D01*
X80748844Y-128827647D01*
X80710000Y-128921425D01*
X80710000Y-121900950D01*
X82365000Y-121900950D01*
X82365000Y-123241509D01*
X82461673Y-123474898D01*
X82640301Y-123653527D01*
X82873690Y-123750200D01*
X84214250Y-123750200D01*
X84373000Y-123591450D01*
X84373000Y-121742200D01*
X84627000Y-121742200D01*
X84627000Y-123591450D01*
X84785750Y-123750200D01*
X86126310Y-123750200D01*
X86359699Y-123653527D01*
X86538327Y-123474898D01*
X86635000Y-123241509D01*
X86635000Y-121900950D01*
X86476250Y-121742200D01*
X84627000Y-121742200D01*
X84373000Y-121742200D01*
X82523750Y-121742200D01*
X82365000Y-121900950D01*
X80710000Y-121900950D01*
X80710000Y-119988891D01*
X82365000Y-119988891D01*
X82365000Y-121329450D01*
X82523750Y-121488200D01*
X84373000Y-121488200D01*
X84373000Y-119638950D01*
X84627000Y-119638950D01*
X84627000Y-121488200D01*
X86476250Y-121488200D01*
X86635000Y-121329450D01*
X86635000Y-119988891D01*
X86572168Y-119837200D01*
X95614610Y-119837200D01*
X95749266Y-120514163D01*
X96132735Y-121088065D01*
X96706637Y-121471534D01*
X97212720Y-121572200D01*
X97554480Y-121572200D01*
X98060563Y-121471534D01*
X98183784Y-121389200D01*
X104333360Y-121389200D01*
X104333360Y-124889200D01*
X104382643Y-125136965D01*
X104522991Y-125347009D01*
X104733035Y-125487357D01*
X104980800Y-125536640D01*
X108480800Y-125536640D01*
X108728565Y-125487357D01*
X108938609Y-125347009D01*
X109045800Y-125186588D01*
X109045800Y-125853450D01*
X109204550Y-126012200D01*
X111303800Y-126012200D01*
X111303800Y-123912950D01*
X111557800Y-123912950D01*
X111557800Y-126012200D01*
X113657050Y-126012200D01*
X113815800Y-125853450D01*
X113815800Y-125173745D01*
X131607461Y-125173745D01*
X131681595Y-125419864D01*
X132218823Y-125612965D01*
X132789054Y-125585778D01*
X133189605Y-125419864D01*
X133263739Y-125173745D01*
X132435600Y-124345605D01*
X131607461Y-125173745D01*
X113815800Y-125173745D01*
X113815800Y-124262891D01*
X113719127Y-124029502D01*
X113638849Y-123949223D01*
X130988635Y-123949223D01*
X131015822Y-124519454D01*
X131181736Y-124920005D01*
X131427855Y-124994139D01*
X132255995Y-124166000D01*
X132615205Y-124166000D01*
X133443345Y-124994139D01*
X133689464Y-124920005D01*
X133882565Y-124382777D01*
X133855378Y-123812546D01*
X133689464Y-123411995D01*
X133443345Y-123337861D01*
X132615205Y-124166000D01*
X132255995Y-124166000D01*
X131427855Y-123337861D01*
X131181736Y-123411995D01*
X130988635Y-123949223D01*
X113638849Y-123949223D01*
X113540499Y-123850873D01*
X113307110Y-123754200D01*
X111716550Y-123754200D01*
X111557800Y-123912950D01*
X111303800Y-123912950D01*
X111145050Y-123754200D01*
X109554490Y-123754200D01*
X109321101Y-123850873D01*
X109142473Y-124029502D01*
X109128240Y-124063863D01*
X109128240Y-121389200D01*
X109126522Y-121380561D01*
X131000600Y-121380561D01*
X131000600Y-121951439D01*
X131219066Y-122478862D01*
X131622738Y-122882534D01*
X131687899Y-122909525D01*
X131681595Y-122912136D01*
X131607461Y-123158255D01*
X132435600Y-123986395D01*
X133263739Y-123158255D01*
X133189605Y-122912136D01*
X133182854Y-122909710D01*
X133248462Y-122882534D01*
X133575996Y-122555000D01*
X134594128Y-122555000D01*
X134603864Y-122603944D01*
X134965231Y-123144769D01*
X135506055Y-123506136D01*
X136144000Y-123633031D01*
X136781944Y-123506136D01*
X137322769Y-123144769D01*
X137414000Y-123008232D01*
X137505231Y-123144769D01*
X138046055Y-123506136D01*
X138684000Y-123633031D01*
X139321944Y-123506136D01*
X139862769Y-123144769D01*
X139954000Y-123008232D01*
X140045231Y-123144769D01*
X140586055Y-123506136D01*
X141224000Y-123633031D01*
X141861944Y-123506136D01*
X142205365Y-123276670D01*
X142225673Y-123325699D01*
X142404302Y-123504327D01*
X142637691Y-123601000D01*
X143478250Y-123601000D01*
X143637000Y-123442250D01*
X143637000Y-121793000D01*
X143891000Y-121793000D01*
X143891000Y-123442250D01*
X144049750Y-123601000D01*
X144890309Y-123601000D01*
X145123698Y-123504327D01*
X145302327Y-123325699D01*
X145399000Y-123092310D01*
X145399000Y-121951750D01*
X145240250Y-121793000D01*
X143891000Y-121793000D01*
X143637000Y-121793000D01*
X143617000Y-121793000D01*
X143617000Y-121539000D01*
X143637000Y-121539000D01*
X143637000Y-119889750D01*
X143891000Y-119889750D01*
X143891000Y-121539000D01*
X145240250Y-121539000D01*
X145399000Y-121380250D01*
X145399000Y-120239690D01*
X145302327Y-120006301D01*
X145123698Y-119827673D01*
X144890309Y-119731000D01*
X144049750Y-119731000D01*
X143891000Y-119889750D01*
X143637000Y-119889750D01*
X143478250Y-119731000D01*
X142637691Y-119731000D01*
X142404302Y-119827673D01*
X142225673Y-120006301D01*
X142205365Y-120055330D01*
X141861945Y-119825864D01*
X141224000Y-119698969D01*
X140586056Y-119825864D01*
X140045231Y-120187231D01*
X139954000Y-120323768D01*
X139862769Y-120187231D01*
X139573000Y-119993614D01*
X139573000Y-119061155D01*
X139575836Y-119046900D01*
X140766736Y-117856000D01*
X144395650Y-117856000D01*
X144422229Y-117882579D01*
X144819175Y-118047000D01*
X145248825Y-118047000D01*
X145645771Y-117882579D01*
X145949579Y-117578771D01*
X146114000Y-117181825D01*
X146114000Y-116752175D01*
X145949579Y-116355229D01*
X145645771Y-116051421D01*
X145248825Y-115887000D01*
X144819175Y-115887000D01*
X144422229Y-116051421D01*
X144395650Y-116078000D01*
X140486054Y-116078000D01*
X140398499Y-116060584D01*
X140310944Y-116078000D01*
X140051630Y-116129581D01*
X139757567Y-116326067D01*
X139707971Y-116400293D01*
X138519977Y-117588287D01*
X138408469Y-117513780D01*
X138149155Y-117462199D01*
X138149154Y-117462199D01*
X138061599Y-117444783D01*
X137974044Y-117462199D01*
X133921400Y-117462199D01*
X133921400Y-117265761D01*
X133702934Y-116738338D01*
X133299262Y-116334666D01*
X133234101Y-116307675D01*
X133240405Y-116305064D01*
X133314539Y-116058945D01*
X132486400Y-115230805D01*
X131658261Y-116058945D01*
X131732395Y-116305064D01*
X131739146Y-116307490D01*
X131673538Y-116334666D01*
X131269866Y-116738338D01*
X131051400Y-117265761D01*
X131051400Y-117836639D01*
X131269866Y-118364062D01*
X131673538Y-118767734D01*
X132200961Y-118986200D01*
X132641502Y-118986200D01*
X132645466Y-118992132D01*
X132939529Y-119188618D01*
X133198843Y-119240199D01*
X133198847Y-119240199D01*
X133286398Y-119257614D01*
X133373949Y-119240199D01*
X137693364Y-119240199D01*
X137795000Y-119341836D01*
X137795000Y-119993614D01*
X137505231Y-120187231D01*
X137414000Y-120323768D01*
X137322769Y-120187231D01*
X136781945Y-119825864D01*
X136144000Y-119698969D01*
X135506056Y-119825864D01*
X134965231Y-120187231D01*
X134603864Y-120728055D01*
X134594128Y-120777000D01*
X133575996Y-120777000D01*
X133248462Y-120449466D01*
X132721039Y-120231000D01*
X132150161Y-120231000D01*
X131622738Y-120449466D01*
X131219066Y-120853138D01*
X131000600Y-121380561D01*
X109126522Y-121380561D01*
X109078957Y-121141435D01*
X108938609Y-120931391D01*
X108728565Y-120791043D01*
X108480800Y-120741760D01*
X104980800Y-120741760D01*
X104733035Y-120791043D01*
X104522991Y-120931391D01*
X104382643Y-121141435D01*
X104333360Y-121389200D01*
X98183784Y-121389200D01*
X98634465Y-121088065D01*
X99017934Y-120514163D01*
X99152590Y-119837200D01*
X99017934Y-119160237D01*
X98634465Y-118586335D01*
X98060563Y-118202866D01*
X97554480Y-118102200D01*
X97212720Y-118102200D01*
X96706637Y-118202866D01*
X96132735Y-118586335D01*
X95749266Y-119160237D01*
X95614610Y-119837200D01*
X86572168Y-119837200D01*
X86538327Y-119755502D01*
X86359699Y-119576873D01*
X86126310Y-119480200D01*
X84785750Y-119480200D01*
X84627000Y-119638950D01*
X84373000Y-119638950D01*
X84214250Y-119480200D01*
X82873690Y-119480200D01*
X82640301Y-119576873D01*
X82461673Y-119755502D01*
X82365000Y-119988891D01*
X80710000Y-119988891D01*
X80710000Y-116110522D01*
X82365000Y-116110522D01*
X82365000Y-116959878D01*
X82690034Y-117744580D01*
X83290620Y-118345166D01*
X84075322Y-118670200D01*
X84924678Y-118670200D01*
X85709380Y-118345166D01*
X86036968Y-118017578D01*
X116424200Y-118017578D01*
X116424200Y-118668022D01*
X116673114Y-119268953D01*
X117133047Y-119728886D01*
X117733978Y-119977800D01*
X118384422Y-119977800D01*
X118985353Y-119728886D01*
X119445286Y-119268953D01*
X119694200Y-118668022D01*
X119694200Y-118017578D01*
X122924200Y-118017578D01*
X122924200Y-118668022D01*
X123173114Y-119268953D01*
X123633047Y-119728886D01*
X124233978Y-119977800D01*
X124884422Y-119977800D01*
X125485353Y-119728886D01*
X125945286Y-119268953D01*
X126194200Y-118668022D01*
X126194200Y-118017578D01*
X125945286Y-117416647D01*
X125485353Y-116956714D01*
X124884422Y-116707800D01*
X124233978Y-116707800D01*
X123633047Y-116956714D01*
X123173114Y-117416647D01*
X122924200Y-118017578D01*
X119694200Y-118017578D01*
X119445286Y-117416647D01*
X118985353Y-116956714D01*
X118384422Y-116707800D01*
X117733978Y-116707800D01*
X117133047Y-116956714D01*
X116673114Y-117416647D01*
X116424200Y-118017578D01*
X86036968Y-118017578D01*
X86309966Y-117744580D01*
X86635000Y-116959878D01*
X86635000Y-116110522D01*
X86309966Y-115325820D01*
X85709380Y-114725234D01*
X84924678Y-114400200D01*
X84075322Y-114400200D01*
X83290620Y-114725234D01*
X82690034Y-115325820D01*
X82365000Y-116110522D01*
X80710000Y-116110522D01*
X80710000Y-112084161D01*
X91173400Y-112084161D01*
X91173400Y-112655039D01*
X91391866Y-113182462D01*
X91795538Y-113586134D01*
X92322961Y-113804600D01*
X92893839Y-113804600D01*
X93421262Y-113586134D01*
X93824934Y-113182462D01*
X94043400Y-112655039D01*
X94043400Y-112084161D01*
X93824934Y-111556738D01*
X93421262Y-111153066D01*
X93356101Y-111126075D01*
X93362405Y-111123464D01*
X93364291Y-111117200D01*
X95636160Y-111117200D01*
X95636160Y-113317200D01*
X95685443Y-113564965D01*
X95825791Y-113775009D01*
X96035835Y-113915357D01*
X96283600Y-113964640D01*
X98483600Y-113964640D01*
X98731365Y-113915357D01*
X98941409Y-113775009D01*
X99057278Y-113601600D01*
X101066960Y-113601600D01*
X101066960Y-115201600D01*
X101116243Y-115449365D01*
X101256591Y-115659409D01*
X101466635Y-115799757D01*
X101714400Y-115849040D01*
X103314400Y-115849040D01*
X103562165Y-115799757D01*
X103772209Y-115659409D01*
X103912557Y-115449365D01*
X103920517Y-115409345D01*
X104186261Y-115409345D01*
X104260395Y-115655464D01*
X104797623Y-115848565D01*
X105367854Y-115821378D01*
X105768405Y-115655464D01*
X105842539Y-115409345D01*
X105014400Y-114581205D01*
X104186261Y-115409345D01*
X103920517Y-115409345D01*
X103959093Y-115215413D01*
X104006655Y-115229739D01*
X104834795Y-114401600D01*
X105194005Y-114401600D01*
X106022145Y-115229739D01*
X106268264Y-115155605D01*
X106461365Y-114618377D01*
X106434178Y-114048146D01*
X106268264Y-113647595D01*
X106022145Y-113573461D01*
X105194005Y-114401600D01*
X104834795Y-114401600D01*
X104006655Y-113573461D01*
X103959093Y-113587787D01*
X103920518Y-113393855D01*
X104186261Y-113393855D01*
X105014400Y-114221995D01*
X105842539Y-113393855D01*
X105768405Y-113147736D01*
X105231177Y-112954635D01*
X104660946Y-112981822D01*
X104260395Y-113147736D01*
X104186261Y-113393855D01*
X103920518Y-113393855D01*
X103912557Y-113353835D01*
X103772209Y-113143791D01*
X103562165Y-113003443D01*
X103314400Y-112954160D01*
X101714400Y-112954160D01*
X101466635Y-113003443D01*
X101256591Y-113143791D01*
X101116243Y-113353835D01*
X101066960Y-113601600D01*
X99057278Y-113601600D01*
X99081757Y-113564965D01*
X99131040Y-113317200D01*
X99131040Y-111880961D01*
X107886600Y-111880961D01*
X107886600Y-112451839D01*
X108105066Y-112979262D01*
X108508738Y-113382934D01*
X109036161Y-113601400D01*
X109607039Y-113601400D01*
X110134462Y-113382934D01*
X110343251Y-113174145D01*
X110993461Y-113174145D01*
X111067595Y-113420264D01*
X111604823Y-113613365D01*
X112175054Y-113586178D01*
X112340668Y-113517578D01*
X116424200Y-113517578D01*
X116424200Y-114168022D01*
X116673114Y-114768953D01*
X117133047Y-115228886D01*
X117733978Y-115477800D01*
X118384422Y-115477800D01*
X118985353Y-115228886D01*
X119445286Y-114768953D01*
X119460675Y-114731800D01*
X123157725Y-114731800D01*
X123173114Y-114768953D01*
X123633047Y-115228886D01*
X124233978Y-115477800D01*
X124884422Y-115477800D01*
X125485353Y-115228886D01*
X125879816Y-114834423D01*
X131039435Y-114834423D01*
X131066622Y-115404654D01*
X131232536Y-115805205D01*
X131478655Y-115879339D01*
X132306795Y-115051200D01*
X132666005Y-115051200D01*
X133494145Y-115879339D01*
X133740264Y-115805205D01*
X133933365Y-115267977D01*
X133912358Y-114827361D01*
X136550500Y-114827361D01*
X136550500Y-115398239D01*
X136768966Y-115925662D01*
X137172638Y-116329334D01*
X137700061Y-116547800D01*
X138270939Y-116547800D01*
X138798362Y-116329334D01*
X139202034Y-115925662D01*
X139420500Y-115398239D01*
X139420500Y-114827361D01*
X139202034Y-114299938D01*
X138798362Y-113896266D01*
X138733201Y-113869275D01*
X138739505Y-113866664D01*
X138813639Y-113620545D01*
X137985500Y-112792405D01*
X137157361Y-113620545D01*
X137231495Y-113866664D01*
X137238246Y-113869090D01*
X137172638Y-113896266D01*
X136768966Y-114299938D01*
X136550500Y-114827361D01*
X133912358Y-114827361D01*
X133906178Y-114697746D01*
X133740264Y-114297195D01*
X133494145Y-114223061D01*
X132666005Y-115051200D01*
X132306795Y-115051200D01*
X131478655Y-114223061D01*
X131232536Y-114297195D01*
X131039435Y-114834423D01*
X125879816Y-114834423D01*
X125945286Y-114768953D01*
X126194200Y-114168022D01*
X126194200Y-114043455D01*
X131658261Y-114043455D01*
X132486400Y-114871595D01*
X133314539Y-114043455D01*
X133240405Y-113797336D01*
X132703177Y-113604235D01*
X132132946Y-113631422D01*
X131732395Y-113797336D01*
X131658261Y-114043455D01*
X126194200Y-114043455D01*
X126194200Y-113517578D01*
X125945286Y-112916647D01*
X125485353Y-112456714D01*
X125448200Y-112441325D01*
X125448200Y-112396023D01*
X136538535Y-112396023D01*
X136565722Y-112966254D01*
X136731636Y-113366805D01*
X136977755Y-113440939D01*
X137805895Y-112612800D01*
X138165105Y-112612800D01*
X138993245Y-113440939D01*
X139239364Y-113366805D01*
X139256547Y-113319000D01*
X140357560Y-113319000D01*
X140357560Y-114519000D01*
X140406843Y-114766765D01*
X140547191Y-114976809D01*
X140757235Y-115117157D01*
X141005000Y-115166440D01*
X142205000Y-115166440D01*
X142452765Y-115117157D01*
X142662809Y-114976809D01*
X142752030Y-114843282D01*
X142806178Y-114897430D01*
X142921871Y-114781737D01*
X142971383Y-115007164D01*
X143436036Y-115166807D01*
X143926413Y-115136482D01*
X144238617Y-115007164D01*
X144288130Y-114781735D01*
X143605000Y-114098605D01*
X143590858Y-114112748D01*
X143411253Y-113933143D01*
X143425395Y-113919000D01*
X143784605Y-113919000D01*
X144467735Y-114602130D01*
X144693164Y-114552617D01*
X144852807Y-114087964D01*
X144822482Y-113597587D01*
X144693164Y-113285383D01*
X144467735Y-113235870D01*
X143784605Y-113919000D01*
X143425395Y-113919000D01*
X143411253Y-113904858D01*
X143590858Y-113725253D01*
X143605000Y-113739395D01*
X144288130Y-113056265D01*
X144238617Y-112830836D01*
X143773964Y-112671193D01*
X143283587Y-112701518D01*
X142971383Y-112830836D01*
X142921871Y-113056263D01*
X142806178Y-112940570D01*
X142752030Y-112994718D01*
X142662809Y-112861191D01*
X142452765Y-112720843D01*
X142205000Y-112671560D01*
X141005000Y-112671560D01*
X140757235Y-112720843D01*
X140547191Y-112861191D01*
X140406843Y-113071235D01*
X140357560Y-113319000D01*
X139256547Y-113319000D01*
X139432465Y-112829577D01*
X139405278Y-112259346D01*
X139239364Y-111858795D01*
X138993245Y-111784661D01*
X138165105Y-112612800D01*
X137805895Y-112612800D01*
X136977755Y-111784661D01*
X136731636Y-111858795D01*
X136538535Y-112396023D01*
X125448200Y-112396023D01*
X125448200Y-111605055D01*
X137157361Y-111605055D01*
X137985500Y-112433195D01*
X138813639Y-111605055D01*
X138739505Y-111358936D01*
X138202277Y-111165835D01*
X137632046Y-111193022D01*
X137231495Y-111358936D01*
X137157361Y-111605055D01*
X125448200Y-111605055D01*
X125448200Y-109337452D01*
X125596177Y-109238577D01*
X125795279Y-108940600D01*
X133545352Y-108940600D01*
X133642623Y-109086177D01*
X134117291Y-109403340D01*
X134535867Y-109486600D01*
X135618533Y-109486600D01*
X136037109Y-109403340D01*
X136511777Y-109086177D01*
X136828940Y-108611509D01*
X136940313Y-108051600D01*
X136828940Y-107491691D01*
X136511777Y-107017023D01*
X136159442Y-106781600D01*
X136511777Y-106546177D01*
X136828940Y-106071509D01*
X136940313Y-105511600D01*
X136828940Y-104951691D01*
X136511777Y-104477023D01*
X136159442Y-104241600D01*
X136511777Y-104006177D01*
X136828940Y-103531509D01*
X136940313Y-102971600D01*
X136828940Y-102411691D01*
X136511777Y-101937023D01*
X136159442Y-101701600D01*
X136511777Y-101466177D01*
X136609048Y-101320600D01*
X137401365Y-101320600D01*
X138303001Y-102222237D01*
X138303000Y-108243445D01*
X138285584Y-108331000D01*
X138303000Y-108418555D01*
X138354581Y-108677869D01*
X138551067Y-108971933D01*
X138625296Y-109021531D01*
X140533471Y-110929707D01*
X140583067Y-111003933D01*
X140877130Y-111200419D01*
X141136444Y-111252000D01*
X141136445Y-111252000D01*
X141224000Y-111269416D01*
X141311555Y-111252000D01*
X147116169Y-111252000D01*
X147026012Y-111289344D01*
X146722344Y-111593012D01*
X146558000Y-111989774D01*
X146558000Y-112419226D01*
X146722344Y-112815988D01*
X146747296Y-112840940D01*
X146735966Y-118834409D01*
X146718384Y-118922800D01*
X146752742Y-119095527D01*
X146786727Y-119268086D01*
X146787212Y-119268815D01*
X146787382Y-119269670D01*
X146885086Y-119415895D01*
X146982657Y-119562520D01*
X147057494Y-119612729D01*
X151506271Y-124061507D01*
X151555867Y-124135733D01*
X151849930Y-124332219D01*
X152109244Y-124383800D01*
X152109248Y-124383800D01*
X152196799Y-124401215D01*
X152284350Y-124383800D01*
X155970045Y-124383800D01*
X156057600Y-124401216D01*
X156145155Y-124383800D01*
X156145156Y-124383800D01*
X156404470Y-124332219D01*
X156698533Y-124135733D01*
X156748131Y-124061504D01*
X157589507Y-123220129D01*
X157663733Y-123170533D01*
X157860219Y-122876470D01*
X157911800Y-122617156D01*
X157911800Y-122617155D01*
X157929216Y-122529600D01*
X157911800Y-122442045D01*
X157911800Y-120791540D01*
X158103230Y-120663630D01*
X158292800Y-120379919D01*
X158482370Y-120663630D01*
X158978075Y-120994850D01*
X159415202Y-121081800D01*
X159710398Y-121081800D01*
X160147525Y-120994850D01*
X160643230Y-120663630D01*
X160974450Y-120167925D01*
X161090759Y-119583200D01*
X160974450Y-118998475D01*
X160970766Y-118992961D01*
X165087400Y-118992961D01*
X165087400Y-119563839D01*
X165305866Y-120091262D01*
X165709538Y-120494934D01*
X166236961Y-120713400D01*
X166807839Y-120713400D01*
X167335262Y-120494934D01*
X167738934Y-120091262D01*
X167957400Y-119563839D01*
X167957400Y-118992961D01*
X167738934Y-118465538D01*
X167335262Y-118061866D01*
X167270101Y-118034875D01*
X167276405Y-118032264D01*
X167350539Y-117786145D01*
X166522400Y-116958005D01*
X165694261Y-117786145D01*
X165768395Y-118032264D01*
X165775146Y-118034690D01*
X165709538Y-118061866D01*
X165305866Y-118465538D01*
X165087400Y-118992961D01*
X160970766Y-118992961D01*
X160648149Y-118510132D01*
X160674165Y-118504957D01*
X160884209Y-118364609D01*
X161024557Y-118154565D01*
X161073840Y-117906800D01*
X161073840Y-116561623D01*
X165075435Y-116561623D01*
X165102622Y-117131854D01*
X165268536Y-117532405D01*
X165514655Y-117606539D01*
X166342795Y-116778400D01*
X166702005Y-116778400D01*
X167530145Y-117606539D01*
X167776264Y-117532405D01*
X167969365Y-116995177D01*
X167942178Y-116424946D01*
X167776264Y-116024395D01*
X167530145Y-115950261D01*
X166702005Y-116778400D01*
X166342795Y-116778400D01*
X165514655Y-115950261D01*
X165268536Y-116024395D01*
X165075435Y-116561623D01*
X161073840Y-116561623D01*
X161073840Y-116179600D01*
X161024557Y-115931835D01*
X160916860Y-115770655D01*
X165694261Y-115770655D01*
X166522400Y-116598795D01*
X167350539Y-115770655D01*
X167276405Y-115524536D01*
X166739177Y-115331435D01*
X166168946Y-115358622D01*
X165768395Y-115524536D01*
X165694261Y-115770655D01*
X160916860Y-115770655D01*
X160884209Y-115721791D01*
X160674165Y-115581443D01*
X160426400Y-115532160D01*
X158699200Y-115532160D01*
X158451435Y-115581443D01*
X158241391Y-115721791D01*
X158101043Y-115931835D01*
X158095868Y-115957851D01*
X157911800Y-115834860D01*
X157911800Y-113422356D01*
X157929216Y-113334800D01*
X157860219Y-112987929D01*
X157713329Y-112768093D01*
X157663733Y-112693867D01*
X157589507Y-112644271D01*
X156972000Y-112026765D01*
X156972000Y-111989774D01*
X156807656Y-111593012D01*
X156503988Y-111289344D01*
X156413831Y-111252000D01*
X161710445Y-111252000D01*
X161798000Y-111269416D01*
X161885555Y-111252000D01*
X161885556Y-111252000D01*
X162144870Y-111200419D01*
X162438933Y-111003933D01*
X162488531Y-110929704D01*
X164269707Y-109148529D01*
X164343933Y-109098933D01*
X164540419Y-108804870D01*
X164592000Y-108545556D01*
X164592000Y-108545555D01*
X164609416Y-108458000D01*
X164592000Y-108370445D01*
X164592000Y-102902155D01*
X164609416Y-102814600D01*
X164590121Y-102717600D01*
X164540419Y-102467730D01*
X164343933Y-102173667D01*
X164269707Y-102124071D01*
X162162931Y-100017296D01*
X162113333Y-99943067D01*
X161819270Y-99746581D01*
X161559956Y-99695000D01*
X161559955Y-99695000D01*
X161472400Y-99677584D01*
X161384845Y-99695000D01*
X161336786Y-99695000D01*
X161143169Y-99405231D01*
X161006632Y-99314000D01*
X161143169Y-99222769D01*
X161504536Y-98681945D01*
X161631431Y-98044000D01*
X161504536Y-97406055D01*
X161275070Y-97062635D01*
X161324099Y-97042327D01*
X161502727Y-96863698D01*
X161599400Y-96630309D01*
X161599400Y-95789750D01*
X161440650Y-95631000D01*
X159791400Y-95631000D01*
X159791400Y-95651000D01*
X159537400Y-95651000D01*
X159537400Y-95631000D01*
X157888150Y-95631000D01*
X157729400Y-95789750D01*
X157729400Y-96630309D01*
X157826073Y-96863698D01*
X158004701Y-97042327D01*
X158053730Y-97062635D01*
X157824264Y-97406055D01*
X157697369Y-98044000D01*
X157824264Y-98681945D01*
X158185631Y-99222769D01*
X158322168Y-99314000D01*
X158185631Y-99405231D01*
X157824264Y-99946055D01*
X157697369Y-100584000D01*
X157824264Y-101221945D01*
X158185631Y-101762769D01*
X158322168Y-101854000D01*
X158185631Y-101945231D01*
X158093844Y-102082600D01*
X144229048Y-102082600D01*
X144131777Y-101937023D01*
X143779442Y-101701600D01*
X144131777Y-101466177D01*
X144448940Y-100991509D01*
X144560313Y-100431600D01*
X144448940Y-99871691D01*
X144131777Y-99397023D01*
X143779442Y-99161600D01*
X144131777Y-98926177D01*
X144229048Y-98780600D01*
X150831582Y-98780600D01*
X151288068Y-99237087D01*
X151218900Y-99404074D01*
X151218900Y-99833526D01*
X151383244Y-100230288D01*
X151686912Y-100533956D01*
X152083674Y-100698300D01*
X152513126Y-100698300D01*
X152909888Y-100533956D01*
X153213556Y-100230288D01*
X153377900Y-99833526D01*
X153377900Y-99404074D01*
X153213556Y-99007312D01*
X153203424Y-98997180D01*
X153204816Y-98990183D01*
X153163127Y-98780600D01*
X153135819Y-98643313D01*
X152939333Y-98349250D01*
X152865106Y-98299654D01*
X151890348Y-97324896D01*
X151840750Y-97250667D01*
X151546687Y-97054181D01*
X151287373Y-97002600D01*
X151287372Y-97002600D01*
X151199817Y-96985184D01*
X151112262Y-97002600D01*
X144229048Y-97002600D01*
X144131777Y-96857023D01*
X143779442Y-96621600D01*
X144131777Y-96386177D01*
X144448940Y-95911509D01*
X144560313Y-95351600D01*
X144448940Y-94791691D01*
X144360788Y-94659761D01*
X146697800Y-94659761D01*
X146697800Y-95230639D01*
X146916266Y-95758062D01*
X147319938Y-96161734D01*
X147847361Y-96380200D01*
X148418239Y-96380200D01*
X148945662Y-96161734D01*
X149349334Y-95758062D01*
X149567800Y-95230639D01*
X149567800Y-94659761D01*
X149349334Y-94132338D01*
X148945662Y-93728666D01*
X148880501Y-93701675D01*
X148886805Y-93699064D01*
X148960939Y-93452945D01*
X148132800Y-92624805D01*
X147304661Y-93452945D01*
X147378795Y-93699064D01*
X147385546Y-93701490D01*
X147319938Y-93728666D01*
X146916266Y-94132338D01*
X146697800Y-94659761D01*
X144360788Y-94659761D01*
X144131777Y-94317023D01*
X143779442Y-94081600D01*
X144131777Y-93846177D01*
X144448940Y-93371509D01*
X144560313Y-92811600D01*
X144448940Y-92251691D01*
X144433393Y-92228423D01*
X146685835Y-92228423D01*
X146713022Y-92798654D01*
X146878936Y-93199205D01*
X147125055Y-93273339D01*
X147953195Y-92445200D01*
X148312405Y-92445200D01*
X149140545Y-93273339D01*
X149386664Y-93199205D01*
X149579765Y-92661977D01*
X149563415Y-92319036D01*
X151202993Y-92319036D01*
X151233318Y-92809413D01*
X151362636Y-93121617D01*
X151588063Y-93171129D01*
X151472370Y-93286822D01*
X151526518Y-93340970D01*
X151392991Y-93430191D01*
X151252643Y-93640235D01*
X151203360Y-93888000D01*
X151203360Y-95088000D01*
X151252643Y-95335765D01*
X151392991Y-95545809D01*
X151603035Y-95686157D01*
X151850800Y-95735440D01*
X153050800Y-95735440D01*
X153298565Y-95686157D01*
X153508609Y-95545809D01*
X153648957Y-95335765D01*
X153698240Y-95088000D01*
X153698240Y-94377691D01*
X157729400Y-94377691D01*
X157729400Y-95218250D01*
X157888150Y-95377000D01*
X159537400Y-95377000D01*
X159537400Y-94027750D01*
X159791400Y-94027750D01*
X159791400Y-95377000D01*
X161440650Y-95377000D01*
X161599400Y-95218250D01*
X161599400Y-94377691D01*
X161502727Y-94144302D01*
X161324099Y-93965673D01*
X161090710Y-93869000D01*
X159950150Y-93869000D01*
X159791400Y-94027750D01*
X159537400Y-94027750D01*
X159378650Y-93869000D01*
X158238090Y-93869000D01*
X158004701Y-93965673D01*
X157826073Y-94144302D01*
X157729400Y-94377691D01*
X153698240Y-94377691D01*
X153698240Y-93888000D01*
X153648957Y-93640235D01*
X153508609Y-93430191D01*
X153375082Y-93340970D01*
X153429230Y-93286822D01*
X153313537Y-93171129D01*
X153538964Y-93121617D01*
X153698607Y-92656964D01*
X153668282Y-92166587D01*
X153538964Y-91854383D01*
X153313535Y-91804870D01*
X152630405Y-92488000D01*
X152644548Y-92502143D01*
X152464943Y-92681748D01*
X152450800Y-92667605D01*
X152436658Y-92681748D01*
X152257053Y-92502143D01*
X152271195Y-92488000D01*
X151588065Y-91804870D01*
X151362636Y-91854383D01*
X151202993Y-92319036D01*
X149563415Y-92319036D01*
X149552578Y-92091746D01*
X149386664Y-91691195D01*
X149167782Y-91625265D01*
X151767670Y-91625265D01*
X152450800Y-92308395D01*
X153133930Y-91625265D01*
X153084417Y-91399836D01*
X152619764Y-91240193D01*
X152129387Y-91270518D01*
X151817183Y-91399836D01*
X151767670Y-91625265D01*
X149167782Y-91625265D01*
X149140545Y-91617061D01*
X148312405Y-92445200D01*
X147953195Y-92445200D01*
X147125055Y-91617061D01*
X146878936Y-91691195D01*
X146685835Y-92228423D01*
X144433393Y-92228423D01*
X144131777Y-91777023D01*
X143775701Y-91539101D01*
X143902088Y-91437455D01*
X147304661Y-91437455D01*
X148132800Y-92265595D01*
X148960939Y-91437455D01*
X148886805Y-91191336D01*
X148349577Y-90998235D01*
X147779346Y-91025422D01*
X147378795Y-91191336D01*
X147304661Y-91437455D01*
X143902088Y-91437455D01*
X144201700Y-91196496D01*
X144471567Y-90703419D01*
X144489104Y-90620639D01*
X144367115Y-90398600D01*
X142824200Y-90398600D01*
X142824200Y-90418600D01*
X142570200Y-90418600D01*
X142570200Y-90398600D01*
X141027285Y-90398600D01*
X140905296Y-90620639D01*
X140922833Y-90703419D01*
X141192700Y-91196496D01*
X141618699Y-91539101D01*
X141262623Y-91777023D01*
X140945460Y-92251691D01*
X140834087Y-92811600D01*
X140945460Y-93371509D01*
X141262623Y-93846177D01*
X141614958Y-94081600D01*
X141262623Y-94317023D01*
X140945460Y-94791691D01*
X140834087Y-95351600D01*
X140945460Y-95911509D01*
X141262623Y-96386177D01*
X141614958Y-96621600D01*
X141262623Y-96857023D01*
X140945460Y-97331691D01*
X140834087Y-97891600D01*
X140945460Y-98451509D01*
X141262623Y-98926177D01*
X141614958Y-99161600D01*
X141262623Y-99397023D01*
X140945460Y-99871691D01*
X140834087Y-100431600D01*
X140945460Y-100991509D01*
X141262623Y-101466177D01*
X141614958Y-101701600D01*
X141262623Y-101937023D01*
X140945460Y-102411691D01*
X140834087Y-102971600D01*
X140945460Y-103531509D01*
X141262623Y-104006177D01*
X141614958Y-104241600D01*
X141262623Y-104477023D01*
X140945460Y-104951691D01*
X140834087Y-105511600D01*
X140945460Y-106071509D01*
X141262623Y-106546177D01*
X141614958Y-106781600D01*
X141262623Y-107017023D01*
X140945460Y-107491691D01*
X140834087Y-108051600D01*
X140945460Y-108611509D01*
X141262623Y-109086177D01*
X141737291Y-109403340D01*
X142092523Y-109474000D01*
X141592236Y-109474000D01*
X140081000Y-107962765D01*
X140081000Y-101941550D01*
X140098415Y-101853999D01*
X140081000Y-101766448D01*
X140081000Y-101766444D01*
X140029419Y-101507130D01*
X139832933Y-101213067D01*
X139758707Y-101163471D01*
X138460131Y-99864896D01*
X138410533Y-99790667D01*
X138116470Y-99594181D01*
X137857156Y-99542600D01*
X137857155Y-99542600D01*
X137769600Y-99525184D01*
X137682045Y-99542600D01*
X136609048Y-99542600D01*
X136511777Y-99397023D01*
X136159442Y-99161600D01*
X136511777Y-98926177D01*
X136828940Y-98451509D01*
X136940313Y-97891600D01*
X136828940Y-97331691D01*
X136511777Y-96857023D01*
X136159442Y-96621600D01*
X136511777Y-96386177D01*
X136828940Y-95911509D01*
X136940313Y-95351600D01*
X136828940Y-94791691D01*
X136511777Y-94317023D01*
X136155701Y-94079101D01*
X136581700Y-93736496D01*
X136851567Y-93243419D01*
X136869104Y-93160639D01*
X136747115Y-92938600D01*
X135204200Y-92938600D01*
X135204200Y-92958600D01*
X134950200Y-92958600D01*
X134950200Y-92938600D01*
X133407285Y-92938600D01*
X133285296Y-93160639D01*
X133302833Y-93243419D01*
X133572700Y-93736496D01*
X133998699Y-94079101D01*
X133642623Y-94317023D01*
X133545352Y-94462600D01*
X131048393Y-94462600D01*
X130913670Y-94372581D01*
X130654356Y-94321000D01*
X130654355Y-94321000D01*
X130566800Y-94303584D01*
X130479245Y-94321000D01*
X129765996Y-94321000D01*
X129438462Y-93993466D01*
X129373301Y-93966475D01*
X129379605Y-93963864D01*
X129453739Y-93717745D01*
X128625600Y-92889605D01*
X127797461Y-93717745D01*
X127871595Y-93963864D01*
X127878346Y-93966290D01*
X127812738Y-93993466D01*
X127485204Y-94321000D01*
X125349550Y-94321000D01*
X125261999Y-94303585D01*
X125174448Y-94321000D01*
X125174444Y-94321000D01*
X124915130Y-94372581D01*
X124621067Y-94569067D01*
X124571469Y-94643296D01*
X124501365Y-94713400D01*
X123243687Y-94713400D01*
X122958540Y-94428253D01*
X122449494Y-94217400D01*
X121898506Y-94217400D01*
X121389460Y-94428253D01*
X120999853Y-94817860D01*
X120789000Y-95326906D01*
X120789000Y-95877894D01*
X120999853Y-96386940D01*
X121389460Y-96776547D01*
X121898506Y-96987400D01*
X122449494Y-96987400D01*
X122958540Y-96776547D01*
X123243687Y-96491400D01*
X124782045Y-96491400D01*
X124869600Y-96508816D01*
X124957155Y-96491400D01*
X124957156Y-96491400D01*
X125216470Y-96439819D01*
X125510533Y-96243333D01*
X125560131Y-96169104D01*
X125630235Y-96099000D01*
X127485204Y-96099000D01*
X127812738Y-96426534D01*
X128340161Y-96645000D01*
X128911039Y-96645000D01*
X129438462Y-96426534D01*
X129765996Y-96099000D01*
X130226807Y-96099000D01*
X130320695Y-96161734D01*
X130361530Y-96189019D01*
X130708400Y-96258016D01*
X130795956Y-96240600D01*
X133545352Y-96240600D01*
X133642623Y-96386177D01*
X133994958Y-96621600D01*
X133642623Y-96857023D01*
X133545352Y-97002600D01*
X131039155Y-97002600D01*
X130951600Y-96985184D01*
X130864045Y-97002600D01*
X130864044Y-97002600D01*
X130604730Y-97054181D01*
X130310667Y-97250667D01*
X130261071Y-97324893D01*
X128803365Y-98782600D01*
X128340161Y-98782600D01*
X127812738Y-99001066D01*
X127485204Y-99328600D01*
X125167955Y-99328600D01*
X125080400Y-99311184D01*
X124992845Y-99328600D01*
X124992844Y-99328600D01*
X124733530Y-99380181D01*
X124439467Y-99576667D01*
X124428286Y-99593400D01*
X123243687Y-99593400D01*
X122958540Y-99308253D01*
X122449494Y-99097400D01*
X121898506Y-99097400D01*
X121389460Y-99308253D01*
X120999853Y-99697860D01*
X120789000Y-100206906D01*
X120789000Y-100757894D01*
X120999853Y-101266940D01*
X121389460Y-101656547D01*
X121898506Y-101867400D01*
X122449494Y-101867400D01*
X122958540Y-101656547D01*
X123243687Y-101371400D01*
X124728045Y-101371400D01*
X124815600Y-101388816D01*
X124903155Y-101371400D01*
X124903156Y-101371400D01*
X125162470Y-101319819D01*
X125456533Y-101123333D01*
X125467714Y-101106600D01*
X127485204Y-101106600D01*
X127812738Y-101434134D01*
X127877899Y-101461125D01*
X127871595Y-101463736D01*
X127797461Y-101709855D01*
X128625600Y-102537995D01*
X129453739Y-101709855D01*
X129379605Y-101463736D01*
X129372854Y-101461310D01*
X129438462Y-101434134D01*
X129842134Y-101030462D01*
X130060600Y-100503039D01*
X130060600Y-100039835D01*
X131319836Y-98780600D01*
X133545352Y-98780600D01*
X133642623Y-98926177D01*
X133994958Y-99161600D01*
X133642623Y-99397023D01*
X133325460Y-99871691D01*
X133214087Y-100431600D01*
X133325460Y-100991509D01*
X133642623Y-101466177D01*
X133994958Y-101701600D01*
X133642623Y-101937023D01*
X133325460Y-102411691D01*
X133214087Y-102971600D01*
X133325460Y-103531509D01*
X133642623Y-104006177D01*
X133994958Y-104241600D01*
X133642623Y-104477023D01*
X133325460Y-104951691D01*
X133214087Y-105511600D01*
X133325460Y-106071509D01*
X133642623Y-106546177D01*
X133994958Y-106781600D01*
X133642623Y-107017023D01*
X133545352Y-107162600D01*
X125585966Y-107162600D01*
X125121509Y-106852260D01*
X124702933Y-106769000D01*
X124420267Y-106769000D01*
X124001691Y-106852260D01*
X123527023Y-107169423D01*
X123209860Y-107644091D01*
X123098487Y-108204000D01*
X123209860Y-108763909D01*
X123527023Y-109238577D01*
X123670201Y-109334245D01*
X123670200Y-112441325D01*
X123633047Y-112456714D01*
X123173114Y-112916647D01*
X123157725Y-112953800D01*
X119460675Y-112953800D01*
X119445286Y-112916647D01*
X118985353Y-112456714D01*
X118384422Y-112207800D01*
X117733978Y-112207800D01*
X117133047Y-112456714D01*
X116673114Y-112916647D01*
X116424200Y-113517578D01*
X112340668Y-113517578D01*
X112575605Y-113420264D01*
X112649739Y-113174145D01*
X111821600Y-112346005D01*
X110993461Y-113174145D01*
X110343251Y-113174145D01*
X110538134Y-112979262D01*
X110565125Y-112914101D01*
X110567736Y-112920405D01*
X110813855Y-112994539D01*
X111641995Y-112166400D01*
X112001205Y-112166400D01*
X112829345Y-112994539D01*
X113075464Y-112920405D01*
X113268565Y-112383177D01*
X113241378Y-111812946D01*
X113075464Y-111412395D01*
X112829345Y-111338261D01*
X112001205Y-112166400D01*
X111641995Y-112166400D01*
X110813855Y-111338261D01*
X110567736Y-111412395D01*
X110565310Y-111419146D01*
X110538134Y-111353538D01*
X110343251Y-111158655D01*
X110993461Y-111158655D01*
X111821600Y-111986795D01*
X112649739Y-111158655D01*
X112575605Y-110912536D01*
X112038377Y-110719435D01*
X111468146Y-110746622D01*
X111067595Y-110912536D01*
X110993461Y-111158655D01*
X110343251Y-111158655D01*
X110134462Y-110949866D01*
X109607039Y-110731400D01*
X109036161Y-110731400D01*
X108508738Y-110949866D01*
X108105066Y-111353538D01*
X107886600Y-111880961D01*
X99131040Y-111880961D01*
X99131040Y-111117200D01*
X99081757Y-110869435D01*
X98941409Y-110659391D01*
X98731365Y-110519043D01*
X98483600Y-110469760D01*
X96283600Y-110469760D01*
X96035835Y-110519043D01*
X95825791Y-110659391D01*
X95685443Y-110869435D01*
X95636160Y-111117200D01*
X93364291Y-111117200D01*
X93436539Y-110877345D01*
X92608400Y-110049205D01*
X91780261Y-110877345D01*
X91854395Y-111123464D01*
X91861146Y-111125890D01*
X91795538Y-111153066D01*
X91391866Y-111556738D01*
X91173400Y-112084161D01*
X80710000Y-112084161D01*
X80710000Y-109652823D01*
X91161435Y-109652823D01*
X91188622Y-110223054D01*
X91354536Y-110623605D01*
X91600655Y-110697739D01*
X92428795Y-109869600D01*
X92788005Y-109869600D01*
X93616145Y-110697739D01*
X93862264Y-110623605D01*
X94055365Y-110086377D01*
X94028178Y-109516146D01*
X93902091Y-109211745D01*
X116113461Y-109211745D01*
X116187595Y-109457864D01*
X116724823Y-109650965D01*
X117295054Y-109623778D01*
X117695605Y-109457864D01*
X117769739Y-109211745D01*
X116941600Y-108383605D01*
X116113461Y-109211745D01*
X93902091Y-109211745D01*
X93862264Y-109115595D01*
X93616145Y-109041461D01*
X92788005Y-109869600D01*
X92428795Y-109869600D01*
X91600655Y-109041461D01*
X91354536Y-109115595D01*
X91161435Y-109652823D01*
X80710000Y-109652823D01*
X80710000Y-106407722D01*
X82365000Y-106407722D01*
X82365000Y-107257078D01*
X82690034Y-108041780D01*
X83290620Y-108642366D01*
X84075322Y-108967400D01*
X84924678Y-108967400D01*
X85179486Y-108861855D01*
X91780261Y-108861855D01*
X92608400Y-109689995D01*
X93436539Y-108861855D01*
X93362405Y-108615736D01*
X92825177Y-108422635D01*
X92254946Y-108449822D01*
X91854395Y-108615736D01*
X91780261Y-108861855D01*
X85179486Y-108861855D01*
X85709380Y-108642366D01*
X86309966Y-108041780D01*
X86635000Y-107257078D01*
X86635000Y-106407722D01*
X86438116Y-105932400D01*
X96445760Y-105932400D01*
X96445760Y-107732400D01*
X96495043Y-107980165D01*
X96635391Y-108190209D01*
X96845435Y-108330557D01*
X97093200Y-108379840D01*
X98893200Y-108379840D01*
X99140965Y-108330557D01*
X99351009Y-108190209D01*
X99491357Y-107980165D01*
X99500559Y-107933902D01*
X99625624Y-108070366D01*
X100168458Y-108323446D01*
X100406200Y-108203397D01*
X100406200Y-106959400D01*
X100386200Y-106959400D01*
X100386200Y-106705400D01*
X100406200Y-106705400D01*
X100406200Y-105461403D01*
X100660200Y-105461403D01*
X100660200Y-106705400D01*
X100680200Y-106705400D01*
X100680200Y-106959400D01*
X100660200Y-106959400D01*
X100660200Y-108203397D01*
X100897942Y-108323446D01*
X101440776Y-108070366D01*
X101795576Y-107683226D01*
X101966527Y-107939073D01*
X102474273Y-108278338D01*
X102922018Y-108367400D01*
X103224382Y-108367400D01*
X103672127Y-108278338D01*
X104107811Y-107987223D01*
X115494635Y-107987223D01*
X115521822Y-108557454D01*
X115687736Y-108958005D01*
X115933855Y-109032139D01*
X116761995Y-108204000D01*
X117121205Y-108204000D01*
X117949345Y-109032139D01*
X118195464Y-108958005D01*
X118388565Y-108420777D01*
X118361378Y-107850546D01*
X118195464Y-107449995D01*
X117949345Y-107375861D01*
X117121205Y-108204000D01*
X116761995Y-108204000D01*
X115933855Y-107375861D01*
X115687736Y-107449995D01*
X115494635Y-107987223D01*
X104107811Y-107987223D01*
X104179873Y-107939073D01*
X104519138Y-107431327D01*
X104638272Y-106832400D01*
X104519138Y-106233473D01*
X104179873Y-105725727D01*
X103672127Y-105386462D01*
X103224382Y-105297400D01*
X102922018Y-105297400D01*
X102474273Y-105386462D01*
X101966527Y-105725727D01*
X101795576Y-105981574D01*
X101440776Y-105594434D01*
X100897942Y-105341354D01*
X100660200Y-105461403D01*
X100406200Y-105461403D01*
X100168458Y-105341354D01*
X99625624Y-105594434D01*
X99500559Y-105730898D01*
X99491357Y-105684635D01*
X99351009Y-105474591D01*
X99140965Y-105334243D01*
X98893200Y-105284960D01*
X97093200Y-105284960D01*
X96845435Y-105334243D01*
X96635391Y-105474591D01*
X96495043Y-105684635D01*
X96445760Y-105932400D01*
X86438116Y-105932400D01*
X86309966Y-105623020D01*
X85906546Y-105219600D01*
X107874160Y-105219600D01*
X107874160Y-106819600D01*
X107923443Y-107067365D01*
X108063791Y-107277409D01*
X108273835Y-107417757D01*
X108521600Y-107467040D01*
X110121600Y-107467040D01*
X110369365Y-107417757D01*
X110579409Y-107277409D01*
X110719757Y-107067365D01*
X110727717Y-107027345D01*
X110993461Y-107027345D01*
X111067595Y-107273464D01*
X111604823Y-107466565D01*
X112175054Y-107439378D01*
X112575605Y-107273464D01*
X112598861Y-107196255D01*
X116113461Y-107196255D01*
X116941600Y-108024395D01*
X117769739Y-107196255D01*
X117695605Y-106950136D01*
X117158377Y-106757035D01*
X116588146Y-106784222D01*
X116187595Y-106950136D01*
X116113461Y-107196255D01*
X112598861Y-107196255D01*
X112649739Y-107027345D01*
X111821600Y-106199205D01*
X110993461Y-107027345D01*
X110727717Y-107027345D01*
X110766293Y-106833413D01*
X110813855Y-106847739D01*
X111641995Y-106019600D01*
X112001205Y-106019600D01*
X112829345Y-106847739D01*
X113075464Y-106773605D01*
X113268565Y-106236377D01*
X113241378Y-105666146D01*
X113075464Y-105265595D01*
X112829345Y-105191461D01*
X112001205Y-106019600D01*
X111641995Y-106019600D01*
X110813855Y-105191461D01*
X110766293Y-105205787D01*
X110727718Y-105011855D01*
X110993461Y-105011855D01*
X111821600Y-105839995D01*
X112649739Y-105011855D01*
X112575605Y-104765736D01*
X112038377Y-104572635D01*
X111468146Y-104599822D01*
X111067595Y-104765736D01*
X110993461Y-105011855D01*
X110727718Y-105011855D01*
X110719757Y-104971835D01*
X110579409Y-104761791D01*
X110369365Y-104621443D01*
X110121600Y-104572160D01*
X108521600Y-104572160D01*
X108273835Y-104621443D01*
X108063791Y-104761791D01*
X107923443Y-104971835D01*
X107874160Y-105219600D01*
X85906546Y-105219600D01*
X85709380Y-105022434D01*
X84924678Y-104697400D01*
X84075322Y-104697400D01*
X83290620Y-105022434D01*
X82690034Y-105623020D01*
X82365000Y-106407722D01*
X80710000Y-106407722D01*
X80710000Y-102038150D01*
X82365000Y-102038150D01*
X82365000Y-103378709D01*
X82461673Y-103612098D01*
X82640301Y-103790727D01*
X82873690Y-103887400D01*
X84214250Y-103887400D01*
X84373000Y-103728650D01*
X84373000Y-101879400D01*
X84627000Y-101879400D01*
X84627000Y-103728650D01*
X84785750Y-103887400D01*
X86126310Y-103887400D01*
X86359699Y-103790727D01*
X86425080Y-103725345D01*
X127797461Y-103725345D01*
X127871595Y-103971464D01*
X128408823Y-104164565D01*
X128979054Y-104137378D01*
X129379605Y-103971464D01*
X129453739Y-103725345D01*
X128625600Y-102897205D01*
X127797461Y-103725345D01*
X86425080Y-103725345D01*
X86538327Y-103612098D01*
X86635000Y-103378709D01*
X86635000Y-102500823D01*
X127178635Y-102500823D01*
X127205822Y-103071054D01*
X127371736Y-103471605D01*
X127617855Y-103545739D01*
X128445995Y-102717600D01*
X128805205Y-102717600D01*
X129633345Y-103545739D01*
X129879464Y-103471605D01*
X130072565Y-102934377D01*
X130045378Y-102364146D01*
X129879464Y-101963595D01*
X129633345Y-101889461D01*
X128805205Y-102717600D01*
X128445995Y-102717600D01*
X127617855Y-101889461D01*
X127371736Y-101963595D01*
X127178635Y-102500823D01*
X86635000Y-102500823D01*
X86635000Y-102038150D01*
X86476250Y-101879400D01*
X84627000Y-101879400D01*
X84373000Y-101879400D01*
X82523750Y-101879400D01*
X82365000Y-102038150D01*
X80710000Y-102038150D01*
X80710000Y-100126091D01*
X82365000Y-100126091D01*
X82365000Y-101466650D01*
X82523750Y-101625400D01*
X84373000Y-101625400D01*
X84373000Y-99776150D01*
X84627000Y-99776150D01*
X84627000Y-101625400D01*
X86476250Y-101625400D01*
X86635000Y-101466650D01*
X86635000Y-100126091D01*
X86538327Y-99892702D01*
X86359699Y-99714073D01*
X86126310Y-99617400D01*
X84785750Y-99617400D01*
X84627000Y-99776150D01*
X84373000Y-99776150D01*
X84214250Y-99617400D01*
X82873690Y-99617400D01*
X82640301Y-99714073D01*
X82461673Y-99892702D01*
X82365000Y-100126091D01*
X80710000Y-100126091D01*
X80710000Y-96849371D01*
X103505400Y-96849371D01*
X103505400Y-98375029D01*
X104089244Y-99784553D01*
X105168047Y-100863356D01*
X106577571Y-101447200D01*
X108103229Y-101447200D01*
X109512753Y-100863356D01*
X110591556Y-99784553D01*
X111175400Y-98375029D01*
X111175400Y-96849371D01*
X110591556Y-95439847D01*
X109512753Y-94361044D01*
X108103229Y-93777200D01*
X106577571Y-93777200D01*
X105168047Y-94361044D01*
X104089244Y-95439847D01*
X103505400Y-96849371D01*
X80710000Y-96849371D01*
X80710000Y-92493223D01*
X127178635Y-92493223D01*
X127205822Y-93063454D01*
X127371736Y-93464005D01*
X127617855Y-93538139D01*
X128445995Y-92710000D01*
X128805205Y-92710000D01*
X129633345Y-93538139D01*
X129879464Y-93464005D01*
X130072565Y-92926777D01*
X130045378Y-92356546D01*
X129879464Y-91955995D01*
X129633345Y-91881861D01*
X128805205Y-92710000D01*
X128445995Y-92710000D01*
X127617855Y-91881861D01*
X127371736Y-91955995D01*
X127178635Y-92493223D01*
X80710000Y-92493223D01*
X80710000Y-90603750D01*
X97772600Y-90603750D01*
X97772600Y-91344310D01*
X97869273Y-91577699D01*
X98047902Y-91756327D01*
X98281291Y-91853000D01*
X99021850Y-91853000D01*
X99180600Y-91694250D01*
X99180600Y-90445000D01*
X97931350Y-90445000D01*
X97772600Y-90603750D01*
X80710000Y-90603750D01*
X80710000Y-89291690D01*
X97772600Y-89291690D01*
X97772600Y-90032250D01*
X97931350Y-90191000D01*
X99180600Y-90191000D01*
X99180600Y-88941750D01*
X99434600Y-88941750D01*
X99434600Y-90191000D01*
X99454600Y-90191000D01*
X99454600Y-90445000D01*
X99434600Y-90445000D01*
X99434600Y-91694250D01*
X99593350Y-91853000D01*
X100333909Y-91853000D01*
X100567298Y-91756327D01*
X100745927Y-91577699D01*
X100801739Y-91442956D01*
X100978093Y-91619310D01*
X101542270Y-91853000D01*
X102152930Y-91853000D01*
X102516860Y-91702255D01*
X127797461Y-91702255D01*
X128625600Y-92530395D01*
X129453739Y-91702255D01*
X129379605Y-91456136D01*
X128842377Y-91263035D01*
X128272146Y-91290222D01*
X127871595Y-91456136D01*
X127797461Y-91702255D01*
X102516860Y-91702255D01*
X102717107Y-91619310D01*
X103129417Y-91207000D01*
X103853645Y-91207000D01*
X103941200Y-91224416D01*
X104028755Y-91207000D01*
X104028756Y-91207000D01*
X104288070Y-91155419D01*
X104582133Y-90958933D01*
X104631731Y-90884704D01*
X104965436Y-90551000D01*
X107167204Y-90551000D01*
X107494738Y-90878534D01*
X108022161Y-91097000D01*
X108593039Y-91097000D01*
X109120462Y-90878534D01*
X109524134Y-90474862D01*
X109742600Y-89947439D01*
X109742600Y-89376561D01*
X109524134Y-88849138D01*
X109120462Y-88445466D01*
X108593039Y-88227000D01*
X108022161Y-88227000D01*
X107494738Y-88445466D01*
X107167204Y-88773000D01*
X104684754Y-88773000D01*
X104597199Y-88755584D01*
X104509644Y-88773000D01*
X104250330Y-88824581D01*
X103956267Y-89021067D01*
X103906670Y-89095294D01*
X103572965Y-89429000D01*
X103129417Y-89429000D01*
X102717107Y-89016690D01*
X102152930Y-88783000D01*
X101542270Y-88783000D01*
X100978093Y-89016690D01*
X100801739Y-89193044D01*
X100745927Y-89058301D01*
X100567298Y-88879673D01*
X100333909Y-88783000D01*
X99593350Y-88783000D01*
X99434600Y-88941750D01*
X99180600Y-88941750D01*
X99021850Y-88783000D01*
X98281291Y-88783000D01*
X98047902Y-88879673D01*
X97869273Y-89058301D01*
X97772600Y-89291690D01*
X80710000Y-89291690D01*
X80710000Y-80603750D01*
X97772600Y-80603750D01*
X97772600Y-81344310D01*
X97869273Y-81577699D01*
X98047902Y-81756327D01*
X98281291Y-81853000D01*
X99021850Y-81853000D01*
X99180600Y-81694250D01*
X99180600Y-80445000D01*
X97931350Y-80445000D01*
X97772600Y-80603750D01*
X80710000Y-80603750D01*
X80710000Y-79291690D01*
X97772600Y-79291690D01*
X97772600Y-80032250D01*
X97931350Y-80191000D01*
X99180600Y-80191000D01*
X99180600Y-78941750D01*
X99434600Y-78941750D01*
X99434600Y-80191000D01*
X99454600Y-80191000D01*
X99454600Y-80445000D01*
X99434600Y-80445000D01*
X99434600Y-81694250D01*
X99593350Y-81853000D01*
X100333909Y-81853000D01*
X100567298Y-81756327D01*
X100745927Y-81577699D01*
X100801739Y-81442956D01*
X100978093Y-81619310D01*
X101542270Y-81853000D01*
X102125365Y-81853000D01*
X105573471Y-85301107D01*
X105623067Y-85375333D01*
X105917130Y-85571819D01*
X106176444Y-85623400D01*
X106176445Y-85623400D01*
X106264000Y-85640816D01*
X106351555Y-85623400D01*
X107167204Y-85623400D01*
X107494738Y-85950934D01*
X108022161Y-86169400D01*
X108593039Y-86169400D01*
X109120462Y-85950934D01*
X109524134Y-85547262D01*
X109742600Y-85019839D01*
X109742600Y-84448961D01*
X109524134Y-83921538D01*
X109120462Y-83517866D01*
X108593039Y-83299400D01*
X108022161Y-83299400D01*
X107494738Y-83517866D01*
X107167204Y-83845400D01*
X106632236Y-83845400D01*
X103382600Y-80595765D01*
X103382600Y-80012670D01*
X103148910Y-79448493D01*
X102717107Y-79016690D01*
X102152930Y-78783000D01*
X101542270Y-78783000D01*
X100978093Y-79016690D01*
X100801739Y-79193044D01*
X100745927Y-79058301D01*
X100567298Y-78879673D01*
X100333909Y-78783000D01*
X99593350Y-78783000D01*
X99434600Y-78941750D01*
X99180600Y-78941750D01*
X99021850Y-78783000D01*
X98281291Y-78783000D01*
X98047902Y-78879673D01*
X97869273Y-79058301D01*
X97772600Y-79291690D01*
X80710000Y-79291690D01*
X80710000Y-72729036D01*
X106175393Y-72729036D01*
X106205718Y-73219413D01*
X106335036Y-73531617D01*
X106560465Y-73581130D01*
X107243595Y-72898000D01*
X106560465Y-72214870D01*
X106335036Y-72264383D01*
X106175393Y-72729036D01*
X80710000Y-72729036D01*
X80710000Y-72035265D01*
X106740070Y-72035265D01*
X107423200Y-72718395D01*
X107437343Y-72704253D01*
X107616948Y-72883858D01*
X107602805Y-72898000D01*
X107616948Y-72912143D01*
X107437343Y-73091748D01*
X107423200Y-73077605D01*
X106740070Y-73760735D01*
X106789583Y-73986164D01*
X107254236Y-74145807D01*
X107744613Y-74115482D01*
X108056817Y-73986164D01*
X108106329Y-73760737D01*
X108222022Y-73876430D01*
X108276170Y-73822282D01*
X108365391Y-73955809D01*
X108575435Y-74096157D01*
X108823200Y-74145440D01*
X110023200Y-74145440D01*
X110270965Y-74096157D01*
X110481009Y-73955809D01*
X110621357Y-73745765D01*
X110670640Y-73498000D01*
X110670640Y-72714161D01*
X111087000Y-72714161D01*
X111087000Y-73285039D01*
X111305466Y-73812462D01*
X111709138Y-74216134D01*
X112236561Y-74434600D01*
X112807439Y-74434600D01*
X113334862Y-74216134D01*
X113543651Y-74007345D01*
X114193861Y-74007345D01*
X114267995Y-74253464D01*
X114805223Y-74446565D01*
X115375454Y-74419378D01*
X115776005Y-74253464D01*
X115850139Y-74007345D01*
X115022000Y-73179205D01*
X114193861Y-74007345D01*
X113543651Y-74007345D01*
X113738534Y-73812462D01*
X113765525Y-73747301D01*
X113768136Y-73753605D01*
X114014255Y-73827739D01*
X114842395Y-72999600D01*
X115201605Y-72999600D01*
X116029745Y-73827739D01*
X116275864Y-73753605D01*
X116468965Y-73216377D01*
X116441778Y-72646146D01*
X116275864Y-72245595D01*
X116029745Y-72171461D01*
X115201605Y-72999600D01*
X114842395Y-72999600D01*
X114014255Y-72171461D01*
X113768136Y-72245595D01*
X113765710Y-72252346D01*
X113738534Y-72186738D01*
X113543651Y-71991855D01*
X114193861Y-71991855D01*
X115022000Y-72819995D01*
X115850139Y-71991855D01*
X115776005Y-71745736D01*
X115238777Y-71552635D01*
X114668546Y-71579822D01*
X114267995Y-71745736D01*
X114193861Y-71991855D01*
X113543651Y-71991855D01*
X113334862Y-71783066D01*
X112807439Y-71564600D01*
X112236561Y-71564600D01*
X111709138Y-71783066D01*
X111305466Y-72186738D01*
X111087000Y-72714161D01*
X110670640Y-72714161D01*
X110670640Y-72298000D01*
X110621357Y-72050235D01*
X110481009Y-71840191D01*
X110270965Y-71699843D01*
X110023200Y-71650560D01*
X108823200Y-71650560D01*
X108575435Y-71699843D01*
X108365391Y-71840191D01*
X108276170Y-71973718D01*
X108222022Y-71919570D01*
X108106329Y-72035263D01*
X108056817Y-71809836D01*
X107592164Y-71650193D01*
X107101787Y-71680518D01*
X106789583Y-71809836D01*
X106740070Y-72035265D01*
X80710000Y-72035265D01*
X80710000Y-67240150D01*
X106213400Y-67240150D01*
X106213400Y-68380710D01*
X106310073Y-68614099D01*
X106488702Y-68792727D01*
X106722091Y-68889400D01*
X107562650Y-68889400D01*
X107721400Y-68730650D01*
X107721400Y-67081400D01*
X106372150Y-67081400D01*
X106213400Y-67240150D01*
X80710000Y-67240150D01*
X80710000Y-65528090D01*
X106213400Y-65528090D01*
X106213400Y-66668650D01*
X106372150Y-66827400D01*
X107721400Y-66827400D01*
X107721400Y-65178150D01*
X107975400Y-65178150D01*
X107975400Y-66827400D01*
X107995400Y-66827400D01*
X107995400Y-67081400D01*
X107975400Y-67081400D01*
X107975400Y-68730650D01*
X108134150Y-68889400D01*
X108974709Y-68889400D01*
X109208098Y-68792727D01*
X109386727Y-68614099D01*
X109407035Y-68565070D01*
X109750456Y-68794536D01*
X110388400Y-68921431D01*
X111026345Y-68794536D01*
X111567169Y-68433169D01*
X111658400Y-68296632D01*
X111749631Y-68433169D01*
X112039400Y-68626786D01*
X112039400Y-69203645D01*
X112021984Y-69291200D01*
X112039400Y-69378755D01*
X112090981Y-69638069D01*
X112287467Y-69932133D01*
X112361696Y-69981731D01*
X113101471Y-70721506D01*
X113151067Y-70795733D01*
X113445130Y-70992219D01*
X113704444Y-71043800D01*
X113704445Y-71043800D01*
X113792000Y-71061216D01*
X113879555Y-71043800D01*
X116319365Y-71043800D01*
X125953870Y-80678306D01*
X126003467Y-80752533D01*
X126077693Y-80802129D01*
X126297529Y-80949019D01*
X126644400Y-81018016D01*
X126731956Y-81000600D01*
X133545352Y-81000600D01*
X133642623Y-81146177D01*
X133994958Y-81381600D01*
X133642623Y-81617023D01*
X133613152Y-81661130D01*
X133462070Y-81560181D01*
X133202756Y-81508600D01*
X133202755Y-81508600D01*
X133115200Y-81491184D01*
X133027645Y-81508600D01*
X118351950Y-81508600D01*
X118264399Y-81491185D01*
X118176848Y-81508600D01*
X118176844Y-81508600D01*
X117917530Y-81560181D01*
X117623467Y-81756667D01*
X117573871Y-81830893D01*
X116099320Y-83305444D01*
X116068933Y-83299400D01*
X115786267Y-83299400D01*
X115367691Y-83382660D01*
X114893023Y-83699823D01*
X114575860Y-84174491D01*
X114464487Y-84734400D01*
X114575860Y-85294309D01*
X114893023Y-85768977D01*
X115367691Y-86086140D01*
X115786267Y-86169400D01*
X115976565Y-86169400D01*
X115360896Y-86785069D01*
X115286667Y-86834667D01*
X115090181Y-87128731D01*
X115040042Y-87380795D01*
X115021184Y-87475600D01*
X115038600Y-87563155D01*
X115038600Y-88530151D01*
X114893023Y-88627423D01*
X114575860Y-89102091D01*
X114464487Y-89662000D01*
X114575860Y-90221909D01*
X114893023Y-90696577D01*
X115367691Y-91013740D01*
X115786267Y-91097000D01*
X116068933Y-91097000D01*
X116487509Y-91013740D01*
X116962177Y-90696577D01*
X117279340Y-90221909D01*
X117390713Y-89662000D01*
X117279340Y-89102091D01*
X116962177Y-88627423D01*
X116816600Y-88530152D01*
X116816600Y-87843835D01*
X117268999Y-87391436D01*
X123008993Y-87391436D01*
X123039318Y-87881813D01*
X123168636Y-88194017D01*
X123394063Y-88243529D01*
X123278370Y-88359222D01*
X123332518Y-88413370D01*
X123198991Y-88502591D01*
X123058643Y-88712635D01*
X123009360Y-88960400D01*
X123009360Y-90160400D01*
X123058643Y-90408165D01*
X123198991Y-90618209D01*
X123409035Y-90758557D01*
X123656800Y-90807840D01*
X124856800Y-90807840D01*
X125104565Y-90758557D01*
X125314609Y-90618209D01*
X125454957Y-90408165D01*
X125504240Y-90160400D01*
X125504240Y-89274961D01*
X127190600Y-89274961D01*
X127190600Y-89845839D01*
X127409066Y-90373262D01*
X127812738Y-90776934D01*
X128340161Y-90995400D01*
X128911039Y-90995400D01*
X129438462Y-90776934D01*
X129842134Y-90373262D01*
X130060600Y-89845839D01*
X130060600Y-89274961D01*
X129842134Y-88747538D01*
X129438462Y-88343866D01*
X129373301Y-88316875D01*
X129379605Y-88314264D01*
X129453739Y-88068145D01*
X128625600Y-87240005D01*
X127797461Y-88068145D01*
X127871595Y-88314264D01*
X127878346Y-88316690D01*
X127812738Y-88343866D01*
X127409066Y-88747538D01*
X127190600Y-89274961D01*
X125504240Y-89274961D01*
X125504240Y-88960400D01*
X125454957Y-88712635D01*
X125314609Y-88502591D01*
X125181082Y-88413370D01*
X125235230Y-88359222D01*
X125119537Y-88243529D01*
X125344964Y-88194017D01*
X125504607Y-87729364D01*
X125474282Y-87238987D01*
X125344964Y-86926783D01*
X125119535Y-86877270D01*
X124436405Y-87560400D01*
X124450548Y-87574543D01*
X124270943Y-87754148D01*
X124256800Y-87740005D01*
X124242658Y-87754148D01*
X124063053Y-87574543D01*
X124077195Y-87560400D01*
X123394065Y-86877270D01*
X123168636Y-86926783D01*
X123008993Y-87391436D01*
X117268999Y-87391436D01*
X117962770Y-86697665D01*
X123573670Y-86697665D01*
X124256800Y-87380795D01*
X124939930Y-86697665D01*
X124890417Y-86472236D01*
X124425764Y-86312593D01*
X123935387Y-86342918D01*
X123623183Y-86472236D01*
X123573670Y-86697665D01*
X117962770Y-86697665D01*
X118579836Y-86080600D01*
X127539764Y-86080600D01*
X127502978Y-86117386D01*
X127617853Y-86232261D01*
X127371736Y-86306395D01*
X127178635Y-86843623D01*
X127205822Y-87413854D01*
X127371736Y-87814405D01*
X127617855Y-87888539D01*
X128445995Y-87060400D01*
X128431852Y-87046258D01*
X128611458Y-86866652D01*
X128625600Y-86880795D01*
X128639742Y-86866652D01*
X128819348Y-87046258D01*
X128805205Y-87060400D01*
X129633345Y-87888539D01*
X129879464Y-87814405D01*
X130072565Y-87277177D01*
X130045378Y-86706946D01*
X129879464Y-86306395D01*
X129633347Y-86232261D01*
X129748222Y-86117386D01*
X129711436Y-86080600D01*
X133545352Y-86080600D01*
X133642623Y-86226177D01*
X133994958Y-86461600D01*
X133642623Y-86697023D01*
X133325460Y-87171691D01*
X133214087Y-87731600D01*
X133325460Y-88291509D01*
X133642623Y-88766177D01*
X133994958Y-89001600D01*
X133642623Y-89237023D01*
X133325460Y-89711691D01*
X133214087Y-90271600D01*
X133325460Y-90831509D01*
X133642623Y-91306177D01*
X133998699Y-91544099D01*
X133572700Y-91886704D01*
X133302833Y-92379781D01*
X133285296Y-92462561D01*
X133407285Y-92684600D01*
X134950200Y-92684600D01*
X134950200Y-92664600D01*
X135204200Y-92664600D01*
X135204200Y-92684600D01*
X136747115Y-92684600D01*
X136869104Y-92462561D01*
X136851567Y-92379781D01*
X136581700Y-91886704D01*
X136155701Y-91544099D01*
X136511777Y-91306177D01*
X136828940Y-90831509D01*
X136940313Y-90271600D01*
X136828940Y-89711691D01*
X136511777Y-89237023D01*
X136159442Y-89001600D01*
X136511777Y-88766177D01*
X136828940Y-88291509D01*
X136940313Y-87731600D01*
X136828940Y-87171691D01*
X136511777Y-86697023D01*
X136159442Y-86461600D01*
X136511777Y-86226177D01*
X136828940Y-85751509D01*
X136940313Y-85191600D01*
X136828940Y-84631691D01*
X136511777Y-84157023D01*
X136159442Y-83921600D01*
X136511777Y-83686177D01*
X136828940Y-83211509D01*
X136940313Y-82651600D01*
X136828940Y-82091691D01*
X136511777Y-81617023D01*
X136159442Y-81381600D01*
X136511777Y-81146177D01*
X136828940Y-80671509D01*
X136940313Y-80111600D01*
X136828940Y-79551691D01*
X136511777Y-79077023D01*
X136159442Y-78841600D01*
X136511777Y-78606177D01*
X136828940Y-78131509D01*
X136940313Y-77571600D01*
X136828940Y-77011691D01*
X136511777Y-76537023D01*
X136391094Y-76456385D01*
X136524965Y-76429757D01*
X136735009Y-76289409D01*
X136875357Y-76079365D01*
X136924640Y-75831600D01*
X136924640Y-75031600D01*
X140834087Y-75031600D01*
X140945460Y-75591509D01*
X141262623Y-76066177D01*
X141614958Y-76301600D01*
X141262623Y-76537023D01*
X140945460Y-77011691D01*
X140834087Y-77571600D01*
X140945460Y-78131509D01*
X141262623Y-78606177D01*
X141614958Y-78841600D01*
X141262623Y-79077023D01*
X140945460Y-79551691D01*
X140834087Y-80111600D01*
X140945460Y-80671509D01*
X141262623Y-81146177D01*
X141614958Y-81381600D01*
X141262623Y-81617023D01*
X140945460Y-82091691D01*
X140834087Y-82651600D01*
X140945460Y-83211509D01*
X141262623Y-83686177D01*
X141614958Y-83921600D01*
X141262623Y-84157023D01*
X140945460Y-84631691D01*
X140834087Y-85191600D01*
X140945460Y-85751509D01*
X141262623Y-86226177D01*
X141614958Y-86461600D01*
X141262623Y-86697023D01*
X140945460Y-87171691D01*
X140834087Y-87731600D01*
X140945460Y-88291509D01*
X141262623Y-88766177D01*
X141618699Y-89004099D01*
X141192700Y-89346704D01*
X140922833Y-89839781D01*
X140905296Y-89922561D01*
X141027285Y-90144600D01*
X142570200Y-90144600D01*
X142570200Y-90124600D01*
X142824200Y-90124600D01*
X142824200Y-90144600D01*
X144367115Y-90144600D01*
X144489104Y-89922561D01*
X144471567Y-89839781D01*
X144201700Y-89346704D01*
X143775701Y-89004099D01*
X144131777Y-88766177D01*
X144152110Y-88735746D01*
X145086271Y-89669907D01*
X145135867Y-89744133D01*
X145429930Y-89940619D01*
X145689244Y-89992200D01*
X145689248Y-89992200D01*
X145776799Y-90009615D01*
X145864350Y-89992200D01*
X160135645Y-89992200D01*
X160223200Y-90009616D01*
X160310755Y-89992200D01*
X160310756Y-89992200D01*
X160570070Y-89940619D01*
X160864133Y-89744133D01*
X160913731Y-89669904D01*
X162313907Y-88269729D01*
X162388133Y-88220133D01*
X162584619Y-87926070D01*
X162630115Y-87697345D01*
X163308261Y-87697345D01*
X163382395Y-87943464D01*
X163919623Y-88136565D01*
X164489854Y-88109378D01*
X164890405Y-87943464D01*
X164964539Y-87697345D01*
X164136400Y-86869205D01*
X163308261Y-87697345D01*
X162630115Y-87697345D01*
X162636200Y-87666756D01*
X162636200Y-87666752D01*
X162653615Y-87579201D01*
X162636200Y-87491650D01*
X162636200Y-86472823D01*
X162689435Y-86472823D01*
X162716622Y-87043054D01*
X162882536Y-87443605D01*
X163128655Y-87517739D01*
X163956795Y-86689600D01*
X164316005Y-86689600D01*
X165144145Y-87517739D01*
X165390264Y-87443605D01*
X165583365Y-86906377D01*
X165556178Y-86336146D01*
X165390264Y-85935595D01*
X165144145Y-85861461D01*
X164316005Y-86689600D01*
X163956795Y-86689600D01*
X163128655Y-85861461D01*
X162882536Y-85935595D01*
X162689435Y-86472823D01*
X162636200Y-86472823D01*
X162636200Y-85204235D01*
X162761836Y-85078600D01*
X162996004Y-85078600D01*
X163323538Y-85406134D01*
X163388699Y-85433125D01*
X163382395Y-85435736D01*
X163308261Y-85681855D01*
X164136400Y-86509995D01*
X164964539Y-85681855D01*
X164890405Y-85435736D01*
X164883654Y-85433310D01*
X164949262Y-85406134D01*
X165352934Y-85002462D01*
X165571400Y-84475039D01*
X165571400Y-83904161D01*
X165352934Y-83376738D01*
X165025400Y-83049204D01*
X165025400Y-82941448D01*
X165170977Y-82844177D01*
X165488140Y-82369509D01*
X165599513Y-81809600D01*
X165488140Y-81249691D01*
X165170977Y-80775023D01*
X164696309Y-80457860D01*
X164277733Y-80374600D01*
X163995067Y-80374600D01*
X163576491Y-80457860D01*
X163101823Y-80775023D01*
X162784660Y-81249691D01*
X162673287Y-81809600D01*
X162784660Y-82369509D01*
X163101823Y-82844177D01*
X163247400Y-82941449D01*
X163247401Y-83049203D01*
X162996004Y-83300600D01*
X162481156Y-83300600D01*
X162393600Y-83283184D01*
X162046729Y-83352181D01*
X161848383Y-83484712D01*
X161752667Y-83548667D01*
X161703070Y-83622894D01*
X161180494Y-84145471D01*
X161106268Y-84195067D01*
X161056672Y-84269293D01*
X161056671Y-84269294D01*
X160909782Y-84489130D01*
X160840784Y-84836000D01*
X160858201Y-84923559D01*
X160858200Y-87210964D01*
X159854965Y-88214200D01*
X156883036Y-88214200D01*
X156979907Y-88117329D01*
X157054133Y-88067733D01*
X157250619Y-87773670D01*
X157265801Y-87697345D01*
X158308261Y-87697345D01*
X158382395Y-87943464D01*
X158919623Y-88136565D01*
X159489854Y-88109378D01*
X159890405Y-87943464D01*
X159964539Y-87697345D01*
X159136400Y-86869205D01*
X158308261Y-87697345D01*
X157265801Y-87697345D01*
X157302200Y-87514356D01*
X157302200Y-87514355D01*
X157319616Y-87426800D01*
X157302200Y-87339245D01*
X157302200Y-86472823D01*
X157689435Y-86472823D01*
X157716622Y-87043054D01*
X157882536Y-87443605D01*
X158128655Y-87517739D01*
X158956795Y-86689600D01*
X159316005Y-86689600D01*
X160144145Y-87517739D01*
X160390264Y-87443605D01*
X160583365Y-86906377D01*
X160556178Y-86336146D01*
X160390264Y-85935595D01*
X160144145Y-85861461D01*
X159316005Y-86689600D01*
X158956795Y-86689600D01*
X158128655Y-85861461D01*
X157882536Y-85935595D01*
X157689435Y-86472823D01*
X157302200Y-86472823D01*
X157302200Y-85661435D01*
X157885036Y-85078600D01*
X157996004Y-85078600D01*
X158323538Y-85406134D01*
X158388699Y-85433125D01*
X158382395Y-85435736D01*
X158308261Y-85681855D01*
X159136400Y-86509995D01*
X159964539Y-85681855D01*
X159890405Y-85435736D01*
X159883654Y-85433310D01*
X159949262Y-85406134D01*
X160352934Y-85002462D01*
X160571400Y-84475039D01*
X160571400Y-83904161D01*
X160352934Y-83376738D01*
X160025400Y-83049204D01*
X160025400Y-82941448D01*
X160170977Y-82844177D01*
X160488140Y-82369509D01*
X160599513Y-81809600D01*
X160488140Y-81249691D01*
X160170977Y-80775023D01*
X159696309Y-80457860D01*
X159277733Y-80374600D01*
X158995067Y-80374600D01*
X158576491Y-80457860D01*
X158101823Y-80775023D01*
X157784660Y-81249691D01*
X157673287Y-81809600D01*
X157784660Y-82369509D01*
X158101823Y-82844177D01*
X158247400Y-82941449D01*
X158247401Y-83049203D01*
X157996004Y-83300600D01*
X157604354Y-83300600D01*
X157516799Y-83283184D01*
X157429244Y-83300600D01*
X157169930Y-83352181D01*
X156875867Y-83548667D01*
X156826271Y-83622894D01*
X155846494Y-84602671D01*
X155772268Y-84652267D01*
X155722672Y-84726493D01*
X155722671Y-84726494D01*
X155575782Y-84946330D01*
X155506784Y-85293200D01*
X155524201Y-85380759D01*
X155524201Y-86258946D01*
X155390264Y-85935595D01*
X155144145Y-85861461D01*
X154316005Y-86689600D01*
X154330148Y-86703742D01*
X154150542Y-86883348D01*
X154136400Y-86869205D01*
X154122258Y-86883348D01*
X153942652Y-86703742D01*
X153956795Y-86689600D01*
X153128655Y-85861461D01*
X152882536Y-85935595D01*
X152689435Y-86472823D01*
X152716622Y-87043054D01*
X152844012Y-87350600D01*
X150423694Y-87350600D01*
X150583365Y-86906377D01*
X150556178Y-86336146D01*
X150390264Y-85935595D01*
X150144145Y-85861461D01*
X149316005Y-86689600D01*
X149330148Y-86703742D01*
X149150542Y-86883348D01*
X149136400Y-86869205D01*
X149122258Y-86883348D01*
X148942652Y-86703742D01*
X148956795Y-86689600D01*
X148128655Y-85861461D01*
X147882536Y-85935595D01*
X147689435Y-86472823D01*
X147716622Y-87043054D01*
X147844012Y-87350600D01*
X147821436Y-87350600D01*
X145095731Y-84624896D01*
X145046133Y-84550667D01*
X144752070Y-84354181D01*
X144492756Y-84302600D01*
X144492755Y-84302600D01*
X144405200Y-84285184D01*
X144317645Y-84302600D01*
X144229048Y-84302600D01*
X144131777Y-84157023D01*
X143779442Y-83921600D01*
X144131777Y-83686177D01*
X144229048Y-83540600D01*
X145149645Y-83540600D01*
X145237200Y-83558016D01*
X145324755Y-83540600D01*
X145324756Y-83540600D01*
X145584070Y-83489019D01*
X145878133Y-83292533D01*
X145927731Y-83218304D01*
X146447436Y-82698600D01*
X148004552Y-82698600D01*
X148101823Y-82844177D01*
X148247401Y-82941449D01*
X148247400Y-83049204D01*
X147919866Y-83376738D01*
X147701400Y-83904161D01*
X147701400Y-84475039D01*
X147919866Y-85002462D01*
X148323538Y-85406134D01*
X148388699Y-85433125D01*
X148382395Y-85435736D01*
X148308261Y-85681855D01*
X149136400Y-86509995D01*
X149964539Y-85681855D01*
X149890405Y-85435736D01*
X149883654Y-85433310D01*
X149949262Y-85406134D01*
X150352934Y-85002462D01*
X150571400Y-84475039D01*
X150571400Y-83904161D01*
X150352934Y-83376738D01*
X150025400Y-83049204D01*
X150025400Y-82941448D01*
X150170977Y-82844177D01*
X150488140Y-82369509D01*
X150599513Y-81809600D01*
X150488140Y-81249691D01*
X150321703Y-81000600D01*
X152951097Y-81000600D01*
X152784660Y-81249691D01*
X152673287Y-81809600D01*
X152784660Y-82369509D01*
X153101823Y-82844177D01*
X153247400Y-82941449D01*
X153247401Y-83049203D01*
X152919866Y-83376738D01*
X152701400Y-83904161D01*
X152701400Y-84475039D01*
X152919866Y-85002462D01*
X153323538Y-85406134D01*
X153388699Y-85433125D01*
X153382395Y-85435736D01*
X153308261Y-85681855D01*
X154136400Y-86509995D01*
X154964539Y-85681855D01*
X154890405Y-85435736D01*
X154883654Y-85433310D01*
X154949262Y-85406134D01*
X155352934Y-85002462D01*
X155571400Y-84475039D01*
X155571400Y-83904161D01*
X155352934Y-83376738D01*
X155025400Y-83049204D01*
X155025400Y-82941448D01*
X155170977Y-82844177D01*
X155488140Y-82369509D01*
X155599513Y-81809600D01*
X155488140Y-81249691D01*
X155170977Y-80775023D01*
X155040857Y-80688079D01*
X155042816Y-80678230D01*
X155025400Y-80590674D01*
X154973819Y-80331360D01*
X154777333Y-80037297D01*
X154703104Y-79987699D01*
X154260301Y-79544896D01*
X154210703Y-79470667D01*
X153916640Y-79274181D01*
X153657326Y-79222600D01*
X153657325Y-79222600D01*
X153569770Y-79205184D01*
X153482215Y-79222600D01*
X144229048Y-79222600D01*
X144131777Y-79077023D01*
X143779442Y-78841600D01*
X144131777Y-78606177D01*
X144448940Y-78131509D01*
X144560313Y-77571600D01*
X144448940Y-77011691D01*
X144131777Y-76537023D01*
X143779442Y-76301600D01*
X144131777Y-76066177D01*
X144448940Y-75591509D01*
X144560313Y-75031600D01*
X144448940Y-74471691D01*
X144131777Y-73997023D01*
X143992800Y-73904161D01*
X147701400Y-73904161D01*
X147701400Y-74475039D01*
X147919866Y-75002462D01*
X148323538Y-75406134D01*
X148850961Y-75624600D01*
X149421839Y-75624600D01*
X149949262Y-75406134D01*
X150352934Y-75002462D01*
X150571400Y-74475039D01*
X150571400Y-73904161D01*
X150352934Y-73376738D01*
X150025400Y-73049204D01*
X150025400Y-72415035D01*
X152158636Y-70281800D01*
X152190045Y-70281800D01*
X152277600Y-70299216D01*
X152365155Y-70281800D01*
X152365156Y-70281800D01*
X152624470Y-70230219D01*
X152918533Y-70033733D01*
X152968131Y-69959504D01*
X153881107Y-69046529D01*
X153955333Y-68996933D01*
X154092846Y-68791130D01*
X154151819Y-68702871D01*
X154220816Y-68356000D01*
X154203400Y-68268444D01*
X154203400Y-68220386D01*
X154493169Y-68026769D01*
X154584400Y-67890232D01*
X154675631Y-68026769D01*
X154825953Y-68127211D01*
X153569696Y-69383469D01*
X153495467Y-69433067D01*
X153298981Y-69727131D01*
X153247400Y-69986444D01*
X153229984Y-70074000D01*
X153247400Y-70161555D01*
X153247401Y-73049203D01*
X152919866Y-73376738D01*
X152701400Y-73904161D01*
X152701400Y-74475039D01*
X152919866Y-75002462D01*
X153323538Y-75406134D01*
X153850961Y-75624600D01*
X154421839Y-75624600D01*
X154949262Y-75406134D01*
X155352934Y-75002462D01*
X155571400Y-74475039D01*
X155571400Y-73904161D01*
X155352934Y-73376738D01*
X155025400Y-73049204D01*
X155025400Y-70442235D01*
X156421107Y-69046529D01*
X156495333Y-68996933D01*
X156691819Y-68702870D01*
X156743400Y-68443556D01*
X156743400Y-68443555D01*
X156760816Y-68356000D01*
X156743400Y-68268445D01*
X156743400Y-68220386D01*
X157033169Y-68026769D01*
X157124400Y-67890232D01*
X157215631Y-68026769D01*
X157505401Y-68220387D01*
X157505401Y-68268441D01*
X157487984Y-68356000D01*
X157546519Y-68650268D01*
X157556982Y-68702870D01*
X157753468Y-68996933D01*
X157827694Y-69046529D01*
X158247400Y-69466236D01*
X158247401Y-73049203D01*
X157919866Y-73376738D01*
X157701400Y-73904161D01*
X157701400Y-74475039D01*
X157919866Y-75002462D01*
X158323538Y-75406134D01*
X158850961Y-75624600D01*
X159421839Y-75624600D01*
X159949262Y-75406134D01*
X160352934Y-75002462D01*
X160571400Y-74475039D01*
X160571400Y-73904161D01*
X160352934Y-73376738D01*
X160025400Y-73049204D01*
X160025400Y-69306099D01*
X160062816Y-69118000D01*
X159993818Y-68771129D01*
X159846929Y-68551293D01*
X159846925Y-68551289D01*
X159797332Y-68477068D01*
X159723111Y-68427475D01*
X159422847Y-68127211D01*
X159573169Y-68026769D01*
X159664400Y-67890232D01*
X159755631Y-68026769D01*
X160045401Y-68220387D01*
X160045401Y-68268441D01*
X160027984Y-68356000D01*
X160086519Y-68650268D01*
X160096982Y-68702870D01*
X160293468Y-68996933D01*
X160367694Y-69046529D01*
X163247400Y-71926236D01*
X163247401Y-73049203D01*
X162919866Y-73376738D01*
X162701400Y-73904161D01*
X162701400Y-74475039D01*
X162919866Y-75002462D01*
X163323538Y-75406134D01*
X163850961Y-75624600D01*
X164421839Y-75624600D01*
X164949262Y-75406134D01*
X165352934Y-75002462D01*
X165571400Y-74475039D01*
X165571400Y-73904161D01*
X165352934Y-73376738D01*
X165025400Y-73049204D01*
X165025400Y-71645555D01*
X165042816Y-71558000D01*
X165025400Y-71470444D01*
X164973819Y-71211130D01*
X164777333Y-70917067D01*
X164703107Y-70867471D01*
X161962846Y-68127211D01*
X162113169Y-68026769D01*
X162474536Y-67485945D01*
X162569400Y-67009030D01*
X162569400Y-66086969D01*
X162474536Y-65610055D01*
X162113169Y-65069231D01*
X161572344Y-64707864D01*
X160934400Y-64580969D01*
X160296455Y-64707864D01*
X159755631Y-65069231D01*
X159664400Y-65205768D01*
X159573169Y-65069231D01*
X159032344Y-64707864D01*
X158394400Y-64580969D01*
X157756455Y-64707864D01*
X157215631Y-65069231D01*
X157124400Y-65205768D01*
X157033169Y-65069231D01*
X156492344Y-64707864D01*
X155854400Y-64580969D01*
X155216455Y-64707864D01*
X154675631Y-65069231D01*
X154584400Y-65205768D01*
X154493169Y-65069231D01*
X153952344Y-64707864D01*
X153314400Y-64580969D01*
X152676455Y-64707864D01*
X152135631Y-65069231D01*
X152044400Y-65205768D01*
X151953169Y-65069231D01*
X151412344Y-64707864D01*
X150774400Y-64580969D01*
X150136455Y-64707864D01*
X149793035Y-64937330D01*
X149772727Y-64888301D01*
X149594098Y-64709673D01*
X149360709Y-64613000D01*
X148520150Y-64613000D01*
X148361400Y-64771750D01*
X148361400Y-66421000D01*
X148381400Y-66421000D01*
X148381400Y-66675000D01*
X148361400Y-66675000D01*
X148361400Y-68324250D01*
X148520150Y-68483000D01*
X149360709Y-68483000D01*
X149594098Y-68386327D01*
X149772727Y-68207699D01*
X149793035Y-68158670D01*
X150136456Y-68388136D01*
X150774400Y-68515031D01*
X151412345Y-68388136D01*
X151953169Y-68026769D01*
X152044400Y-67890232D01*
X152135631Y-68026769D01*
X152285953Y-68127211D01*
X151909365Y-68503800D01*
X151877955Y-68503800D01*
X151790400Y-68486384D01*
X151702845Y-68503800D01*
X151702844Y-68503800D01*
X151443530Y-68555381D01*
X151149467Y-68751867D01*
X151099871Y-68826093D01*
X148569694Y-71356271D01*
X148495468Y-71405867D01*
X148445872Y-71480093D01*
X148445871Y-71480094D01*
X148298982Y-71699930D01*
X148229984Y-72046800D01*
X148247401Y-72134359D01*
X148247401Y-73049203D01*
X147919866Y-73376738D01*
X147701400Y-73904161D01*
X143992800Y-73904161D01*
X143657109Y-73679860D01*
X143238533Y-73596600D01*
X142155867Y-73596600D01*
X141737291Y-73679860D01*
X141262623Y-73997023D01*
X140945460Y-74471691D01*
X140834087Y-75031600D01*
X136924640Y-75031600D01*
X136924640Y-74231600D01*
X136875357Y-73983835D01*
X136735009Y-73773791D01*
X136524965Y-73633443D01*
X136277200Y-73584160D01*
X135966200Y-73584160D01*
X135966200Y-71396796D01*
X136293734Y-71069262D01*
X136512200Y-70541839D01*
X136512200Y-69970961D01*
X136293734Y-69443538D01*
X136159331Y-69309135D01*
X140236070Y-69309135D01*
X140285583Y-69534564D01*
X140750236Y-69694207D01*
X141240613Y-69663882D01*
X141520994Y-69547745D01*
X143748661Y-69547745D01*
X143822795Y-69793864D01*
X144360023Y-69986965D01*
X144930254Y-69959778D01*
X145330805Y-69793864D01*
X145404939Y-69547745D01*
X144576800Y-68719605D01*
X143748661Y-69547745D01*
X141520994Y-69547745D01*
X141552817Y-69534564D01*
X141602330Y-69309135D01*
X140919200Y-68626005D01*
X140236070Y-69309135D01*
X136159331Y-69309135D01*
X135890062Y-69039866D01*
X135362639Y-68821400D01*
X134791761Y-68821400D01*
X134264338Y-69039866D01*
X133936804Y-69367400D01*
X132753036Y-69367400D01*
X132110131Y-68724496D01*
X132060533Y-68650267D01*
X131766470Y-68453781D01*
X131507156Y-68402200D01*
X131507155Y-68402200D01*
X131419600Y-68384784D01*
X131332045Y-68402200D01*
X130789075Y-68402200D01*
X130773686Y-68365047D01*
X130686075Y-68277436D01*
X139671393Y-68277436D01*
X139701718Y-68767813D01*
X139831036Y-69080017D01*
X140056465Y-69129530D01*
X140739595Y-68446400D01*
X140725453Y-68432258D01*
X140905058Y-68252653D01*
X140919200Y-68266795D01*
X140933343Y-68252653D01*
X141112948Y-68432258D01*
X141098805Y-68446400D01*
X141781935Y-69129530D01*
X142007364Y-69080017D01*
X142167007Y-68615364D01*
X142148941Y-68323223D01*
X143129835Y-68323223D01*
X143157022Y-68893454D01*
X143322936Y-69294005D01*
X143569055Y-69368139D01*
X144397195Y-68540000D01*
X144756405Y-68540000D01*
X145584545Y-69368139D01*
X145830664Y-69294005D01*
X146023765Y-68756777D01*
X145996578Y-68186546D01*
X145830664Y-67785995D01*
X145584545Y-67711861D01*
X144756405Y-68540000D01*
X144397195Y-68540000D01*
X143569055Y-67711861D01*
X143322936Y-67785995D01*
X143129835Y-68323223D01*
X142148941Y-68323223D01*
X142136682Y-68124987D01*
X142007364Y-67812783D01*
X141781937Y-67763271D01*
X141897630Y-67647578D01*
X141843482Y-67593430D01*
X141977009Y-67504209D01*
X142117357Y-67294165D01*
X142166640Y-67046400D01*
X142166640Y-65846400D01*
X142148373Y-65754561D01*
X143141800Y-65754561D01*
X143141800Y-66325439D01*
X143360266Y-66852862D01*
X143763938Y-67256534D01*
X143829099Y-67283525D01*
X143822795Y-67286136D01*
X143748661Y-67532255D01*
X144576800Y-68360395D01*
X145404939Y-67532255D01*
X145330805Y-67286136D01*
X145324054Y-67283710D01*
X145389662Y-67256534D01*
X145793334Y-66852862D01*
X145801250Y-66833750D01*
X146599400Y-66833750D01*
X146599400Y-67974310D01*
X146696073Y-68207699D01*
X146874702Y-68386327D01*
X147108091Y-68483000D01*
X147948650Y-68483000D01*
X148107400Y-68324250D01*
X148107400Y-66675000D01*
X146758150Y-66675000D01*
X146599400Y-66833750D01*
X145801250Y-66833750D01*
X146011800Y-66325439D01*
X146011800Y-65754561D01*
X145793334Y-65227138D01*
X145687886Y-65121690D01*
X146599400Y-65121690D01*
X146599400Y-66262250D01*
X146758150Y-66421000D01*
X148107400Y-66421000D01*
X148107400Y-64771750D01*
X147948650Y-64613000D01*
X147108091Y-64613000D01*
X146874702Y-64709673D01*
X146696073Y-64888301D01*
X146599400Y-65121690D01*
X145687886Y-65121690D01*
X145389662Y-64823466D01*
X144862239Y-64605000D01*
X144291361Y-64605000D01*
X143763938Y-64823466D01*
X143360266Y-65227138D01*
X143141800Y-65754561D01*
X142148373Y-65754561D01*
X142117357Y-65598635D01*
X141977009Y-65388591D01*
X141766965Y-65248243D01*
X141519200Y-65198960D01*
X140319200Y-65198960D01*
X140071435Y-65248243D01*
X139861391Y-65388591D01*
X139721043Y-65598635D01*
X139671760Y-65846400D01*
X139671760Y-67046400D01*
X139721043Y-67294165D01*
X139861391Y-67504209D01*
X139994918Y-67593430D01*
X139940770Y-67647578D01*
X140056463Y-67763271D01*
X139831036Y-67812783D01*
X139671393Y-68277436D01*
X130686075Y-68277436D01*
X130313753Y-67905114D01*
X129712822Y-67656200D01*
X129062378Y-67656200D01*
X128461447Y-67905114D01*
X128001514Y-68365047D01*
X127986125Y-68402200D01*
X124289075Y-68402200D01*
X124273686Y-68365047D01*
X123813753Y-67905114D01*
X123212822Y-67656200D01*
X122562378Y-67656200D01*
X121961447Y-67905114D01*
X121501514Y-68365047D01*
X121252600Y-68965978D01*
X121252600Y-69616422D01*
X121501514Y-70217353D01*
X121961447Y-70677286D01*
X122562378Y-70926200D01*
X123212822Y-70926200D01*
X123813753Y-70677286D01*
X124273686Y-70217353D01*
X124289075Y-70180200D01*
X127986125Y-70180200D01*
X128001514Y-70217353D01*
X128461447Y-70677286D01*
X129062378Y-70926200D01*
X129712822Y-70926200D01*
X130313753Y-70677286D01*
X130773686Y-70217353D01*
X130789075Y-70180200D01*
X131051365Y-70180200D01*
X131694271Y-70823106D01*
X131743867Y-70897333D01*
X132037930Y-71093819D01*
X132297244Y-71145400D01*
X132297245Y-71145400D01*
X132384800Y-71162816D01*
X132472355Y-71145400D01*
X133936804Y-71145400D01*
X134188201Y-71396797D01*
X134188200Y-73584160D01*
X133877200Y-73584160D01*
X133629435Y-73633443D01*
X133419391Y-73773791D01*
X133279043Y-73983835D01*
X133229760Y-74231600D01*
X133229760Y-75831600D01*
X133279043Y-76079365D01*
X133419391Y-76289409D01*
X133629435Y-76429757D01*
X133763306Y-76456385D01*
X133642623Y-76537023D01*
X133545352Y-76682600D01*
X126153836Y-76682600D01*
X121132600Y-71661365D01*
X121132600Y-68819955D01*
X121150016Y-68732400D01*
X121132600Y-68644844D01*
X121081019Y-68385530D01*
X120884533Y-68091467D01*
X120810307Y-68041871D01*
X119156131Y-66387696D01*
X119106533Y-66313467D01*
X118812470Y-66116981D01*
X118553156Y-66065400D01*
X118553155Y-66065400D01*
X118465600Y-66047984D01*
X118378045Y-66065400D01*
X117018272Y-66065400D01*
X117008536Y-66016455D01*
X116959945Y-65943732D01*
X121914673Y-65943732D01*
X122013336Y-66210587D01*
X122623061Y-66437108D01*
X123273060Y-66413056D01*
X123761864Y-66210587D01*
X123860527Y-65943732D01*
X128414673Y-65943732D01*
X128513336Y-66210587D01*
X129123061Y-66437108D01*
X129773060Y-66413056D01*
X130261864Y-66210587D01*
X130360527Y-65943732D01*
X129387600Y-64970805D01*
X128414673Y-65943732D01*
X123860527Y-65943732D01*
X122887600Y-64970805D01*
X121914673Y-65943732D01*
X116959945Y-65943732D01*
X116647169Y-65475631D01*
X116106344Y-65114264D01*
X115468400Y-64987369D01*
X114830455Y-65114264D01*
X114289631Y-65475631D01*
X114198400Y-65612168D01*
X114107169Y-65475631D01*
X113566344Y-65114264D01*
X112928400Y-64987369D01*
X112290455Y-65114264D01*
X111749631Y-65475631D01*
X111658400Y-65612168D01*
X111567169Y-65475631D01*
X111026344Y-65114264D01*
X110388400Y-64987369D01*
X109750455Y-65114264D01*
X109407035Y-65343730D01*
X109386727Y-65294701D01*
X109208098Y-65116073D01*
X108974709Y-65019400D01*
X108134150Y-65019400D01*
X107975400Y-65178150D01*
X107721400Y-65178150D01*
X107562650Y-65019400D01*
X106722091Y-65019400D01*
X106488702Y-65116073D01*
X106310073Y-65294701D01*
X106213400Y-65528090D01*
X80710000Y-65528090D01*
X80710000Y-63078575D01*
X80748844Y-63172353D01*
X81827647Y-64251156D01*
X83237171Y-64835000D01*
X84762829Y-64835000D01*
X85507225Y-64526661D01*
X121241692Y-64526661D01*
X121265744Y-65176660D01*
X121468213Y-65665464D01*
X121735068Y-65764127D01*
X122707995Y-64791200D01*
X123067205Y-64791200D01*
X124040132Y-65764127D01*
X124306987Y-65665464D01*
X124533508Y-65055739D01*
X124513931Y-64526661D01*
X127741692Y-64526661D01*
X127765744Y-65176660D01*
X127968213Y-65665464D01*
X128235068Y-65764127D01*
X129207995Y-64791200D01*
X129567205Y-64791200D01*
X130540132Y-65764127D01*
X130806987Y-65665464D01*
X131033508Y-65055739D01*
X131009456Y-64405740D01*
X130806987Y-63916936D01*
X130540132Y-63818273D01*
X129567205Y-64791200D01*
X129207995Y-64791200D01*
X128235068Y-63818273D01*
X127968213Y-63916936D01*
X127741692Y-64526661D01*
X124513931Y-64526661D01*
X124509456Y-64405740D01*
X124306987Y-63916936D01*
X124040132Y-63818273D01*
X123067205Y-64791200D01*
X122707995Y-64791200D01*
X121735068Y-63818273D01*
X121468213Y-63916936D01*
X121241692Y-64526661D01*
X85507225Y-64526661D01*
X86172353Y-64251156D01*
X86784841Y-63638668D01*
X121914673Y-63638668D01*
X122887600Y-64611595D01*
X123860527Y-63638668D01*
X128414673Y-63638668D01*
X129387600Y-64611595D01*
X130360527Y-63638668D01*
X130261864Y-63371813D01*
X129652139Y-63145292D01*
X129002140Y-63169344D01*
X128513336Y-63371813D01*
X128414673Y-63638668D01*
X123860527Y-63638668D01*
X123761864Y-63371813D01*
X123152139Y-63145292D01*
X122502140Y-63169344D01*
X122013336Y-63371813D01*
X121914673Y-63638668D01*
X86784841Y-63638668D01*
X87251156Y-63172353D01*
X87473155Y-62636400D01*
X133614087Y-62636400D01*
X133725460Y-63196309D01*
X134042623Y-63670977D01*
X134517291Y-63988140D01*
X134935867Y-64071400D01*
X135218533Y-64071400D01*
X135637109Y-63988140D01*
X136111777Y-63670977D01*
X136428940Y-63196309D01*
X136540313Y-62636400D01*
X136428940Y-62076491D01*
X136111777Y-61601823D01*
X135637109Y-61284660D01*
X135218533Y-61201400D01*
X134935867Y-61201400D01*
X134517291Y-61284660D01*
X134042623Y-61601823D01*
X133725460Y-62076491D01*
X133614087Y-62636400D01*
X87473155Y-62636400D01*
X87835000Y-61762829D01*
X87835000Y-60237171D01*
X87251156Y-58827647D01*
X86172353Y-57748844D01*
X86078575Y-57710000D01*
X163921425Y-57710000D01*
X163827647Y-57748844D01*
X163827647Y-57748844D01*
G37*
X163827647Y-57748844D02*
X162748844Y-58827647D01*
X162165000Y-60237171D01*
X162165000Y-61762829D01*
X162748844Y-63172353D01*
X163827647Y-64251156D01*
X165237171Y-64835000D01*
X166762829Y-64835000D01*
X168172353Y-64251156D01*
X169251156Y-63172353D01*
X169290000Y-63078575D01*
X169290001Y-128921427D01*
X169251156Y-128827647D01*
X168172353Y-127748844D01*
X166762829Y-127165000D01*
X165237171Y-127165000D01*
X163827647Y-127748844D01*
X162748844Y-128827647D01*
X162165000Y-130237171D01*
X162165000Y-131762829D01*
X162748844Y-133172353D01*
X163827647Y-134251156D01*
X163921425Y-134290000D01*
X86078575Y-134290000D01*
X86172353Y-134251156D01*
X87251156Y-133172353D01*
X87835000Y-131762829D01*
X87835000Y-130237171D01*
X87749072Y-130029722D01*
X90727400Y-130029722D01*
X90727400Y-130879078D01*
X91052434Y-131663780D01*
X91653020Y-132264366D01*
X92437722Y-132589400D01*
X93287078Y-132589400D01*
X94071780Y-132264366D01*
X94672366Y-131663780D01*
X94997400Y-130879078D01*
X94997400Y-130740150D01*
X95807400Y-130740150D01*
X95807400Y-132080710D01*
X95904073Y-132314099D01*
X96082702Y-132492727D01*
X96316091Y-132589400D01*
X97656650Y-132589400D01*
X97815400Y-132430650D01*
X97815400Y-130581400D01*
X98069400Y-130581400D01*
X98069400Y-132430650D01*
X98228150Y-132589400D01*
X99568709Y-132589400D01*
X99802098Y-132492727D01*
X99980727Y-132314099D01*
X100077400Y-132080710D01*
X100077400Y-130740150D01*
X99918650Y-130581400D01*
X98069400Y-130581400D01*
X97815400Y-130581400D01*
X95966150Y-130581400D01*
X95807400Y-130740150D01*
X94997400Y-130740150D01*
X94997400Y-130029722D01*
X94672366Y-129245020D01*
X94255436Y-128828090D01*
X95807400Y-128828090D01*
X95807400Y-130168650D01*
X95966150Y-130327400D01*
X97815400Y-130327400D01*
X97815400Y-128478150D01*
X98069400Y-128478150D01*
X98069400Y-130327400D01*
X99918650Y-130327400D01*
X100077400Y-130168650D01*
X100077400Y-129424950D01*
X104345800Y-129424950D01*
X104345800Y-131015509D01*
X104442473Y-131248898D01*
X104621101Y-131427527D01*
X104854490Y-131524200D01*
X106445050Y-131524200D01*
X106603800Y-131365450D01*
X106603800Y-129266200D01*
X106857800Y-129266200D01*
X106857800Y-131365450D01*
X107016550Y-131524200D01*
X108607110Y-131524200D01*
X108840499Y-131427527D01*
X109019127Y-131248898D01*
X109115800Y-131015509D01*
X109115800Y-130519600D01*
X116562560Y-130519600D01*
X116562560Y-132319600D01*
X116611843Y-132567365D01*
X116752191Y-132777409D01*
X116962235Y-132917757D01*
X117210000Y-132967040D01*
X119010000Y-132967040D01*
X119257765Y-132917757D01*
X119467809Y-132777409D01*
X119608157Y-132567365D01*
X119657440Y-132319600D01*
X119657440Y-131368800D01*
X121930087Y-131368800D01*
X122041460Y-131928709D01*
X122358623Y-132403377D01*
X122833291Y-132720540D01*
X123251867Y-132803800D01*
X123534533Y-132803800D01*
X123953109Y-132720540D01*
X124427777Y-132403377D01*
X124445705Y-132376545D01*
X130185061Y-132376545D01*
X130259195Y-132622664D01*
X130796423Y-132815765D01*
X131366654Y-132788578D01*
X131767205Y-132622664D01*
X131841339Y-132376545D01*
X131013200Y-131548405D01*
X130185061Y-132376545D01*
X124445705Y-132376545D01*
X124744940Y-131928709D01*
X124856313Y-131368800D01*
X124813194Y-131152023D01*
X129566235Y-131152023D01*
X129593422Y-131722254D01*
X129759336Y-132122805D01*
X130005455Y-132196939D01*
X130833595Y-131368800D01*
X131192805Y-131368800D01*
X132020945Y-132196939D01*
X132267064Y-132122805D01*
X132460165Y-131585577D01*
X132432978Y-131015346D01*
X132267064Y-130614795D01*
X132020945Y-130540661D01*
X131192805Y-131368800D01*
X130833595Y-131368800D01*
X130005455Y-130540661D01*
X129759336Y-130614795D01*
X129566235Y-131152023D01*
X124813194Y-131152023D01*
X124744940Y-130808891D01*
X124445706Y-130361055D01*
X130185061Y-130361055D01*
X131013200Y-131189195D01*
X131841339Y-130361055D01*
X131767205Y-130114936D01*
X131229977Y-129921835D01*
X130659746Y-129949022D01*
X130259195Y-130114936D01*
X130185061Y-130361055D01*
X124445706Y-130361055D01*
X124427777Y-130334223D01*
X123953109Y-130017060D01*
X123534533Y-129933800D01*
X123251867Y-129933800D01*
X122833291Y-130017060D01*
X122358623Y-130334223D01*
X122041460Y-130808891D01*
X121930087Y-131368800D01*
X119657440Y-131368800D01*
X119657440Y-130519600D01*
X119608157Y-130271835D01*
X119467809Y-130061791D01*
X119257765Y-129921443D01*
X119242092Y-129918325D01*
X119411310Y-129749107D01*
X119645000Y-129184930D01*
X119645000Y-128574270D01*
X119411310Y-128010093D01*
X118979507Y-127578290D01*
X118415330Y-127344600D01*
X117804670Y-127344600D01*
X117240493Y-127578290D01*
X116808690Y-128010093D01*
X116575000Y-128574270D01*
X116575000Y-129184930D01*
X116808690Y-129749107D01*
X116977908Y-129918325D01*
X116962235Y-129921443D01*
X116752191Y-130061791D01*
X116611843Y-130271835D01*
X116562560Y-130519600D01*
X109115800Y-130519600D01*
X109115800Y-129424950D01*
X108957050Y-129266200D01*
X106857800Y-129266200D01*
X106603800Y-129266200D01*
X104504550Y-129266200D01*
X104345800Y-129424950D01*
X100077400Y-129424950D01*
X100077400Y-128828090D01*
X99980727Y-128594701D01*
X99802098Y-128416073D01*
X99568709Y-128319400D01*
X98228150Y-128319400D01*
X98069400Y-128478150D01*
X97815400Y-128478150D01*
X97656650Y-128319400D01*
X96316091Y-128319400D01*
X96082702Y-128416073D01*
X95904073Y-128594701D01*
X95807400Y-128828090D01*
X94255436Y-128828090D01*
X94071780Y-128644434D01*
X93287078Y-128319400D01*
X92437722Y-128319400D01*
X91653020Y-128644434D01*
X91052434Y-129245020D01*
X90727400Y-130029722D01*
X87749072Y-130029722D01*
X87251156Y-128827647D01*
X86172353Y-127748844D01*
X84999159Y-127262891D01*
X104345800Y-127262891D01*
X104345800Y-128853450D01*
X104504550Y-129012200D01*
X106603800Y-129012200D01*
X106603800Y-126912950D01*
X106857800Y-126912950D01*
X106857800Y-129012200D01*
X108957050Y-129012200D01*
X109115800Y-128853450D01*
X109115800Y-128184504D01*
X109142473Y-128248898D01*
X109321101Y-128427527D01*
X109554490Y-128524200D01*
X111145050Y-128524200D01*
X111303800Y-128365450D01*
X111303800Y-126266200D01*
X111557800Y-126266200D01*
X111557800Y-128365450D01*
X111716550Y-128524200D01*
X113307110Y-128524200D01*
X113540499Y-128427527D01*
X113719127Y-128248898D01*
X113815800Y-128015509D01*
X113815800Y-126424950D01*
X113657050Y-126266200D01*
X111557800Y-126266200D01*
X111303800Y-126266200D01*
X109204550Y-126266200D01*
X109045800Y-126424950D01*
X109045800Y-127093896D01*
X109019127Y-127029502D01*
X108840499Y-126850873D01*
X108607110Y-126754200D01*
X107016550Y-126754200D01*
X106857800Y-126912950D01*
X106603800Y-126912950D01*
X106445050Y-126754200D01*
X104854490Y-126754200D01*
X104621101Y-126850873D01*
X104442473Y-127029502D01*
X104345800Y-127262891D01*
X84999159Y-127262891D01*
X84762829Y-127165000D01*
X83237171Y-127165000D01*
X81827647Y-127748844D01*
X80748844Y-128827647D01*
X80710000Y-128921425D01*
X80710000Y-121900950D01*
X82365000Y-121900950D01*
X82365000Y-123241509D01*
X82461673Y-123474898D01*
X82640301Y-123653527D01*
X82873690Y-123750200D01*
X84214250Y-123750200D01*
X84373000Y-123591450D01*
X84373000Y-121742200D01*
X84627000Y-121742200D01*
X84627000Y-123591450D01*
X84785750Y-123750200D01*
X86126310Y-123750200D01*
X86359699Y-123653527D01*
X86538327Y-123474898D01*
X86635000Y-123241509D01*
X86635000Y-121900950D01*
X86476250Y-121742200D01*
X84627000Y-121742200D01*
X84373000Y-121742200D01*
X82523750Y-121742200D01*
X82365000Y-121900950D01*
X80710000Y-121900950D01*
X80710000Y-119988891D01*
X82365000Y-119988891D01*
X82365000Y-121329450D01*
X82523750Y-121488200D01*
X84373000Y-121488200D01*
X84373000Y-119638950D01*
X84627000Y-119638950D01*
X84627000Y-121488200D01*
X86476250Y-121488200D01*
X86635000Y-121329450D01*
X86635000Y-119988891D01*
X86572168Y-119837200D01*
X95614610Y-119837200D01*
X95749266Y-120514163D01*
X96132735Y-121088065D01*
X96706637Y-121471534D01*
X97212720Y-121572200D01*
X97554480Y-121572200D01*
X98060563Y-121471534D01*
X98183784Y-121389200D01*
X104333360Y-121389200D01*
X104333360Y-124889200D01*
X104382643Y-125136965D01*
X104522991Y-125347009D01*
X104733035Y-125487357D01*
X104980800Y-125536640D01*
X108480800Y-125536640D01*
X108728565Y-125487357D01*
X108938609Y-125347009D01*
X109045800Y-125186588D01*
X109045800Y-125853450D01*
X109204550Y-126012200D01*
X111303800Y-126012200D01*
X111303800Y-123912950D01*
X111557800Y-123912950D01*
X111557800Y-126012200D01*
X113657050Y-126012200D01*
X113815800Y-125853450D01*
X113815800Y-125173745D01*
X131607461Y-125173745D01*
X131681595Y-125419864D01*
X132218823Y-125612965D01*
X132789054Y-125585778D01*
X133189605Y-125419864D01*
X133263739Y-125173745D01*
X132435600Y-124345605D01*
X131607461Y-125173745D01*
X113815800Y-125173745D01*
X113815800Y-124262891D01*
X113719127Y-124029502D01*
X113638849Y-123949223D01*
X130988635Y-123949223D01*
X131015822Y-124519454D01*
X131181736Y-124920005D01*
X131427855Y-124994139D01*
X132255995Y-124166000D01*
X132615205Y-124166000D01*
X133443345Y-124994139D01*
X133689464Y-124920005D01*
X133882565Y-124382777D01*
X133855378Y-123812546D01*
X133689464Y-123411995D01*
X133443345Y-123337861D01*
X132615205Y-124166000D01*
X132255995Y-124166000D01*
X131427855Y-123337861D01*
X131181736Y-123411995D01*
X130988635Y-123949223D01*
X113638849Y-123949223D01*
X113540499Y-123850873D01*
X113307110Y-123754200D01*
X111716550Y-123754200D01*
X111557800Y-123912950D01*
X111303800Y-123912950D01*
X111145050Y-123754200D01*
X109554490Y-123754200D01*
X109321101Y-123850873D01*
X109142473Y-124029502D01*
X109128240Y-124063863D01*
X109128240Y-121389200D01*
X109126522Y-121380561D01*
X131000600Y-121380561D01*
X131000600Y-121951439D01*
X131219066Y-122478862D01*
X131622738Y-122882534D01*
X131687899Y-122909525D01*
X131681595Y-122912136D01*
X131607461Y-123158255D01*
X132435600Y-123986395D01*
X133263739Y-123158255D01*
X133189605Y-122912136D01*
X133182854Y-122909710D01*
X133248462Y-122882534D01*
X133575996Y-122555000D01*
X134594128Y-122555000D01*
X134603864Y-122603944D01*
X134965231Y-123144769D01*
X135506055Y-123506136D01*
X136144000Y-123633031D01*
X136781944Y-123506136D01*
X137322769Y-123144769D01*
X137414000Y-123008232D01*
X137505231Y-123144769D01*
X138046055Y-123506136D01*
X138684000Y-123633031D01*
X139321944Y-123506136D01*
X139862769Y-123144769D01*
X139954000Y-123008232D01*
X140045231Y-123144769D01*
X140586055Y-123506136D01*
X141224000Y-123633031D01*
X141861944Y-123506136D01*
X142205365Y-123276670D01*
X142225673Y-123325699D01*
X142404302Y-123504327D01*
X142637691Y-123601000D01*
X143478250Y-123601000D01*
X143637000Y-123442250D01*
X143637000Y-121793000D01*
X143891000Y-121793000D01*
X143891000Y-123442250D01*
X144049750Y-123601000D01*
X144890309Y-123601000D01*
X145123698Y-123504327D01*
X145302327Y-123325699D01*
X145399000Y-123092310D01*
X145399000Y-121951750D01*
X145240250Y-121793000D01*
X143891000Y-121793000D01*
X143637000Y-121793000D01*
X143617000Y-121793000D01*
X143617000Y-121539000D01*
X143637000Y-121539000D01*
X143637000Y-119889750D01*
X143891000Y-119889750D01*
X143891000Y-121539000D01*
X145240250Y-121539000D01*
X145399000Y-121380250D01*
X145399000Y-120239690D01*
X145302327Y-120006301D01*
X145123698Y-119827673D01*
X144890309Y-119731000D01*
X144049750Y-119731000D01*
X143891000Y-119889750D01*
X143637000Y-119889750D01*
X143478250Y-119731000D01*
X142637691Y-119731000D01*
X142404302Y-119827673D01*
X142225673Y-120006301D01*
X142205365Y-120055330D01*
X141861945Y-119825864D01*
X141224000Y-119698969D01*
X140586056Y-119825864D01*
X140045231Y-120187231D01*
X139954000Y-120323768D01*
X139862769Y-120187231D01*
X139573000Y-119993614D01*
X139573000Y-119061155D01*
X139575836Y-119046900D01*
X140766736Y-117856000D01*
X144395650Y-117856000D01*
X144422229Y-117882579D01*
X144819175Y-118047000D01*
X145248825Y-118047000D01*
X145645771Y-117882579D01*
X145949579Y-117578771D01*
X146114000Y-117181825D01*
X146114000Y-116752175D01*
X145949579Y-116355229D01*
X145645771Y-116051421D01*
X145248825Y-115887000D01*
X144819175Y-115887000D01*
X144422229Y-116051421D01*
X144395650Y-116078000D01*
X140486054Y-116078000D01*
X140398499Y-116060584D01*
X140310944Y-116078000D01*
X140051630Y-116129581D01*
X139757567Y-116326067D01*
X139707971Y-116400293D01*
X138519977Y-117588287D01*
X138408469Y-117513780D01*
X138149155Y-117462199D01*
X138149154Y-117462199D01*
X138061599Y-117444783D01*
X137974044Y-117462199D01*
X133921400Y-117462199D01*
X133921400Y-117265761D01*
X133702934Y-116738338D01*
X133299262Y-116334666D01*
X133234101Y-116307675D01*
X133240405Y-116305064D01*
X133314539Y-116058945D01*
X132486400Y-115230805D01*
X131658261Y-116058945D01*
X131732395Y-116305064D01*
X131739146Y-116307490D01*
X131673538Y-116334666D01*
X131269866Y-116738338D01*
X131051400Y-117265761D01*
X131051400Y-117836639D01*
X131269866Y-118364062D01*
X131673538Y-118767734D01*
X132200961Y-118986200D01*
X132641502Y-118986200D01*
X132645466Y-118992132D01*
X132939529Y-119188618D01*
X133198843Y-119240199D01*
X133198847Y-119240199D01*
X133286398Y-119257614D01*
X133373949Y-119240199D01*
X137693364Y-119240199D01*
X137795000Y-119341836D01*
X137795000Y-119993614D01*
X137505231Y-120187231D01*
X137414000Y-120323768D01*
X137322769Y-120187231D01*
X136781945Y-119825864D01*
X136144000Y-119698969D01*
X135506056Y-119825864D01*
X134965231Y-120187231D01*
X134603864Y-120728055D01*
X134594128Y-120777000D01*
X133575996Y-120777000D01*
X133248462Y-120449466D01*
X132721039Y-120231000D01*
X132150161Y-120231000D01*
X131622738Y-120449466D01*
X131219066Y-120853138D01*
X131000600Y-121380561D01*
X109126522Y-121380561D01*
X109078957Y-121141435D01*
X108938609Y-120931391D01*
X108728565Y-120791043D01*
X108480800Y-120741760D01*
X104980800Y-120741760D01*
X104733035Y-120791043D01*
X104522991Y-120931391D01*
X104382643Y-121141435D01*
X104333360Y-121389200D01*
X98183784Y-121389200D01*
X98634465Y-121088065D01*
X99017934Y-120514163D01*
X99152590Y-119837200D01*
X99017934Y-119160237D01*
X98634465Y-118586335D01*
X98060563Y-118202866D01*
X97554480Y-118102200D01*
X97212720Y-118102200D01*
X96706637Y-118202866D01*
X96132735Y-118586335D01*
X95749266Y-119160237D01*
X95614610Y-119837200D01*
X86572168Y-119837200D01*
X86538327Y-119755502D01*
X86359699Y-119576873D01*
X86126310Y-119480200D01*
X84785750Y-119480200D01*
X84627000Y-119638950D01*
X84373000Y-119638950D01*
X84214250Y-119480200D01*
X82873690Y-119480200D01*
X82640301Y-119576873D01*
X82461673Y-119755502D01*
X82365000Y-119988891D01*
X80710000Y-119988891D01*
X80710000Y-116110522D01*
X82365000Y-116110522D01*
X82365000Y-116959878D01*
X82690034Y-117744580D01*
X83290620Y-118345166D01*
X84075322Y-118670200D01*
X84924678Y-118670200D01*
X85709380Y-118345166D01*
X86036968Y-118017578D01*
X116424200Y-118017578D01*
X116424200Y-118668022D01*
X116673114Y-119268953D01*
X117133047Y-119728886D01*
X117733978Y-119977800D01*
X118384422Y-119977800D01*
X118985353Y-119728886D01*
X119445286Y-119268953D01*
X119694200Y-118668022D01*
X119694200Y-118017578D01*
X122924200Y-118017578D01*
X122924200Y-118668022D01*
X123173114Y-119268953D01*
X123633047Y-119728886D01*
X124233978Y-119977800D01*
X124884422Y-119977800D01*
X125485353Y-119728886D01*
X125945286Y-119268953D01*
X126194200Y-118668022D01*
X126194200Y-118017578D01*
X125945286Y-117416647D01*
X125485353Y-116956714D01*
X124884422Y-116707800D01*
X124233978Y-116707800D01*
X123633047Y-116956714D01*
X123173114Y-117416647D01*
X122924200Y-118017578D01*
X119694200Y-118017578D01*
X119445286Y-117416647D01*
X118985353Y-116956714D01*
X118384422Y-116707800D01*
X117733978Y-116707800D01*
X117133047Y-116956714D01*
X116673114Y-117416647D01*
X116424200Y-118017578D01*
X86036968Y-118017578D01*
X86309966Y-117744580D01*
X86635000Y-116959878D01*
X86635000Y-116110522D01*
X86309966Y-115325820D01*
X85709380Y-114725234D01*
X84924678Y-114400200D01*
X84075322Y-114400200D01*
X83290620Y-114725234D01*
X82690034Y-115325820D01*
X82365000Y-116110522D01*
X80710000Y-116110522D01*
X80710000Y-112084161D01*
X91173400Y-112084161D01*
X91173400Y-112655039D01*
X91391866Y-113182462D01*
X91795538Y-113586134D01*
X92322961Y-113804600D01*
X92893839Y-113804600D01*
X93421262Y-113586134D01*
X93824934Y-113182462D01*
X94043400Y-112655039D01*
X94043400Y-112084161D01*
X93824934Y-111556738D01*
X93421262Y-111153066D01*
X93356101Y-111126075D01*
X93362405Y-111123464D01*
X93364291Y-111117200D01*
X95636160Y-111117200D01*
X95636160Y-113317200D01*
X95685443Y-113564965D01*
X95825791Y-113775009D01*
X96035835Y-113915357D01*
X96283600Y-113964640D01*
X98483600Y-113964640D01*
X98731365Y-113915357D01*
X98941409Y-113775009D01*
X99057278Y-113601600D01*
X101066960Y-113601600D01*
X101066960Y-115201600D01*
X101116243Y-115449365D01*
X101256591Y-115659409D01*
X101466635Y-115799757D01*
X101714400Y-115849040D01*
X103314400Y-115849040D01*
X103562165Y-115799757D01*
X103772209Y-115659409D01*
X103912557Y-115449365D01*
X103920517Y-115409345D01*
X104186261Y-115409345D01*
X104260395Y-115655464D01*
X104797623Y-115848565D01*
X105367854Y-115821378D01*
X105768405Y-115655464D01*
X105842539Y-115409345D01*
X105014400Y-114581205D01*
X104186261Y-115409345D01*
X103920517Y-115409345D01*
X103959093Y-115215413D01*
X104006655Y-115229739D01*
X104834795Y-114401600D01*
X105194005Y-114401600D01*
X106022145Y-115229739D01*
X106268264Y-115155605D01*
X106461365Y-114618377D01*
X106434178Y-114048146D01*
X106268264Y-113647595D01*
X106022145Y-113573461D01*
X105194005Y-114401600D01*
X104834795Y-114401600D01*
X104006655Y-113573461D01*
X103959093Y-113587787D01*
X103920518Y-113393855D01*
X104186261Y-113393855D01*
X105014400Y-114221995D01*
X105842539Y-113393855D01*
X105768405Y-113147736D01*
X105231177Y-112954635D01*
X104660946Y-112981822D01*
X104260395Y-113147736D01*
X104186261Y-113393855D01*
X103920518Y-113393855D01*
X103912557Y-113353835D01*
X103772209Y-113143791D01*
X103562165Y-113003443D01*
X103314400Y-112954160D01*
X101714400Y-112954160D01*
X101466635Y-113003443D01*
X101256591Y-113143791D01*
X101116243Y-113353835D01*
X101066960Y-113601600D01*
X99057278Y-113601600D01*
X99081757Y-113564965D01*
X99131040Y-113317200D01*
X99131040Y-111880961D01*
X107886600Y-111880961D01*
X107886600Y-112451839D01*
X108105066Y-112979262D01*
X108508738Y-113382934D01*
X109036161Y-113601400D01*
X109607039Y-113601400D01*
X110134462Y-113382934D01*
X110343251Y-113174145D01*
X110993461Y-113174145D01*
X111067595Y-113420264D01*
X111604823Y-113613365D01*
X112175054Y-113586178D01*
X112340668Y-113517578D01*
X116424200Y-113517578D01*
X116424200Y-114168022D01*
X116673114Y-114768953D01*
X117133047Y-115228886D01*
X117733978Y-115477800D01*
X118384422Y-115477800D01*
X118985353Y-115228886D01*
X119445286Y-114768953D01*
X119460675Y-114731800D01*
X123157725Y-114731800D01*
X123173114Y-114768953D01*
X123633047Y-115228886D01*
X124233978Y-115477800D01*
X124884422Y-115477800D01*
X125485353Y-115228886D01*
X125879816Y-114834423D01*
X131039435Y-114834423D01*
X131066622Y-115404654D01*
X131232536Y-115805205D01*
X131478655Y-115879339D01*
X132306795Y-115051200D01*
X132666005Y-115051200D01*
X133494145Y-115879339D01*
X133740264Y-115805205D01*
X133933365Y-115267977D01*
X133912358Y-114827361D01*
X136550500Y-114827361D01*
X136550500Y-115398239D01*
X136768966Y-115925662D01*
X137172638Y-116329334D01*
X137700061Y-116547800D01*
X138270939Y-116547800D01*
X138798362Y-116329334D01*
X139202034Y-115925662D01*
X139420500Y-115398239D01*
X139420500Y-114827361D01*
X139202034Y-114299938D01*
X138798362Y-113896266D01*
X138733201Y-113869275D01*
X138739505Y-113866664D01*
X138813639Y-113620545D01*
X137985500Y-112792405D01*
X137157361Y-113620545D01*
X137231495Y-113866664D01*
X137238246Y-113869090D01*
X137172638Y-113896266D01*
X136768966Y-114299938D01*
X136550500Y-114827361D01*
X133912358Y-114827361D01*
X133906178Y-114697746D01*
X133740264Y-114297195D01*
X133494145Y-114223061D01*
X132666005Y-115051200D01*
X132306795Y-115051200D01*
X131478655Y-114223061D01*
X131232536Y-114297195D01*
X131039435Y-114834423D01*
X125879816Y-114834423D01*
X125945286Y-114768953D01*
X126194200Y-114168022D01*
X126194200Y-114043455D01*
X131658261Y-114043455D01*
X132486400Y-114871595D01*
X133314539Y-114043455D01*
X133240405Y-113797336D01*
X132703177Y-113604235D01*
X132132946Y-113631422D01*
X131732395Y-113797336D01*
X131658261Y-114043455D01*
X126194200Y-114043455D01*
X126194200Y-113517578D01*
X125945286Y-112916647D01*
X125485353Y-112456714D01*
X125448200Y-112441325D01*
X125448200Y-112396023D01*
X136538535Y-112396023D01*
X136565722Y-112966254D01*
X136731636Y-113366805D01*
X136977755Y-113440939D01*
X137805895Y-112612800D01*
X138165105Y-112612800D01*
X138993245Y-113440939D01*
X139239364Y-113366805D01*
X139256547Y-113319000D01*
X140357560Y-113319000D01*
X140357560Y-114519000D01*
X140406843Y-114766765D01*
X140547191Y-114976809D01*
X140757235Y-115117157D01*
X141005000Y-115166440D01*
X142205000Y-115166440D01*
X142452765Y-115117157D01*
X142662809Y-114976809D01*
X142752030Y-114843282D01*
X142806178Y-114897430D01*
X142921871Y-114781737D01*
X142971383Y-115007164D01*
X143436036Y-115166807D01*
X143926413Y-115136482D01*
X144238617Y-115007164D01*
X144288130Y-114781735D01*
X143605000Y-114098605D01*
X143590858Y-114112748D01*
X143411253Y-113933143D01*
X143425395Y-113919000D01*
X143784605Y-113919000D01*
X144467735Y-114602130D01*
X144693164Y-114552617D01*
X144852807Y-114087964D01*
X144822482Y-113597587D01*
X144693164Y-113285383D01*
X144467735Y-113235870D01*
X143784605Y-113919000D01*
X143425395Y-113919000D01*
X143411253Y-113904858D01*
X143590858Y-113725253D01*
X143605000Y-113739395D01*
X144288130Y-113056265D01*
X144238617Y-112830836D01*
X143773964Y-112671193D01*
X143283587Y-112701518D01*
X142971383Y-112830836D01*
X142921871Y-113056263D01*
X142806178Y-112940570D01*
X142752030Y-112994718D01*
X142662809Y-112861191D01*
X142452765Y-112720843D01*
X142205000Y-112671560D01*
X141005000Y-112671560D01*
X140757235Y-112720843D01*
X140547191Y-112861191D01*
X140406843Y-113071235D01*
X140357560Y-113319000D01*
X139256547Y-113319000D01*
X139432465Y-112829577D01*
X139405278Y-112259346D01*
X139239364Y-111858795D01*
X138993245Y-111784661D01*
X138165105Y-112612800D01*
X137805895Y-112612800D01*
X136977755Y-111784661D01*
X136731636Y-111858795D01*
X136538535Y-112396023D01*
X125448200Y-112396023D01*
X125448200Y-111605055D01*
X137157361Y-111605055D01*
X137985500Y-112433195D01*
X138813639Y-111605055D01*
X138739505Y-111358936D01*
X138202277Y-111165835D01*
X137632046Y-111193022D01*
X137231495Y-111358936D01*
X137157361Y-111605055D01*
X125448200Y-111605055D01*
X125448200Y-109337452D01*
X125596177Y-109238577D01*
X125795279Y-108940600D01*
X133545352Y-108940600D01*
X133642623Y-109086177D01*
X134117291Y-109403340D01*
X134535867Y-109486600D01*
X135618533Y-109486600D01*
X136037109Y-109403340D01*
X136511777Y-109086177D01*
X136828940Y-108611509D01*
X136940313Y-108051600D01*
X136828940Y-107491691D01*
X136511777Y-107017023D01*
X136159442Y-106781600D01*
X136511777Y-106546177D01*
X136828940Y-106071509D01*
X136940313Y-105511600D01*
X136828940Y-104951691D01*
X136511777Y-104477023D01*
X136159442Y-104241600D01*
X136511777Y-104006177D01*
X136828940Y-103531509D01*
X136940313Y-102971600D01*
X136828940Y-102411691D01*
X136511777Y-101937023D01*
X136159442Y-101701600D01*
X136511777Y-101466177D01*
X136609048Y-101320600D01*
X137401365Y-101320600D01*
X138303001Y-102222237D01*
X138303000Y-108243445D01*
X138285584Y-108331000D01*
X138303000Y-108418555D01*
X138354581Y-108677869D01*
X138551067Y-108971933D01*
X138625296Y-109021531D01*
X140533471Y-110929707D01*
X140583067Y-111003933D01*
X140877130Y-111200419D01*
X141136444Y-111252000D01*
X141136445Y-111252000D01*
X141224000Y-111269416D01*
X141311555Y-111252000D01*
X147116169Y-111252000D01*
X147026012Y-111289344D01*
X146722344Y-111593012D01*
X146558000Y-111989774D01*
X146558000Y-112419226D01*
X146722344Y-112815988D01*
X146747296Y-112840940D01*
X146735966Y-118834409D01*
X146718384Y-118922800D01*
X146752742Y-119095527D01*
X146786727Y-119268086D01*
X146787212Y-119268815D01*
X146787382Y-119269670D01*
X146885086Y-119415895D01*
X146982657Y-119562520D01*
X147057494Y-119612729D01*
X151506271Y-124061507D01*
X151555867Y-124135733D01*
X151849930Y-124332219D01*
X152109244Y-124383800D01*
X152109248Y-124383800D01*
X152196799Y-124401215D01*
X152284350Y-124383800D01*
X155970045Y-124383800D01*
X156057600Y-124401216D01*
X156145155Y-124383800D01*
X156145156Y-124383800D01*
X156404470Y-124332219D01*
X156698533Y-124135733D01*
X156748131Y-124061504D01*
X157589507Y-123220129D01*
X157663733Y-123170533D01*
X157860219Y-122876470D01*
X157911800Y-122617156D01*
X157911800Y-122617155D01*
X157929216Y-122529600D01*
X157911800Y-122442045D01*
X157911800Y-120791540D01*
X158103230Y-120663630D01*
X158292800Y-120379919D01*
X158482370Y-120663630D01*
X158978075Y-120994850D01*
X159415202Y-121081800D01*
X159710398Y-121081800D01*
X160147525Y-120994850D01*
X160643230Y-120663630D01*
X160974450Y-120167925D01*
X161090759Y-119583200D01*
X160974450Y-118998475D01*
X160970766Y-118992961D01*
X165087400Y-118992961D01*
X165087400Y-119563839D01*
X165305866Y-120091262D01*
X165709538Y-120494934D01*
X166236961Y-120713400D01*
X166807839Y-120713400D01*
X167335262Y-120494934D01*
X167738934Y-120091262D01*
X167957400Y-119563839D01*
X167957400Y-118992961D01*
X167738934Y-118465538D01*
X167335262Y-118061866D01*
X167270101Y-118034875D01*
X167276405Y-118032264D01*
X167350539Y-117786145D01*
X166522400Y-116958005D01*
X165694261Y-117786145D01*
X165768395Y-118032264D01*
X165775146Y-118034690D01*
X165709538Y-118061866D01*
X165305866Y-118465538D01*
X165087400Y-118992961D01*
X160970766Y-118992961D01*
X160648149Y-118510132D01*
X160674165Y-118504957D01*
X160884209Y-118364609D01*
X161024557Y-118154565D01*
X161073840Y-117906800D01*
X161073840Y-116561623D01*
X165075435Y-116561623D01*
X165102622Y-117131854D01*
X165268536Y-117532405D01*
X165514655Y-117606539D01*
X166342795Y-116778400D01*
X166702005Y-116778400D01*
X167530145Y-117606539D01*
X167776264Y-117532405D01*
X167969365Y-116995177D01*
X167942178Y-116424946D01*
X167776264Y-116024395D01*
X167530145Y-115950261D01*
X166702005Y-116778400D01*
X166342795Y-116778400D01*
X165514655Y-115950261D01*
X165268536Y-116024395D01*
X165075435Y-116561623D01*
X161073840Y-116561623D01*
X161073840Y-116179600D01*
X161024557Y-115931835D01*
X160916860Y-115770655D01*
X165694261Y-115770655D01*
X166522400Y-116598795D01*
X167350539Y-115770655D01*
X167276405Y-115524536D01*
X166739177Y-115331435D01*
X166168946Y-115358622D01*
X165768395Y-115524536D01*
X165694261Y-115770655D01*
X160916860Y-115770655D01*
X160884209Y-115721791D01*
X160674165Y-115581443D01*
X160426400Y-115532160D01*
X158699200Y-115532160D01*
X158451435Y-115581443D01*
X158241391Y-115721791D01*
X158101043Y-115931835D01*
X158095868Y-115957851D01*
X157911800Y-115834860D01*
X157911800Y-113422356D01*
X157929216Y-113334800D01*
X157860219Y-112987929D01*
X157713329Y-112768093D01*
X157663733Y-112693867D01*
X157589507Y-112644271D01*
X156972000Y-112026765D01*
X156972000Y-111989774D01*
X156807656Y-111593012D01*
X156503988Y-111289344D01*
X156413831Y-111252000D01*
X161710445Y-111252000D01*
X161798000Y-111269416D01*
X161885555Y-111252000D01*
X161885556Y-111252000D01*
X162144870Y-111200419D01*
X162438933Y-111003933D01*
X162488531Y-110929704D01*
X164269707Y-109148529D01*
X164343933Y-109098933D01*
X164540419Y-108804870D01*
X164592000Y-108545556D01*
X164592000Y-108545555D01*
X164609416Y-108458000D01*
X164592000Y-108370445D01*
X164592000Y-102902155D01*
X164609416Y-102814600D01*
X164590121Y-102717600D01*
X164540419Y-102467730D01*
X164343933Y-102173667D01*
X164269707Y-102124071D01*
X162162931Y-100017296D01*
X162113333Y-99943067D01*
X161819270Y-99746581D01*
X161559956Y-99695000D01*
X161559955Y-99695000D01*
X161472400Y-99677584D01*
X161384845Y-99695000D01*
X161336786Y-99695000D01*
X161143169Y-99405231D01*
X161006632Y-99314000D01*
X161143169Y-99222769D01*
X161504536Y-98681945D01*
X161631431Y-98044000D01*
X161504536Y-97406055D01*
X161275070Y-97062635D01*
X161324099Y-97042327D01*
X161502727Y-96863698D01*
X161599400Y-96630309D01*
X161599400Y-95789750D01*
X161440650Y-95631000D01*
X159791400Y-95631000D01*
X159791400Y-95651000D01*
X159537400Y-95651000D01*
X159537400Y-95631000D01*
X157888150Y-95631000D01*
X157729400Y-95789750D01*
X157729400Y-96630309D01*
X157826073Y-96863698D01*
X158004701Y-97042327D01*
X158053730Y-97062635D01*
X157824264Y-97406055D01*
X157697369Y-98044000D01*
X157824264Y-98681945D01*
X158185631Y-99222769D01*
X158322168Y-99314000D01*
X158185631Y-99405231D01*
X157824264Y-99946055D01*
X157697369Y-100584000D01*
X157824264Y-101221945D01*
X158185631Y-101762769D01*
X158322168Y-101854000D01*
X158185631Y-101945231D01*
X158093844Y-102082600D01*
X144229048Y-102082600D01*
X144131777Y-101937023D01*
X143779442Y-101701600D01*
X144131777Y-101466177D01*
X144448940Y-100991509D01*
X144560313Y-100431600D01*
X144448940Y-99871691D01*
X144131777Y-99397023D01*
X143779442Y-99161600D01*
X144131777Y-98926177D01*
X144229048Y-98780600D01*
X150831582Y-98780600D01*
X151288068Y-99237087D01*
X151218900Y-99404074D01*
X151218900Y-99833526D01*
X151383244Y-100230288D01*
X151686912Y-100533956D01*
X152083674Y-100698300D01*
X152513126Y-100698300D01*
X152909888Y-100533956D01*
X153213556Y-100230288D01*
X153377900Y-99833526D01*
X153377900Y-99404074D01*
X153213556Y-99007312D01*
X153203424Y-98997180D01*
X153204816Y-98990183D01*
X153163127Y-98780600D01*
X153135819Y-98643313D01*
X152939333Y-98349250D01*
X152865106Y-98299654D01*
X151890348Y-97324896D01*
X151840750Y-97250667D01*
X151546687Y-97054181D01*
X151287373Y-97002600D01*
X151287372Y-97002600D01*
X151199817Y-96985184D01*
X151112262Y-97002600D01*
X144229048Y-97002600D01*
X144131777Y-96857023D01*
X143779442Y-96621600D01*
X144131777Y-96386177D01*
X144448940Y-95911509D01*
X144560313Y-95351600D01*
X144448940Y-94791691D01*
X144360788Y-94659761D01*
X146697800Y-94659761D01*
X146697800Y-95230639D01*
X146916266Y-95758062D01*
X147319938Y-96161734D01*
X147847361Y-96380200D01*
X148418239Y-96380200D01*
X148945662Y-96161734D01*
X149349334Y-95758062D01*
X149567800Y-95230639D01*
X149567800Y-94659761D01*
X149349334Y-94132338D01*
X148945662Y-93728666D01*
X148880501Y-93701675D01*
X148886805Y-93699064D01*
X148960939Y-93452945D01*
X148132800Y-92624805D01*
X147304661Y-93452945D01*
X147378795Y-93699064D01*
X147385546Y-93701490D01*
X147319938Y-93728666D01*
X146916266Y-94132338D01*
X146697800Y-94659761D01*
X144360788Y-94659761D01*
X144131777Y-94317023D01*
X143779442Y-94081600D01*
X144131777Y-93846177D01*
X144448940Y-93371509D01*
X144560313Y-92811600D01*
X144448940Y-92251691D01*
X144433393Y-92228423D01*
X146685835Y-92228423D01*
X146713022Y-92798654D01*
X146878936Y-93199205D01*
X147125055Y-93273339D01*
X147953195Y-92445200D01*
X148312405Y-92445200D01*
X149140545Y-93273339D01*
X149386664Y-93199205D01*
X149579765Y-92661977D01*
X149563415Y-92319036D01*
X151202993Y-92319036D01*
X151233318Y-92809413D01*
X151362636Y-93121617D01*
X151588063Y-93171129D01*
X151472370Y-93286822D01*
X151526518Y-93340970D01*
X151392991Y-93430191D01*
X151252643Y-93640235D01*
X151203360Y-93888000D01*
X151203360Y-95088000D01*
X151252643Y-95335765D01*
X151392991Y-95545809D01*
X151603035Y-95686157D01*
X151850800Y-95735440D01*
X153050800Y-95735440D01*
X153298565Y-95686157D01*
X153508609Y-95545809D01*
X153648957Y-95335765D01*
X153698240Y-95088000D01*
X153698240Y-94377691D01*
X157729400Y-94377691D01*
X157729400Y-95218250D01*
X157888150Y-95377000D01*
X159537400Y-95377000D01*
X159537400Y-94027750D01*
X159791400Y-94027750D01*
X159791400Y-95377000D01*
X161440650Y-95377000D01*
X161599400Y-95218250D01*
X161599400Y-94377691D01*
X161502727Y-94144302D01*
X161324099Y-93965673D01*
X161090710Y-93869000D01*
X159950150Y-93869000D01*
X159791400Y-94027750D01*
X159537400Y-94027750D01*
X159378650Y-93869000D01*
X158238090Y-93869000D01*
X158004701Y-93965673D01*
X157826073Y-94144302D01*
X157729400Y-94377691D01*
X153698240Y-94377691D01*
X153698240Y-93888000D01*
X153648957Y-93640235D01*
X153508609Y-93430191D01*
X153375082Y-93340970D01*
X153429230Y-93286822D01*
X153313537Y-93171129D01*
X153538964Y-93121617D01*
X153698607Y-92656964D01*
X153668282Y-92166587D01*
X153538964Y-91854383D01*
X153313535Y-91804870D01*
X152630405Y-92488000D01*
X152644548Y-92502143D01*
X152464943Y-92681748D01*
X152450800Y-92667605D01*
X152436658Y-92681748D01*
X152257053Y-92502143D01*
X152271195Y-92488000D01*
X151588065Y-91804870D01*
X151362636Y-91854383D01*
X151202993Y-92319036D01*
X149563415Y-92319036D01*
X149552578Y-92091746D01*
X149386664Y-91691195D01*
X149167782Y-91625265D01*
X151767670Y-91625265D01*
X152450800Y-92308395D01*
X153133930Y-91625265D01*
X153084417Y-91399836D01*
X152619764Y-91240193D01*
X152129387Y-91270518D01*
X151817183Y-91399836D01*
X151767670Y-91625265D01*
X149167782Y-91625265D01*
X149140545Y-91617061D01*
X148312405Y-92445200D01*
X147953195Y-92445200D01*
X147125055Y-91617061D01*
X146878936Y-91691195D01*
X146685835Y-92228423D01*
X144433393Y-92228423D01*
X144131777Y-91777023D01*
X143775701Y-91539101D01*
X143902088Y-91437455D01*
X147304661Y-91437455D01*
X148132800Y-92265595D01*
X148960939Y-91437455D01*
X148886805Y-91191336D01*
X148349577Y-90998235D01*
X147779346Y-91025422D01*
X147378795Y-91191336D01*
X147304661Y-91437455D01*
X143902088Y-91437455D01*
X144201700Y-91196496D01*
X144471567Y-90703419D01*
X144489104Y-90620639D01*
X144367115Y-90398600D01*
X142824200Y-90398600D01*
X142824200Y-90418600D01*
X142570200Y-90418600D01*
X142570200Y-90398600D01*
X141027285Y-90398600D01*
X140905296Y-90620639D01*
X140922833Y-90703419D01*
X141192700Y-91196496D01*
X141618699Y-91539101D01*
X141262623Y-91777023D01*
X140945460Y-92251691D01*
X140834087Y-92811600D01*
X140945460Y-93371509D01*
X141262623Y-93846177D01*
X141614958Y-94081600D01*
X141262623Y-94317023D01*
X140945460Y-94791691D01*
X140834087Y-95351600D01*
X140945460Y-95911509D01*
X141262623Y-96386177D01*
X141614958Y-96621600D01*
X141262623Y-96857023D01*
X140945460Y-97331691D01*
X140834087Y-97891600D01*
X140945460Y-98451509D01*
X141262623Y-98926177D01*
X141614958Y-99161600D01*
X141262623Y-99397023D01*
X140945460Y-99871691D01*
X140834087Y-100431600D01*
X140945460Y-100991509D01*
X141262623Y-101466177D01*
X141614958Y-101701600D01*
X141262623Y-101937023D01*
X140945460Y-102411691D01*
X140834087Y-102971600D01*
X140945460Y-103531509D01*
X141262623Y-104006177D01*
X141614958Y-104241600D01*
X141262623Y-104477023D01*
X140945460Y-104951691D01*
X140834087Y-105511600D01*
X140945460Y-106071509D01*
X141262623Y-106546177D01*
X141614958Y-106781600D01*
X141262623Y-107017023D01*
X140945460Y-107491691D01*
X140834087Y-108051600D01*
X140945460Y-108611509D01*
X141262623Y-109086177D01*
X141737291Y-109403340D01*
X142092523Y-109474000D01*
X141592236Y-109474000D01*
X140081000Y-107962765D01*
X140081000Y-101941550D01*
X140098415Y-101853999D01*
X140081000Y-101766448D01*
X140081000Y-101766444D01*
X140029419Y-101507130D01*
X139832933Y-101213067D01*
X139758707Y-101163471D01*
X138460131Y-99864896D01*
X138410533Y-99790667D01*
X138116470Y-99594181D01*
X137857156Y-99542600D01*
X137857155Y-99542600D01*
X137769600Y-99525184D01*
X137682045Y-99542600D01*
X136609048Y-99542600D01*
X136511777Y-99397023D01*
X136159442Y-99161600D01*
X136511777Y-98926177D01*
X136828940Y-98451509D01*
X136940313Y-97891600D01*
X136828940Y-97331691D01*
X136511777Y-96857023D01*
X136159442Y-96621600D01*
X136511777Y-96386177D01*
X136828940Y-95911509D01*
X136940313Y-95351600D01*
X136828940Y-94791691D01*
X136511777Y-94317023D01*
X136155701Y-94079101D01*
X136581700Y-93736496D01*
X136851567Y-93243419D01*
X136869104Y-93160639D01*
X136747115Y-92938600D01*
X135204200Y-92938600D01*
X135204200Y-92958600D01*
X134950200Y-92958600D01*
X134950200Y-92938600D01*
X133407285Y-92938600D01*
X133285296Y-93160639D01*
X133302833Y-93243419D01*
X133572700Y-93736496D01*
X133998699Y-94079101D01*
X133642623Y-94317023D01*
X133545352Y-94462600D01*
X131048393Y-94462600D01*
X130913670Y-94372581D01*
X130654356Y-94321000D01*
X130654355Y-94321000D01*
X130566800Y-94303584D01*
X130479245Y-94321000D01*
X129765996Y-94321000D01*
X129438462Y-93993466D01*
X129373301Y-93966475D01*
X129379605Y-93963864D01*
X129453739Y-93717745D01*
X128625600Y-92889605D01*
X127797461Y-93717745D01*
X127871595Y-93963864D01*
X127878346Y-93966290D01*
X127812738Y-93993466D01*
X127485204Y-94321000D01*
X125349550Y-94321000D01*
X125261999Y-94303585D01*
X125174448Y-94321000D01*
X125174444Y-94321000D01*
X124915130Y-94372581D01*
X124621067Y-94569067D01*
X124571469Y-94643296D01*
X124501365Y-94713400D01*
X123243687Y-94713400D01*
X122958540Y-94428253D01*
X122449494Y-94217400D01*
X121898506Y-94217400D01*
X121389460Y-94428253D01*
X120999853Y-94817860D01*
X120789000Y-95326906D01*
X120789000Y-95877894D01*
X120999853Y-96386940D01*
X121389460Y-96776547D01*
X121898506Y-96987400D01*
X122449494Y-96987400D01*
X122958540Y-96776547D01*
X123243687Y-96491400D01*
X124782045Y-96491400D01*
X124869600Y-96508816D01*
X124957155Y-96491400D01*
X124957156Y-96491400D01*
X125216470Y-96439819D01*
X125510533Y-96243333D01*
X125560131Y-96169104D01*
X125630235Y-96099000D01*
X127485204Y-96099000D01*
X127812738Y-96426534D01*
X128340161Y-96645000D01*
X128911039Y-96645000D01*
X129438462Y-96426534D01*
X129765996Y-96099000D01*
X130226807Y-96099000D01*
X130320695Y-96161734D01*
X130361530Y-96189019D01*
X130708400Y-96258016D01*
X130795956Y-96240600D01*
X133545352Y-96240600D01*
X133642623Y-96386177D01*
X133994958Y-96621600D01*
X133642623Y-96857023D01*
X133545352Y-97002600D01*
X131039155Y-97002600D01*
X130951600Y-96985184D01*
X130864045Y-97002600D01*
X130864044Y-97002600D01*
X130604730Y-97054181D01*
X130310667Y-97250667D01*
X130261071Y-97324893D01*
X128803365Y-98782600D01*
X128340161Y-98782600D01*
X127812738Y-99001066D01*
X127485204Y-99328600D01*
X125167955Y-99328600D01*
X125080400Y-99311184D01*
X124992845Y-99328600D01*
X124992844Y-99328600D01*
X124733530Y-99380181D01*
X124439467Y-99576667D01*
X124428286Y-99593400D01*
X123243687Y-99593400D01*
X122958540Y-99308253D01*
X122449494Y-99097400D01*
X121898506Y-99097400D01*
X121389460Y-99308253D01*
X120999853Y-99697860D01*
X120789000Y-100206906D01*
X120789000Y-100757894D01*
X120999853Y-101266940D01*
X121389460Y-101656547D01*
X121898506Y-101867400D01*
X122449494Y-101867400D01*
X122958540Y-101656547D01*
X123243687Y-101371400D01*
X124728045Y-101371400D01*
X124815600Y-101388816D01*
X124903155Y-101371400D01*
X124903156Y-101371400D01*
X125162470Y-101319819D01*
X125456533Y-101123333D01*
X125467714Y-101106600D01*
X127485204Y-101106600D01*
X127812738Y-101434134D01*
X127877899Y-101461125D01*
X127871595Y-101463736D01*
X127797461Y-101709855D01*
X128625600Y-102537995D01*
X129453739Y-101709855D01*
X129379605Y-101463736D01*
X129372854Y-101461310D01*
X129438462Y-101434134D01*
X129842134Y-101030462D01*
X130060600Y-100503039D01*
X130060600Y-100039835D01*
X131319836Y-98780600D01*
X133545352Y-98780600D01*
X133642623Y-98926177D01*
X133994958Y-99161600D01*
X133642623Y-99397023D01*
X133325460Y-99871691D01*
X133214087Y-100431600D01*
X133325460Y-100991509D01*
X133642623Y-101466177D01*
X133994958Y-101701600D01*
X133642623Y-101937023D01*
X133325460Y-102411691D01*
X133214087Y-102971600D01*
X133325460Y-103531509D01*
X133642623Y-104006177D01*
X133994958Y-104241600D01*
X133642623Y-104477023D01*
X133325460Y-104951691D01*
X133214087Y-105511600D01*
X133325460Y-106071509D01*
X133642623Y-106546177D01*
X133994958Y-106781600D01*
X133642623Y-107017023D01*
X133545352Y-107162600D01*
X125585966Y-107162600D01*
X125121509Y-106852260D01*
X124702933Y-106769000D01*
X124420267Y-106769000D01*
X124001691Y-106852260D01*
X123527023Y-107169423D01*
X123209860Y-107644091D01*
X123098487Y-108204000D01*
X123209860Y-108763909D01*
X123527023Y-109238577D01*
X123670201Y-109334245D01*
X123670200Y-112441325D01*
X123633047Y-112456714D01*
X123173114Y-112916647D01*
X123157725Y-112953800D01*
X119460675Y-112953800D01*
X119445286Y-112916647D01*
X118985353Y-112456714D01*
X118384422Y-112207800D01*
X117733978Y-112207800D01*
X117133047Y-112456714D01*
X116673114Y-112916647D01*
X116424200Y-113517578D01*
X112340668Y-113517578D01*
X112575605Y-113420264D01*
X112649739Y-113174145D01*
X111821600Y-112346005D01*
X110993461Y-113174145D01*
X110343251Y-113174145D01*
X110538134Y-112979262D01*
X110565125Y-112914101D01*
X110567736Y-112920405D01*
X110813855Y-112994539D01*
X111641995Y-112166400D01*
X112001205Y-112166400D01*
X112829345Y-112994539D01*
X113075464Y-112920405D01*
X113268565Y-112383177D01*
X113241378Y-111812946D01*
X113075464Y-111412395D01*
X112829345Y-111338261D01*
X112001205Y-112166400D01*
X111641995Y-112166400D01*
X110813855Y-111338261D01*
X110567736Y-111412395D01*
X110565310Y-111419146D01*
X110538134Y-111353538D01*
X110343251Y-111158655D01*
X110993461Y-111158655D01*
X111821600Y-111986795D01*
X112649739Y-111158655D01*
X112575605Y-110912536D01*
X112038377Y-110719435D01*
X111468146Y-110746622D01*
X111067595Y-110912536D01*
X110993461Y-111158655D01*
X110343251Y-111158655D01*
X110134462Y-110949866D01*
X109607039Y-110731400D01*
X109036161Y-110731400D01*
X108508738Y-110949866D01*
X108105066Y-111353538D01*
X107886600Y-111880961D01*
X99131040Y-111880961D01*
X99131040Y-111117200D01*
X99081757Y-110869435D01*
X98941409Y-110659391D01*
X98731365Y-110519043D01*
X98483600Y-110469760D01*
X96283600Y-110469760D01*
X96035835Y-110519043D01*
X95825791Y-110659391D01*
X95685443Y-110869435D01*
X95636160Y-111117200D01*
X93364291Y-111117200D01*
X93436539Y-110877345D01*
X92608400Y-110049205D01*
X91780261Y-110877345D01*
X91854395Y-111123464D01*
X91861146Y-111125890D01*
X91795538Y-111153066D01*
X91391866Y-111556738D01*
X91173400Y-112084161D01*
X80710000Y-112084161D01*
X80710000Y-109652823D01*
X91161435Y-109652823D01*
X91188622Y-110223054D01*
X91354536Y-110623605D01*
X91600655Y-110697739D01*
X92428795Y-109869600D01*
X92788005Y-109869600D01*
X93616145Y-110697739D01*
X93862264Y-110623605D01*
X94055365Y-110086377D01*
X94028178Y-109516146D01*
X93902091Y-109211745D01*
X116113461Y-109211745D01*
X116187595Y-109457864D01*
X116724823Y-109650965D01*
X117295054Y-109623778D01*
X117695605Y-109457864D01*
X117769739Y-109211745D01*
X116941600Y-108383605D01*
X116113461Y-109211745D01*
X93902091Y-109211745D01*
X93862264Y-109115595D01*
X93616145Y-109041461D01*
X92788005Y-109869600D01*
X92428795Y-109869600D01*
X91600655Y-109041461D01*
X91354536Y-109115595D01*
X91161435Y-109652823D01*
X80710000Y-109652823D01*
X80710000Y-106407722D01*
X82365000Y-106407722D01*
X82365000Y-107257078D01*
X82690034Y-108041780D01*
X83290620Y-108642366D01*
X84075322Y-108967400D01*
X84924678Y-108967400D01*
X85179486Y-108861855D01*
X91780261Y-108861855D01*
X92608400Y-109689995D01*
X93436539Y-108861855D01*
X93362405Y-108615736D01*
X92825177Y-108422635D01*
X92254946Y-108449822D01*
X91854395Y-108615736D01*
X91780261Y-108861855D01*
X85179486Y-108861855D01*
X85709380Y-108642366D01*
X86309966Y-108041780D01*
X86635000Y-107257078D01*
X86635000Y-106407722D01*
X86438116Y-105932400D01*
X96445760Y-105932400D01*
X96445760Y-107732400D01*
X96495043Y-107980165D01*
X96635391Y-108190209D01*
X96845435Y-108330557D01*
X97093200Y-108379840D01*
X98893200Y-108379840D01*
X99140965Y-108330557D01*
X99351009Y-108190209D01*
X99491357Y-107980165D01*
X99500559Y-107933902D01*
X99625624Y-108070366D01*
X100168458Y-108323446D01*
X100406200Y-108203397D01*
X100406200Y-106959400D01*
X100386200Y-106959400D01*
X100386200Y-106705400D01*
X100406200Y-106705400D01*
X100406200Y-105461403D01*
X100660200Y-105461403D01*
X100660200Y-106705400D01*
X100680200Y-106705400D01*
X100680200Y-106959400D01*
X100660200Y-106959400D01*
X100660200Y-108203397D01*
X100897942Y-108323446D01*
X101440776Y-108070366D01*
X101795576Y-107683226D01*
X101966527Y-107939073D01*
X102474273Y-108278338D01*
X102922018Y-108367400D01*
X103224382Y-108367400D01*
X103672127Y-108278338D01*
X104107811Y-107987223D01*
X115494635Y-107987223D01*
X115521822Y-108557454D01*
X115687736Y-108958005D01*
X115933855Y-109032139D01*
X116761995Y-108204000D01*
X117121205Y-108204000D01*
X117949345Y-109032139D01*
X118195464Y-108958005D01*
X118388565Y-108420777D01*
X118361378Y-107850546D01*
X118195464Y-107449995D01*
X117949345Y-107375861D01*
X117121205Y-108204000D01*
X116761995Y-108204000D01*
X115933855Y-107375861D01*
X115687736Y-107449995D01*
X115494635Y-107987223D01*
X104107811Y-107987223D01*
X104179873Y-107939073D01*
X104519138Y-107431327D01*
X104638272Y-106832400D01*
X104519138Y-106233473D01*
X104179873Y-105725727D01*
X103672127Y-105386462D01*
X103224382Y-105297400D01*
X102922018Y-105297400D01*
X102474273Y-105386462D01*
X101966527Y-105725727D01*
X101795576Y-105981574D01*
X101440776Y-105594434D01*
X100897942Y-105341354D01*
X100660200Y-105461403D01*
X100406200Y-105461403D01*
X100168458Y-105341354D01*
X99625624Y-105594434D01*
X99500559Y-105730898D01*
X99491357Y-105684635D01*
X99351009Y-105474591D01*
X99140965Y-105334243D01*
X98893200Y-105284960D01*
X97093200Y-105284960D01*
X96845435Y-105334243D01*
X96635391Y-105474591D01*
X96495043Y-105684635D01*
X96445760Y-105932400D01*
X86438116Y-105932400D01*
X86309966Y-105623020D01*
X85906546Y-105219600D01*
X107874160Y-105219600D01*
X107874160Y-106819600D01*
X107923443Y-107067365D01*
X108063791Y-107277409D01*
X108273835Y-107417757D01*
X108521600Y-107467040D01*
X110121600Y-107467040D01*
X110369365Y-107417757D01*
X110579409Y-107277409D01*
X110719757Y-107067365D01*
X110727717Y-107027345D01*
X110993461Y-107027345D01*
X111067595Y-107273464D01*
X111604823Y-107466565D01*
X112175054Y-107439378D01*
X112575605Y-107273464D01*
X112598861Y-107196255D01*
X116113461Y-107196255D01*
X116941600Y-108024395D01*
X117769739Y-107196255D01*
X117695605Y-106950136D01*
X117158377Y-106757035D01*
X116588146Y-106784222D01*
X116187595Y-106950136D01*
X116113461Y-107196255D01*
X112598861Y-107196255D01*
X112649739Y-107027345D01*
X111821600Y-106199205D01*
X110993461Y-107027345D01*
X110727717Y-107027345D01*
X110766293Y-106833413D01*
X110813855Y-106847739D01*
X111641995Y-106019600D01*
X112001205Y-106019600D01*
X112829345Y-106847739D01*
X113075464Y-106773605D01*
X113268565Y-106236377D01*
X113241378Y-105666146D01*
X113075464Y-105265595D01*
X112829345Y-105191461D01*
X112001205Y-106019600D01*
X111641995Y-106019600D01*
X110813855Y-105191461D01*
X110766293Y-105205787D01*
X110727718Y-105011855D01*
X110993461Y-105011855D01*
X111821600Y-105839995D01*
X112649739Y-105011855D01*
X112575605Y-104765736D01*
X112038377Y-104572635D01*
X111468146Y-104599822D01*
X111067595Y-104765736D01*
X110993461Y-105011855D01*
X110727718Y-105011855D01*
X110719757Y-104971835D01*
X110579409Y-104761791D01*
X110369365Y-104621443D01*
X110121600Y-104572160D01*
X108521600Y-104572160D01*
X108273835Y-104621443D01*
X108063791Y-104761791D01*
X107923443Y-104971835D01*
X107874160Y-105219600D01*
X85906546Y-105219600D01*
X85709380Y-105022434D01*
X84924678Y-104697400D01*
X84075322Y-104697400D01*
X83290620Y-105022434D01*
X82690034Y-105623020D01*
X82365000Y-106407722D01*
X80710000Y-106407722D01*
X80710000Y-102038150D01*
X82365000Y-102038150D01*
X82365000Y-103378709D01*
X82461673Y-103612098D01*
X82640301Y-103790727D01*
X82873690Y-103887400D01*
X84214250Y-103887400D01*
X84373000Y-103728650D01*
X84373000Y-101879400D01*
X84627000Y-101879400D01*
X84627000Y-103728650D01*
X84785750Y-103887400D01*
X86126310Y-103887400D01*
X86359699Y-103790727D01*
X86425080Y-103725345D01*
X127797461Y-103725345D01*
X127871595Y-103971464D01*
X128408823Y-104164565D01*
X128979054Y-104137378D01*
X129379605Y-103971464D01*
X129453739Y-103725345D01*
X128625600Y-102897205D01*
X127797461Y-103725345D01*
X86425080Y-103725345D01*
X86538327Y-103612098D01*
X86635000Y-103378709D01*
X86635000Y-102500823D01*
X127178635Y-102500823D01*
X127205822Y-103071054D01*
X127371736Y-103471605D01*
X127617855Y-103545739D01*
X128445995Y-102717600D01*
X128805205Y-102717600D01*
X129633345Y-103545739D01*
X129879464Y-103471605D01*
X130072565Y-102934377D01*
X130045378Y-102364146D01*
X129879464Y-101963595D01*
X129633345Y-101889461D01*
X128805205Y-102717600D01*
X128445995Y-102717600D01*
X127617855Y-101889461D01*
X127371736Y-101963595D01*
X127178635Y-102500823D01*
X86635000Y-102500823D01*
X86635000Y-102038150D01*
X86476250Y-101879400D01*
X84627000Y-101879400D01*
X84373000Y-101879400D01*
X82523750Y-101879400D01*
X82365000Y-102038150D01*
X80710000Y-102038150D01*
X80710000Y-100126091D01*
X82365000Y-100126091D01*
X82365000Y-101466650D01*
X82523750Y-101625400D01*
X84373000Y-101625400D01*
X84373000Y-99776150D01*
X84627000Y-99776150D01*
X84627000Y-101625400D01*
X86476250Y-101625400D01*
X86635000Y-101466650D01*
X86635000Y-100126091D01*
X86538327Y-99892702D01*
X86359699Y-99714073D01*
X86126310Y-99617400D01*
X84785750Y-99617400D01*
X84627000Y-99776150D01*
X84373000Y-99776150D01*
X84214250Y-99617400D01*
X82873690Y-99617400D01*
X82640301Y-99714073D01*
X82461673Y-99892702D01*
X82365000Y-100126091D01*
X80710000Y-100126091D01*
X80710000Y-96849371D01*
X103505400Y-96849371D01*
X103505400Y-98375029D01*
X104089244Y-99784553D01*
X105168047Y-100863356D01*
X106577571Y-101447200D01*
X108103229Y-101447200D01*
X109512753Y-100863356D01*
X110591556Y-99784553D01*
X111175400Y-98375029D01*
X111175400Y-96849371D01*
X110591556Y-95439847D01*
X109512753Y-94361044D01*
X108103229Y-93777200D01*
X106577571Y-93777200D01*
X105168047Y-94361044D01*
X104089244Y-95439847D01*
X103505400Y-96849371D01*
X80710000Y-96849371D01*
X80710000Y-92493223D01*
X127178635Y-92493223D01*
X127205822Y-93063454D01*
X127371736Y-93464005D01*
X127617855Y-93538139D01*
X128445995Y-92710000D01*
X128805205Y-92710000D01*
X129633345Y-93538139D01*
X129879464Y-93464005D01*
X130072565Y-92926777D01*
X130045378Y-92356546D01*
X129879464Y-91955995D01*
X129633345Y-91881861D01*
X128805205Y-92710000D01*
X128445995Y-92710000D01*
X127617855Y-91881861D01*
X127371736Y-91955995D01*
X127178635Y-92493223D01*
X80710000Y-92493223D01*
X80710000Y-90603750D01*
X97772600Y-90603750D01*
X97772600Y-91344310D01*
X97869273Y-91577699D01*
X98047902Y-91756327D01*
X98281291Y-91853000D01*
X99021850Y-91853000D01*
X99180600Y-91694250D01*
X99180600Y-90445000D01*
X97931350Y-90445000D01*
X97772600Y-90603750D01*
X80710000Y-90603750D01*
X80710000Y-89291690D01*
X97772600Y-89291690D01*
X97772600Y-90032250D01*
X97931350Y-90191000D01*
X99180600Y-90191000D01*
X99180600Y-88941750D01*
X99434600Y-88941750D01*
X99434600Y-90191000D01*
X99454600Y-90191000D01*
X99454600Y-90445000D01*
X99434600Y-90445000D01*
X99434600Y-91694250D01*
X99593350Y-91853000D01*
X100333909Y-91853000D01*
X100567298Y-91756327D01*
X100745927Y-91577699D01*
X100801739Y-91442956D01*
X100978093Y-91619310D01*
X101542270Y-91853000D01*
X102152930Y-91853000D01*
X102516860Y-91702255D01*
X127797461Y-91702255D01*
X128625600Y-92530395D01*
X129453739Y-91702255D01*
X129379605Y-91456136D01*
X128842377Y-91263035D01*
X128272146Y-91290222D01*
X127871595Y-91456136D01*
X127797461Y-91702255D01*
X102516860Y-91702255D01*
X102717107Y-91619310D01*
X103129417Y-91207000D01*
X103853645Y-91207000D01*
X103941200Y-91224416D01*
X104028755Y-91207000D01*
X104028756Y-91207000D01*
X104288070Y-91155419D01*
X104582133Y-90958933D01*
X104631731Y-90884704D01*
X104965436Y-90551000D01*
X107167204Y-90551000D01*
X107494738Y-90878534D01*
X108022161Y-91097000D01*
X108593039Y-91097000D01*
X109120462Y-90878534D01*
X109524134Y-90474862D01*
X109742600Y-89947439D01*
X109742600Y-89376561D01*
X109524134Y-88849138D01*
X109120462Y-88445466D01*
X108593039Y-88227000D01*
X108022161Y-88227000D01*
X107494738Y-88445466D01*
X107167204Y-88773000D01*
X104684754Y-88773000D01*
X104597199Y-88755584D01*
X104509644Y-88773000D01*
X104250330Y-88824581D01*
X103956267Y-89021067D01*
X103906670Y-89095294D01*
X103572965Y-89429000D01*
X103129417Y-89429000D01*
X102717107Y-89016690D01*
X102152930Y-88783000D01*
X101542270Y-88783000D01*
X100978093Y-89016690D01*
X100801739Y-89193044D01*
X100745927Y-89058301D01*
X100567298Y-88879673D01*
X100333909Y-88783000D01*
X99593350Y-88783000D01*
X99434600Y-88941750D01*
X99180600Y-88941750D01*
X99021850Y-88783000D01*
X98281291Y-88783000D01*
X98047902Y-88879673D01*
X97869273Y-89058301D01*
X97772600Y-89291690D01*
X80710000Y-89291690D01*
X80710000Y-80603750D01*
X97772600Y-80603750D01*
X97772600Y-81344310D01*
X97869273Y-81577699D01*
X98047902Y-81756327D01*
X98281291Y-81853000D01*
X99021850Y-81853000D01*
X99180600Y-81694250D01*
X99180600Y-80445000D01*
X97931350Y-80445000D01*
X97772600Y-80603750D01*
X80710000Y-80603750D01*
X80710000Y-79291690D01*
X97772600Y-79291690D01*
X97772600Y-80032250D01*
X97931350Y-80191000D01*
X99180600Y-80191000D01*
X99180600Y-78941750D01*
X99434600Y-78941750D01*
X99434600Y-80191000D01*
X99454600Y-80191000D01*
X99454600Y-80445000D01*
X99434600Y-80445000D01*
X99434600Y-81694250D01*
X99593350Y-81853000D01*
X100333909Y-81853000D01*
X100567298Y-81756327D01*
X100745927Y-81577699D01*
X100801739Y-81442956D01*
X100978093Y-81619310D01*
X101542270Y-81853000D01*
X102125365Y-81853000D01*
X105573471Y-85301107D01*
X105623067Y-85375333D01*
X105917130Y-85571819D01*
X106176444Y-85623400D01*
X106176445Y-85623400D01*
X106264000Y-85640816D01*
X106351555Y-85623400D01*
X107167204Y-85623400D01*
X107494738Y-85950934D01*
X108022161Y-86169400D01*
X108593039Y-86169400D01*
X109120462Y-85950934D01*
X109524134Y-85547262D01*
X109742600Y-85019839D01*
X109742600Y-84448961D01*
X109524134Y-83921538D01*
X109120462Y-83517866D01*
X108593039Y-83299400D01*
X108022161Y-83299400D01*
X107494738Y-83517866D01*
X107167204Y-83845400D01*
X106632236Y-83845400D01*
X103382600Y-80595765D01*
X103382600Y-80012670D01*
X103148910Y-79448493D01*
X102717107Y-79016690D01*
X102152930Y-78783000D01*
X101542270Y-78783000D01*
X100978093Y-79016690D01*
X100801739Y-79193044D01*
X100745927Y-79058301D01*
X100567298Y-78879673D01*
X100333909Y-78783000D01*
X99593350Y-78783000D01*
X99434600Y-78941750D01*
X99180600Y-78941750D01*
X99021850Y-78783000D01*
X98281291Y-78783000D01*
X98047902Y-78879673D01*
X97869273Y-79058301D01*
X97772600Y-79291690D01*
X80710000Y-79291690D01*
X80710000Y-72729036D01*
X106175393Y-72729036D01*
X106205718Y-73219413D01*
X106335036Y-73531617D01*
X106560465Y-73581130D01*
X107243595Y-72898000D01*
X106560465Y-72214870D01*
X106335036Y-72264383D01*
X106175393Y-72729036D01*
X80710000Y-72729036D01*
X80710000Y-72035265D01*
X106740070Y-72035265D01*
X107423200Y-72718395D01*
X107437343Y-72704253D01*
X107616948Y-72883858D01*
X107602805Y-72898000D01*
X107616948Y-72912143D01*
X107437343Y-73091748D01*
X107423200Y-73077605D01*
X106740070Y-73760735D01*
X106789583Y-73986164D01*
X107254236Y-74145807D01*
X107744613Y-74115482D01*
X108056817Y-73986164D01*
X108106329Y-73760737D01*
X108222022Y-73876430D01*
X108276170Y-73822282D01*
X108365391Y-73955809D01*
X108575435Y-74096157D01*
X108823200Y-74145440D01*
X110023200Y-74145440D01*
X110270965Y-74096157D01*
X110481009Y-73955809D01*
X110621357Y-73745765D01*
X110670640Y-73498000D01*
X110670640Y-72714161D01*
X111087000Y-72714161D01*
X111087000Y-73285039D01*
X111305466Y-73812462D01*
X111709138Y-74216134D01*
X112236561Y-74434600D01*
X112807439Y-74434600D01*
X113334862Y-74216134D01*
X113543651Y-74007345D01*
X114193861Y-74007345D01*
X114267995Y-74253464D01*
X114805223Y-74446565D01*
X115375454Y-74419378D01*
X115776005Y-74253464D01*
X115850139Y-74007345D01*
X115022000Y-73179205D01*
X114193861Y-74007345D01*
X113543651Y-74007345D01*
X113738534Y-73812462D01*
X113765525Y-73747301D01*
X113768136Y-73753605D01*
X114014255Y-73827739D01*
X114842395Y-72999600D01*
X115201605Y-72999600D01*
X116029745Y-73827739D01*
X116275864Y-73753605D01*
X116468965Y-73216377D01*
X116441778Y-72646146D01*
X116275864Y-72245595D01*
X116029745Y-72171461D01*
X115201605Y-72999600D01*
X114842395Y-72999600D01*
X114014255Y-72171461D01*
X113768136Y-72245595D01*
X113765710Y-72252346D01*
X113738534Y-72186738D01*
X113543651Y-71991855D01*
X114193861Y-71991855D01*
X115022000Y-72819995D01*
X115850139Y-71991855D01*
X115776005Y-71745736D01*
X115238777Y-71552635D01*
X114668546Y-71579822D01*
X114267995Y-71745736D01*
X114193861Y-71991855D01*
X113543651Y-71991855D01*
X113334862Y-71783066D01*
X112807439Y-71564600D01*
X112236561Y-71564600D01*
X111709138Y-71783066D01*
X111305466Y-72186738D01*
X111087000Y-72714161D01*
X110670640Y-72714161D01*
X110670640Y-72298000D01*
X110621357Y-72050235D01*
X110481009Y-71840191D01*
X110270965Y-71699843D01*
X110023200Y-71650560D01*
X108823200Y-71650560D01*
X108575435Y-71699843D01*
X108365391Y-71840191D01*
X108276170Y-71973718D01*
X108222022Y-71919570D01*
X108106329Y-72035263D01*
X108056817Y-71809836D01*
X107592164Y-71650193D01*
X107101787Y-71680518D01*
X106789583Y-71809836D01*
X106740070Y-72035265D01*
X80710000Y-72035265D01*
X80710000Y-67240150D01*
X106213400Y-67240150D01*
X106213400Y-68380710D01*
X106310073Y-68614099D01*
X106488702Y-68792727D01*
X106722091Y-68889400D01*
X107562650Y-68889400D01*
X107721400Y-68730650D01*
X107721400Y-67081400D01*
X106372150Y-67081400D01*
X106213400Y-67240150D01*
X80710000Y-67240150D01*
X80710000Y-65528090D01*
X106213400Y-65528090D01*
X106213400Y-66668650D01*
X106372150Y-66827400D01*
X107721400Y-66827400D01*
X107721400Y-65178150D01*
X107975400Y-65178150D01*
X107975400Y-66827400D01*
X107995400Y-66827400D01*
X107995400Y-67081400D01*
X107975400Y-67081400D01*
X107975400Y-68730650D01*
X108134150Y-68889400D01*
X108974709Y-68889400D01*
X109208098Y-68792727D01*
X109386727Y-68614099D01*
X109407035Y-68565070D01*
X109750456Y-68794536D01*
X110388400Y-68921431D01*
X111026345Y-68794536D01*
X111567169Y-68433169D01*
X111658400Y-68296632D01*
X111749631Y-68433169D01*
X112039400Y-68626786D01*
X112039400Y-69203645D01*
X112021984Y-69291200D01*
X112039400Y-69378755D01*
X112090981Y-69638069D01*
X112287467Y-69932133D01*
X112361696Y-69981731D01*
X113101471Y-70721506D01*
X113151067Y-70795733D01*
X113445130Y-70992219D01*
X113704444Y-71043800D01*
X113704445Y-71043800D01*
X113792000Y-71061216D01*
X113879555Y-71043800D01*
X116319365Y-71043800D01*
X125953870Y-80678306D01*
X126003467Y-80752533D01*
X126077693Y-80802129D01*
X126297529Y-80949019D01*
X126644400Y-81018016D01*
X126731956Y-81000600D01*
X133545352Y-81000600D01*
X133642623Y-81146177D01*
X133994958Y-81381600D01*
X133642623Y-81617023D01*
X133613152Y-81661130D01*
X133462070Y-81560181D01*
X133202756Y-81508600D01*
X133202755Y-81508600D01*
X133115200Y-81491184D01*
X133027645Y-81508600D01*
X118351950Y-81508600D01*
X118264399Y-81491185D01*
X118176848Y-81508600D01*
X118176844Y-81508600D01*
X117917530Y-81560181D01*
X117623467Y-81756667D01*
X117573871Y-81830893D01*
X116099320Y-83305444D01*
X116068933Y-83299400D01*
X115786267Y-83299400D01*
X115367691Y-83382660D01*
X114893023Y-83699823D01*
X114575860Y-84174491D01*
X114464487Y-84734400D01*
X114575860Y-85294309D01*
X114893023Y-85768977D01*
X115367691Y-86086140D01*
X115786267Y-86169400D01*
X115976565Y-86169400D01*
X115360896Y-86785069D01*
X115286667Y-86834667D01*
X115090181Y-87128731D01*
X115040042Y-87380795D01*
X115021184Y-87475600D01*
X115038600Y-87563155D01*
X115038600Y-88530151D01*
X114893023Y-88627423D01*
X114575860Y-89102091D01*
X114464487Y-89662000D01*
X114575860Y-90221909D01*
X114893023Y-90696577D01*
X115367691Y-91013740D01*
X115786267Y-91097000D01*
X116068933Y-91097000D01*
X116487509Y-91013740D01*
X116962177Y-90696577D01*
X117279340Y-90221909D01*
X117390713Y-89662000D01*
X117279340Y-89102091D01*
X116962177Y-88627423D01*
X116816600Y-88530152D01*
X116816600Y-87843835D01*
X117268999Y-87391436D01*
X123008993Y-87391436D01*
X123039318Y-87881813D01*
X123168636Y-88194017D01*
X123394063Y-88243529D01*
X123278370Y-88359222D01*
X123332518Y-88413370D01*
X123198991Y-88502591D01*
X123058643Y-88712635D01*
X123009360Y-88960400D01*
X123009360Y-90160400D01*
X123058643Y-90408165D01*
X123198991Y-90618209D01*
X123409035Y-90758557D01*
X123656800Y-90807840D01*
X124856800Y-90807840D01*
X125104565Y-90758557D01*
X125314609Y-90618209D01*
X125454957Y-90408165D01*
X125504240Y-90160400D01*
X125504240Y-89274961D01*
X127190600Y-89274961D01*
X127190600Y-89845839D01*
X127409066Y-90373262D01*
X127812738Y-90776934D01*
X128340161Y-90995400D01*
X128911039Y-90995400D01*
X129438462Y-90776934D01*
X129842134Y-90373262D01*
X130060600Y-89845839D01*
X130060600Y-89274961D01*
X129842134Y-88747538D01*
X129438462Y-88343866D01*
X129373301Y-88316875D01*
X129379605Y-88314264D01*
X129453739Y-88068145D01*
X128625600Y-87240005D01*
X127797461Y-88068145D01*
X127871595Y-88314264D01*
X127878346Y-88316690D01*
X127812738Y-88343866D01*
X127409066Y-88747538D01*
X127190600Y-89274961D01*
X125504240Y-89274961D01*
X125504240Y-88960400D01*
X125454957Y-88712635D01*
X125314609Y-88502591D01*
X125181082Y-88413370D01*
X125235230Y-88359222D01*
X125119537Y-88243529D01*
X125344964Y-88194017D01*
X125504607Y-87729364D01*
X125474282Y-87238987D01*
X125344964Y-86926783D01*
X125119535Y-86877270D01*
X124436405Y-87560400D01*
X124450548Y-87574543D01*
X124270943Y-87754148D01*
X124256800Y-87740005D01*
X124242658Y-87754148D01*
X124063053Y-87574543D01*
X124077195Y-87560400D01*
X123394065Y-86877270D01*
X123168636Y-86926783D01*
X123008993Y-87391436D01*
X117268999Y-87391436D01*
X117962770Y-86697665D01*
X123573670Y-86697665D01*
X124256800Y-87380795D01*
X124939930Y-86697665D01*
X124890417Y-86472236D01*
X124425764Y-86312593D01*
X123935387Y-86342918D01*
X123623183Y-86472236D01*
X123573670Y-86697665D01*
X117962770Y-86697665D01*
X118579836Y-86080600D01*
X127539764Y-86080600D01*
X127502978Y-86117386D01*
X127617853Y-86232261D01*
X127371736Y-86306395D01*
X127178635Y-86843623D01*
X127205822Y-87413854D01*
X127371736Y-87814405D01*
X127617855Y-87888539D01*
X128445995Y-87060400D01*
X128431852Y-87046258D01*
X128611458Y-86866652D01*
X128625600Y-86880795D01*
X128639742Y-86866652D01*
X128819348Y-87046258D01*
X128805205Y-87060400D01*
X129633345Y-87888539D01*
X129879464Y-87814405D01*
X130072565Y-87277177D01*
X130045378Y-86706946D01*
X129879464Y-86306395D01*
X129633347Y-86232261D01*
X129748222Y-86117386D01*
X129711436Y-86080600D01*
X133545352Y-86080600D01*
X133642623Y-86226177D01*
X133994958Y-86461600D01*
X133642623Y-86697023D01*
X133325460Y-87171691D01*
X133214087Y-87731600D01*
X133325460Y-88291509D01*
X133642623Y-88766177D01*
X133994958Y-89001600D01*
X133642623Y-89237023D01*
X133325460Y-89711691D01*
X133214087Y-90271600D01*
X133325460Y-90831509D01*
X133642623Y-91306177D01*
X133998699Y-91544099D01*
X133572700Y-91886704D01*
X133302833Y-92379781D01*
X133285296Y-92462561D01*
X133407285Y-92684600D01*
X134950200Y-92684600D01*
X134950200Y-92664600D01*
X135204200Y-92664600D01*
X135204200Y-92684600D01*
X136747115Y-92684600D01*
X136869104Y-92462561D01*
X136851567Y-92379781D01*
X136581700Y-91886704D01*
X136155701Y-91544099D01*
X136511777Y-91306177D01*
X136828940Y-90831509D01*
X136940313Y-90271600D01*
X136828940Y-89711691D01*
X136511777Y-89237023D01*
X136159442Y-89001600D01*
X136511777Y-88766177D01*
X136828940Y-88291509D01*
X136940313Y-87731600D01*
X136828940Y-87171691D01*
X136511777Y-86697023D01*
X136159442Y-86461600D01*
X136511777Y-86226177D01*
X136828940Y-85751509D01*
X136940313Y-85191600D01*
X136828940Y-84631691D01*
X136511777Y-84157023D01*
X136159442Y-83921600D01*
X136511777Y-83686177D01*
X136828940Y-83211509D01*
X136940313Y-82651600D01*
X136828940Y-82091691D01*
X136511777Y-81617023D01*
X136159442Y-81381600D01*
X136511777Y-81146177D01*
X136828940Y-80671509D01*
X136940313Y-80111600D01*
X136828940Y-79551691D01*
X136511777Y-79077023D01*
X136159442Y-78841600D01*
X136511777Y-78606177D01*
X136828940Y-78131509D01*
X136940313Y-77571600D01*
X136828940Y-77011691D01*
X136511777Y-76537023D01*
X136391094Y-76456385D01*
X136524965Y-76429757D01*
X136735009Y-76289409D01*
X136875357Y-76079365D01*
X136924640Y-75831600D01*
X136924640Y-75031600D01*
X140834087Y-75031600D01*
X140945460Y-75591509D01*
X141262623Y-76066177D01*
X141614958Y-76301600D01*
X141262623Y-76537023D01*
X140945460Y-77011691D01*
X140834087Y-77571600D01*
X140945460Y-78131509D01*
X141262623Y-78606177D01*
X141614958Y-78841600D01*
X141262623Y-79077023D01*
X140945460Y-79551691D01*
X140834087Y-80111600D01*
X140945460Y-80671509D01*
X141262623Y-81146177D01*
X141614958Y-81381600D01*
X141262623Y-81617023D01*
X140945460Y-82091691D01*
X140834087Y-82651600D01*
X140945460Y-83211509D01*
X141262623Y-83686177D01*
X141614958Y-83921600D01*
X141262623Y-84157023D01*
X140945460Y-84631691D01*
X140834087Y-85191600D01*
X140945460Y-85751509D01*
X141262623Y-86226177D01*
X141614958Y-86461600D01*
X141262623Y-86697023D01*
X140945460Y-87171691D01*
X140834087Y-87731600D01*
X140945460Y-88291509D01*
X141262623Y-88766177D01*
X141618699Y-89004099D01*
X141192700Y-89346704D01*
X140922833Y-89839781D01*
X140905296Y-89922561D01*
X141027285Y-90144600D01*
X142570200Y-90144600D01*
X142570200Y-90124600D01*
X142824200Y-90124600D01*
X142824200Y-90144600D01*
X144367115Y-90144600D01*
X144489104Y-89922561D01*
X144471567Y-89839781D01*
X144201700Y-89346704D01*
X143775701Y-89004099D01*
X144131777Y-88766177D01*
X144152110Y-88735746D01*
X145086271Y-89669907D01*
X145135867Y-89744133D01*
X145429930Y-89940619D01*
X145689244Y-89992200D01*
X145689248Y-89992200D01*
X145776799Y-90009615D01*
X145864350Y-89992200D01*
X160135645Y-89992200D01*
X160223200Y-90009616D01*
X160310755Y-89992200D01*
X160310756Y-89992200D01*
X160570070Y-89940619D01*
X160864133Y-89744133D01*
X160913731Y-89669904D01*
X162313907Y-88269729D01*
X162388133Y-88220133D01*
X162584619Y-87926070D01*
X162630115Y-87697345D01*
X163308261Y-87697345D01*
X163382395Y-87943464D01*
X163919623Y-88136565D01*
X164489854Y-88109378D01*
X164890405Y-87943464D01*
X164964539Y-87697345D01*
X164136400Y-86869205D01*
X163308261Y-87697345D01*
X162630115Y-87697345D01*
X162636200Y-87666756D01*
X162636200Y-87666752D01*
X162653615Y-87579201D01*
X162636200Y-87491650D01*
X162636200Y-86472823D01*
X162689435Y-86472823D01*
X162716622Y-87043054D01*
X162882536Y-87443605D01*
X163128655Y-87517739D01*
X163956795Y-86689600D01*
X164316005Y-86689600D01*
X165144145Y-87517739D01*
X165390264Y-87443605D01*
X165583365Y-86906377D01*
X165556178Y-86336146D01*
X165390264Y-85935595D01*
X165144145Y-85861461D01*
X164316005Y-86689600D01*
X163956795Y-86689600D01*
X163128655Y-85861461D01*
X162882536Y-85935595D01*
X162689435Y-86472823D01*
X162636200Y-86472823D01*
X162636200Y-85204235D01*
X162761836Y-85078600D01*
X162996004Y-85078600D01*
X163323538Y-85406134D01*
X163388699Y-85433125D01*
X163382395Y-85435736D01*
X163308261Y-85681855D01*
X164136400Y-86509995D01*
X164964539Y-85681855D01*
X164890405Y-85435736D01*
X164883654Y-85433310D01*
X164949262Y-85406134D01*
X165352934Y-85002462D01*
X165571400Y-84475039D01*
X165571400Y-83904161D01*
X165352934Y-83376738D01*
X165025400Y-83049204D01*
X165025400Y-82941448D01*
X165170977Y-82844177D01*
X165488140Y-82369509D01*
X165599513Y-81809600D01*
X165488140Y-81249691D01*
X165170977Y-80775023D01*
X164696309Y-80457860D01*
X164277733Y-80374600D01*
X163995067Y-80374600D01*
X163576491Y-80457860D01*
X163101823Y-80775023D01*
X162784660Y-81249691D01*
X162673287Y-81809600D01*
X162784660Y-82369509D01*
X163101823Y-82844177D01*
X163247400Y-82941449D01*
X163247401Y-83049203D01*
X162996004Y-83300600D01*
X162481156Y-83300600D01*
X162393600Y-83283184D01*
X162046729Y-83352181D01*
X161848383Y-83484712D01*
X161752667Y-83548667D01*
X161703070Y-83622894D01*
X161180494Y-84145471D01*
X161106268Y-84195067D01*
X161056672Y-84269293D01*
X161056671Y-84269294D01*
X160909782Y-84489130D01*
X160840784Y-84836000D01*
X160858201Y-84923559D01*
X160858200Y-87210964D01*
X159854965Y-88214200D01*
X156883036Y-88214200D01*
X156979907Y-88117329D01*
X157054133Y-88067733D01*
X157250619Y-87773670D01*
X157265801Y-87697345D01*
X158308261Y-87697345D01*
X158382395Y-87943464D01*
X158919623Y-88136565D01*
X159489854Y-88109378D01*
X159890405Y-87943464D01*
X159964539Y-87697345D01*
X159136400Y-86869205D01*
X158308261Y-87697345D01*
X157265801Y-87697345D01*
X157302200Y-87514356D01*
X157302200Y-87514355D01*
X157319616Y-87426800D01*
X157302200Y-87339245D01*
X157302200Y-86472823D01*
X157689435Y-86472823D01*
X157716622Y-87043054D01*
X157882536Y-87443605D01*
X158128655Y-87517739D01*
X158956795Y-86689600D01*
X159316005Y-86689600D01*
X160144145Y-87517739D01*
X160390264Y-87443605D01*
X160583365Y-86906377D01*
X160556178Y-86336146D01*
X160390264Y-85935595D01*
X160144145Y-85861461D01*
X159316005Y-86689600D01*
X158956795Y-86689600D01*
X158128655Y-85861461D01*
X157882536Y-85935595D01*
X157689435Y-86472823D01*
X157302200Y-86472823D01*
X157302200Y-85661435D01*
X157885036Y-85078600D01*
X157996004Y-85078600D01*
X158323538Y-85406134D01*
X158388699Y-85433125D01*
X158382395Y-85435736D01*
X158308261Y-85681855D01*
X159136400Y-86509995D01*
X159964539Y-85681855D01*
X159890405Y-85435736D01*
X159883654Y-85433310D01*
X159949262Y-85406134D01*
X160352934Y-85002462D01*
X160571400Y-84475039D01*
X160571400Y-83904161D01*
X160352934Y-83376738D01*
X160025400Y-83049204D01*
X160025400Y-82941448D01*
X160170977Y-82844177D01*
X160488140Y-82369509D01*
X160599513Y-81809600D01*
X160488140Y-81249691D01*
X160170977Y-80775023D01*
X159696309Y-80457860D01*
X159277733Y-80374600D01*
X158995067Y-80374600D01*
X158576491Y-80457860D01*
X158101823Y-80775023D01*
X157784660Y-81249691D01*
X157673287Y-81809600D01*
X157784660Y-82369509D01*
X158101823Y-82844177D01*
X158247400Y-82941449D01*
X158247401Y-83049203D01*
X157996004Y-83300600D01*
X157604354Y-83300600D01*
X157516799Y-83283184D01*
X157429244Y-83300600D01*
X157169930Y-83352181D01*
X156875867Y-83548667D01*
X156826271Y-83622894D01*
X155846494Y-84602671D01*
X155772268Y-84652267D01*
X155722672Y-84726493D01*
X155722671Y-84726494D01*
X155575782Y-84946330D01*
X155506784Y-85293200D01*
X155524201Y-85380759D01*
X155524201Y-86258946D01*
X155390264Y-85935595D01*
X155144145Y-85861461D01*
X154316005Y-86689600D01*
X154330148Y-86703742D01*
X154150542Y-86883348D01*
X154136400Y-86869205D01*
X154122258Y-86883348D01*
X153942652Y-86703742D01*
X153956795Y-86689600D01*
X153128655Y-85861461D01*
X152882536Y-85935595D01*
X152689435Y-86472823D01*
X152716622Y-87043054D01*
X152844012Y-87350600D01*
X150423694Y-87350600D01*
X150583365Y-86906377D01*
X150556178Y-86336146D01*
X150390264Y-85935595D01*
X150144145Y-85861461D01*
X149316005Y-86689600D01*
X149330148Y-86703742D01*
X149150542Y-86883348D01*
X149136400Y-86869205D01*
X149122258Y-86883348D01*
X148942652Y-86703742D01*
X148956795Y-86689600D01*
X148128655Y-85861461D01*
X147882536Y-85935595D01*
X147689435Y-86472823D01*
X147716622Y-87043054D01*
X147844012Y-87350600D01*
X147821436Y-87350600D01*
X145095731Y-84624896D01*
X145046133Y-84550667D01*
X144752070Y-84354181D01*
X144492756Y-84302600D01*
X144492755Y-84302600D01*
X144405200Y-84285184D01*
X144317645Y-84302600D01*
X144229048Y-84302600D01*
X144131777Y-84157023D01*
X143779442Y-83921600D01*
X144131777Y-83686177D01*
X144229048Y-83540600D01*
X145149645Y-83540600D01*
X145237200Y-83558016D01*
X145324755Y-83540600D01*
X145324756Y-83540600D01*
X145584070Y-83489019D01*
X145878133Y-83292533D01*
X145927731Y-83218304D01*
X146447436Y-82698600D01*
X148004552Y-82698600D01*
X148101823Y-82844177D01*
X148247401Y-82941449D01*
X148247400Y-83049204D01*
X147919866Y-83376738D01*
X147701400Y-83904161D01*
X147701400Y-84475039D01*
X147919866Y-85002462D01*
X148323538Y-85406134D01*
X148388699Y-85433125D01*
X148382395Y-85435736D01*
X148308261Y-85681855D01*
X149136400Y-86509995D01*
X149964539Y-85681855D01*
X149890405Y-85435736D01*
X149883654Y-85433310D01*
X149949262Y-85406134D01*
X150352934Y-85002462D01*
X150571400Y-84475039D01*
X150571400Y-83904161D01*
X150352934Y-83376738D01*
X150025400Y-83049204D01*
X150025400Y-82941448D01*
X150170977Y-82844177D01*
X150488140Y-82369509D01*
X150599513Y-81809600D01*
X150488140Y-81249691D01*
X150321703Y-81000600D01*
X152951097Y-81000600D01*
X152784660Y-81249691D01*
X152673287Y-81809600D01*
X152784660Y-82369509D01*
X153101823Y-82844177D01*
X153247400Y-82941449D01*
X153247401Y-83049203D01*
X152919866Y-83376738D01*
X152701400Y-83904161D01*
X152701400Y-84475039D01*
X152919866Y-85002462D01*
X153323538Y-85406134D01*
X153388699Y-85433125D01*
X153382395Y-85435736D01*
X153308261Y-85681855D01*
X154136400Y-86509995D01*
X154964539Y-85681855D01*
X154890405Y-85435736D01*
X154883654Y-85433310D01*
X154949262Y-85406134D01*
X155352934Y-85002462D01*
X155571400Y-84475039D01*
X155571400Y-83904161D01*
X155352934Y-83376738D01*
X155025400Y-83049204D01*
X155025400Y-82941448D01*
X155170977Y-82844177D01*
X155488140Y-82369509D01*
X155599513Y-81809600D01*
X155488140Y-81249691D01*
X155170977Y-80775023D01*
X155040857Y-80688079D01*
X155042816Y-80678230D01*
X155025400Y-80590674D01*
X154973819Y-80331360D01*
X154777333Y-80037297D01*
X154703104Y-79987699D01*
X154260301Y-79544896D01*
X154210703Y-79470667D01*
X153916640Y-79274181D01*
X153657326Y-79222600D01*
X153657325Y-79222600D01*
X153569770Y-79205184D01*
X153482215Y-79222600D01*
X144229048Y-79222600D01*
X144131777Y-79077023D01*
X143779442Y-78841600D01*
X144131777Y-78606177D01*
X144448940Y-78131509D01*
X144560313Y-77571600D01*
X144448940Y-77011691D01*
X144131777Y-76537023D01*
X143779442Y-76301600D01*
X144131777Y-76066177D01*
X144448940Y-75591509D01*
X144560313Y-75031600D01*
X144448940Y-74471691D01*
X144131777Y-73997023D01*
X143992800Y-73904161D01*
X147701400Y-73904161D01*
X147701400Y-74475039D01*
X147919866Y-75002462D01*
X148323538Y-75406134D01*
X148850961Y-75624600D01*
X149421839Y-75624600D01*
X149949262Y-75406134D01*
X150352934Y-75002462D01*
X150571400Y-74475039D01*
X150571400Y-73904161D01*
X150352934Y-73376738D01*
X150025400Y-73049204D01*
X150025400Y-72415035D01*
X152158636Y-70281800D01*
X152190045Y-70281800D01*
X152277600Y-70299216D01*
X152365155Y-70281800D01*
X152365156Y-70281800D01*
X152624470Y-70230219D01*
X152918533Y-70033733D01*
X152968131Y-69959504D01*
X153881107Y-69046529D01*
X153955333Y-68996933D01*
X154092846Y-68791130D01*
X154151819Y-68702871D01*
X154220816Y-68356000D01*
X154203400Y-68268444D01*
X154203400Y-68220386D01*
X154493169Y-68026769D01*
X154584400Y-67890232D01*
X154675631Y-68026769D01*
X154825953Y-68127211D01*
X153569696Y-69383469D01*
X153495467Y-69433067D01*
X153298981Y-69727131D01*
X153247400Y-69986444D01*
X153229984Y-70074000D01*
X153247400Y-70161555D01*
X153247401Y-73049203D01*
X152919866Y-73376738D01*
X152701400Y-73904161D01*
X152701400Y-74475039D01*
X152919866Y-75002462D01*
X153323538Y-75406134D01*
X153850961Y-75624600D01*
X154421839Y-75624600D01*
X154949262Y-75406134D01*
X155352934Y-75002462D01*
X155571400Y-74475039D01*
X155571400Y-73904161D01*
X155352934Y-73376738D01*
X155025400Y-73049204D01*
X155025400Y-70442235D01*
X156421107Y-69046529D01*
X156495333Y-68996933D01*
X156691819Y-68702870D01*
X156743400Y-68443556D01*
X156743400Y-68443555D01*
X156760816Y-68356000D01*
X156743400Y-68268445D01*
X156743400Y-68220386D01*
X157033169Y-68026769D01*
X157124400Y-67890232D01*
X157215631Y-68026769D01*
X157505401Y-68220387D01*
X157505401Y-68268441D01*
X157487984Y-68356000D01*
X157546519Y-68650268D01*
X157556982Y-68702870D01*
X157753468Y-68996933D01*
X157827694Y-69046529D01*
X158247400Y-69466236D01*
X158247401Y-73049203D01*
X157919866Y-73376738D01*
X157701400Y-73904161D01*
X157701400Y-74475039D01*
X157919866Y-75002462D01*
X158323538Y-75406134D01*
X158850961Y-75624600D01*
X159421839Y-75624600D01*
X159949262Y-75406134D01*
X160352934Y-75002462D01*
X160571400Y-74475039D01*
X160571400Y-73904161D01*
X160352934Y-73376738D01*
X160025400Y-73049204D01*
X160025400Y-69306099D01*
X160062816Y-69118000D01*
X159993818Y-68771129D01*
X159846929Y-68551293D01*
X159846925Y-68551289D01*
X159797332Y-68477068D01*
X159723111Y-68427475D01*
X159422847Y-68127211D01*
X159573169Y-68026769D01*
X159664400Y-67890232D01*
X159755631Y-68026769D01*
X160045401Y-68220387D01*
X160045401Y-68268441D01*
X160027984Y-68356000D01*
X160086519Y-68650268D01*
X160096982Y-68702870D01*
X160293468Y-68996933D01*
X160367694Y-69046529D01*
X163247400Y-71926236D01*
X163247401Y-73049203D01*
X162919866Y-73376738D01*
X162701400Y-73904161D01*
X162701400Y-74475039D01*
X162919866Y-75002462D01*
X163323538Y-75406134D01*
X163850961Y-75624600D01*
X164421839Y-75624600D01*
X164949262Y-75406134D01*
X165352934Y-75002462D01*
X165571400Y-74475039D01*
X165571400Y-73904161D01*
X165352934Y-73376738D01*
X165025400Y-73049204D01*
X165025400Y-71645555D01*
X165042816Y-71558000D01*
X165025400Y-71470444D01*
X164973819Y-71211130D01*
X164777333Y-70917067D01*
X164703107Y-70867471D01*
X161962846Y-68127211D01*
X162113169Y-68026769D01*
X162474536Y-67485945D01*
X162569400Y-67009030D01*
X162569400Y-66086969D01*
X162474536Y-65610055D01*
X162113169Y-65069231D01*
X161572344Y-64707864D01*
X160934400Y-64580969D01*
X160296455Y-64707864D01*
X159755631Y-65069231D01*
X159664400Y-65205768D01*
X159573169Y-65069231D01*
X159032344Y-64707864D01*
X158394400Y-64580969D01*
X157756455Y-64707864D01*
X157215631Y-65069231D01*
X157124400Y-65205768D01*
X157033169Y-65069231D01*
X156492344Y-64707864D01*
X155854400Y-64580969D01*
X155216455Y-64707864D01*
X154675631Y-65069231D01*
X154584400Y-65205768D01*
X154493169Y-65069231D01*
X153952344Y-64707864D01*
X153314400Y-64580969D01*
X152676455Y-64707864D01*
X152135631Y-65069231D01*
X152044400Y-65205768D01*
X151953169Y-65069231D01*
X151412344Y-64707864D01*
X150774400Y-64580969D01*
X150136455Y-64707864D01*
X149793035Y-64937330D01*
X149772727Y-64888301D01*
X149594098Y-64709673D01*
X149360709Y-64613000D01*
X148520150Y-64613000D01*
X148361400Y-64771750D01*
X148361400Y-66421000D01*
X148381400Y-66421000D01*
X148381400Y-66675000D01*
X148361400Y-66675000D01*
X148361400Y-68324250D01*
X148520150Y-68483000D01*
X149360709Y-68483000D01*
X149594098Y-68386327D01*
X149772727Y-68207699D01*
X149793035Y-68158670D01*
X150136456Y-68388136D01*
X150774400Y-68515031D01*
X151412345Y-68388136D01*
X151953169Y-68026769D01*
X152044400Y-67890232D01*
X152135631Y-68026769D01*
X152285953Y-68127211D01*
X151909365Y-68503800D01*
X151877955Y-68503800D01*
X151790400Y-68486384D01*
X151702845Y-68503800D01*
X151702844Y-68503800D01*
X151443530Y-68555381D01*
X151149467Y-68751867D01*
X151099871Y-68826093D01*
X148569694Y-71356271D01*
X148495468Y-71405867D01*
X148445872Y-71480093D01*
X148445871Y-71480094D01*
X148298982Y-71699930D01*
X148229984Y-72046800D01*
X148247401Y-72134359D01*
X148247401Y-73049203D01*
X147919866Y-73376738D01*
X147701400Y-73904161D01*
X143992800Y-73904161D01*
X143657109Y-73679860D01*
X143238533Y-73596600D01*
X142155867Y-73596600D01*
X141737291Y-73679860D01*
X141262623Y-73997023D01*
X140945460Y-74471691D01*
X140834087Y-75031600D01*
X136924640Y-75031600D01*
X136924640Y-74231600D01*
X136875357Y-73983835D01*
X136735009Y-73773791D01*
X136524965Y-73633443D01*
X136277200Y-73584160D01*
X135966200Y-73584160D01*
X135966200Y-71396796D01*
X136293734Y-71069262D01*
X136512200Y-70541839D01*
X136512200Y-69970961D01*
X136293734Y-69443538D01*
X136159331Y-69309135D01*
X140236070Y-69309135D01*
X140285583Y-69534564D01*
X140750236Y-69694207D01*
X141240613Y-69663882D01*
X141520994Y-69547745D01*
X143748661Y-69547745D01*
X143822795Y-69793864D01*
X144360023Y-69986965D01*
X144930254Y-69959778D01*
X145330805Y-69793864D01*
X145404939Y-69547745D01*
X144576800Y-68719605D01*
X143748661Y-69547745D01*
X141520994Y-69547745D01*
X141552817Y-69534564D01*
X141602330Y-69309135D01*
X140919200Y-68626005D01*
X140236070Y-69309135D01*
X136159331Y-69309135D01*
X135890062Y-69039866D01*
X135362639Y-68821400D01*
X134791761Y-68821400D01*
X134264338Y-69039866D01*
X133936804Y-69367400D01*
X132753036Y-69367400D01*
X132110131Y-68724496D01*
X132060533Y-68650267D01*
X131766470Y-68453781D01*
X131507156Y-68402200D01*
X131507155Y-68402200D01*
X131419600Y-68384784D01*
X131332045Y-68402200D01*
X130789075Y-68402200D01*
X130773686Y-68365047D01*
X130686075Y-68277436D01*
X139671393Y-68277436D01*
X139701718Y-68767813D01*
X139831036Y-69080017D01*
X140056465Y-69129530D01*
X140739595Y-68446400D01*
X140725453Y-68432258D01*
X140905058Y-68252653D01*
X140919200Y-68266795D01*
X140933343Y-68252653D01*
X141112948Y-68432258D01*
X141098805Y-68446400D01*
X141781935Y-69129530D01*
X142007364Y-69080017D01*
X142167007Y-68615364D01*
X142148941Y-68323223D01*
X143129835Y-68323223D01*
X143157022Y-68893454D01*
X143322936Y-69294005D01*
X143569055Y-69368139D01*
X144397195Y-68540000D01*
X144756405Y-68540000D01*
X145584545Y-69368139D01*
X145830664Y-69294005D01*
X146023765Y-68756777D01*
X145996578Y-68186546D01*
X145830664Y-67785995D01*
X145584545Y-67711861D01*
X144756405Y-68540000D01*
X144397195Y-68540000D01*
X143569055Y-67711861D01*
X143322936Y-67785995D01*
X143129835Y-68323223D01*
X142148941Y-68323223D01*
X142136682Y-68124987D01*
X142007364Y-67812783D01*
X141781937Y-67763271D01*
X141897630Y-67647578D01*
X141843482Y-67593430D01*
X141977009Y-67504209D01*
X142117357Y-67294165D01*
X142166640Y-67046400D01*
X142166640Y-65846400D01*
X142148373Y-65754561D01*
X143141800Y-65754561D01*
X143141800Y-66325439D01*
X143360266Y-66852862D01*
X143763938Y-67256534D01*
X143829099Y-67283525D01*
X143822795Y-67286136D01*
X143748661Y-67532255D01*
X144576800Y-68360395D01*
X145404939Y-67532255D01*
X145330805Y-67286136D01*
X145324054Y-67283710D01*
X145389662Y-67256534D01*
X145793334Y-66852862D01*
X145801250Y-66833750D01*
X146599400Y-66833750D01*
X146599400Y-67974310D01*
X146696073Y-68207699D01*
X146874702Y-68386327D01*
X147108091Y-68483000D01*
X147948650Y-68483000D01*
X148107400Y-68324250D01*
X148107400Y-66675000D01*
X146758150Y-66675000D01*
X146599400Y-66833750D01*
X145801250Y-66833750D01*
X146011800Y-66325439D01*
X146011800Y-65754561D01*
X145793334Y-65227138D01*
X145687886Y-65121690D01*
X146599400Y-65121690D01*
X146599400Y-66262250D01*
X146758150Y-66421000D01*
X148107400Y-66421000D01*
X148107400Y-64771750D01*
X147948650Y-64613000D01*
X147108091Y-64613000D01*
X146874702Y-64709673D01*
X146696073Y-64888301D01*
X146599400Y-65121690D01*
X145687886Y-65121690D01*
X145389662Y-64823466D01*
X144862239Y-64605000D01*
X144291361Y-64605000D01*
X143763938Y-64823466D01*
X143360266Y-65227138D01*
X143141800Y-65754561D01*
X142148373Y-65754561D01*
X142117357Y-65598635D01*
X141977009Y-65388591D01*
X141766965Y-65248243D01*
X141519200Y-65198960D01*
X140319200Y-65198960D01*
X140071435Y-65248243D01*
X139861391Y-65388591D01*
X139721043Y-65598635D01*
X139671760Y-65846400D01*
X139671760Y-67046400D01*
X139721043Y-67294165D01*
X139861391Y-67504209D01*
X139994918Y-67593430D01*
X139940770Y-67647578D01*
X140056463Y-67763271D01*
X139831036Y-67812783D01*
X139671393Y-68277436D01*
X130686075Y-68277436D01*
X130313753Y-67905114D01*
X129712822Y-67656200D01*
X129062378Y-67656200D01*
X128461447Y-67905114D01*
X128001514Y-68365047D01*
X127986125Y-68402200D01*
X124289075Y-68402200D01*
X124273686Y-68365047D01*
X123813753Y-67905114D01*
X123212822Y-67656200D01*
X122562378Y-67656200D01*
X121961447Y-67905114D01*
X121501514Y-68365047D01*
X121252600Y-68965978D01*
X121252600Y-69616422D01*
X121501514Y-70217353D01*
X121961447Y-70677286D01*
X122562378Y-70926200D01*
X123212822Y-70926200D01*
X123813753Y-70677286D01*
X124273686Y-70217353D01*
X124289075Y-70180200D01*
X127986125Y-70180200D01*
X128001514Y-70217353D01*
X128461447Y-70677286D01*
X129062378Y-70926200D01*
X129712822Y-70926200D01*
X130313753Y-70677286D01*
X130773686Y-70217353D01*
X130789075Y-70180200D01*
X131051365Y-70180200D01*
X131694271Y-70823106D01*
X131743867Y-70897333D01*
X132037930Y-71093819D01*
X132297244Y-71145400D01*
X132297245Y-71145400D01*
X132384800Y-71162816D01*
X132472355Y-71145400D01*
X133936804Y-71145400D01*
X134188201Y-71396797D01*
X134188200Y-73584160D01*
X133877200Y-73584160D01*
X133629435Y-73633443D01*
X133419391Y-73773791D01*
X133279043Y-73983835D01*
X133229760Y-74231600D01*
X133229760Y-75831600D01*
X133279043Y-76079365D01*
X133419391Y-76289409D01*
X133629435Y-76429757D01*
X133763306Y-76456385D01*
X133642623Y-76537023D01*
X133545352Y-76682600D01*
X126153836Y-76682600D01*
X121132600Y-71661365D01*
X121132600Y-68819955D01*
X121150016Y-68732400D01*
X121132600Y-68644844D01*
X121081019Y-68385530D01*
X120884533Y-68091467D01*
X120810307Y-68041871D01*
X119156131Y-66387696D01*
X119106533Y-66313467D01*
X118812470Y-66116981D01*
X118553156Y-66065400D01*
X118553155Y-66065400D01*
X118465600Y-66047984D01*
X118378045Y-66065400D01*
X117018272Y-66065400D01*
X117008536Y-66016455D01*
X116959945Y-65943732D01*
X121914673Y-65943732D01*
X122013336Y-66210587D01*
X122623061Y-66437108D01*
X123273060Y-66413056D01*
X123761864Y-66210587D01*
X123860527Y-65943732D01*
X128414673Y-65943732D01*
X128513336Y-66210587D01*
X129123061Y-66437108D01*
X129773060Y-66413056D01*
X130261864Y-66210587D01*
X130360527Y-65943732D01*
X129387600Y-64970805D01*
X128414673Y-65943732D01*
X123860527Y-65943732D01*
X122887600Y-64970805D01*
X121914673Y-65943732D01*
X116959945Y-65943732D01*
X116647169Y-65475631D01*
X116106344Y-65114264D01*
X115468400Y-64987369D01*
X114830455Y-65114264D01*
X114289631Y-65475631D01*
X114198400Y-65612168D01*
X114107169Y-65475631D01*
X113566344Y-65114264D01*
X112928400Y-64987369D01*
X112290455Y-65114264D01*
X111749631Y-65475631D01*
X111658400Y-65612168D01*
X111567169Y-65475631D01*
X111026344Y-65114264D01*
X110388400Y-64987369D01*
X109750455Y-65114264D01*
X109407035Y-65343730D01*
X109386727Y-65294701D01*
X109208098Y-65116073D01*
X108974709Y-65019400D01*
X108134150Y-65019400D01*
X107975400Y-65178150D01*
X107721400Y-65178150D01*
X107562650Y-65019400D01*
X106722091Y-65019400D01*
X106488702Y-65116073D01*
X106310073Y-65294701D01*
X106213400Y-65528090D01*
X80710000Y-65528090D01*
X80710000Y-63078575D01*
X80748844Y-63172353D01*
X81827647Y-64251156D01*
X83237171Y-64835000D01*
X84762829Y-64835000D01*
X85507225Y-64526661D01*
X121241692Y-64526661D01*
X121265744Y-65176660D01*
X121468213Y-65665464D01*
X121735068Y-65764127D01*
X122707995Y-64791200D01*
X123067205Y-64791200D01*
X124040132Y-65764127D01*
X124306987Y-65665464D01*
X124533508Y-65055739D01*
X124513931Y-64526661D01*
X127741692Y-64526661D01*
X127765744Y-65176660D01*
X127968213Y-65665464D01*
X128235068Y-65764127D01*
X129207995Y-64791200D01*
X129567205Y-64791200D01*
X130540132Y-65764127D01*
X130806987Y-65665464D01*
X131033508Y-65055739D01*
X131009456Y-64405740D01*
X130806987Y-63916936D01*
X130540132Y-63818273D01*
X129567205Y-64791200D01*
X129207995Y-64791200D01*
X128235068Y-63818273D01*
X127968213Y-63916936D01*
X127741692Y-64526661D01*
X124513931Y-64526661D01*
X124509456Y-64405740D01*
X124306987Y-63916936D01*
X124040132Y-63818273D01*
X123067205Y-64791200D01*
X122707995Y-64791200D01*
X121735068Y-63818273D01*
X121468213Y-63916936D01*
X121241692Y-64526661D01*
X85507225Y-64526661D01*
X86172353Y-64251156D01*
X86784841Y-63638668D01*
X121914673Y-63638668D01*
X122887600Y-64611595D01*
X123860527Y-63638668D01*
X128414673Y-63638668D01*
X129387600Y-64611595D01*
X130360527Y-63638668D01*
X130261864Y-63371813D01*
X129652139Y-63145292D01*
X129002140Y-63169344D01*
X128513336Y-63371813D01*
X128414673Y-63638668D01*
X123860527Y-63638668D01*
X123761864Y-63371813D01*
X123152139Y-63145292D01*
X122502140Y-63169344D01*
X122013336Y-63371813D01*
X121914673Y-63638668D01*
X86784841Y-63638668D01*
X87251156Y-63172353D01*
X87473155Y-62636400D01*
X133614087Y-62636400D01*
X133725460Y-63196309D01*
X134042623Y-63670977D01*
X134517291Y-63988140D01*
X134935867Y-64071400D01*
X135218533Y-64071400D01*
X135637109Y-63988140D01*
X136111777Y-63670977D01*
X136428940Y-63196309D01*
X136540313Y-62636400D01*
X136428940Y-62076491D01*
X136111777Y-61601823D01*
X135637109Y-61284660D01*
X135218533Y-61201400D01*
X134935867Y-61201400D01*
X134517291Y-61284660D01*
X134042623Y-61601823D01*
X133725460Y-62076491D01*
X133614087Y-62636400D01*
X87473155Y-62636400D01*
X87835000Y-61762829D01*
X87835000Y-60237171D01*
X87251156Y-58827647D01*
X86172353Y-57748844D01*
X86078575Y-57710000D01*
X163921425Y-57710000D01*
X163827647Y-57748844D01*
G36*
X155281012Y-111289344D02*
X154977344Y-111593012D01*
X154813000Y-111989774D01*
X154813000Y-112419226D01*
X154977344Y-112815988D01*
X155281012Y-113119656D01*
X155677774Y-113284000D01*
X155714765Y-113284000D01*
X156133800Y-113703036D01*
X156133801Y-115834860D01*
X155942370Y-115962770D01*
X155752800Y-116246481D01*
X155563230Y-115962770D01*
X155067525Y-115631550D01*
X154630398Y-115544600D01*
X154335202Y-115544600D01*
X153898075Y-115631550D01*
X153402370Y-115962770D01*
X153071150Y-116458475D01*
X152954841Y-117043200D01*
X153071150Y-117627925D01*
X153402370Y-118123630D01*
X153690626Y-118316237D01*
X153275979Y-118694710D01*
X153027832Y-119224173D01*
X153148331Y-119456200D01*
X154355800Y-119456200D01*
X154355800Y-119436200D01*
X154609800Y-119436200D01*
X154609800Y-119456200D01*
X154629800Y-119456200D01*
X154629800Y-119710200D01*
X154609800Y-119710200D01*
X154609800Y-120917017D01*
X154841826Y-121038158D01*
X155257747Y-120865888D01*
X155689621Y-120471690D01*
X155740946Y-120362179D01*
X155942370Y-120663630D01*
X156133800Y-120791540D01*
X156133800Y-120892069D01*
X156133801Y-120892074D01*
X156133800Y-122161364D01*
X155689365Y-122605800D01*
X152565036Y-122605800D01*
X149901463Y-119942227D01*
X153027832Y-119942227D01*
X153275979Y-120471690D01*
X153707853Y-120865888D01*
X154123774Y-121038158D01*
X154355800Y-120917017D01*
X154355800Y-119710200D01*
X153148331Y-119710200D01*
X153027832Y-119942227D01*
X149901463Y-119942227D01*
X148514495Y-118555260D01*
X148525293Y-112843351D01*
X148552656Y-112815988D01*
X148717000Y-112419226D01*
X148717000Y-111989774D01*
X148552656Y-111593012D01*
X148248988Y-111289344D01*
X148158831Y-111252000D01*
X155371169Y-111252000D01*
X155281012Y-111289344D01*
X155281012Y-111289344D01*
G37*
X155281012Y-111289344D02*
X154977344Y-111593012D01*
X154813000Y-111989774D01*
X154813000Y-112419226D01*
X154977344Y-112815988D01*
X155281012Y-113119656D01*
X155677774Y-113284000D01*
X155714765Y-113284000D01*
X156133800Y-113703036D01*
X156133801Y-115834860D01*
X155942370Y-115962770D01*
X155752800Y-116246481D01*
X155563230Y-115962770D01*
X155067525Y-115631550D01*
X154630398Y-115544600D01*
X154335202Y-115544600D01*
X153898075Y-115631550D01*
X153402370Y-115962770D01*
X153071150Y-116458475D01*
X152954841Y-117043200D01*
X153071150Y-117627925D01*
X153402370Y-118123630D01*
X153690626Y-118316237D01*
X153275979Y-118694710D01*
X153027832Y-119224173D01*
X153148331Y-119456200D01*
X154355800Y-119456200D01*
X154355800Y-119436200D01*
X154609800Y-119436200D01*
X154609800Y-119456200D01*
X154629800Y-119456200D01*
X154629800Y-119710200D01*
X154609800Y-119710200D01*
X154609800Y-120917017D01*
X154841826Y-121038158D01*
X155257747Y-120865888D01*
X155689621Y-120471690D01*
X155740946Y-120362179D01*
X155942370Y-120663630D01*
X156133800Y-120791540D01*
X156133800Y-120892069D01*
X156133801Y-120892074D01*
X156133800Y-122161364D01*
X155689365Y-122605800D01*
X152565036Y-122605800D01*
X149901463Y-119942227D01*
X153027832Y-119942227D01*
X153275979Y-120471690D01*
X153707853Y-120865888D01*
X154123774Y-121038158D01*
X154355800Y-120917017D01*
X154355800Y-119710200D01*
X153148331Y-119710200D01*
X153027832Y-119942227D01*
X149901463Y-119942227D01*
X148514495Y-118555260D01*
X148525293Y-112843351D01*
X148552656Y-112815988D01*
X148717000Y-112419226D01*
X148717000Y-111989774D01*
X148552656Y-111593012D01*
X148248988Y-111289344D01*
X148158831Y-111252000D01*
X155371169Y-111252000D01*
X155281012Y-111289344D01*
G04 #@! TD*
M02*
