M48
;DRILL file {KiCad (5.0.0)} date 06/02/19 19:33:16
;FORMAT={-:-/ absolute / inch / decimal}
FMAT,2
INCH,TZ
T1C0.0197
T2C0.0200
T3C0.0201
T4C0.0236
T5C0.0315
T6C0.0354
T7C0.0394
T8C0.0400
T9C0.0433
T10C0.0472
T11C0.0598
T12C0.1260
%
G90
G05
M72
T1
X4.1315Y-3.843
X4.1592Y-3.7762
X4.1592Y-3.9098
X4.226Y-3.7485
X4.226Y-3.9375
X4.2928Y-3.7762
X4.2928Y-3.9098
X4.3205Y-3.843
X6.4409Y-5.1575
X6.4686Y-5.0907
X6.4686Y-5.2243
X6.5354Y-5.063
X6.5354Y-5.252
X6.6022Y-5.0907
X6.6022Y-5.2243
X6.6299Y-5.1575
X6.4409Y-2.4016
X6.4686Y-2.3348
X6.4686Y-2.4684
X6.5354Y-2.3071
X6.5354Y-2.4961
X6.6022Y-2.3348
X6.6022Y-2.4684
X6.6299Y-2.4016
X3.2126Y-2.4016
X3.2403Y-2.3348
X3.2403Y-2.4684
X3.3071Y-2.3071
X3.3071Y-2.4961
X3.3739Y-2.3348
X3.3739Y-2.4684
X3.4016Y-2.4016
X3.2126Y-5.1575
X3.2403Y-5.0907
X3.2403Y-5.2243
X3.3071Y-5.063
X3.3071Y-5.252
X3.3739Y-5.0907
X3.3739Y-5.2243
X3.4016Y-5.1575
T2
X5.8125Y-4.4175
X5.996Y-3.922
X6.1375Y-4.4175
T3
X5.71Y-4.605
X5.888Y-4.484
T4
X5.575Y-4.485
X5.6537Y-4.485
X4.892Y-3.4473
X4.892Y-3.526
X6.002Y-3.6413
X6.002Y-3.72
X4.2293Y-2.87
X4.308Y-2.87
X5.548Y-2.616
X5.548Y-2.6947
T5
X4.43Y-2.874
X4.5284Y-2.874
X5.4325Y-4.4336
X5.4325Y-4.532
X5.8715Y-2.9209
X5.8715Y-3.2209
X5.216Y-4.5296
X5.216Y-4.628
X6.0684Y-3.3146
X6.0684Y-3.413
X5.692Y-2.6
X5.692Y-2.6984
X6.2652Y-3.3146
X6.2652Y-3.413
X5.064Y-3.4276
X5.064Y-3.526
X4.604Y-4.26
X4.904Y-4.26
X6.2652Y-2.9209
X6.2652Y-3.2209
X4.304Y-4.174
X4.4024Y-4.174
X5.214Y-4.79
X5.214Y-4.8884
X6.4621Y-3.3146
X6.4621Y-3.413
X5.318Y-2.954
X5.318Y-3.054
X5.318Y-3.154
X5.318Y-3.254
X5.318Y-3.354
X5.318Y-3.454
X5.318Y-3.554
X5.318Y-3.654
X5.318Y-3.754
X5.318Y-3.854
X5.318Y-3.954
X5.318Y-4.054
X5.318Y-4.154
X5.318Y-4.254
X5.618Y-2.954
X5.618Y-3.054
X5.618Y-3.154
X5.618Y-3.254
X5.618Y-3.354
X5.618Y-3.454
X5.618Y-3.554
X5.618Y-3.654
X5.618Y-3.754
X5.618Y-3.854
X5.618Y-3.954
X5.618Y-4.054
X5.618Y-4.154
X5.618Y-4.254
X4.2641Y-3.53
X4.5641Y-3.53
X4.036Y-4.504
X4.1344Y-4.504
X4.304Y-4.416
X4.4024Y-4.416
X5.064Y-3.65
X5.064Y-3.7484
X5.832Y-3.6396
X5.832Y-3.738
X4.81Y-3.7639
X4.81Y-3.956
X6.0684Y-2.9209
X6.0684Y-3.2209
X5.318Y-2.466
X5.318Y-2.766
X5.064Y-3.9456
X5.064Y-4.044
X4.2641Y-3.336
X4.5641Y-3.336
X3.646Y-4.3256
X3.646Y-4.424
X6.556Y-4.5976
X6.556Y-4.696
X4.858Y-5.172
X5.158Y-5.172
X6.4621Y-2.9209
X6.4621Y-3.2209
X5.8715Y-3.3146
X5.8715Y-3.413
T6
X3.9097Y-3.5558
X4.0097Y-3.5558
X3.9097Y-3.1621
X4.0097Y-3.1621
X4.65Y-5.074
X4.65Y-5.174
T7
X3.858Y-4.206
X3.958Y-4.206
X4.058Y-4.206
T8
X6.082Y-4.608
X6.082Y-4.708
X6.182Y-4.608
X6.182Y-4.708
X6.282Y-4.608
X6.282Y-4.708
T9
X4.648Y-4.482
X4.648Y-4.6592
X4.9039Y-4.482
X4.9039Y-4.6592
X4.8381Y-2.5508
X4.8381Y-2.728
X5.094Y-2.5508
X5.094Y-2.728
X3.834Y-4.418
X3.834Y-4.718
T10
X4.246Y-2.636
X4.346Y-2.636
X4.446Y-2.636
X4.546Y-2.636
X6.286Y-3.76
X6.286Y-3.86
X6.286Y-3.96
X6.286Y-4.06
X6.286Y-4.16
X6.286Y-4.26
X5.836Y-2.62
X5.936Y-2.62
X6.036Y-2.62
X6.136Y-2.62
X6.236Y-2.62
X6.336Y-2.62
X5.36Y-4.79
X5.46Y-4.79
X5.56Y-4.79
X5.66Y-4.79
T11
X3.656Y-5.136
X3.856Y-5.136
X3.3268Y-4.588
X3.3268Y-4.788
X3.3268Y-4.006
X3.3268Y-4.206
T12
X6.5354Y-5.1575
X6.5354Y-2.4016
X3.3071Y-2.4016
X3.3071Y-5.1575
X4.226Y-3.843
T7
X4.1626Y-4.848G85X4.2414Y-4.848
G05
X4.1626Y-5.0842G85X4.2414Y-5.0842
G05
X4.387Y-5.0055G85X4.387Y-4.9267
G05
T0
M30
