G04 #@! TF.GenerationSoftware,KiCad,Pcbnew,(5.0.0)*
G04 #@! TF.CreationDate,2019-06-02T19:33:40-03:00*
G04 #@! TF.ProjectId,arduino-unoesc,61726475696E6F2D756E6F6573632E6B,0*
G04 #@! TF.SameCoordinates,Original*
G04 #@! TF.FileFunction,Legend,Top*
G04 #@! TF.FilePolarity,Positive*
%FSLAX46Y46*%
G04 Gerber Fmt 4.6, Leading zero omitted, Abs format (unit mm)*
G04 Created by KiCad (PCBNEW (5.0.0)) date 06/02/19 19:33:40*
%MOMM*%
%LPD*%
G01*
G04 APERTURE LIST*
%ADD10C,0.150000*%
%ADD11C,0.120000*%
G04 APERTURE END LIST*
D10*
X88666666Y-106386380D02*
X89000000Y-107386380D01*
X89333333Y-106386380D01*
X90238095Y-107291142D02*
X90190476Y-107338761D01*
X90047619Y-107386380D01*
X89952380Y-107386380D01*
X89809523Y-107338761D01*
X89714285Y-107243523D01*
X89666666Y-107148285D01*
X89619047Y-106957809D01*
X89619047Y-106814952D01*
X89666666Y-106624476D01*
X89714285Y-106529238D01*
X89809523Y-106434000D01*
X89952380Y-106386380D01*
X90047619Y-106386380D01*
X90190476Y-106434000D01*
X90238095Y-106481619D01*
X91238095Y-107291142D02*
X91190476Y-107338761D01*
X91047619Y-107386380D01*
X90952380Y-107386380D01*
X90809523Y-107338761D01*
X90714285Y-107243523D01*
X90666666Y-107148285D01*
X90619047Y-106957809D01*
X90619047Y-106814952D01*
X90666666Y-106624476D01*
X90714285Y-106529238D01*
X90809523Y-106434000D01*
X90952380Y-106386380D01*
X91047619Y-106386380D01*
X91190476Y-106434000D01*
X91238095Y-106481619D01*
X89238095Y-101404800D02*
X89142857Y-101357180D01*
X89000000Y-101357180D01*
X88857142Y-101404800D01*
X88761904Y-101500038D01*
X88714285Y-101595276D01*
X88666666Y-101785752D01*
X88666666Y-101928609D01*
X88714285Y-102119085D01*
X88761904Y-102214323D01*
X88857142Y-102309561D01*
X89000000Y-102357180D01*
X89095238Y-102357180D01*
X89238095Y-102309561D01*
X89285714Y-102261942D01*
X89285714Y-101928609D01*
X89095238Y-101928609D01*
X89714285Y-102357180D02*
X89714285Y-101357180D01*
X90285714Y-102357180D01*
X90285714Y-101357180D01*
X90761904Y-102357180D02*
X90761904Y-101357180D01*
X91000000Y-101357180D01*
X91142857Y-101404800D01*
X91238095Y-101500038D01*
X91285714Y-101595276D01*
X91333333Y-101785752D01*
X91333333Y-101928609D01*
X91285714Y-102119085D01*
X91238095Y-102214323D01*
X91142857Y-102309561D01*
X91000000Y-102357180D01*
X90761904Y-102357180D01*
X81664514Y-110409028D02*
X82426419Y-110409028D01*
X82045466Y-110789980D02*
X82045466Y-110028076D01*
X83378800Y-109789980D02*
X82902609Y-109789980D01*
X82854990Y-110266171D01*
X82902609Y-110218552D01*
X82997847Y-110170933D01*
X83235942Y-110170933D01*
X83331180Y-110218552D01*
X83378800Y-110266171D01*
X83426419Y-110361409D01*
X83426419Y-110599504D01*
X83378800Y-110694742D01*
X83331180Y-110742361D01*
X83235942Y-110789980D01*
X82997847Y-110789980D01*
X82902609Y-110742361D01*
X82854990Y-110694742D01*
X83712133Y-109789980D02*
X84045466Y-110789980D01*
X84378800Y-109789980D01*
X84902609Y-109789980D02*
X85093085Y-109789980D01*
X85188323Y-109837600D01*
X85283561Y-109932838D01*
X85331180Y-110123314D01*
X85331180Y-110456647D01*
X85283561Y-110647123D01*
X85188323Y-110742361D01*
X85093085Y-110789980D01*
X84902609Y-110789980D01*
X84807371Y-110742361D01*
X84712133Y-110647123D01*
X84664514Y-110456647D01*
X84664514Y-110123314D01*
X84712133Y-109932838D01*
X84807371Y-109837600D01*
X84902609Y-109789980D01*
X85759752Y-109789980D02*
X85759752Y-110599504D01*
X85807371Y-110694742D01*
X85854990Y-110742361D01*
X85950228Y-110789980D01*
X86140704Y-110789980D01*
X86235942Y-110742361D01*
X86283561Y-110694742D01*
X86331180Y-110599504D01*
X86331180Y-109789980D01*
X86664514Y-109789980D02*
X87235942Y-109789980D01*
X86950228Y-110789980D02*
X86950228Y-109789980D01*
X83137266Y-96536823D02*
X83137266Y-96060633D01*
X83422980Y-96632061D02*
X82422980Y-96298728D01*
X83422980Y-95965395D01*
X82422980Y-95774919D02*
X82422980Y-95203490D01*
X83422980Y-95489204D02*
X82422980Y-95489204D01*
X83422980Y-94870157D02*
X82422980Y-94870157D01*
X83137266Y-94536823D01*
X82422980Y-94203490D01*
X83422980Y-94203490D01*
X82899171Y-93727300D02*
X82899171Y-93393966D01*
X83422980Y-93251109D02*
X83422980Y-93727300D01*
X82422980Y-93727300D01*
X82422980Y-93251109D01*
X82470600Y-92298728D02*
X82422980Y-92393966D01*
X82422980Y-92536823D01*
X82470600Y-92679680D01*
X82565838Y-92774919D01*
X82661076Y-92822538D01*
X82851552Y-92870157D01*
X82994409Y-92870157D01*
X83184885Y-92822538D01*
X83280123Y-92774919D01*
X83375361Y-92679680D01*
X83422980Y-92536823D01*
X83422980Y-92441585D01*
X83375361Y-92298728D01*
X83327742Y-92251109D01*
X82994409Y-92251109D01*
X82994409Y-92441585D01*
X83137266Y-91870157D02*
X83137266Y-91393966D01*
X83422980Y-91965395D02*
X82422980Y-91632061D01*
X83422980Y-91298728D01*
X82422980Y-90298728D02*
X82422980Y-89679680D01*
X82803933Y-90013014D01*
X82803933Y-89870157D01*
X82851552Y-89774919D01*
X82899171Y-89727300D01*
X82994409Y-89679680D01*
X83232504Y-89679680D01*
X83327742Y-89727300D01*
X83375361Y-89774919D01*
X83422980Y-89870157D01*
X83422980Y-90155871D01*
X83375361Y-90251109D01*
X83327742Y-90298728D01*
X82518219Y-89298728D02*
X82470600Y-89251109D01*
X82422980Y-89155871D01*
X82422980Y-88917776D01*
X82470600Y-88822538D01*
X82518219Y-88774919D01*
X82613457Y-88727300D01*
X82708695Y-88727300D01*
X82851552Y-88774919D01*
X83422980Y-89346347D01*
X83422980Y-88727300D01*
X82851552Y-88155871D02*
X82803933Y-88251109D01*
X82756314Y-88298728D01*
X82661076Y-88346347D01*
X82613457Y-88346347D01*
X82518219Y-88298728D01*
X82470600Y-88251109D01*
X82422980Y-88155871D01*
X82422980Y-87965395D01*
X82470600Y-87870157D01*
X82518219Y-87822538D01*
X82613457Y-87774919D01*
X82661076Y-87774919D01*
X82756314Y-87822538D01*
X82803933Y-87870157D01*
X82851552Y-87965395D01*
X82851552Y-88155871D01*
X82899171Y-88251109D01*
X82946790Y-88298728D01*
X83042028Y-88346347D01*
X83232504Y-88346347D01*
X83327742Y-88298728D01*
X83375361Y-88251109D01*
X83422980Y-88155871D01*
X83422980Y-87965395D01*
X83375361Y-87870157D01*
X83327742Y-87822538D01*
X83232504Y-87774919D01*
X83042028Y-87774919D01*
X82946790Y-87822538D01*
X82899171Y-87870157D01*
X82851552Y-87965395D01*
X83422980Y-87346347D02*
X82422980Y-87346347D01*
X82422980Y-86965395D01*
X82470600Y-86870157D01*
X82518219Y-86822538D01*
X82613457Y-86774919D01*
X82756314Y-86774919D01*
X82851552Y-86822538D01*
X82899171Y-86870157D01*
X82946790Y-86965395D01*
X82946790Y-87346347D01*
X83422980Y-85013014D02*
X82946790Y-85346347D01*
X83422980Y-85584442D02*
X82422980Y-85584442D01*
X82422980Y-85203490D01*
X82470600Y-85108252D01*
X82518219Y-85060633D01*
X82613457Y-85013014D01*
X82756314Y-85013014D01*
X82851552Y-85060633D01*
X82899171Y-85108252D01*
X82946790Y-85203490D01*
X82946790Y-85584442D01*
X82422980Y-84393966D02*
X82422980Y-84203490D01*
X82470600Y-84108252D01*
X82565838Y-84013014D01*
X82756314Y-83965395D01*
X83089647Y-83965395D01*
X83280123Y-84013014D01*
X83375361Y-84108252D01*
X83422980Y-84203490D01*
X83422980Y-84393966D01*
X83375361Y-84489204D01*
X83280123Y-84584442D01*
X83089647Y-84632061D01*
X82756314Y-84632061D01*
X82565838Y-84584442D01*
X82470600Y-84489204D01*
X82422980Y-84393966D01*
X82899171Y-83203490D02*
X82946790Y-83060633D01*
X82994409Y-83013014D01*
X83089647Y-82965395D01*
X83232504Y-82965395D01*
X83327742Y-83013014D01*
X83375361Y-83060633D01*
X83422980Y-83155871D01*
X83422980Y-83536823D01*
X82422980Y-83536823D01*
X82422980Y-83203490D01*
X82470600Y-83108252D01*
X82518219Y-83060633D01*
X82613457Y-83013014D01*
X82708695Y-83013014D01*
X82803933Y-83060633D01*
X82851552Y-83108252D01*
X82899171Y-83203490D01*
X82899171Y-83536823D01*
X82422980Y-82346347D02*
X82422980Y-82155871D01*
X82470600Y-82060633D01*
X82565838Y-81965395D01*
X82756314Y-81917776D01*
X83089647Y-81917776D01*
X83280123Y-81965395D01*
X83375361Y-82060633D01*
X83422980Y-82155871D01*
X83422980Y-82346347D01*
X83375361Y-82441585D01*
X83280123Y-82536823D01*
X83089647Y-82584442D01*
X82756314Y-82584442D01*
X82565838Y-82536823D01*
X82470600Y-82441585D01*
X82422980Y-82346347D01*
X83375361Y-80774919D02*
X83422980Y-80632061D01*
X83422980Y-80393966D01*
X83375361Y-80298728D01*
X83327742Y-80251109D01*
X83232504Y-80203490D01*
X83137266Y-80203490D01*
X83042028Y-80251109D01*
X82994409Y-80298728D01*
X82946790Y-80393966D01*
X82899171Y-80584442D01*
X82851552Y-80679680D01*
X82803933Y-80727300D01*
X82708695Y-80774919D01*
X82613457Y-80774919D01*
X82518219Y-80727300D01*
X82470600Y-80679680D01*
X82422980Y-80584442D01*
X82422980Y-80346347D01*
X82470600Y-80203490D01*
X82422980Y-79774919D02*
X83232504Y-79774919D01*
X83327742Y-79727300D01*
X83375361Y-79679680D01*
X83422980Y-79584442D01*
X83422980Y-79393966D01*
X83375361Y-79298728D01*
X83327742Y-79251109D01*
X83232504Y-79203490D01*
X82422980Y-79203490D01*
X83422980Y-78727300D02*
X82422980Y-78727300D01*
X83137266Y-78393966D01*
X82422980Y-78060633D01*
X83422980Y-78060633D01*
X82422980Y-77393966D02*
X82422980Y-77203490D01*
X82470600Y-77108252D01*
X82565838Y-77013014D01*
X82756314Y-76965395D01*
X83089647Y-76965395D01*
X83280123Y-77013014D01*
X83375361Y-77108252D01*
X83422980Y-77203490D01*
X83422980Y-77393966D01*
X83375361Y-77489204D01*
X83280123Y-77584442D01*
X83089647Y-77632061D01*
X82756314Y-77632061D01*
X82565838Y-77584442D01*
X82470600Y-77489204D01*
X82422980Y-77393966D01*
X82184885Y-77489204D02*
X82042028Y-77298728D01*
X82184885Y-77108252D01*
X83756314Y-75536823D02*
X82327742Y-75536823D01*
X83422980Y-73489204D02*
X82946790Y-73822538D01*
X83422980Y-74060633D02*
X82422980Y-74060633D01*
X82422980Y-73679680D01*
X82470600Y-73584442D01*
X82518219Y-73536823D01*
X82613457Y-73489204D01*
X82756314Y-73489204D01*
X82851552Y-73536823D01*
X82899171Y-73584442D01*
X82946790Y-73679680D01*
X82946790Y-74060633D01*
X82899171Y-73060633D02*
X82899171Y-72727300D01*
X83422980Y-72584442D02*
X83422980Y-73060633D01*
X82422980Y-73060633D01*
X82422980Y-72584442D01*
X82422980Y-72298728D02*
X83422980Y-71965395D01*
X82422980Y-71632061D01*
X83327742Y-71298728D02*
X83375361Y-71251109D01*
X83422980Y-71298728D01*
X83375361Y-71346347D01*
X83327742Y-71298728D01*
X83422980Y-71298728D01*
X83422980Y-70774919D02*
X83422980Y-70584442D01*
X83375361Y-70489204D01*
X83327742Y-70441585D01*
X83184885Y-70346347D01*
X82994409Y-70298728D01*
X82613457Y-70298728D01*
X82518219Y-70346347D01*
X82470600Y-70393966D01*
X82422980Y-70489204D01*
X82422980Y-70679680D01*
X82470600Y-70774919D01*
X82518219Y-70822538D01*
X82613457Y-70870157D01*
X82851552Y-70870157D01*
X82946790Y-70822538D01*
X82994409Y-70774919D01*
X83042028Y-70679680D01*
X83042028Y-70489204D01*
X82994409Y-70393966D01*
X82946790Y-70346347D01*
X82851552Y-70298728D01*
X83327742Y-69870157D02*
X83375361Y-69822538D01*
X83422980Y-69870157D01*
X83375361Y-69917776D01*
X83327742Y-69870157D01*
X83422980Y-69870157D01*
X83422980Y-68870157D02*
X83422980Y-69441585D01*
X83422980Y-69155871D02*
X82422980Y-69155871D01*
X82565838Y-69251109D01*
X82661076Y-69346347D01*
X82708695Y-69441585D01*
X85722980Y-96489204D02*
X86532504Y-96489204D01*
X86627742Y-96441585D01*
X86675361Y-96393966D01*
X86722980Y-96298728D01*
X86722980Y-96108252D01*
X86675361Y-96013014D01*
X86627742Y-95965395D01*
X86532504Y-95917776D01*
X85722980Y-95917776D01*
X86722980Y-95441585D02*
X85722980Y-95441585D01*
X86722980Y-94870157D01*
X85722980Y-94870157D01*
X85722980Y-94203490D02*
X85722980Y-94013014D01*
X85770600Y-93917776D01*
X85865838Y-93822538D01*
X86056314Y-93774919D01*
X86389647Y-93774919D01*
X86580123Y-93822538D01*
X86675361Y-93917776D01*
X86722980Y-94013014D01*
X86722980Y-94203490D01*
X86675361Y-94298728D01*
X86580123Y-94393966D01*
X86389647Y-94441585D01*
X86056314Y-94441585D01*
X85865838Y-94393966D01*
X85770600Y-94298728D01*
X85722980Y-94203490D01*
X86199171Y-93346347D02*
X86199171Y-93013014D01*
X86722980Y-92870157D02*
X86722980Y-93346347D01*
X85722980Y-93346347D01*
X85722980Y-92870157D01*
X86675361Y-92489204D02*
X86722980Y-92346347D01*
X86722980Y-92108252D01*
X86675361Y-92013014D01*
X86627742Y-91965395D01*
X86532504Y-91917776D01*
X86437266Y-91917776D01*
X86342028Y-91965395D01*
X86294409Y-92013014D01*
X86246790Y-92108252D01*
X86199171Y-92298728D01*
X86151552Y-92393966D01*
X86103933Y-92441585D01*
X86008695Y-92489204D01*
X85913457Y-92489204D01*
X85818219Y-92441585D01*
X85770600Y-92393966D01*
X85722980Y-92298728D01*
X85722980Y-92060633D01*
X85770600Y-91917776D01*
X86627742Y-90917776D02*
X86675361Y-90965395D01*
X86722980Y-91108252D01*
X86722980Y-91203490D01*
X86675361Y-91346347D01*
X86580123Y-91441585D01*
X86484885Y-91489204D01*
X86294409Y-91536823D01*
X86151552Y-91536823D01*
X85961076Y-91489204D01*
X85865838Y-91441585D01*
X85770600Y-91346347D01*
X85722980Y-91203490D01*
X85722980Y-91108252D01*
X85770600Y-90965395D01*
X85818219Y-90917776D01*
X86342028Y-89727300D02*
X86342028Y-88965395D01*
X86199171Y-87727300D02*
X86199171Y-87393966D01*
X86722980Y-87251109D02*
X86722980Y-87727300D01*
X85722980Y-87727300D01*
X85722980Y-87251109D01*
X86722980Y-86822538D02*
X85722980Y-86822538D01*
X86722980Y-86251109D01*
X85722980Y-86251109D01*
X85770600Y-85251109D02*
X85722980Y-85346347D01*
X85722980Y-85489204D01*
X85770600Y-85632061D01*
X85865838Y-85727300D01*
X85961076Y-85774919D01*
X86151552Y-85822538D01*
X86294409Y-85822538D01*
X86484885Y-85774919D01*
X86580123Y-85727300D01*
X86675361Y-85632061D01*
X86722980Y-85489204D01*
X86722980Y-85393966D01*
X86675361Y-85251109D01*
X86627742Y-85203490D01*
X86294409Y-85203490D01*
X86294409Y-85393966D01*
X86627742Y-84774919D02*
X86675361Y-84727300D01*
X86722980Y-84774919D01*
X86675361Y-84822538D01*
X86627742Y-84774919D01*
X86722980Y-84774919D01*
X86627742Y-82965395D02*
X86675361Y-83013014D01*
X86722980Y-83155871D01*
X86722980Y-83251109D01*
X86675361Y-83393966D01*
X86580123Y-83489204D01*
X86484885Y-83536823D01*
X86294409Y-83584442D01*
X86151552Y-83584442D01*
X85961076Y-83536823D01*
X85865838Y-83489204D01*
X85770600Y-83393966D01*
X85722980Y-83251109D01*
X85722980Y-83155871D01*
X85770600Y-83013014D01*
X85818219Y-82965395D01*
X85722980Y-82346347D02*
X85722980Y-82155871D01*
X85770600Y-82060633D01*
X85865838Y-81965395D01*
X86056314Y-81917776D01*
X86389647Y-81917776D01*
X86580123Y-81965395D01*
X86675361Y-82060633D01*
X86722980Y-82155871D01*
X86722980Y-82346347D01*
X86675361Y-82441585D01*
X86580123Y-82536823D01*
X86389647Y-82584442D01*
X86056314Y-82584442D01*
X85865838Y-82536823D01*
X85770600Y-82441585D01*
X85722980Y-82346347D01*
X86722980Y-81489204D02*
X85722980Y-81489204D01*
X86437266Y-81155871D01*
X85722980Y-80822538D01*
X86722980Y-80822538D01*
X86722980Y-80346347D02*
X85722980Y-80346347D01*
X85722980Y-79965395D01*
X85770600Y-79870157D01*
X85818219Y-79822538D01*
X85913457Y-79774919D01*
X86056314Y-79774919D01*
X86151552Y-79822538D01*
X86199171Y-79870157D01*
X86246790Y-79965395D01*
X86246790Y-80346347D01*
X85722980Y-79346347D02*
X86532504Y-79346347D01*
X86627742Y-79298728D01*
X86675361Y-79251109D01*
X86722980Y-79155871D01*
X86722980Y-78965395D01*
X86675361Y-78870157D01*
X86627742Y-78822538D01*
X86532504Y-78774919D01*
X85722980Y-78774919D01*
X85722980Y-78441585D02*
X85722980Y-77870157D01*
X86722980Y-78155871D02*
X85722980Y-78155871D01*
X86437266Y-77584442D02*
X86437266Y-77108252D01*
X86722980Y-77679680D02*
X85722980Y-77346347D01*
X86722980Y-77013014D01*
X86627742Y-76108252D02*
X86675361Y-76155871D01*
X86722980Y-76298728D01*
X86722980Y-76393966D01*
X86675361Y-76536823D01*
X86580123Y-76632061D01*
X86484885Y-76679680D01*
X86294409Y-76727300D01*
X86151552Y-76727300D01*
X85961076Y-76679680D01*
X85865838Y-76632061D01*
X85770600Y-76536823D01*
X85722980Y-76393966D01*
X85722980Y-76298728D01*
X85770600Y-76155871D01*
X85818219Y-76108252D01*
X86770600Y-76346347D02*
X86818219Y-76251109D01*
X86913457Y-76203490D01*
X87008695Y-76251109D01*
X87056314Y-76346347D01*
X87056314Y-76489204D01*
X86437266Y-75727300D02*
X86437266Y-75251109D01*
X86722980Y-75822538D02*
X85722980Y-75489204D01*
X86722980Y-75155871D01*
X85484885Y-75727300D02*
X85437266Y-75679680D01*
X85389647Y-75584442D01*
X85484885Y-75393966D01*
X85437266Y-75298728D01*
X85389647Y-75251109D01*
X85722980Y-74632061D02*
X85722980Y-74441585D01*
X85770600Y-74346347D01*
X85865838Y-74251109D01*
X86056314Y-74203490D01*
X86389647Y-74203490D01*
X86580123Y-74251109D01*
X86675361Y-74346347D01*
X86722980Y-74441585D01*
X86722980Y-74632061D01*
X86675361Y-74727300D01*
X86580123Y-74822538D01*
X86389647Y-74870157D01*
X86056314Y-74870157D01*
X85865838Y-74822538D01*
X85770600Y-74727300D01*
X85722980Y-74632061D01*
X85818219Y-73060633D02*
X85770600Y-73013014D01*
X85722980Y-72917776D01*
X85722980Y-72679680D01*
X85770600Y-72584442D01*
X85818219Y-72536823D01*
X85913457Y-72489204D01*
X86008695Y-72489204D01*
X86151552Y-72536823D01*
X86722980Y-73108252D01*
X86722980Y-72489204D01*
X85722980Y-71870157D02*
X85722980Y-71774919D01*
X85770600Y-71679680D01*
X85818219Y-71632061D01*
X85913457Y-71584442D01*
X86103933Y-71536823D01*
X86342028Y-71536823D01*
X86532504Y-71584442D01*
X86627742Y-71632061D01*
X86675361Y-71679680D01*
X86722980Y-71774919D01*
X86722980Y-71870157D01*
X86675361Y-71965395D01*
X86627742Y-72013014D01*
X86532504Y-72060633D01*
X86342028Y-72108252D01*
X86103933Y-72108252D01*
X85913457Y-72060633D01*
X85818219Y-72013014D01*
X85770600Y-71965395D01*
X85722980Y-71870157D01*
X86722980Y-70584442D02*
X86722980Y-71155871D01*
X86722980Y-70870157D02*
X85722980Y-70870157D01*
X85865838Y-70965395D01*
X85961076Y-71060633D01*
X86008695Y-71155871D01*
X86151552Y-70013014D02*
X86103933Y-70108252D01*
X86056314Y-70155871D01*
X85961076Y-70203490D01*
X85913457Y-70203490D01*
X85818219Y-70155871D01*
X85770600Y-70108252D01*
X85722980Y-70013014D01*
X85722980Y-69822538D01*
X85770600Y-69727300D01*
X85818219Y-69679680D01*
X85913457Y-69632061D01*
X85961076Y-69632061D01*
X86056314Y-69679680D01*
X86103933Y-69727300D01*
X86151552Y-69822538D01*
X86151552Y-70013014D01*
X86199171Y-70108252D01*
X86246790Y-70155871D01*
X86342028Y-70203490D01*
X86532504Y-70203490D01*
X86627742Y-70155871D01*
X86675361Y-70108252D01*
X86722980Y-70013014D01*
X86722980Y-69822538D01*
X86675361Y-69727300D01*
X86627742Y-69679680D01*
X86532504Y-69632061D01*
X86342028Y-69632061D01*
X86246790Y-69679680D01*
X86199171Y-69727300D01*
X86151552Y-69822538D01*
X86342028Y-69203490D02*
X86342028Y-68441585D01*
X85818219Y-68013014D02*
X85770600Y-67965395D01*
X85722980Y-67870157D01*
X85722980Y-67632061D01*
X85770600Y-67536823D01*
X85818219Y-67489204D01*
X85913457Y-67441585D01*
X86008695Y-67441585D01*
X86151552Y-67489204D01*
X86722980Y-68060633D01*
X86722980Y-67441585D01*
X85722980Y-66822538D02*
X85722980Y-66727300D01*
X85770600Y-66632061D01*
X85818219Y-66584442D01*
X85913457Y-66536823D01*
X86103933Y-66489204D01*
X86342028Y-66489204D01*
X86532504Y-66536823D01*
X86627742Y-66584442D01*
X86675361Y-66632061D01*
X86722980Y-66727300D01*
X86722980Y-66822538D01*
X86675361Y-66917776D01*
X86627742Y-66965395D01*
X86532504Y-67013014D01*
X86342028Y-67060633D01*
X86103933Y-67060633D01*
X85913457Y-67013014D01*
X85818219Y-66965395D01*
X85770600Y-66917776D01*
X85722980Y-66822538D01*
X86722980Y-65536823D02*
X86722980Y-66108252D01*
X86722980Y-65822538D02*
X85722980Y-65822538D01*
X85865838Y-65917776D01*
X85961076Y-66013014D01*
X86008695Y-66108252D01*
X86722980Y-65060633D02*
X86722980Y-64870157D01*
X86675361Y-64774919D01*
X86627742Y-64727300D01*
X86484885Y-64632061D01*
X86294409Y-64584442D01*
X85913457Y-64584442D01*
X85818219Y-64632061D01*
X85770600Y-64679680D01*
X85722980Y-64774919D01*
X85722980Y-64965395D01*
X85770600Y-65060633D01*
X85818219Y-65108252D01*
X85913457Y-65155871D01*
X86151552Y-65155871D01*
X86246790Y-65108252D01*
X86294409Y-65060633D01*
X86342028Y-64965395D01*
X86342028Y-64774919D01*
X86294409Y-64679680D01*
X86246790Y-64632061D01*
X86151552Y-64584442D01*
X88277742Y-95917776D02*
X88325361Y-95965395D01*
X88372980Y-96108252D01*
X88372980Y-96203490D01*
X88325361Y-96346347D01*
X88230123Y-96441585D01*
X88134885Y-96489204D01*
X87944409Y-96536823D01*
X87801552Y-96536823D01*
X87611076Y-96489204D01*
X87515838Y-96441585D01*
X87420600Y-96346347D01*
X87372980Y-96203490D01*
X87372980Y-96108252D01*
X87420600Y-95965395D01*
X87468219Y-95917776D01*
X88372980Y-94917776D02*
X87896790Y-95251109D01*
X88372980Y-95489204D02*
X87372980Y-95489204D01*
X87372980Y-95108252D01*
X87420600Y-95013014D01*
X87468219Y-94965395D01*
X87563457Y-94917776D01*
X87706314Y-94917776D01*
X87801552Y-94965395D01*
X87849171Y-95013014D01*
X87896790Y-95108252D01*
X87896790Y-95489204D01*
X88372980Y-94489204D02*
X87372980Y-94489204D01*
X88325361Y-94060633D02*
X88372980Y-93917776D01*
X88372980Y-93679680D01*
X88325361Y-93584442D01*
X88277742Y-93536823D01*
X88182504Y-93489204D01*
X88087266Y-93489204D01*
X87992028Y-93536823D01*
X87944409Y-93584442D01*
X87896790Y-93679680D01*
X87849171Y-93870157D01*
X87801552Y-93965395D01*
X87753933Y-94013014D01*
X87658695Y-94060633D01*
X87563457Y-94060633D01*
X87468219Y-94013014D01*
X87420600Y-93965395D01*
X87372980Y-93870157D01*
X87372980Y-93632061D01*
X87420600Y-93489204D01*
X87372980Y-93203490D02*
X87372980Y-92632061D01*
X88372980Y-92917776D02*
X87372980Y-92917776D01*
X88372980Y-92298728D02*
X87372980Y-92298728D01*
X88087266Y-91870157D02*
X88087266Y-91393966D01*
X88372980Y-91965395D02*
X87372980Y-91632061D01*
X88372980Y-91298728D01*
X88372980Y-90965395D02*
X87372980Y-90965395D01*
X88372980Y-90393966D01*
X87372980Y-90393966D01*
X87849171Y-89917776D02*
X87849171Y-89584442D01*
X88372980Y-89441585D02*
X88372980Y-89917776D01*
X87372980Y-89917776D01*
X87372980Y-89441585D01*
X88372980Y-88251109D02*
X87372980Y-88251109D01*
X87372980Y-88013014D01*
X87420600Y-87870157D01*
X87515838Y-87774919D01*
X87611076Y-87727300D01*
X87801552Y-87679680D01*
X87944409Y-87679680D01*
X88134885Y-87727300D01*
X88230123Y-87774919D01*
X88325361Y-87870157D01*
X88372980Y-88013014D01*
X88372980Y-88251109D01*
X87849171Y-87251109D02*
X87849171Y-86917776D01*
X88372980Y-86774919D02*
X88372980Y-87251109D01*
X87372980Y-87251109D01*
X87372980Y-86774919D01*
X88372980Y-85870157D02*
X88372980Y-86346347D01*
X87372980Y-86346347D01*
X87420600Y-85013014D02*
X87372980Y-85108252D01*
X87372980Y-85251109D01*
X87420600Y-85393966D01*
X87515838Y-85489204D01*
X87611076Y-85536823D01*
X87801552Y-85584442D01*
X87944409Y-85584442D01*
X88134885Y-85536823D01*
X88230123Y-85489204D01*
X88325361Y-85393966D01*
X88372980Y-85251109D01*
X88372980Y-85155871D01*
X88325361Y-85013014D01*
X88277742Y-84965395D01*
X87944409Y-84965395D01*
X87944409Y-85155871D01*
X88087266Y-84584442D02*
X88087266Y-84108252D01*
X88372980Y-84679680D02*
X87372980Y-84346347D01*
X88372980Y-84013014D01*
X88372980Y-83679680D02*
X87372980Y-83679680D01*
X87372980Y-83441585D01*
X87420600Y-83298728D01*
X87515838Y-83203490D01*
X87611076Y-83155871D01*
X87801552Y-83108252D01*
X87944409Y-83108252D01*
X88134885Y-83155871D01*
X88230123Y-83203490D01*
X88325361Y-83298728D01*
X88372980Y-83441585D01*
X88372980Y-83679680D01*
X87372980Y-82489204D02*
X87372980Y-82298728D01*
X87420600Y-82203490D01*
X87515838Y-82108252D01*
X87706314Y-82060633D01*
X88039647Y-82060633D01*
X88230123Y-82108252D01*
X88325361Y-82203490D01*
X88372980Y-82298728D01*
X88372980Y-82489204D01*
X88325361Y-82584442D01*
X88230123Y-82679680D01*
X88039647Y-82727300D01*
X87706314Y-82727300D01*
X87515838Y-82679680D01*
X87420600Y-82584442D01*
X87372980Y-82489204D01*
X87992028Y-80870157D02*
X87992028Y-80108252D01*
X87372980Y-79013014D02*
X87372980Y-78441585D01*
X88372980Y-78727300D02*
X87372980Y-78727300D01*
X88277742Y-77536823D02*
X88325361Y-77584442D01*
X88372980Y-77727300D01*
X88372980Y-77822538D01*
X88325361Y-77965395D01*
X88230123Y-78060633D01*
X88134885Y-78108252D01*
X87944409Y-78155871D01*
X87801552Y-78155871D01*
X87611076Y-78108252D01*
X87515838Y-78060633D01*
X87420600Y-77965395D01*
X87372980Y-77822538D01*
X87372980Y-77727300D01*
X87420600Y-77584442D01*
X87468219Y-77536823D01*
X88277742Y-76536823D02*
X88325361Y-76584442D01*
X88372980Y-76727300D01*
X88372980Y-76822538D01*
X88325361Y-76965395D01*
X88230123Y-77060633D01*
X88134885Y-77108252D01*
X87944409Y-77155871D01*
X87801552Y-77155871D01*
X87611076Y-77108252D01*
X87515838Y-77060633D01*
X87420600Y-76965395D01*
X87372980Y-76822538D01*
X87372980Y-76727300D01*
X87420600Y-76584442D01*
X87468219Y-76536823D01*
X114625904Y-134132580D02*
X114625904Y-133132580D01*
X115006857Y-133132580D01*
X115102095Y-133180200D01*
X115149714Y-133227819D01*
X115197333Y-133323057D01*
X115197333Y-133465914D01*
X115149714Y-133561152D01*
X115102095Y-133608771D01*
X115006857Y-133656390D01*
X114625904Y-133656390D01*
X115816380Y-133132580D02*
X116006857Y-133132580D01*
X116102095Y-133180200D01*
X116197333Y-133275438D01*
X116244952Y-133465914D01*
X116244952Y-133799247D01*
X116197333Y-133989723D01*
X116102095Y-134084961D01*
X116006857Y-134132580D01*
X115816380Y-134132580D01*
X115721142Y-134084961D01*
X115625904Y-133989723D01*
X115578285Y-133799247D01*
X115578285Y-133465914D01*
X115625904Y-133275438D01*
X115721142Y-133180200D01*
X115816380Y-133132580D01*
X116578285Y-133132580D02*
X116816380Y-134132580D01*
X117006857Y-133418295D01*
X117197333Y-134132580D01*
X117435428Y-133132580D01*
X117816380Y-133608771D02*
X118149714Y-133608771D01*
X118292571Y-134132580D02*
X117816380Y-134132580D01*
X117816380Y-133132580D01*
X118292571Y-133132580D01*
X119292571Y-134132580D02*
X118959238Y-133656390D01*
X118721142Y-134132580D02*
X118721142Y-133132580D01*
X119102095Y-133132580D01*
X119197333Y-133180200D01*
X119244952Y-133227819D01*
X119292571Y-133323057D01*
X119292571Y-133465914D01*
X119244952Y-133561152D01*
X119197333Y-133608771D01*
X119102095Y-133656390D01*
X118721142Y-133656390D01*
X120673523Y-133132580D02*
X120864000Y-133132580D01*
X120959238Y-133180200D01*
X121054476Y-133275438D01*
X121102095Y-133465914D01*
X121102095Y-133799247D01*
X121054476Y-133989723D01*
X120959238Y-134084961D01*
X120864000Y-134132580D01*
X120673523Y-134132580D01*
X120578285Y-134084961D01*
X120483047Y-133989723D01*
X120435428Y-133799247D01*
X120435428Y-133465914D01*
X120483047Y-133275438D01*
X120578285Y-133180200D01*
X120673523Y-133132580D01*
X121530666Y-134132580D02*
X121530666Y-133132580D01*
X122102095Y-134132580D01*
X122102095Y-133132580D01*
X88666666Y-115987580D02*
X89000000Y-116987580D01*
X89333333Y-115987580D01*
X90238095Y-116892342D02*
X90190476Y-116939961D01*
X90047619Y-116987580D01*
X89952380Y-116987580D01*
X89809523Y-116939961D01*
X89714285Y-116844723D01*
X89666666Y-116749485D01*
X89619047Y-116559009D01*
X89619047Y-116416152D01*
X89666666Y-116225676D01*
X89714285Y-116130438D01*
X89809523Y-116035200D01*
X89952380Y-115987580D01*
X90047619Y-115987580D01*
X90190476Y-116035200D01*
X90238095Y-116082819D01*
X91238095Y-116892342D02*
X91190476Y-116939961D01*
X91047619Y-116987580D01*
X90952380Y-116987580D01*
X90809523Y-116939961D01*
X90714285Y-116844723D01*
X90666666Y-116749485D01*
X90619047Y-116559009D01*
X90619047Y-116416152D01*
X90666666Y-116225676D01*
X90714285Y-116130438D01*
X90809523Y-116035200D01*
X90952380Y-115987580D01*
X91047619Y-115987580D01*
X91190476Y-116035200D01*
X91238095Y-116082819D01*
X92314780Y-126199733D02*
X93314780Y-125866400D01*
X92314780Y-125533066D01*
X93219542Y-124628304D02*
X93267161Y-124675923D01*
X93314780Y-124818780D01*
X93314780Y-124914019D01*
X93267161Y-125056876D01*
X93171923Y-125152114D01*
X93076685Y-125199733D01*
X92886209Y-125247352D01*
X92743352Y-125247352D01*
X92552876Y-125199733D01*
X92457638Y-125152114D01*
X92362400Y-125056876D01*
X92314780Y-124914019D01*
X92314780Y-124818780D01*
X92362400Y-124675923D01*
X92410019Y-124628304D01*
X93219542Y-123628304D02*
X93267161Y-123675923D01*
X93314780Y-123818780D01*
X93314780Y-123914019D01*
X93267161Y-124056876D01*
X93171923Y-124152114D01*
X93076685Y-124199733D01*
X92886209Y-124247352D01*
X92743352Y-124247352D01*
X92552876Y-124199733D01*
X92457638Y-124152114D01*
X92362400Y-124056876D01*
X92314780Y-123914019D01*
X92314780Y-123818780D01*
X92362400Y-123675923D01*
X92410019Y-123628304D01*
X97899600Y-125679104D02*
X97851980Y-125774342D01*
X97851980Y-125917200D01*
X97899600Y-126060057D01*
X97994838Y-126155295D01*
X98090076Y-126202914D01*
X98280552Y-126250533D01*
X98423409Y-126250533D01*
X98613885Y-126202914D01*
X98709123Y-126155295D01*
X98804361Y-126060057D01*
X98851980Y-125917200D01*
X98851980Y-125821961D01*
X98804361Y-125679104D01*
X98756742Y-125631485D01*
X98423409Y-125631485D01*
X98423409Y-125821961D01*
X98851980Y-125202914D02*
X97851980Y-125202914D01*
X98851980Y-124631485D01*
X97851980Y-124631485D01*
X98851980Y-124155295D02*
X97851980Y-124155295D01*
X97851980Y-123917200D01*
X97899600Y-123774342D01*
X97994838Y-123679104D01*
X98090076Y-123631485D01*
X98280552Y-123583866D01*
X98423409Y-123583866D01*
X98613885Y-123631485D01*
X98709123Y-123679104D01*
X98804361Y-123774342D01*
X98851980Y-123917200D01*
X98851980Y-124155295D01*
X89238095Y-121420000D02*
X89142857Y-121372380D01*
X89000000Y-121372380D01*
X88857142Y-121420000D01*
X88761904Y-121515238D01*
X88714285Y-121610476D01*
X88666666Y-121800952D01*
X88666666Y-121943809D01*
X88714285Y-122134285D01*
X88761904Y-122229523D01*
X88857142Y-122324761D01*
X89000000Y-122372380D01*
X89095238Y-122372380D01*
X89238095Y-122324761D01*
X89285714Y-122277142D01*
X89285714Y-121943809D01*
X89095238Y-121943809D01*
X89714285Y-122372380D02*
X89714285Y-121372380D01*
X90285714Y-122372380D01*
X90285714Y-121372380D01*
X90761904Y-122372380D02*
X90761904Y-121372380D01*
X91000000Y-121372380D01*
X91142857Y-121420000D01*
X91238095Y-121515238D01*
X91285714Y-121610476D01*
X91333333Y-121800952D01*
X91333333Y-121943809D01*
X91285714Y-122134285D01*
X91238095Y-122229523D01*
X91142857Y-122324761D01*
X91000000Y-122372380D01*
X90761904Y-122372380D01*
X81235942Y-125674380D02*
X81235942Y-124674380D01*
X81616895Y-124674380D01*
X81712133Y-124722000D01*
X81759752Y-124769619D01*
X81807371Y-124864857D01*
X81807371Y-125007714D01*
X81759752Y-125102952D01*
X81712133Y-125150571D01*
X81616895Y-125198190D01*
X81235942Y-125198190D01*
X82140704Y-124674380D02*
X82378800Y-125674380D01*
X82569276Y-124960095D01*
X82759752Y-125674380D01*
X82997847Y-124674380D01*
X83950228Y-125674380D02*
X83616895Y-125198190D01*
X83378800Y-125674380D02*
X83378800Y-124674380D01*
X83759752Y-124674380D01*
X83854990Y-124722000D01*
X83902609Y-124769619D01*
X83950228Y-124864857D01*
X83950228Y-125007714D01*
X83902609Y-125102952D01*
X83854990Y-125150571D01*
X83759752Y-125198190D01*
X83378800Y-125198190D01*
X85331180Y-124674380D02*
X85521657Y-124674380D01*
X85616895Y-124722000D01*
X85712133Y-124817238D01*
X85759752Y-125007714D01*
X85759752Y-125341047D01*
X85712133Y-125531523D01*
X85616895Y-125626761D01*
X85521657Y-125674380D01*
X85331180Y-125674380D01*
X85235942Y-125626761D01*
X85140704Y-125531523D01*
X85093085Y-125341047D01*
X85093085Y-125007714D01*
X85140704Y-124817238D01*
X85235942Y-124722000D01*
X85331180Y-124674380D01*
X86188323Y-124674380D02*
X86188323Y-125483904D01*
X86235942Y-125579142D01*
X86283561Y-125626761D01*
X86378800Y-125674380D01*
X86569276Y-125674380D01*
X86664514Y-125626761D01*
X86712133Y-125579142D01*
X86759752Y-125483904D01*
X86759752Y-124674380D01*
X87093085Y-124674380D02*
X87664514Y-124674380D01*
X87378800Y-125674380D02*
X87378800Y-124674380D01*
X88809580Y-133544914D02*
X89809580Y-133211580D01*
X88809580Y-132878247D01*
X89285771Y-132211580D02*
X89333390Y-132068723D01*
X89381009Y-132021104D01*
X89476247Y-131973485D01*
X89619104Y-131973485D01*
X89714342Y-132021104D01*
X89761961Y-132068723D01*
X89809580Y-132163961D01*
X89809580Y-132544914D01*
X88809580Y-132544914D01*
X88809580Y-132211580D01*
X88857200Y-132116342D01*
X88904819Y-132068723D01*
X89000057Y-132021104D01*
X89095295Y-132021104D01*
X89190533Y-132068723D01*
X89238152Y-132116342D01*
X89285771Y-132211580D01*
X89285771Y-132544914D01*
X89523866Y-131592533D02*
X89523866Y-131116342D01*
X89809580Y-131687771D02*
X88809580Y-131354438D01*
X89809580Y-131021104D01*
X88809580Y-130830628D02*
X88809580Y-130259200D01*
X89809580Y-130544914D02*
X88809580Y-130544914D01*
X89809580Y-129163961D02*
X88809580Y-129163961D01*
X89809580Y-128687771D02*
X88809580Y-128687771D01*
X89809580Y-128116342D01*
X88809580Y-128116342D01*
X155394209Y-124607580D02*
X155394209Y-123607580D01*
X156441828Y-124512342D02*
X156394209Y-124559961D01*
X156251352Y-124607580D01*
X156156114Y-124607580D01*
X156013257Y-124559961D01*
X155918019Y-124464723D01*
X155870400Y-124369485D01*
X155822780Y-124179009D01*
X155822780Y-124036152D01*
X155870400Y-123845676D01*
X155918019Y-123750438D01*
X156013257Y-123655200D01*
X156156114Y-123607580D01*
X156251352Y-123607580D01*
X156394209Y-123655200D01*
X156441828Y-123702819D01*
X156822780Y-124559961D02*
X156965638Y-124607580D01*
X157203733Y-124607580D01*
X157298971Y-124559961D01*
X157346590Y-124512342D01*
X157394209Y-124417104D01*
X157394209Y-124321866D01*
X157346590Y-124226628D01*
X157298971Y-124179009D01*
X157203733Y-124131390D01*
X157013257Y-124083771D01*
X156918019Y-124036152D01*
X156870400Y-123988533D01*
X156822780Y-123893295D01*
X156822780Y-123798057D01*
X156870400Y-123702819D01*
X156918019Y-123655200D01*
X157013257Y-123607580D01*
X157251352Y-123607580D01*
X157394209Y-123655200D01*
X157822780Y-124607580D02*
X157822780Y-123607580D01*
X158203733Y-123607580D01*
X158298971Y-123655200D01*
X158346590Y-123702819D01*
X158394209Y-123798057D01*
X158394209Y-123940914D01*
X158346590Y-124036152D01*
X158298971Y-124083771D01*
X158203733Y-124131390D01*
X157822780Y-124131390D01*
X158007276Y-110891580D02*
X158007276Y-109891580D01*
X158388228Y-109891580D01*
X158483466Y-109939200D01*
X158531085Y-109986819D01*
X158578704Y-110082057D01*
X158578704Y-110224914D01*
X158531085Y-110320152D01*
X158483466Y-110367771D01*
X158388228Y-110415390D01*
X158007276Y-110415390D01*
X158912038Y-109891580D02*
X159150133Y-110891580D01*
X159340609Y-110177295D01*
X159531085Y-110891580D01*
X159769180Y-109891580D01*
X160150133Y-110891580D02*
X160150133Y-109891580D01*
X160483466Y-110605866D01*
X160816800Y-109891580D01*
X160816800Y-110891580D01*
X161245371Y-110843961D02*
X161340609Y-110891580D01*
X161531085Y-110891580D01*
X161626323Y-110843961D01*
X161673942Y-110748723D01*
X161673942Y-110701104D01*
X161626323Y-110605866D01*
X161531085Y-110558247D01*
X161388228Y-110558247D01*
X161292990Y-110510628D01*
X161245371Y-110415390D01*
X161245371Y-110367771D01*
X161292990Y-110272533D01*
X161388228Y-110224914D01*
X161531085Y-110224914D01*
X161626323Y-110272533D01*
X163006400Y-108605580D02*
X163006400Y-107605580D01*
X163387352Y-107605580D01*
X163482590Y-107653200D01*
X163530209Y-107700819D01*
X163577828Y-107796057D01*
X163577828Y-107938914D01*
X163530209Y-108034152D01*
X163482590Y-108081771D01*
X163387352Y-108129390D01*
X163006400Y-108129390D01*
X163911161Y-107605580D02*
X164149257Y-108605580D01*
X164339733Y-107891295D01*
X164530209Y-108605580D01*
X164768304Y-107605580D01*
X165149257Y-108605580D02*
X165149257Y-107605580D01*
X165482590Y-108319866D01*
X165815923Y-107605580D01*
X165815923Y-108605580D01*
X166292114Y-108224628D02*
X167054019Y-108224628D01*
X168054019Y-108605580D02*
X167482590Y-108605580D01*
X167768304Y-108605580D02*
X167768304Y-107605580D01*
X167673066Y-107748438D01*
X167577828Y-107843676D01*
X167482590Y-107891295D01*
X163057200Y-106167180D02*
X163057200Y-105167180D01*
X163438152Y-105167180D01*
X163533390Y-105214800D01*
X163581009Y-105262419D01*
X163628628Y-105357657D01*
X163628628Y-105500514D01*
X163581009Y-105595752D01*
X163533390Y-105643371D01*
X163438152Y-105690990D01*
X163057200Y-105690990D01*
X163961961Y-105167180D02*
X164200057Y-106167180D01*
X164390533Y-105452895D01*
X164581009Y-106167180D01*
X164819104Y-105167180D01*
X165200057Y-106167180D02*
X165200057Y-105167180D01*
X165533390Y-105881466D01*
X165866723Y-105167180D01*
X165866723Y-106167180D01*
X166342914Y-105786228D02*
X167104819Y-105786228D01*
X167533390Y-105262419D02*
X167581009Y-105214800D01*
X167676247Y-105167180D01*
X167914342Y-105167180D01*
X168009580Y-105214800D01*
X168057200Y-105262419D01*
X168104819Y-105357657D01*
X168104819Y-105452895D01*
X168057200Y-105595752D01*
X167485771Y-106167180D01*
X168104819Y-106167180D01*
X163057200Y-103627180D02*
X163057200Y-102627180D01*
X163438152Y-102627180D01*
X163533390Y-102674800D01*
X163581009Y-102722419D01*
X163628628Y-102817657D01*
X163628628Y-102960514D01*
X163581009Y-103055752D01*
X163533390Y-103103371D01*
X163438152Y-103150990D01*
X163057200Y-103150990D01*
X163961961Y-102627180D02*
X164200057Y-103627180D01*
X164390533Y-102912895D01*
X164581009Y-103627180D01*
X164819104Y-102627180D01*
X165200057Y-103627180D02*
X165200057Y-102627180D01*
X165533390Y-103341466D01*
X165866723Y-102627180D01*
X165866723Y-103627180D01*
X166342914Y-103246228D02*
X167104819Y-103246228D01*
X167485771Y-102627180D02*
X168104819Y-102627180D01*
X167771485Y-103008133D01*
X167914342Y-103008133D01*
X168009580Y-103055752D01*
X168057200Y-103103371D01*
X168104819Y-103198609D01*
X168104819Y-103436704D01*
X168057200Y-103531942D01*
X168009580Y-103579561D01*
X167914342Y-103627180D01*
X167628628Y-103627180D01*
X167533390Y-103579561D01*
X167485771Y-103531942D01*
X163108000Y-101137980D02*
X163108000Y-100137980D01*
X163488952Y-100137980D01*
X163584190Y-100185600D01*
X163631809Y-100233219D01*
X163679428Y-100328457D01*
X163679428Y-100471314D01*
X163631809Y-100566552D01*
X163584190Y-100614171D01*
X163488952Y-100661790D01*
X163108000Y-100661790D01*
X164012761Y-100137980D02*
X164250857Y-101137980D01*
X164441333Y-100423695D01*
X164631809Y-101137980D01*
X164869904Y-100137980D01*
X165250857Y-101137980D02*
X165250857Y-100137980D01*
X165584190Y-100852266D01*
X165917523Y-100137980D01*
X165917523Y-101137980D01*
X166393714Y-100757028D02*
X167155619Y-100757028D01*
X168060380Y-100471314D02*
X168060380Y-101137980D01*
X167822285Y-100090361D02*
X167584190Y-100804647D01*
X168203238Y-100804647D01*
X162953866Y-97496380D02*
X163287200Y-98496380D01*
X163620533Y-97496380D01*
X164525295Y-98401142D02*
X164477676Y-98448761D01*
X164334819Y-98496380D01*
X164239580Y-98496380D01*
X164096723Y-98448761D01*
X164001485Y-98353523D01*
X163953866Y-98258285D01*
X163906247Y-98067809D01*
X163906247Y-97924952D01*
X163953866Y-97734476D01*
X164001485Y-97639238D01*
X164096723Y-97544000D01*
X164239580Y-97496380D01*
X164334819Y-97496380D01*
X164477676Y-97544000D01*
X164525295Y-97591619D01*
X165525295Y-98401142D02*
X165477676Y-98448761D01*
X165334819Y-98496380D01*
X165239580Y-98496380D01*
X165096723Y-98448761D01*
X165001485Y-98353523D01*
X164953866Y-98258285D01*
X164906247Y-98067809D01*
X164906247Y-97924952D01*
X164953866Y-97734476D01*
X165001485Y-97639238D01*
X165096723Y-97544000D01*
X165239580Y-97496380D01*
X165334819Y-97496380D01*
X165477676Y-97544000D01*
X165525295Y-97591619D01*
X163626895Y-95004000D02*
X163531657Y-94956380D01*
X163388800Y-94956380D01*
X163245942Y-95004000D01*
X163150704Y-95099238D01*
X163103085Y-95194476D01*
X163055466Y-95384952D01*
X163055466Y-95527809D01*
X163103085Y-95718285D01*
X163150704Y-95813523D01*
X163245942Y-95908761D01*
X163388800Y-95956380D01*
X163484038Y-95956380D01*
X163626895Y-95908761D01*
X163674514Y-95861142D01*
X163674514Y-95527809D01*
X163484038Y-95527809D01*
X164103085Y-95956380D02*
X164103085Y-94956380D01*
X164674514Y-95956380D01*
X164674514Y-94956380D01*
X165150704Y-95956380D02*
X165150704Y-94956380D01*
X165388800Y-94956380D01*
X165531657Y-95004000D01*
X165626895Y-95099238D01*
X165674514Y-95194476D01*
X165722133Y-95384952D01*
X165722133Y-95527809D01*
X165674514Y-95718285D01*
X165626895Y-95813523D01*
X165531657Y-95908761D01*
X165388800Y-95956380D01*
X165150704Y-95956380D01*
X116022380Y-63031666D02*
X115546190Y-63365000D01*
X116022380Y-63603095D02*
X115022380Y-63603095D01*
X115022380Y-63222142D01*
X115070000Y-63126904D01*
X115117619Y-63079285D01*
X115212857Y-63031666D01*
X115355714Y-63031666D01*
X115450952Y-63079285D01*
X115498571Y-63126904D01*
X115546190Y-63222142D01*
X115546190Y-63603095D01*
X115022380Y-62698333D02*
X116022380Y-62031666D01*
X115022380Y-62031666D02*
X116022380Y-62698333D01*
X112406180Y-63576104D02*
X112406180Y-63004676D01*
X113406180Y-63290390D02*
X112406180Y-63290390D01*
X112406180Y-62766580D02*
X113406180Y-62099914D01*
X112406180Y-62099914D02*
X113406180Y-62766580D01*
X110018580Y-63512533D02*
X111018580Y-63179200D01*
X110018580Y-62845866D01*
X110923342Y-61941104D02*
X110970961Y-61988723D01*
X111018580Y-62131580D01*
X111018580Y-62226819D01*
X110970961Y-62369676D01*
X110875723Y-62464914D01*
X110780485Y-62512533D01*
X110590009Y-62560152D01*
X110447152Y-62560152D01*
X110256676Y-62512533D01*
X110161438Y-62464914D01*
X110066200Y-62369676D01*
X110018580Y-62226819D01*
X110018580Y-62131580D01*
X110066200Y-61988723D01*
X110113819Y-61941104D01*
X110923342Y-60941104D02*
X110970961Y-60988723D01*
X111018580Y-61131580D01*
X111018580Y-61226819D01*
X110970961Y-61369676D01*
X110875723Y-61464914D01*
X110780485Y-61512533D01*
X110590009Y-61560152D01*
X110447152Y-61560152D01*
X110256676Y-61512533D01*
X110161438Y-61464914D01*
X110066200Y-61369676D01*
X110018580Y-61226819D01*
X110018580Y-61131580D01*
X110066200Y-60988723D01*
X110113819Y-60941104D01*
X107373800Y-62991904D02*
X107326180Y-63087142D01*
X107326180Y-63230000D01*
X107373800Y-63372857D01*
X107469038Y-63468095D01*
X107564276Y-63515714D01*
X107754752Y-63563333D01*
X107897609Y-63563333D01*
X108088085Y-63515714D01*
X108183323Y-63468095D01*
X108278561Y-63372857D01*
X108326180Y-63230000D01*
X108326180Y-63134761D01*
X108278561Y-62991904D01*
X108230942Y-62944285D01*
X107897609Y-62944285D01*
X107897609Y-63134761D01*
X108326180Y-62515714D02*
X107326180Y-62515714D01*
X108326180Y-61944285D01*
X107326180Y-61944285D01*
X108326180Y-61468095D02*
X107326180Y-61468095D01*
X107326180Y-61230000D01*
X107373800Y-61087142D01*
X107469038Y-60991904D01*
X107564276Y-60944285D01*
X107754752Y-60896666D01*
X107897609Y-60896666D01*
X108088085Y-60944285D01*
X108183323Y-60991904D01*
X108278561Y-61087142D01*
X108326180Y-61230000D01*
X108326180Y-61468095D01*
X105916361Y-68857523D02*
X105963980Y-68714666D01*
X105963980Y-68476571D01*
X105916361Y-68381333D01*
X105868742Y-68333714D01*
X105773504Y-68286095D01*
X105678266Y-68286095D01*
X105583028Y-68333714D01*
X105535409Y-68381333D01*
X105487790Y-68476571D01*
X105440171Y-68667047D01*
X105392552Y-68762285D01*
X105344933Y-68809904D01*
X105249695Y-68857523D01*
X105154457Y-68857523D01*
X105059219Y-68809904D01*
X105011600Y-68762285D01*
X104963980Y-68667047D01*
X104963980Y-68428952D01*
X105011600Y-68286095D01*
X105440171Y-67857523D02*
X105440171Y-67524190D01*
X105963980Y-67381333D02*
X105963980Y-67857523D01*
X104963980Y-67857523D01*
X104963980Y-67381333D01*
X105963980Y-66381333D02*
X105487790Y-66714666D01*
X105963980Y-66952761D02*
X104963980Y-66952761D01*
X104963980Y-66571809D01*
X105011600Y-66476571D01*
X105059219Y-66428952D01*
X105154457Y-66381333D01*
X105297314Y-66381333D01*
X105392552Y-66428952D01*
X105440171Y-66476571D01*
X105487790Y-66571809D01*
X105487790Y-66952761D01*
X105963980Y-65952761D02*
X104963980Y-65952761D01*
X105678266Y-65524190D02*
X105678266Y-65048000D01*
X105963980Y-65619428D02*
X104963980Y-65286095D01*
X105963980Y-64952761D01*
X105963980Y-64143238D02*
X105963980Y-64619428D01*
X104963980Y-64619428D01*
X138663371Y-128507904D02*
X138663371Y-128174571D01*
X139187180Y-128031714D02*
X139187180Y-128507904D01*
X138187180Y-128507904D01*
X138187180Y-128031714D01*
X139091942Y-127031714D02*
X139139561Y-127079333D01*
X139187180Y-127222190D01*
X139187180Y-127317428D01*
X139139561Y-127460285D01*
X139044323Y-127555523D01*
X138949085Y-127603142D01*
X138758609Y-127650761D01*
X138615752Y-127650761D01*
X138425276Y-127603142D01*
X138330038Y-127555523D01*
X138234800Y-127460285D01*
X138187180Y-127317428D01*
X138187180Y-127222190D01*
X138234800Y-127079333D01*
X138282419Y-127031714D01*
X139187180Y-126603142D02*
X138187180Y-126603142D01*
X138663371Y-126603142D02*
X138663371Y-126031714D01*
X139187180Y-126031714D02*
X138187180Y-126031714D01*
X138187180Y-125365047D02*
X138187180Y-125174571D01*
X138234800Y-125079333D01*
X138330038Y-124984095D01*
X138520514Y-124936476D01*
X138853847Y-124936476D01*
X139044323Y-124984095D01*
X139139561Y-125079333D01*
X139187180Y-125174571D01*
X139187180Y-125365047D01*
X139139561Y-125460285D01*
X139044323Y-125555523D01*
X138853847Y-125603142D01*
X138520514Y-125603142D01*
X138330038Y-125555523D01*
X138234800Y-125460285D01*
X138187180Y-125365047D01*
X135647180Y-128066609D02*
X135647180Y-127495180D01*
X136647180Y-127780895D02*
X135647180Y-127780895D01*
X136647180Y-126590419D02*
X136170990Y-126923752D01*
X136647180Y-127161847D02*
X135647180Y-127161847D01*
X135647180Y-126780895D01*
X135694800Y-126685657D01*
X135742419Y-126638038D01*
X135837657Y-126590419D01*
X135980514Y-126590419D01*
X136075752Y-126638038D01*
X136123371Y-126685657D01*
X136170990Y-126780895D01*
X136170990Y-127161847D01*
X136647180Y-126161847D02*
X135647180Y-126161847D01*
X135694800Y-125161847D02*
X135647180Y-125257085D01*
X135647180Y-125399942D01*
X135694800Y-125542800D01*
X135790038Y-125638038D01*
X135885276Y-125685657D01*
X136075752Y-125733276D01*
X136218609Y-125733276D01*
X136409085Y-125685657D01*
X136504323Y-125638038D01*
X136599561Y-125542800D01*
X136647180Y-125399942D01*
X136647180Y-125304704D01*
X136599561Y-125161847D01*
X136551942Y-125114228D01*
X136218609Y-125114228D01*
X136218609Y-125304704D01*
X140625580Y-127825333D02*
X141625580Y-127492000D01*
X140625580Y-127158666D01*
X141530342Y-126253904D02*
X141577961Y-126301523D01*
X141625580Y-126444380D01*
X141625580Y-126539619D01*
X141577961Y-126682476D01*
X141482723Y-126777714D01*
X141387485Y-126825333D01*
X141197009Y-126872952D01*
X141054152Y-126872952D01*
X140863676Y-126825333D01*
X140768438Y-126777714D01*
X140673200Y-126682476D01*
X140625580Y-126539619D01*
X140625580Y-126444380D01*
X140673200Y-126301523D01*
X140720819Y-126253904D01*
X141530342Y-125253904D02*
X141577961Y-125301523D01*
X141625580Y-125444380D01*
X141625580Y-125539619D01*
X141577961Y-125682476D01*
X141482723Y-125777714D01*
X141387485Y-125825333D01*
X141197009Y-125872952D01*
X141054152Y-125872952D01*
X140863676Y-125825333D01*
X140768438Y-125777714D01*
X140673200Y-125682476D01*
X140625580Y-125539619D01*
X140625580Y-125444380D01*
X140673200Y-125301523D01*
X140720819Y-125253904D01*
X143264000Y-127152304D02*
X143216380Y-127247542D01*
X143216380Y-127390400D01*
X143264000Y-127533257D01*
X143359238Y-127628495D01*
X143454476Y-127676114D01*
X143644952Y-127723733D01*
X143787809Y-127723733D01*
X143978285Y-127676114D01*
X144073523Y-127628495D01*
X144168761Y-127533257D01*
X144216380Y-127390400D01*
X144216380Y-127295161D01*
X144168761Y-127152304D01*
X144121142Y-127104685D01*
X143787809Y-127104685D01*
X143787809Y-127295161D01*
X144216380Y-126676114D02*
X143216380Y-126676114D01*
X144216380Y-126104685D01*
X143216380Y-126104685D01*
X144216380Y-125628495D02*
X143216380Y-125628495D01*
X143216380Y-125390400D01*
X143264000Y-125247542D01*
X143359238Y-125152304D01*
X143454476Y-125104685D01*
X143644952Y-125057066D01*
X143787809Y-125057066D01*
X143978285Y-125104685D01*
X144073523Y-125152304D01*
X144168761Y-125247542D01*
X144216380Y-125390400D01*
X144216380Y-125628495D01*
X136134980Y-117308380D02*
X136134980Y-118117904D01*
X136182600Y-118213142D01*
X136230219Y-118260761D01*
X136325457Y-118308380D01*
X136515933Y-118308380D01*
X136611171Y-118260761D01*
X136658790Y-118213142D01*
X136706409Y-118117904D01*
X136706409Y-117308380D01*
X137658790Y-118308380D02*
X137182600Y-118308380D01*
X137182600Y-117308380D01*
X137849266Y-117308380D02*
X138420695Y-117308380D01*
X138134980Y-118308380D02*
X138134980Y-117308380D01*
X139325457Y-118308380D02*
X138992123Y-117832190D01*
X138754028Y-118308380D02*
X138754028Y-117308380D01*
X139134980Y-117308380D01*
X139230219Y-117356000D01*
X139277838Y-117403619D01*
X139325457Y-117498857D01*
X139325457Y-117641714D01*
X139277838Y-117736952D01*
X139230219Y-117784571D01*
X139134980Y-117832190D01*
X138754028Y-117832190D01*
X139706409Y-118022666D02*
X140182600Y-118022666D01*
X139611171Y-118308380D02*
X139944504Y-117308380D01*
X140277838Y-118308380D01*
X140563552Y-118260761D02*
X140706409Y-118308380D01*
X140944504Y-118308380D01*
X141039742Y-118260761D01*
X141087361Y-118213142D01*
X141134980Y-118117904D01*
X141134980Y-118022666D01*
X141087361Y-117927428D01*
X141039742Y-117879809D01*
X140944504Y-117832190D01*
X140754028Y-117784571D01*
X140658790Y-117736952D01*
X140611171Y-117689333D01*
X140563552Y-117594095D01*
X140563552Y-117498857D01*
X140611171Y-117403619D01*
X140658790Y-117356000D01*
X140754028Y-117308380D01*
X140992123Y-117308380D01*
X141134980Y-117356000D01*
X141515933Y-118260761D02*
X141658790Y-118308380D01*
X141896885Y-118308380D01*
X141992123Y-118260761D01*
X142039742Y-118213142D01*
X142087361Y-118117904D01*
X142087361Y-118022666D01*
X142039742Y-117927428D01*
X141992123Y-117879809D01*
X141896885Y-117832190D01*
X141706409Y-117784571D01*
X141611171Y-117736952D01*
X141563552Y-117689333D01*
X141515933Y-117594095D01*
X141515933Y-117498857D01*
X141563552Y-117403619D01*
X141611171Y-117356000D01*
X141706409Y-117308380D01*
X141944504Y-117308380D01*
X142087361Y-117356000D01*
X142706409Y-117308380D02*
X142896885Y-117308380D01*
X142992123Y-117356000D01*
X143087361Y-117451238D01*
X143134980Y-117641714D01*
X143134980Y-117975047D01*
X143087361Y-118165523D01*
X142992123Y-118260761D01*
X142896885Y-118308380D01*
X142706409Y-118308380D01*
X142611171Y-118260761D01*
X142515933Y-118165523D01*
X142468314Y-117975047D01*
X142468314Y-117641714D01*
X142515933Y-117451238D01*
X142611171Y-117356000D01*
X142706409Y-117308380D01*
X143563552Y-118308380D02*
X143563552Y-117308380D01*
X143896885Y-118022666D01*
X144230219Y-117308380D01*
X144230219Y-118308380D01*
X153531866Y-62857142D02*
X153531866Y-62380952D01*
X153817580Y-62952380D02*
X152817580Y-62619047D01*
X153817580Y-62285714D01*
X153817580Y-61952380D02*
X152817580Y-61952380D01*
X153817580Y-61380952D01*
X152817580Y-61380952D01*
X153436628Y-60904761D02*
X153436628Y-60142857D01*
X153150914Y-59238095D02*
X153817580Y-59238095D01*
X152769961Y-59476190D02*
X153484247Y-59714285D01*
X153484247Y-59095238D01*
X156122666Y-62857142D02*
X156122666Y-62380952D01*
X156408380Y-62952380D02*
X155408380Y-62619047D01*
X156408380Y-62285714D01*
X156408380Y-61952380D02*
X155408380Y-61952380D01*
X156408380Y-61380952D01*
X155408380Y-61380952D01*
X156027428Y-60904761D02*
X156027428Y-60142857D01*
X155408380Y-59761904D02*
X155408380Y-59142857D01*
X155789333Y-59476190D01*
X155789333Y-59333333D01*
X155836952Y-59238095D01*
X155884571Y-59190476D01*
X155979809Y-59142857D01*
X156217904Y-59142857D01*
X156313142Y-59190476D01*
X156360761Y-59238095D01*
X156408380Y-59333333D01*
X156408380Y-59619047D01*
X156360761Y-59714285D01*
X156313142Y-59761904D01*
X158662666Y-62857142D02*
X158662666Y-62380952D01*
X158948380Y-62952380D02*
X157948380Y-62619047D01*
X158948380Y-62285714D01*
X158948380Y-61952380D02*
X157948380Y-61952380D01*
X158948380Y-61380952D01*
X157948380Y-61380952D01*
X158567428Y-60904761D02*
X158567428Y-60142857D01*
X158043619Y-59714285D02*
X157996000Y-59666666D01*
X157948380Y-59571428D01*
X157948380Y-59333333D01*
X157996000Y-59238095D01*
X158043619Y-59190476D01*
X158138857Y-59142857D01*
X158234095Y-59142857D01*
X158376952Y-59190476D01*
X158948380Y-59761904D01*
X158948380Y-59142857D01*
X161075666Y-62857142D02*
X161075666Y-62380952D01*
X161361380Y-62952380D02*
X160361380Y-62619047D01*
X161361380Y-62285714D01*
X161361380Y-61952380D02*
X160361380Y-61952380D01*
X161361380Y-61380952D01*
X160361380Y-61380952D01*
X160980428Y-60904761D02*
X160980428Y-60142857D01*
X161361380Y-59142857D02*
X161361380Y-59714285D01*
X161361380Y-59428571D02*
X160361380Y-59428571D01*
X160504238Y-59523809D01*
X160599476Y-59619047D01*
X160647095Y-59714285D01*
X150328380Y-62333333D02*
X151328380Y-62000000D01*
X150328380Y-61666666D01*
X151233142Y-60761904D02*
X151280761Y-60809523D01*
X151328380Y-60952380D01*
X151328380Y-61047619D01*
X151280761Y-61190476D01*
X151185523Y-61285714D01*
X151090285Y-61333333D01*
X150899809Y-61380952D01*
X150756952Y-61380952D01*
X150566476Y-61333333D01*
X150471238Y-61285714D01*
X150376000Y-61190476D01*
X150328380Y-61047619D01*
X150328380Y-60952380D01*
X150376000Y-60809523D01*
X150423619Y-60761904D01*
X151233142Y-59761904D02*
X151280761Y-59809523D01*
X151328380Y-59952380D01*
X151328380Y-60047619D01*
X151280761Y-60190476D01*
X151185523Y-60285714D01*
X151090285Y-60333333D01*
X150899809Y-60380952D01*
X150756952Y-60380952D01*
X150566476Y-60333333D01*
X150471238Y-60285714D01*
X150376000Y-60190476D01*
X150328380Y-60047619D01*
X150328380Y-59952380D01*
X150376000Y-59809523D01*
X150423619Y-59761904D01*
X147734400Y-61761904D02*
X147686780Y-61857142D01*
X147686780Y-62000000D01*
X147734400Y-62142857D01*
X147829638Y-62238095D01*
X147924876Y-62285714D01*
X148115352Y-62333333D01*
X148258209Y-62333333D01*
X148448685Y-62285714D01*
X148543923Y-62238095D01*
X148639161Y-62142857D01*
X148686780Y-62000000D01*
X148686780Y-61904761D01*
X148639161Y-61761904D01*
X148591542Y-61714285D01*
X148258209Y-61714285D01*
X148258209Y-61904761D01*
X148686780Y-61285714D02*
X147686780Y-61285714D01*
X148686780Y-60714285D01*
X147686780Y-60714285D01*
X148686780Y-60238095D02*
X147686780Y-60238095D01*
X147686780Y-60000000D01*
X147734400Y-59857142D01*
X147829638Y-59761904D01*
X147924876Y-59714285D01*
X148115352Y-59666666D01*
X148258209Y-59666666D01*
X148448685Y-59714285D01*
X148543923Y-59761904D01*
X148639161Y-59857142D01*
X148686780Y-60000000D01*
X148686780Y-60238095D01*
X163336266Y-69167047D02*
X163336266Y-68690857D01*
X163621980Y-69262285D02*
X162621980Y-68928952D01*
X163621980Y-68595619D01*
X163621980Y-68262285D02*
X162621980Y-68262285D01*
X163621980Y-67690857D01*
X162621980Y-67690857D01*
X163336266Y-67262285D02*
X163336266Y-66786095D01*
X163621980Y-67357523D02*
X162621980Y-67024190D01*
X163621980Y-66690857D01*
X163621980Y-65881333D02*
X163621980Y-66357523D01*
X162621980Y-66357523D01*
X162621980Y-65357523D02*
X162621980Y-65167047D01*
X162669600Y-65071809D01*
X162764838Y-64976571D01*
X162955314Y-64928952D01*
X163288647Y-64928952D01*
X163479123Y-64976571D01*
X163574361Y-65071809D01*
X163621980Y-65167047D01*
X163621980Y-65357523D01*
X163574361Y-65452761D01*
X163479123Y-65548000D01*
X163288647Y-65595619D01*
X162955314Y-65595619D01*
X162764838Y-65548000D01*
X162669600Y-65452761D01*
X162621980Y-65357523D01*
X162669600Y-63976571D02*
X162621980Y-64071809D01*
X162621980Y-64214666D01*
X162669600Y-64357523D01*
X162764838Y-64452761D01*
X162860076Y-64500380D01*
X163050552Y-64548000D01*
X163193409Y-64548000D01*
X163383885Y-64500380D01*
X163479123Y-64452761D01*
X163574361Y-64357523D01*
X163621980Y-64214666D01*
X163621980Y-64119428D01*
X163574361Y-63976571D01*
X163526742Y-63928952D01*
X163193409Y-63928952D01*
X163193409Y-64119428D01*
X95046942Y-80868780D02*
X95046942Y-79868780D01*
X95523133Y-80868780D02*
X95523133Y-79868780D01*
X96094561Y-80868780D01*
X96094561Y-79868780D01*
X96570752Y-80868780D02*
X96570752Y-79868780D01*
X96904085Y-79868780D02*
X97475514Y-79868780D01*
X97189800Y-80868780D02*
X97189800Y-79868780D01*
X92646809Y-90828761D02*
X92789666Y-90876380D01*
X93027761Y-90876380D01*
X93123000Y-90828761D01*
X93170619Y-90781142D01*
X93218238Y-90685904D01*
X93218238Y-90590666D01*
X93170619Y-90495428D01*
X93123000Y-90447809D01*
X93027761Y-90400190D01*
X92837285Y-90352571D01*
X92742047Y-90304952D01*
X92694428Y-90257333D01*
X92646809Y-90162095D01*
X92646809Y-90066857D01*
X92694428Y-89971619D01*
X92742047Y-89924000D01*
X92837285Y-89876380D01*
X93075380Y-89876380D01*
X93218238Y-89924000D01*
X93503952Y-89876380D02*
X94075380Y-89876380D01*
X93789666Y-90876380D02*
X93789666Y-89876380D01*
X94361095Y-90590666D02*
X94837285Y-90590666D01*
X94265857Y-90876380D02*
X94599190Y-89876380D01*
X94932523Y-90876380D01*
X95123000Y-89876380D02*
X95694428Y-89876380D01*
X95408714Y-90876380D02*
X95408714Y-89876380D01*
X96027761Y-89876380D02*
X96027761Y-90685904D01*
X96075380Y-90781142D01*
X96123000Y-90828761D01*
X96218238Y-90876380D01*
X96408714Y-90876380D01*
X96503952Y-90828761D01*
X96551571Y-90781142D01*
X96599190Y-90685904D01*
X96599190Y-89876380D01*
X97027761Y-90828761D02*
X97170619Y-90876380D01*
X97408714Y-90876380D01*
X97503952Y-90828761D01*
X97551571Y-90781142D01*
X97599190Y-90685904D01*
X97599190Y-90590666D01*
X97551571Y-90495428D01*
X97503952Y-90447809D01*
X97408714Y-90400190D01*
X97218238Y-90352571D01*
X97123000Y-90304952D01*
X97075380Y-90257333D01*
X97027761Y-90162095D01*
X97027761Y-90066857D01*
X97075380Y-89971619D01*
X97123000Y-89924000D01*
X97218238Y-89876380D01*
X97456333Y-89876380D01*
X97599190Y-89924000D01*
X124734819Y-63139580D02*
X124401485Y-62663390D01*
X124163390Y-63139580D02*
X124163390Y-62139580D01*
X124544342Y-62139580D01*
X124639580Y-62187200D01*
X124687200Y-62234819D01*
X124734819Y-62330057D01*
X124734819Y-62472914D01*
X124687200Y-62568152D01*
X124639580Y-62615771D01*
X124544342Y-62663390D01*
X124163390Y-62663390D01*
X125163390Y-62615771D02*
X125496723Y-62615771D01*
X125639580Y-63139580D02*
X125163390Y-63139580D01*
X125163390Y-62139580D01*
X125639580Y-62139580D01*
X126020533Y-63091961D02*
X126163390Y-63139580D01*
X126401485Y-63139580D01*
X126496723Y-63091961D01*
X126544342Y-63044342D01*
X126591961Y-62949104D01*
X126591961Y-62853866D01*
X126544342Y-62758628D01*
X126496723Y-62711009D01*
X126401485Y-62663390D01*
X126211009Y-62615771D01*
X126115771Y-62568152D01*
X126068152Y-62520533D01*
X126020533Y-62425295D01*
X126020533Y-62330057D01*
X126068152Y-62234819D01*
X126115771Y-62187200D01*
X126211009Y-62139580D01*
X126449104Y-62139580D01*
X126591961Y-62187200D01*
X127020533Y-62615771D02*
X127353866Y-62615771D01*
X127496723Y-63139580D02*
X127020533Y-63139580D01*
X127020533Y-62139580D01*
X127496723Y-62139580D01*
X127782438Y-62139580D02*
X128353866Y-62139580D01*
X128068152Y-63139580D02*
X128068152Y-62139580D01*
X119283409Y-121410361D02*
X119426266Y-121457980D01*
X119664361Y-121457980D01*
X119759600Y-121410361D01*
X119807219Y-121362742D01*
X119854838Y-121267504D01*
X119854838Y-121172266D01*
X119807219Y-121077028D01*
X119759600Y-121029409D01*
X119664361Y-120981790D01*
X119473885Y-120934171D01*
X119378647Y-120886552D01*
X119331028Y-120838933D01*
X119283409Y-120743695D01*
X119283409Y-120648457D01*
X119331028Y-120553219D01*
X119378647Y-120505600D01*
X119473885Y-120457980D01*
X119711980Y-120457980D01*
X119854838Y-120505600D01*
X120140552Y-120457980D02*
X120711980Y-120457980D01*
X120426266Y-121457980D02*
X120426266Y-120457980D01*
X120997695Y-121172266D02*
X121473885Y-121172266D01*
X120902457Y-121457980D02*
X121235790Y-120457980D01*
X121569123Y-121457980D01*
X122473885Y-121457980D02*
X122140552Y-120981790D01*
X121902457Y-121457980D02*
X121902457Y-120457980D01*
X122283409Y-120457980D01*
X122378647Y-120505600D01*
X122426266Y-120553219D01*
X122473885Y-120648457D01*
X122473885Y-120791314D01*
X122426266Y-120886552D01*
X122378647Y-120934171D01*
X122283409Y-120981790D01*
X121902457Y-120981790D01*
X122759600Y-120457980D02*
X123331028Y-120457980D01*
X123045314Y-121457980D02*
X123045314Y-120457980D01*
D11*
G04 #@! TO.C,C1*
X147022800Y-95455200D02*
X147022800Y-91935200D01*
X149242800Y-95455200D02*
X149242800Y-91935200D01*
X147022800Y-95455200D02*
X147136800Y-95455200D01*
X149128800Y-95455200D02*
X149242800Y-95455200D01*
X147022800Y-91935200D02*
X147136800Y-91935200D01*
X149128800Y-91935200D02*
X149242800Y-91935200D01*
G04 #@! TO.C,C2*
X152000800Y-95738000D02*
X152900800Y-95738000D01*
X152450800Y-96188000D02*
X152450800Y-95288000D01*
X152285800Y-91407000D02*
X152615800Y-91407000D01*
X152035800Y-91447000D02*
X152865800Y-91447000D01*
X151883800Y-91487000D02*
X153017800Y-91487000D01*
X151764800Y-91527000D02*
X153136800Y-91527000D01*
X151664800Y-91567000D02*
X153236800Y-91567000D01*
X151576800Y-91607000D02*
X153324800Y-91607000D01*
X151498800Y-91647000D02*
X153402800Y-91647000D01*
X151427800Y-91687000D02*
X153473800Y-91687000D01*
X153230800Y-91727000D02*
X153538800Y-91727000D01*
X151362800Y-91727000D02*
X151670800Y-91727000D01*
X153230800Y-91767000D02*
X153598800Y-91767000D01*
X151302800Y-91767000D02*
X151670800Y-91767000D01*
X153230800Y-91807000D02*
X153654800Y-91807000D01*
X151246800Y-91807000D02*
X151670800Y-91807000D01*
X153230800Y-91847000D02*
X153706800Y-91847000D01*
X151194800Y-91847000D02*
X151670800Y-91847000D01*
X153230800Y-91887000D02*
X153755800Y-91887000D01*
X151145800Y-91887000D02*
X151670800Y-91887000D01*
X153230800Y-91927000D02*
X153801800Y-91927000D01*
X151099800Y-91927000D02*
X151670800Y-91927000D01*
X153230800Y-91967000D02*
X153845800Y-91967000D01*
X151055800Y-91967000D02*
X151670800Y-91967000D01*
X153230800Y-92007000D02*
X153886800Y-92007000D01*
X151014800Y-92007000D02*
X151670800Y-92007000D01*
X153230800Y-92047000D02*
X153925800Y-92047000D01*
X150975800Y-92047000D02*
X151670800Y-92047000D01*
X153230800Y-92087000D02*
X153962800Y-92087000D01*
X150938800Y-92087000D02*
X151670800Y-92087000D01*
X153230800Y-92127000D02*
X153997800Y-92127000D01*
X150903800Y-92127000D02*
X151670800Y-92127000D01*
X153230800Y-92167000D02*
X154031800Y-92167000D01*
X150869800Y-92167000D02*
X151670800Y-92167000D01*
X153230800Y-92207000D02*
X154063800Y-92207000D01*
X150837800Y-92207000D02*
X151670800Y-92207000D01*
X153230800Y-92247000D02*
X154093800Y-92247000D01*
X150807800Y-92247000D02*
X151670800Y-92247000D01*
X153230800Y-92287000D02*
X154122800Y-92287000D01*
X150778800Y-92287000D02*
X151670800Y-92287000D01*
X153230800Y-92327000D02*
X154149800Y-92327000D01*
X150751800Y-92327000D02*
X151670800Y-92327000D01*
X153230800Y-92367000D02*
X154175800Y-92367000D01*
X150725800Y-92367000D02*
X151670800Y-92367000D01*
X153230800Y-92407000D02*
X154200800Y-92407000D01*
X150700800Y-92407000D02*
X151670800Y-92407000D01*
X153230800Y-92447000D02*
X154223800Y-92447000D01*
X150677800Y-92447000D02*
X151670800Y-92447000D01*
X153230800Y-92487000D02*
X154246800Y-92487000D01*
X150654800Y-92487000D02*
X151670800Y-92487000D01*
X153230800Y-92527000D02*
X154267800Y-92527000D01*
X150633800Y-92527000D02*
X151670800Y-92527000D01*
X153230800Y-92567000D02*
X154287800Y-92567000D01*
X150613800Y-92567000D02*
X151670800Y-92567000D01*
X153230800Y-92607000D02*
X154306800Y-92607000D01*
X150594800Y-92607000D02*
X151670800Y-92607000D01*
X153230800Y-92647000D02*
X154324800Y-92647000D01*
X150576800Y-92647000D02*
X151670800Y-92647000D01*
X153230800Y-92687000D02*
X154341800Y-92687000D01*
X150559800Y-92687000D02*
X151670800Y-92687000D01*
X153230800Y-92727000D02*
X154357800Y-92727000D01*
X150543800Y-92727000D02*
X151670800Y-92727000D01*
X153230800Y-92767000D02*
X154373800Y-92767000D01*
X150527800Y-92767000D02*
X151670800Y-92767000D01*
X153230800Y-92808000D02*
X154387800Y-92808000D01*
X150513800Y-92808000D02*
X151670800Y-92808000D01*
X153230800Y-92848000D02*
X154400800Y-92848000D01*
X150500800Y-92848000D02*
X151670800Y-92848000D01*
X153230800Y-92888000D02*
X154413800Y-92888000D01*
X150487800Y-92888000D02*
X151670800Y-92888000D01*
X153230800Y-92928000D02*
X154424800Y-92928000D01*
X150476800Y-92928000D02*
X151670800Y-92928000D01*
X153230800Y-92968000D02*
X154435800Y-92968000D01*
X150465800Y-92968000D02*
X151670800Y-92968000D01*
X153230800Y-93008000D02*
X154445800Y-93008000D01*
X150455800Y-93008000D02*
X151670800Y-93008000D01*
X153230800Y-93048000D02*
X154454800Y-93048000D01*
X150446800Y-93048000D02*
X151670800Y-93048000D01*
X153230800Y-93088000D02*
X154462800Y-93088000D01*
X150438800Y-93088000D02*
X151670800Y-93088000D01*
X153230800Y-93128000D02*
X154469800Y-93128000D01*
X150431800Y-93128000D02*
X151670800Y-93128000D01*
X153230800Y-93168000D02*
X154476800Y-93168000D01*
X150424800Y-93168000D02*
X151670800Y-93168000D01*
X153230800Y-93208000D02*
X154482800Y-93208000D01*
X150418800Y-93208000D02*
X151670800Y-93208000D01*
X153230800Y-93248000D02*
X154487800Y-93248000D01*
X150413800Y-93248000D02*
X151670800Y-93248000D01*
X150409800Y-93288000D02*
X154491800Y-93288000D01*
X150406800Y-93328000D02*
X154494800Y-93328000D01*
X150403800Y-93368000D02*
X154497800Y-93368000D01*
X150401800Y-93408000D02*
X154499800Y-93408000D01*
X150400800Y-93448000D02*
X154500800Y-93448000D01*
X150400800Y-93488000D02*
X154500800Y-93488000D01*
X153429970Y-91641564D02*
G75*
G03X151470800Y-91642004I-979170J-1846436D01*
G01*
X153429970Y-91641564D02*
G75*
G02X153430800Y-95333996I-979170J-1846436D01*
G01*
X151471630Y-91641564D02*
G75*
G03X151470800Y-95333996I979170J-1846436D01*
G01*
G04 #@! TO.C,C3*
X163140400Y-87199600D02*
X163026400Y-87199600D01*
X165246400Y-87199600D02*
X165132400Y-87199600D01*
X163140400Y-83679600D02*
X163026400Y-83679600D01*
X165246400Y-83679600D02*
X165132400Y-83679600D01*
X163026400Y-83679600D02*
X163026400Y-87199600D01*
X165246400Y-83679600D02*
X165246400Y-87199600D01*
G04 #@! TO.C,C4*
X136875500Y-115622800D02*
X136875500Y-112102800D01*
X139095500Y-115622800D02*
X139095500Y-112102800D01*
X136875500Y-115622800D02*
X136989500Y-115622800D01*
X138981500Y-115622800D02*
X139095500Y-115622800D01*
X136875500Y-112102800D02*
X136989500Y-112102800D01*
X138981500Y-112102800D02*
X139095500Y-112102800D01*
G04 #@! TO.C,C5*
X144451436Y-112939830D02*
G75*
G03X140759004Y-112939000I-1846436J-979170D01*
G01*
X144451436Y-114898170D02*
G75*
G02X140759004Y-114899000I-1846436J979170D01*
G01*
X144451436Y-114898170D02*
G75*
G03X144450996Y-112939000I-1846436J979170D01*
G01*
X142605000Y-111869000D02*
X142605000Y-115969000D01*
X142645000Y-111869000D02*
X142645000Y-115969000D01*
X142685000Y-111870000D02*
X142685000Y-115968000D01*
X142725000Y-111872000D02*
X142725000Y-115966000D01*
X142765000Y-111875000D02*
X142765000Y-115963000D01*
X142805000Y-111878000D02*
X142805000Y-115960000D01*
X142845000Y-111882000D02*
X142845000Y-113139000D01*
X142845000Y-114699000D02*
X142845000Y-115956000D01*
X142885000Y-111887000D02*
X142885000Y-113139000D01*
X142885000Y-114699000D02*
X142885000Y-115951000D01*
X142925000Y-111893000D02*
X142925000Y-113139000D01*
X142925000Y-114699000D02*
X142925000Y-115945000D01*
X142965000Y-111900000D02*
X142965000Y-113139000D01*
X142965000Y-114699000D02*
X142965000Y-115938000D01*
X143005000Y-111907000D02*
X143005000Y-113139000D01*
X143005000Y-114699000D02*
X143005000Y-115931000D01*
X143045000Y-111915000D02*
X143045000Y-113139000D01*
X143045000Y-114699000D02*
X143045000Y-115923000D01*
X143085000Y-111924000D02*
X143085000Y-113139000D01*
X143085000Y-114699000D02*
X143085000Y-115914000D01*
X143125000Y-111934000D02*
X143125000Y-113139000D01*
X143125000Y-114699000D02*
X143125000Y-115904000D01*
X143165000Y-111945000D02*
X143165000Y-113139000D01*
X143165000Y-114699000D02*
X143165000Y-115893000D01*
X143205000Y-111956000D02*
X143205000Y-113139000D01*
X143205000Y-114699000D02*
X143205000Y-115882000D01*
X143245000Y-111969000D02*
X143245000Y-113139000D01*
X143245000Y-114699000D02*
X143245000Y-115869000D01*
X143285000Y-111982000D02*
X143285000Y-113139000D01*
X143285000Y-114699000D02*
X143285000Y-115856000D01*
X143326000Y-111996000D02*
X143326000Y-113139000D01*
X143326000Y-114699000D02*
X143326000Y-115842000D01*
X143366000Y-112012000D02*
X143366000Y-113139000D01*
X143366000Y-114699000D02*
X143366000Y-115826000D01*
X143406000Y-112028000D02*
X143406000Y-113139000D01*
X143406000Y-114699000D02*
X143406000Y-115810000D01*
X143446000Y-112045000D02*
X143446000Y-113139000D01*
X143446000Y-114699000D02*
X143446000Y-115793000D01*
X143486000Y-112063000D02*
X143486000Y-113139000D01*
X143486000Y-114699000D02*
X143486000Y-115775000D01*
X143526000Y-112082000D02*
X143526000Y-113139000D01*
X143526000Y-114699000D02*
X143526000Y-115756000D01*
X143566000Y-112102000D02*
X143566000Y-113139000D01*
X143566000Y-114699000D02*
X143566000Y-115736000D01*
X143606000Y-112123000D02*
X143606000Y-113139000D01*
X143606000Y-114699000D02*
X143606000Y-115715000D01*
X143646000Y-112146000D02*
X143646000Y-113139000D01*
X143646000Y-114699000D02*
X143646000Y-115692000D01*
X143686000Y-112169000D02*
X143686000Y-113139000D01*
X143686000Y-114699000D02*
X143686000Y-115669000D01*
X143726000Y-112194000D02*
X143726000Y-113139000D01*
X143726000Y-114699000D02*
X143726000Y-115644000D01*
X143766000Y-112220000D02*
X143766000Y-113139000D01*
X143766000Y-114699000D02*
X143766000Y-115618000D01*
X143806000Y-112247000D02*
X143806000Y-113139000D01*
X143806000Y-114699000D02*
X143806000Y-115591000D01*
X143846000Y-112276000D02*
X143846000Y-113139000D01*
X143846000Y-114699000D02*
X143846000Y-115562000D01*
X143886000Y-112306000D02*
X143886000Y-113139000D01*
X143886000Y-114699000D02*
X143886000Y-115532000D01*
X143926000Y-112338000D02*
X143926000Y-113139000D01*
X143926000Y-114699000D02*
X143926000Y-115500000D01*
X143966000Y-112372000D02*
X143966000Y-113139000D01*
X143966000Y-114699000D02*
X143966000Y-115466000D01*
X144006000Y-112407000D02*
X144006000Y-113139000D01*
X144006000Y-114699000D02*
X144006000Y-115431000D01*
X144046000Y-112444000D02*
X144046000Y-113139000D01*
X144046000Y-114699000D02*
X144046000Y-115394000D01*
X144086000Y-112483000D02*
X144086000Y-113139000D01*
X144086000Y-114699000D02*
X144086000Y-115355000D01*
X144126000Y-112524000D02*
X144126000Y-113139000D01*
X144126000Y-114699000D02*
X144126000Y-115314000D01*
X144166000Y-112568000D02*
X144166000Y-113139000D01*
X144166000Y-114699000D02*
X144166000Y-115270000D01*
X144206000Y-112614000D02*
X144206000Y-113139000D01*
X144206000Y-114699000D02*
X144206000Y-115224000D01*
X144246000Y-112663000D02*
X144246000Y-113139000D01*
X144246000Y-114699000D02*
X144246000Y-115175000D01*
X144286000Y-112715000D02*
X144286000Y-113139000D01*
X144286000Y-114699000D02*
X144286000Y-115123000D01*
X144326000Y-112771000D02*
X144326000Y-113139000D01*
X144326000Y-114699000D02*
X144326000Y-115067000D01*
X144366000Y-112831000D02*
X144366000Y-113139000D01*
X144366000Y-114699000D02*
X144366000Y-115007000D01*
X144406000Y-112896000D02*
X144406000Y-114942000D01*
X144446000Y-112967000D02*
X144446000Y-114871000D01*
X144486000Y-113045000D02*
X144486000Y-114793000D01*
X144526000Y-113133000D02*
X144526000Y-114705000D01*
X144566000Y-113233000D02*
X144566000Y-114605000D01*
X144606000Y-113352000D02*
X144606000Y-114486000D01*
X144646000Y-113504000D02*
X144646000Y-114334000D01*
X144686000Y-113754000D02*
X144686000Y-114084000D01*
X139905000Y-113919000D02*
X140805000Y-113919000D01*
X140355000Y-113469000D02*
X140355000Y-114369000D01*
G04 #@! TO.C,C6*
X143580800Y-69050000D02*
X143466800Y-69050000D01*
X145686800Y-69050000D02*
X145572800Y-69050000D01*
X143580800Y-65530000D02*
X143466800Y-65530000D01*
X145686800Y-65530000D02*
X145572800Y-65530000D01*
X143466800Y-65530000D02*
X143466800Y-69050000D01*
X145686800Y-65530000D02*
X145686800Y-69050000D01*
G04 #@! TO.C,C7*
X141898370Y-69292836D02*
G75*
G03X141899200Y-65600404I-979170J1846436D01*
G01*
X139940030Y-69292836D02*
G75*
G02X139939200Y-65600404I979170J1846436D01*
G01*
X139940030Y-69292836D02*
G75*
G03X141899200Y-69292396I979170J1846436D01*
G01*
X142969200Y-67446400D02*
X138869200Y-67446400D01*
X142969200Y-67486400D02*
X138869200Y-67486400D01*
X142968200Y-67526400D02*
X138870200Y-67526400D01*
X142966200Y-67566400D02*
X138872200Y-67566400D01*
X142963200Y-67606400D02*
X138875200Y-67606400D01*
X142960200Y-67646400D02*
X138878200Y-67646400D01*
X142956200Y-67686400D02*
X141699200Y-67686400D01*
X140139200Y-67686400D02*
X138882200Y-67686400D01*
X142951200Y-67726400D02*
X141699200Y-67726400D01*
X140139200Y-67726400D02*
X138887200Y-67726400D01*
X142945200Y-67766400D02*
X141699200Y-67766400D01*
X140139200Y-67766400D02*
X138893200Y-67766400D01*
X142938200Y-67806400D02*
X141699200Y-67806400D01*
X140139200Y-67806400D02*
X138900200Y-67806400D01*
X142931200Y-67846400D02*
X141699200Y-67846400D01*
X140139200Y-67846400D02*
X138907200Y-67846400D01*
X142923200Y-67886400D02*
X141699200Y-67886400D01*
X140139200Y-67886400D02*
X138915200Y-67886400D01*
X142914200Y-67926400D02*
X141699200Y-67926400D01*
X140139200Y-67926400D02*
X138924200Y-67926400D01*
X142904200Y-67966400D02*
X141699200Y-67966400D01*
X140139200Y-67966400D02*
X138934200Y-67966400D01*
X142893200Y-68006400D02*
X141699200Y-68006400D01*
X140139200Y-68006400D02*
X138945200Y-68006400D01*
X142882200Y-68046400D02*
X141699200Y-68046400D01*
X140139200Y-68046400D02*
X138956200Y-68046400D01*
X142869200Y-68086400D02*
X141699200Y-68086400D01*
X140139200Y-68086400D02*
X138969200Y-68086400D01*
X142856200Y-68126400D02*
X141699200Y-68126400D01*
X140139200Y-68126400D02*
X138982200Y-68126400D01*
X142842200Y-68167400D02*
X141699200Y-68167400D01*
X140139200Y-68167400D02*
X138996200Y-68167400D01*
X142826200Y-68207400D02*
X141699200Y-68207400D01*
X140139200Y-68207400D02*
X139012200Y-68207400D01*
X142810200Y-68247400D02*
X141699200Y-68247400D01*
X140139200Y-68247400D02*
X139028200Y-68247400D01*
X142793200Y-68287400D02*
X141699200Y-68287400D01*
X140139200Y-68287400D02*
X139045200Y-68287400D01*
X142775200Y-68327400D02*
X141699200Y-68327400D01*
X140139200Y-68327400D02*
X139063200Y-68327400D01*
X142756200Y-68367400D02*
X141699200Y-68367400D01*
X140139200Y-68367400D02*
X139082200Y-68367400D01*
X142736200Y-68407400D02*
X141699200Y-68407400D01*
X140139200Y-68407400D02*
X139102200Y-68407400D01*
X142715200Y-68447400D02*
X141699200Y-68447400D01*
X140139200Y-68447400D02*
X139123200Y-68447400D01*
X142692200Y-68487400D02*
X141699200Y-68487400D01*
X140139200Y-68487400D02*
X139146200Y-68487400D01*
X142669200Y-68527400D02*
X141699200Y-68527400D01*
X140139200Y-68527400D02*
X139169200Y-68527400D01*
X142644200Y-68567400D02*
X141699200Y-68567400D01*
X140139200Y-68567400D02*
X139194200Y-68567400D01*
X142618200Y-68607400D02*
X141699200Y-68607400D01*
X140139200Y-68607400D02*
X139220200Y-68607400D01*
X142591200Y-68647400D02*
X141699200Y-68647400D01*
X140139200Y-68647400D02*
X139247200Y-68647400D01*
X142562200Y-68687400D02*
X141699200Y-68687400D01*
X140139200Y-68687400D02*
X139276200Y-68687400D01*
X142532200Y-68727400D02*
X141699200Y-68727400D01*
X140139200Y-68727400D02*
X139306200Y-68727400D01*
X142500200Y-68767400D02*
X141699200Y-68767400D01*
X140139200Y-68767400D02*
X139338200Y-68767400D01*
X142466200Y-68807400D02*
X141699200Y-68807400D01*
X140139200Y-68807400D02*
X139372200Y-68807400D01*
X142431200Y-68847400D02*
X141699200Y-68847400D01*
X140139200Y-68847400D02*
X139407200Y-68847400D01*
X142394200Y-68887400D02*
X141699200Y-68887400D01*
X140139200Y-68887400D02*
X139444200Y-68887400D01*
X142355200Y-68927400D02*
X141699200Y-68927400D01*
X140139200Y-68927400D02*
X139483200Y-68927400D01*
X142314200Y-68967400D02*
X141699200Y-68967400D01*
X140139200Y-68967400D02*
X139524200Y-68967400D01*
X142270200Y-69007400D02*
X141699200Y-69007400D01*
X140139200Y-69007400D02*
X139568200Y-69007400D01*
X142224200Y-69047400D02*
X141699200Y-69047400D01*
X140139200Y-69047400D02*
X139614200Y-69047400D01*
X142175200Y-69087400D02*
X141699200Y-69087400D01*
X140139200Y-69087400D02*
X139663200Y-69087400D01*
X142123200Y-69127400D02*
X141699200Y-69127400D01*
X140139200Y-69127400D02*
X139715200Y-69127400D01*
X142067200Y-69167400D02*
X141699200Y-69167400D01*
X140139200Y-69167400D02*
X139771200Y-69167400D01*
X142007200Y-69207400D02*
X141699200Y-69207400D01*
X140139200Y-69207400D02*
X139831200Y-69207400D01*
X141942200Y-69247400D02*
X139896200Y-69247400D01*
X141871200Y-69287400D02*
X139967200Y-69287400D01*
X141793200Y-69327400D02*
X140045200Y-69327400D01*
X141705200Y-69367400D02*
X140133200Y-69367400D01*
X141605200Y-69407400D02*
X140233200Y-69407400D01*
X141486200Y-69447400D02*
X140352200Y-69447400D01*
X141334200Y-69487400D02*
X140504200Y-69487400D01*
X141084200Y-69527400D02*
X140754200Y-69527400D01*
X140919200Y-64746400D02*
X140919200Y-65646400D01*
X141369200Y-65196400D02*
X140469200Y-65196400D01*
G04 #@! TO.C,C8*
X160246400Y-83679600D02*
X160246400Y-87199600D01*
X158026400Y-83679600D02*
X158026400Y-87199600D01*
X160246400Y-83679600D02*
X160132400Y-83679600D01*
X158140400Y-83679600D02*
X158026400Y-83679600D01*
X160246400Y-87199600D02*
X160132400Y-87199600D01*
X158140400Y-87199600D02*
X158026400Y-87199600D01*
G04 #@! TO.C,C9*
X127515600Y-90070400D02*
X127515600Y-86550400D01*
X129735600Y-90070400D02*
X129735600Y-86550400D01*
X127515600Y-90070400D02*
X127629600Y-90070400D01*
X129621600Y-90070400D02*
X129735600Y-90070400D01*
X127515600Y-86550400D02*
X127629600Y-86550400D01*
X129621600Y-86550400D02*
X129735600Y-86550400D01*
G04 #@! TO.C,C10*
X123806800Y-90810400D02*
X124706800Y-90810400D01*
X124256800Y-91260400D02*
X124256800Y-90360400D01*
X124091800Y-86479400D02*
X124421800Y-86479400D01*
X123841800Y-86519400D02*
X124671800Y-86519400D01*
X123689800Y-86559400D02*
X124823800Y-86559400D01*
X123570800Y-86599400D02*
X124942800Y-86599400D01*
X123470800Y-86639400D02*
X125042800Y-86639400D01*
X123382800Y-86679400D02*
X125130800Y-86679400D01*
X123304800Y-86719400D02*
X125208800Y-86719400D01*
X123233800Y-86759400D02*
X125279800Y-86759400D01*
X125036800Y-86799400D02*
X125344800Y-86799400D01*
X123168800Y-86799400D02*
X123476800Y-86799400D01*
X125036800Y-86839400D02*
X125404800Y-86839400D01*
X123108800Y-86839400D02*
X123476800Y-86839400D01*
X125036800Y-86879400D02*
X125460800Y-86879400D01*
X123052800Y-86879400D02*
X123476800Y-86879400D01*
X125036800Y-86919400D02*
X125512800Y-86919400D01*
X123000800Y-86919400D02*
X123476800Y-86919400D01*
X125036800Y-86959400D02*
X125561800Y-86959400D01*
X122951800Y-86959400D02*
X123476800Y-86959400D01*
X125036800Y-86999400D02*
X125607800Y-86999400D01*
X122905800Y-86999400D02*
X123476800Y-86999400D01*
X125036800Y-87039400D02*
X125651800Y-87039400D01*
X122861800Y-87039400D02*
X123476800Y-87039400D01*
X125036800Y-87079400D02*
X125692800Y-87079400D01*
X122820800Y-87079400D02*
X123476800Y-87079400D01*
X125036800Y-87119400D02*
X125731800Y-87119400D01*
X122781800Y-87119400D02*
X123476800Y-87119400D01*
X125036800Y-87159400D02*
X125768800Y-87159400D01*
X122744800Y-87159400D02*
X123476800Y-87159400D01*
X125036800Y-87199400D02*
X125803800Y-87199400D01*
X122709800Y-87199400D02*
X123476800Y-87199400D01*
X125036800Y-87239400D02*
X125837800Y-87239400D01*
X122675800Y-87239400D02*
X123476800Y-87239400D01*
X125036800Y-87279400D02*
X125869800Y-87279400D01*
X122643800Y-87279400D02*
X123476800Y-87279400D01*
X125036800Y-87319400D02*
X125899800Y-87319400D01*
X122613800Y-87319400D02*
X123476800Y-87319400D01*
X125036800Y-87359400D02*
X125928800Y-87359400D01*
X122584800Y-87359400D02*
X123476800Y-87359400D01*
X125036800Y-87399400D02*
X125955800Y-87399400D01*
X122557800Y-87399400D02*
X123476800Y-87399400D01*
X125036800Y-87439400D02*
X125981800Y-87439400D01*
X122531800Y-87439400D02*
X123476800Y-87439400D01*
X125036800Y-87479400D02*
X126006800Y-87479400D01*
X122506800Y-87479400D02*
X123476800Y-87479400D01*
X125036800Y-87519400D02*
X126029800Y-87519400D01*
X122483800Y-87519400D02*
X123476800Y-87519400D01*
X125036800Y-87559400D02*
X126052800Y-87559400D01*
X122460800Y-87559400D02*
X123476800Y-87559400D01*
X125036800Y-87599400D02*
X126073800Y-87599400D01*
X122439800Y-87599400D02*
X123476800Y-87599400D01*
X125036800Y-87639400D02*
X126093800Y-87639400D01*
X122419800Y-87639400D02*
X123476800Y-87639400D01*
X125036800Y-87679400D02*
X126112800Y-87679400D01*
X122400800Y-87679400D02*
X123476800Y-87679400D01*
X125036800Y-87719400D02*
X126130800Y-87719400D01*
X122382800Y-87719400D02*
X123476800Y-87719400D01*
X125036800Y-87759400D02*
X126147800Y-87759400D01*
X122365800Y-87759400D02*
X123476800Y-87759400D01*
X125036800Y-87799400D02*
X126163800Y-87799400D01*
X122349800Y-87799400D02*
X123476800Y-87799400D01*
X125036800Y-87839400D02*
X126179800Y-87839400D01*
X122333800Y-87839400D02*
X123476800Y-87839400D01*
X125036800Y-87880400D02*
X126193800Y-87880400D01*
X122319800Y-87880400D02*
X123476800Y-87880400D01*
X125036800Y-87920400D02*
X126206800Y-87920400D01*
X122306800Y-87920400D02*
X123476800Y-87920400D01*
X125036800Y-87960400D02*
X126219800Y-87960400D01*
X122293800Y-87960400D02*
X123476800Y-87960400D01*
X125036800Y-88000400D02*
X126230800Y-88000400D01*
X122282800Y-88000400D02*
X123476800Y-88000400D01*
X125036800Y-88040400D02*
X126241800Y-88040400D01*
X122271800Y-88040400D02*
X123476800Y-88040400D01*
X125036800Y-88080400D02*
X126251800Y-88080400D01*
X122261800Y-88080400D02*
X123476800Y-88080400D01*
X125036800Y-88120400D02*
X126260800Y-88120400D01*
X122252800Y-88120400D02*
X123476800Y-88120400D01*
X125036800Y-88160400D02*
X126268800Y-88160400D01*
X122244800Y-88160400D02*
X123476800Y-88160400D01*
X125036800Y-88200400D02*
X126275800Y-88200400D01*
X122237800Y-88200400D02*
X123476800Y-88200400D01*
X125036800Y-88240400D02*
X126282800Y-88240400D01*
X122230800Y-88240400D02*
X123476800Y-88240400D01*
X125036800Y-88280400D02*
X126288800Y-88280400D01*
X122224800Y-88280400D02*
X123476800Y-88280400D01*
X125036800Y-88320400D02*
X126293800Y-88320400D01*
X122219800Y-88320400D02*
X123476800Y-88320400D01*
X122215800Y-88360400D02*
X126297800Y-88360400D01*
X122212800Y-88400400D02*
X126300800Y-88400400D01*
X122209800Y-88440400D02*
X126303800Y-88440400D01*
X122207800Y-88480400D02*
X126305800Y-88480400D01*
X122206800Y-88520400D02*
X126306800Y-88520400D01*
X122206800Y-88560400D02*
X126306800Y-88560400D01*
X125235970Y-86713964D02*
G75*
G03X123276800Y-86714404I-979170J-1846436D01*
G01*
X125235970Y-86713964D02*
G75*
G02X125236800Y-90406396I-979170J-1846436D01*
G01*
X123277630Y-86713964D02*
G75*
G03X123276800Y-90406396I979170J-1846436D01*
G01*
G04 #@! TO.C,C11*
X127629600Y-95720000D02*
X127515600Y-95720000D01*
X129735600Y-95720000D02*
X129621600Y-95720000D01*
X127629600Y-92200000D02*
X127515600Y-92200000D01*
X129735600Y-92200000D02*
X129621600Y-92200000D01*
X127515600Y-92200000D02*
X127515600Y-95720000D01*
X129735600Y-92200000D02*
X129735600Y-95720000D01*
G04 #@! TO.C,C12*
X131439600Y-124676000D02*
X131325600Y-124676000D01*
X133545600Y-124676000D02*
X133431600Y-124676000D01*
X131439600Y-121156000D02*
X131325600Y-121156000D01*
X133545600Y-121156000D02*
X133431600Y-121156000D01*
X131325600Y-121156000D02*
X131325600Y-124676000D01*
X133545600Y-121156000D02*
X133545600Y-124676000D01*
G04 #@! TO.C,C13*
X131376400Y-118061200D02*
X131376400Y-114541200D01*
X133596400Y-118061200D02*
X133596400Y-114541200D01*
X131376400Y-118061200D02*
X131490400Y-118061200D01*
X133482400Y-118061200D02*
X133596400Y-118061200D01*
X131376400Y-114541200D02*
X131490400Y-114541200D01*
X133482400Y-114541200D02*
X133596400Y-114541200D01*
G04 #@! TO.C,C14*
X129621600Y-99707600D02*
X129735600Y-99707600D01*
X127515600Y-99707600D02*
X127629600Y-99707600D01*
X129621600Y-103227600D02*
X129735600Y-103227600D01*
X127515600Y-103227600D02*
X127629600Y-103227600D01*
X129735600Y-103227600D02*
X129735600Y-99707600D01*
X127515600Y-103227600D02*
X127515600Y-99707600D01*
G04 #@! TO.C,C15*
X153140400Y-87199600D02*
X153026400Y-87199600D01*
X155246400Y-87199600D02*
X155132400Y-87199600D01*
X153140400Y-83679600D02*
X153026400Y-83679600D01*
X155246400Y-83679600D02*
X155132400Y-83679600D01*
X153026400Y-83679600D02*
X153026400Y-87199600D01*
X155246400Y-83679600D02*
X155246400Y-87199600D01*
G04 #@! TO.C,C16*
X150246400Y-83679600D02*
X150246400Y-87199600D01*
X148026400Y-83679600D02*
X148026400Y-87199600D01*
X150246400Y-83679600D02*
X150132400Y-83679600D01*
X148140400Y-83679600D02*
X148026400Y-83679600D01*
X150246400Y-87199600D02*
X150132400Y-87199600D01*
X148140400Y-87199600D02*
X148026400Y-87199600D01*
G04 #@! TO.C,C17*
X115532000Y-73995600D02*
X115532000Y-74109600D01*
X115532000Y-71889600D02*
X115532000Y-72003600D01*
X112012000Y-73995600D02*
X112012000Y-74109600D01*
X112012000Y-71889600D02*
X112012000Y-72003600D01*
X112012000Y-74109600D02*
X115532000Y-74109600D01*
X112012000Y-71889600D02*
X115532000Y-71889600D01*
G04 #@! TO.C,C18*
X106576764Y-73877170D02*
G75*
G03X110269196Y-73878000I1846436J979170D01*
G01*
X106576764Y-71918830D02*
G75*
G02X110269196Y-71918000I1846436J-979170D01*
G01*
X106576764Y-71918830D02*
G75*
G03X106577204Y-73878000I1846436J-979170D01*
G01*
X108423200Y-74948000D02*
X108423200Y-70848000D01*
X108383200Y-74948000D02*
X108383200Y-70848000D01*
X108343200Y-74947000D02*
X108343200Y-70849000D01*
X108303200Y-74945000D02*
X108303200Y-70851000D01*
X108263200Y-74942000D02*
X108263200Y-70854000D01*
X108223200Y-74939000D02*
X108223200Y-70857000D01*
X108183200Y-74935000D02*
X108183200Y-73678000D01*
X108183200Y-72118000D02*
X108183200Y-70861000D01*
X108143200Y-74930000D02*
X108143200Y-73678000D01*
X108143200Y-72118000D02*
X108143200Y-70866000D01*
X108103200Y-74924000D02*
X108103200Y-73678000D01*
X108103200Y-72118000D02*
X108103200Y-70872000D01*
X108063200Y-74917000D02*
X108063200Y-73678000D01*
X108063200Y-72118000D02*
X108063200Y-70879000D01*
X108023200Y-74910000D02*
X108023200Y-73678000D01*
X108023200Y-72118000D02*
X108023200Y-70886000D01*
X107983200Y-74902000D02*
X107983200Y-73678000D01*
X107983200Y-72118000D02*
X107983200Y-70894000D01*
X107943200Y-74893000D02*
X107943200Y-73678000D01*
X107943200Y-72118000D02*
X107943200Y-70903000D01*
X107903200Y-74883000D02*
X107903200Y-73678000D01*
X107903200Y-72118000D02*
X107903200Y-70913000D01*
X107863200Y-74872000D02*
X107863200Y-73678000D01*
X107863200Y-72118000D02*
X107863200Y-70924000D01*
X107823200Y-74861000D02*
X107823200Y-73678000D01*
X107823200Y-72118000D02*
X107823200Y-70935000D01*
X107783200Y-74848000D02*
X107783200Y-73678000D01*
X107783200Y-72118000D02*
X107783200Y-70948000D01*
X107743200Y-74835000D02*
X107743200Y-73678000D01*
X107743200Y-72118000D02*
X107743200Y-70961000D01*
X107702200Y-74821000D02*
X107702200Y-73678000D01*
X107702200Y-72118000D02*
X107702200Y-70975000D01*
X107662200Y-74805000D02*
X107662200Y-73678000D01*
X107662200Y-72118000D02*
X107662200Y-70991000D01*
X107622200Y-74789000D02*
X107622200Y-73678000D01*
X107622200Y-72118000D02*
X107622200Y-71007000D01*
X107582200Y-74772000D02*
X107582200Y-73678000D01*
X107582200Y-72118000D02*
X107582200Y-71024000D01*
X107542200Y-74754000D02*
X107542200Y-73678000D01*
X107542200Y-72118000D02*
X107542200Y-71042000D01*
X107502200Y-74735000D02*
X107502200Y-73678000D01*
X107502200Y-72118000D02*
X107502200Y-71061000D01*
X107462200Y-74715000D02*
X107462200Y-73678000D01*
X107462200Y-72118000D02*
X107462200Y-71081000D01*
X107422200Y-74694000D02*
X107422200Y-73678000D01*
X107422200Y-72118000D02*
X107422200Y-71102000D01*
X107382200Y-74671000D02*
X107382200Y-73678000D01*
X107382200Y-72118000D02*
X107382200Y-71125000D01*
X107342200Y-74648000D02*
X107342200Y-73678000D01*
X107342200Y-72118000D02*
X107342200Y-71148000D01*
X107302200Y-74623000D02*
X107302200Y-73678000D01*
X107302200Y-72118000D02*
X107302200Y-71173000D01*
X107262200Y-74597000D02*
X107262200Y-73678000D01*
X107262200Y-72118000D02*
X107262200Y-71199000D01*
X107222200Y-74570000D02*
X107222200Y-73678000D01*
X107222200Y-72118000D02*
X107222200Y-71226000D01*
X107182200Y-74541000D02*
X107182200Y-73678000D01*
X107182200Y-72118000D02*
X107182200Y-71255000D01*
X107142200Y-74511000D02*
X107142200Y-73678000D01*
X107142200Y-72118000D02*
X107142200Y-71285000D01*
X107102200Y-74479000D02*
X107102200Y-73678000D01*
X107102200Y-72118000D02*
X107102200Y-71317000D01*
X107062200Y-74445000D02*
X107062200Y-73678000D01*
X107062200Y-72118000D02*
X107062200Y-71351000D01*
X107022200Y-74410000D02*
X107022200Y-73678000D01*
X107022200Y-72118000D02*
X107022200Y-71386000D01*
X106982200Y-74373000D02*
X106982200Y-73678000D01*
X106982200Y-72118000D02*
X106982200Y-71423000D01*
X106942200Y-74334000D02*
X106942200Y-73678000D01*
X106942200Y-72118000D02*
X106942200Y-71462000D01*
X106902200Y-74293000D02*
X106902200Y-73678000D01*
X106902200Y-72118000D02*
X106902200Y-71503000D01*
X106862200Y-74249000D02*
X106862200Y-73678000D01*
X106862200Y-72118000D02*
X106862200Y-71547000D01*
X106822200Y-74203000D02*
X106822200Y-73678000D01*
X106822200Y-72118000D02*
X106822200Y-71593000D01*
X106782200Y-74154000D02*
X106782200Y-73678000D01*
X106782200Y-72118000D02*
X106782200Y-71642000D01*
X106742200Y-74102000D02*
X106742200Y-73678000D01*
X106742200Y-72118000D02*
X106742200Y-71694000D01*
X106702200Y-74046000D02*
X106702200Y-73678000D01*
X106702200Y-72118000D02*
X106702200Y-71750000D01*
X106662200Y-73986000D02*
X106662200Y-73678000D01*
X106662200Y-72118000D02*
X106662200Y-71810000D01*
X106622200Y-73921000D02*
X106622200Y-71875000D01*
X106582200Y-73850000D02*
X106582200Y-71946000D01*
X106542200Y-73772000D02*
X106542200Y-72024000D01*
X106502200Y-73684000D02*
X106502200Y-72112000D01*
X106462200Y-73584000D02*
X106462200Y-72212000D01*
X106422200Y-73465000D02*
X106422200Y-72331000D01*
X106382200Y-73313000D02*
X106382200Y-72483000D01*
X106342200Y-73063000D02*
X106342200Y-72733000D01*
X111123200Y-72898000D02*
X110223200Y-72898000D01*
X110673200Y-73348000D02*
X110673200Y-72448000D01*
G04 #@! TO.C,C21*
X167518400Y-116268400D02*
X167632400Y-116268400D01*
X165412400Y-116268400D02*
X165526400Y-116268400D01*
X167518400Y-119788400D02*
X167632400Y-119788400D01*
X165412400Y-119788400D02*
X165526400Y-119788400D01*
X167632400Y-119788400D02*
X167632400Y-116268400D01*
X165412400Y-119788400D02*
X165412400Y-116268400D01*
G04 #@! TO.C,C22*
X91498400Y-112879600D02*
X91498400Y-109359600D01*
X93718400Y-112879600D02*
X93718400Y-109359600D01*
X91498400Y-112879600D02*
X91612400Y-112879600D01*
X93604400Y-112879600D02*
X93718400Y-112879600D01*
X91498400Y-109359600D02*
X91612400Y-109359600D01*
X93604400Y-109359600D02*
X93718400Y-109359600D01*
G04 #@! TO.C,C23*
X106070122Y-113221877D02*
G75*
G03X101458820Y-113221600I-2305722J-1179723D01*
G01*
X106070122Y-115581323D02*
G75*
G02X101458820Y-115581600I-2305722J1179723D01*
G01*
X106070122Y-115581323D02*
G75*
G03X106069980Y-113221600I-2305722J1179723D01*
G01*
X103764400Y-111851600D02*
X103764400Y-116951600D01*
X103804400Y-111851600D02*
X103804400Y-116951600D01*
X103844400Y-111852600D02*
X103844400Y-116950600D01*
X103884400Y-111853600D02*
X103884400Y-116949600D01*
X103924400Y-111855600D02*
X103924400Y-116947600D01*
X103964400Y-111858600D02*
X103964400Y-116944600D01*
X104004400Y-111862600D02*
X104004400Y-116940600D01*
X104044400Y-111866600D02*
X104044400Y-113421600D01*
X104044400Y-115381600D02*
X104044400Y-116936600D01*
X104084400Y-111870600D02*
X104084400Y-113421600D01*
X104084400Y-115381600D02*
X104084400Y-116932600D01*
X104124400Y-111876600D02*
X104124400Y-113421600D01*
X104124400Y-115381600D02*
X104124400Y-116926600D01*
X104164400Y-111882600D02*
X104164400Y-113421600D01*
X104164400Y-115381600D02*
X104164400Y-116920600D01*
X104204400Y-111888600D02*
X104204400Y-113421600D01*
X104204400Y-115381600D02*
X104204400Y-116914600D01*
X104244400Y-111895600D02*
X104244400Y-113421600D01*
X104244400Y-115381600D02*
X104244400Y-116907600D01*
X104284400Y-111903600D02*
X104284400Y-113421600D01*
X104284400Y-115381600D02*
X104284400Y-116899600D01*
X104324400Y-111912600D02*
X104324400Y-113421600D01*
X104324400Y-115381600D02*
X104324400Y-116890600D01*
X104364400Y-111921600D02*
X104364400Y-113421600D01*
X104364400Y-115381600D02*
X104364400Y-116881600D01*
X104404400Y-111931600D02*
X104404400Y-113421600D01*
X104404400Y-115381600D02*
X104404400Y-116871600D01*
X104444400Y-111941600D02*
X104444400Y-113421600D01*
X104444400Y-115381600D02*
X104444400Y-116861600D01*
X104485400Y-111953600D02*
X104485400Y-113421600D01*
X104485400Y-115381600D02*
X104485400Y-116849600D01*
X104525400Y-111965600D02*
X104525400Y-113421600D01*
X104525400Y-115381600D02*
X104525400Y-116837600D01*
X104565400Y-111977600D02*
X104565400Y-113421600D01*
X104565400Y-115381600D02*
X104565400Y-116825600D01*
X104605400Y-111991600D02*
X104605400Y-113421600D01*
X104605400Y-115381600D02*
X104605400Y-116811600D01*
X104645400Y-112005600D02*
X104645400Y-113421600D01*
X104645400Y-115381600D02*
X104645400Y-116797600D01*
X104685400Y-112019600D02*
X104685400Y-113421600D01*
X104685400Y-115381600D02*
X104685400Y-116783600D01*
X104725400Y-112035600D02*
X104725400Y-113421600D01*
X104725400Y-115381600D02*
X104725400Y-116767600D01*
X104765400Y-112051600D02*
X104765400Y-113421600D01*
X104765400Y-115381600D02*
X104765400Y-116751600D01*
X104805400Y-112068600D02*
X104805400Y-113421600D01*
X104805400Y-115381600D02*
X104805400Y-116734600D01*
X104845400Y-112086600D02*
X104845400Y-113421600D01*
X104845400Y-115381600D02*
X104845400Y-116716600D01*
X104885400Y-112105600D02*
X104885400Y-113421600D01*
X104885400Y-115381600D02*
X104885400Y-116697600D01*
X104925400Y-112125600D02*
X104925400Y-113421600D01*
X104925400Y-115381600D02*
X104925400Y-116677600D01*
X104965400Y-112145600D02*
X104965400Y-113421600D01*
X104965400Y-115381600D02*
X104965400Y-116657600D01*
X105005400Y-112167600D02*
X105005400Y-113421600D01*
X105005400Y-115381600D02*
X105005400Y-116635600D01*
X105045400Y-112189600D02*
X105045400Y-113421600D01*
X105045400Y-115381600D02*
X105045400Y-116613600D01*
X105085400Y-112212600D02*
X105085400Y-113421600D01*
X105085400Y-115381600D02*
X105085400Y-116590600D01*
X105125400Y-112236600D02*
X105125400Y-113421600D01*
X105125400Y-115381600D02*
X105125400Y-116566600D01*
X105165400Y-112261600D02*
X105165400Y-113421600D01*
X105165400Y-115381600D02*
X105165400Y-116541600D01*
X105205400Y-112288600D02*
X105205400Y-113421600D01*
X105205400Y-115381600D02*
X105205400Y-116514600D01*
X105245400Y-112315600D02*
X105245400Y-113421600D01*
X105245400Y-115381600D02*
X105245400Y-116487600D01*
X105285400Y-112343600D02*
X105285400Y-113421600D01*
X105285400Y-115381600D02*
X105285400Y-116459600D01*
X105325400Y-112373600D02*
X105325400Y-113421600D01*
X105325400Y-115381600D02*
X105325400Y-116429600D01*
X105365400Y-112404600D02*
X105365400Y-113421600D01*
X105365400Y-115381600D02*
X105365400Y-116398600D01*
X105405400Y-112436600D02*
X105405400Y-113421600D01*
X105405400Y-115381600D02*
X105405400Y-116366600D01*
X105445400Y-112469600D02*
X105445400Y-113421600D01*
X105445400Y-115381600D02*
X105445400Y-116333600D01*
X105485400Y-112504600D02*
X105485400Y-113421600D01*
X105485400Y-115381600D02*
X105485400Y-116298600D01*
X105525400Y-112540600D02*
X105525400Y-113421600D01*
X105525400Y-115381600D02*
X105525400Y-116262600D01*
X105565400Y-112578600D02*
X105565400Y-113421600D01*
X105565400Y-115381600D02*
X105565400Y-116224600D01*
X105605400Y-112618600D02*
X105605400Y-113421600D01*
X105605400Y-115381600D02*
X105605400Y-116184600D01*
X105645400Y-112659600D02*
X105645400Y-113421600D01*
X105645400Y-115381600D02*
X105645400Y-116143600D01*
X105685400Y-112702600D02*
X105685400Y-113421600D01*
X105685400Y-115381600D02*
X105685400Y-116100600D01*
X105725400Y-112747600D02*
X105725400Y-113421600D01*
X105725400Y-115381600D02*
X105725400Y-116055600D01*
X105765400Y-112795600D02*
X105765400Y-113421600D01*
X105765400Y-115381600D02*
X105765400Y-116007600D01*
X105805400Y-112845600D02*
X105805400Y-113421600D01*
X105805400Y-115381600D02*
X105805400Y-115957600D01*
X105845400Y-112897600D02*
X105845400Y-113421600D01*
X105845400Y-115381600D02*
X105845400Y-115905600D01*
X105885400Y-112953600D02*
X105885400Y-113421600D01*
X105885400Y-115381600D02*
X105885400Y-115849600D01*
X105925400Y-113011600D02*
X105925400Y-113421600D01*
X105925400Y-115381600D02*
X105925400Y-115791600D01*
X105965400Y-113074600D02*
X105965400Y-113421600D01*
X105965400Y-115381600D02*
X105965400Y-115728600D01*
X106005400Y-113140600D02*
X106005400Y-115662600D01*
X106045400Y-113212600D02*
X106045400Y-115590600D01*
X106085400Y-113289600D02*
X106085400Y-115513600D01*
X106125400Y-113373600D02*
X106125400Y-115429600D01*
X106165400Y-113467600D02*
X106165400Y-115335600D01*
X106205400Y-113572600D02*
X106205400Y-115230600D01*
X106245400Y-113694600D02*
X106245400Y-115108600D01*
X106285400Y-113842600D02*
X106285400Y-114960600D01*
X106325400Y-114047600D02*
X106325400Y-114755600D01*
X100314400Y-114401600D02*
X101514400Y-114401600D01*
X100914400Y-113751600D02*
X100914400Y-115051600D01*
G04 #@! TO.C,C24*
X107721600Y-105369600D02*
X107721600Y-106669600D01*
X107121600Y-106019600D02*
X108321600Y-106019600D01*
X113132600Y-105665600D02*
X113132600Y-106373600D01*
X113092600Y-105460600D02*
X113092600Y-106578600D01*
X113052600Y-105312600D02*
X113052600Y-106726600D01*
X113012600Y-105190600D02*
X113012600Y-106848600D01*
X112972600Y-105085600D02*
X112972600Y-106953600D01*
X112932600Y-104991600D02*
X112932600Y-107047600D01*
X112892600Y-104907600D02*
X112892600Y-107131600D01*
X112852600Y-104830600D02*
X112852600Y-107208600D01*
X112812600Y-104758600D02*
X112812600Y-107280600D01*
X112772600Y-106999600D02*
X112772600Y-107346600D01*
X112772600Y-104692600D02*
X112772600Y-105039600D01*
X112732600Y-106999600D02*
X112732600Y-107409600D01*
X112732600Y-104629600D02*
X112732600Y-105039600D01*
X112692600Y-106999600D02*
X112692600Y-107467600D01*
X112692600Y-104571600D02*
X112692600Y-105039600D01*
X112652600Y-106999600D02*
X112652600Y-107523600D01*
X112652600Y-104515600D02*
X112652600Y-105039600D01*
X112612600Y-106999600D02*
X112612600Y-107575600D01*
X112612600Y-104463600D02*
X112612600Y-105039600D01*
X112572600Y-106999600D02*
X112572600Y-107625600D01*
X112572600Y-104413600D02*
X112572600Y-105039600D01*
X112532600Y-106999600D02*
X112532600Y-107673600D01*
X112532600Y-104365600D02*
X112532600Y-105039600D01*
X112492600Y-106999600D02*
X112492600Y-107718600D01*
X112492600Y-104320600D02*
X112492600Y-105039600D01*
X112452600Y-106999600D02*
X112452600Y-107761600D01*
X112452600Y-104277600D02*
X112452600Y-105039600D01*
X112412600Y-106999600D02*
X112412600Y-107802600D01*
X112412600Y-104236600D02*
X112412600Y-105039600D01*
X112372600Y-106999600D02*
X112372600Y-107842600D01*
X112372600Y-104196600D02*
X112372600Y-105039600D01*
X112332600Y-106999600D02*
X112332600Y-107880600D01*
X112332600Y-104158600D02*
X112332600Y-105039600D01*
X112292600Y-106999600D02*
X112292600Y-107916600D01*
X112292600Y-104122600D02*
X112292600Y-105039600D01*
X112252600Y-106999600D02*
X112252600Y-107951600D01*
X112252600Y-104087600D02*
X112252600Y-105039600D01*
X112212600Y-106999600D02*
X112212600Y-107984600D01*
X112212600Y-104054600D02*
X112212600Y-105039600D01*
X112172600Y-106999600D02*
X112172600Y-108016600D01*
X112172600Y-104022600D02*
X112172600Y-105039600D01*
X112132600Y-106999600D02*
X112132600Y-108047600D01*
X112132600Y-103991600D02*
X112132600Y-105039600D01*
X112092600Y-106999600D02*
X112092600Y-108077600D01*
X112092600Y-103961600D02*
X112092600Y-105039600D01*
X112052600Y-106999600D02*
X112052600Y-108105600D01*
X112052600Y-103933600D02*
X112052600Y-105039600D01*
X112012600Y-106999600D02*
X112012600Y-108132600D01*
X112012600Y-103906600D02*
X112012600Y-105039600D01*
X111972600Y-106999600D02*
X111972600Y-108159600D01*
X111972600Y-103879600D02*
X111972600Y-105039600D01*
X111932600Y-106999600D02*
X111932600Y-108184600D01*
X111932600Y-103854600D02*
X111932600Y-105039600D01*
X111892600Y-106999600D02*
X111892600Y-108208600D01*
X111892600Y-103830600D02*
X111892600Y-105039600D01*
X111852600Y-106999600D02*
X111852600Y-108231600D01*
X111852600Y-103807600D02*
X111852600Y-105039600D01*
X111812600Y-106999600D02*
X111812600Y-108253600D01*
X111812600Y-103785600D02*
X111812600Y-105039600D01*
X111772600Y-106999600D02*
X111772600Y-108275600D01*
X111772600Y-103763600D02*
X111772600Y-105039600D01*
X111732600Y-106999600D02*
X111732600Y-108295600D01*
X111732600Y-103743600D02*
X111732600Y-105039600D01*
X111692600Y-106999600D02*
X111692600Y-108315600D01*
X111692600Y-103723600D02*
X111692600Y-105039600D01*
X111652600Y-106999600D02*
X111652600Y-108334600D01*
X111652600Y-103704600D02*
X111652600Y-105039600D01*
X111612600Y-106999600D02*
X111612600Y-108352600D01*
X111612600Y-103686600D02*
X111612600Y-105039600D01*
X111572600Y-106999600D02*
X111572600Y-108369600D01*
X111572600Y-103669600D02*
X111572600Y-105039600D01*
X111532600Y-106999600D02*
X111532600Y-108385600D01*
X111532600Y-103653600D02*
X111532600Y-105039600D01*
X111492600Y-106999600D02*
X111492600Y-108401600D01*
X111492600Y-103637600D02*
X111492600Y-105039600D01*
X111452600Y-106999600D02*
X111452600Y-108415600D01*
X111452600Y-103623600D02*
X111452600Y-105039600D01*
X111412600Y-106999600D02*
X111412600Y-108429600D01*
X111412600Y-103609600D02*
X111412600Y-105039600D01*
X111372600Y-106999600D02*
X111372600Y-108443600D01*
X111372600Y-103595600D02*
X111372600Y-105039600D01*
X111332600Y-106999600D02*
X111332600Y-108455600D01*
X111332600Y-103583600D02*
X111332600Y-105039600D01*
X111292600Y-106999600D02*
X111292600Y-108467600D01*
X111292600Y-103571600D02*
X111292600Y-105039600D01*
X111251600Y-106999600D02*
X111251600Y-108479600D01*
X111251600Y-103559600D02*
X111251600Y-105039600D01*
X111211600Y-106999600D02*
X111211600Y-108489600D01*
X111211600Y-103549600D02*
X111211600Y-105039600D01*
X111171600Y-106999600D02*
X111171600Y-108499600D01*
X111171600Y-103539600D02*
X111171600Y-105039600D01*
X111131600Y-106999600D02*
X111131600Y-108508600D01*
X111131600Y-103530600D02*
X111131600Y-105039600D01*
X111091600Y-106999600D02*
X111091600Y-108517600D01*
X111091600Y-103521600D02*
X111091600Y-105039600D01*
X111051600Y-106999600D02*
X111051600Y-108525600D01*
X111051600Y-103513600D02*
X111051600Y-105039600D01*
X111011600Y-106999600D02*
X111011600Y-108532600D01*
X111011600Y-103506600D02*
X111011600Y-105039600D01*
X110971600Y-106999600D02*
X110971600Y-108538600D01*
X110971600Y-103500600D02*
X110971600Y-105039600D01*
X110931600Y-106999600D02*
X110931600Y-108544600D01*
X110931600Y-103494600D02*
X110931600Y-105039600D01*
X110891600Y-106999600D02*
X110891600Y-108550600D01*
X110891600Y-103488600D02*
X110891600Y-105039600D01*
X110851600Y-106999600D02*
X110851600Y-108554600D01*
X110851600Y-103484600D02*
X110851600Y-105039600D01*
X110811600Y-103480600D02*
X110811600Y-108558600D01*
X110771600Y-103476600D02*
X110771600Y-108562600D01*
X110731600Y-103473600D02*
X110731600Y-108565600D01*
X110691600Y-103471600D02*
X110691600Y-108567600D01*
X110651600Y-103470600D02*
X110651600Y-108568600D01*
X110611600Y-103469600D02*
X110611600Y-108569600D01*
X110571600Y-103469600D02*
X110571600Y-108569600D01*
X112877322Y-107199323D02*
G75*
G03X112877180Y-104839600I-2305722J1179723D01*
G01*
X112877322Y-107199323D02*
G75*
G02X108266020Y-107199600I-2305722J1179723D01*
G01*
X112877322Y-104839877D02*
G75*
G03X108266020Y-104839600I-2305722J-1179723D01*
G01*
G04 #@! TO.C,C25*
X112331600Y-113162400D02*
X112331600Y-113276400D01*
X112331600Y-111056400D02*
X112331600Y-111170400D01*
X108811600Y-113162400D02*
X108811600Y-113276400D01*
X108811600Y-111056400D02*
X108811600Y-111170400D01*
X108811600Y-113276400D02*
X112331600Y-113276400D01*
X108811600Y-111056400D02*
X112331600Y-111056400D01*
G04 #@! TO.C,D1*
X103567600Y-90318462D02*
G75*
G03X98017600Y-88773170I-2990000J462D01*
G01*
X103567600Y-90317538D02*
G75*
G02X98017600Y-91862830I-2990000J-462D01*
G01*
X103077600Y-90318000D02*
G75*
G03X103077600Y-90318000I-2500000J0D01*
G01*
X98017600Y-88773000D02*
X98017600Y-91863000D01*
G04 #@! TO.C,D2*
X98017600Y-78773000D02*
X98017600Y-81863000D01*
X103077600Y-80318000D02*
G75*
G03X103077600Y-80318000I-2500000J0D01*
G01*
X103567600Y-80317538D02*
G75*
G02X98017600Y-81862830I-2990000J-462D01*
G01*
X103567600Y-80318462D02*
G75*
G03X98017600Y-78773170I-2990000J462D01*
G01*
G04 #@! TO.C,D3*
X98793600Y-114207200D02*
X95973600Y-114207200D01*
X95973600Y-118687200D02*
X96103600Y-118687200D01*
X95973600Y-113367200D02*
X95973600Y-118687200D01*
X96103600Y-113367200D02*
X95973600Y-113367200D01*
X98793600Y-118687200D02*
X98663600Y-118687200D01*
X98793600Y-113367200D02*
X98793600Y-118687200D01*
X98663600Y-113367200D02*
X98793600Y-113367200D01*
G04 #@! TO.C,D4*
X116565000Y-132709600D02*
X119655000Y-132709600D01*
X120610000Y-130149600D02*
G75*
G03X120610000Y-130149600I-2500000J0D01*
G01*
X118109538Y-127159600D02*
G75*
G02X119654830Y-132709600I462J-2990000D01*
G01*
X118110462Y-127159600D02*
G75*
G03X116565170Y-132709600I-462J-2990000D01*
G01*
G04 #@! TO.C,J1*
X145134000Y-124686000D02*
X145134000Y-118686000D01*
X145134000Y-118686000D02*
X134774000Y-118686000D01*
X134774000Y-118686000D02*
X134774000Y-124686000D01*
X134774000Y-124686000D02*
X145134000Y-124686000D01*
X143764000Y-118686000D02*
X143764000Y-119686000D01*
X143764000Y-119686000D02*
X136144000Y-119686000D01*
X136144000Y-119686000D02*
X136144000Y-118686000D01*
X143764000Y-119686000D02*
X143514000Y-120116000D01*
X143514000Y-120116000D02*
X136394000Y-120116000D01*
X136394000Y-120116000D02*
X136144000Y-119686000D01*
X143514000Y-118686000D02*
X143514000Y-119686000D01*
X136394000Y-118686000D02*
X136394000Y-119686000D01*
X144564000Y-124686000D02*
X144564000Y-124066000D01*
X144564000Y-124066000D02*
X142964000Y-124066000D01*
X142964000Y-124066000D02*
X142964000Y-124686000D01*
X142024000Y-124686000D02*
X142024000Y-124066000D01*
X142024000Y-124066000D02*
X140424000Y-124066000D01*
X140424000Y-124066000D02*
X140424000Y-124686000D01*
X139484000Y-124686000D02*
X139484000Y-124066000D01*
X139484000Y-124066000D02*
X137884000Y-124066000D01*
X137884000Y-124066000D02*
X137884000Y-124686000D01*
X136944000Y-124686000D02*
X136944000Y-124066000D01*
X136944000Y-124066000D02*
X135344000Y-124066000D01*
X135344000Y-124066000D02*
X135344000Y-124686000D01*
G04 #@! TO.C,J2*
X146864400Y-63528000D02*
X146864400Y-69528000D01*
X146864400Y-69528000D02*
X162304400Y-69528000D01*
X162304400Y-69528000D02*
X162304400Y-63528000D01*
X162304400Y-63528000D02*
X146864400Y-63528000D01*
X148234400Y-69528000D02*
X148234400Y-68528000D01*
X148234400Y-68528000D02*
X160934400Y-68528000D01*
X160934400Y-68528000D02*
X160934400Y-69528000D01*
X148234400Y-68528000D02*
X148484400Y-68098000D01*
X148484400Y-68098000D02*
X160684400Y-68098000D01*
X160684400Y-68098000D02*
X160934400Y-68528000D01*
X148484400Y-69528000D02*
X148484400Y-68528000D01*
X160684400Y-69528000D02*
X160684400Y-68528000D01*
X147434400Y-63528000D02*
X147434400Y-64148000D01*
X147434400Y-64148000D02*
X149034400Y-64148000D01*
X149034400Y-64148000D02*
X149034400Y-63528000D01*
X149974400Y-63528000D02*
X149974400Y-64148000D01*
X149974400Y-64148000D02*
X151574400Y-64148000D01*
X151574400Y-64148000D02*
X151574400Y-63528000D01*
X152514400Y-63528000D02*
X152514400Y-64148000D01*
X152514400Y-64148000D02*
X154114400Y-64148000D01*
X154114400Y-64148000D02*
X154114400Y-63528000D01*
X155054400Y-63528000D02*
X155054400Y-64148000D01*
X155054400Y-64148000D02*
X156654400Y-64148000D01*
X156654400Y-64148000D02*
X156654400Y-63528000D01*
X157594400Y-63528000D02*
X157594400Y-64148000D01*
X157594400Y-64148000D02*
X159194400Y-64148000D01*
X159194400Y-64148000D02*
X159194400Y-63528000D01*
X160134400Y-63528000D02*
X160134400Y-64148000D01*
X160134400Y-64148000D02*
X161734400Y-64148000D01*
X161734400Y-64148000D02*
X161734400Y-63528000D01*
G04 #@! TO.C,J3*
X116268400Y-64554400D02*
X116268400Y-63934400D01*
X114668400Y-64554400D02*
X116268400Y-64554400D01*
X114668400Y-63934400D02*
X114668400Y-64554400D01*
X113728400Y-64554400D02*
X113728400Y-63934400D01*
X112128400Y-64554400D02*
X113728400Y-64554400D01*
X112128400Y-63934400D02*
X112128400Y-64554400D01*
X111188400Y-64554400D02*
X111188400Y-63934400D01*
X109588400Y-64554400D02*
X111188400Y-64554400D01*
X109588400Y-63934400D02*
X109588400Y-64554400D01*
X108648400Y-64554400D02*
X108648400Y-63934400D01*
X107048400Y-64554400D02*
X108648400Y-64554400D01*
X107048400Y-63934400D02*
X107048400Y-64554400D01*
X115218400Y-69934400D02*
X115218400Y-68934400D01*
X108098400Y-69934400D02*
X108098400Y-68934400D01*
X115218400Y-68504400D02*
X115468400Y-68934400D01*
X108098400Y-68504400D02*
X115218400Y-68504400D01*
X107848400Y-68934400D02*
X108098400Y-68504400D01*
X115468400Y-68934400D02*
X115468400Y-69934400D01*
X107848400Y-68934400D02*
X115468400Y-68934400D01*
X107848400Y-69934400D02*
X107848400Y-68934400D01*
X116838400Y-63934400D02*
X106478400Y-63934400D01*
X116838400Y-69934400D02*
X116838400Y-63934400D01*
X106478400Y-69934400D02*
X116838400Y-69934400D01*
X106478400Y-63934400D02*
X106478400Y-69934400D01*
G04 #@! TO.C,J4*
X162064400Y-109004000D02*
X162684400Y-109004000D01*
X162064400Y-107404000D02*
X162064400Y-109004000D01*
X162684400Y-107404000D02*
X162064400Y-107404000D01*
X162064400Y-106464000D02*
X162684400Y-106464000D01*
X162064400Y-104864000D02*
X162064400Y-106464000D01*
X162684400Y-104864000D02*
X162064400Y-104864000D01*
X162064400Y-103924000D02*
X162684400Y-103924000D01*
X162064400Y-102324000D02*
X162064400Y-103924000D01*
X162684400Y-102324000D02*
X162064400Y-102324000D01*
X162064400Y-101384000D02*
X162684400Y-101384000D01*
X162064400Y-99784000D02*
X162064400Y-101384000D01*
X162684400Y-99784000D02*
X162064400Y-99784000D01*
X162064400Y-98844000D02*
X162684400Y-98844000D01*
X162064400Y-97244000D02*
X162064400Y-98844000D01*
X162684400Y-97244000D02*
X162064400Y-97244000D01*
X162064400Y-96304000D02*
X162684400Y-96304000D01*
X162064400Y-94704000D02*
X162064400Y-96304000D01*
X162684400Y-94704000D02*
X162064400Y-94704000D01*
X156684400Y-107954000D02*
X157684400Y-107954000D01*
X156684400Y-95754000D02*
X157684400Y-95754000D01*
X158114400Y-107954000D02*
X157684400Y-108204000D01*
X158114400Y-95754000D02*
X158114400Y-107954000D01*
X157684400Y-95504000D02*
X158114400Y-95754000D01*
X157684400Y-108204000D02*
X156684400Y-108204000D01*
X157684400Y-95504000D02*
X157684400Y-108204000D01*
X156684400Y-95504000D02*
X157684400Y-95504000D01*
X162684400Y-109574000D02*
X162684400Y-94134000D01*
X156684400Y-109574000D02*
X162684400Y-109574000D01*
X156684400Y-94134000D02*
X156684400Y-109574000D01*
X162684400Y-94134000D02*
X156684400Y-94134000D01*
G04 #@! TO.C,J5*
X88310000Y-124155200D02*
X88310000Y-113995200D01*
X80690000Y-124155200D02*
X88310000Y-124155200D01*
X80690000Y-113995200D02*
X80690000Y-124155200D01*
X88310000Y-113995200D02*
X80690000Y-113995200D01*
X87040000Y-113995200D02*
X87040000Y-124155200D01*
G04 #@! TO.C,J6*
X165162800Y-113388200D02*
X165162800Y-115928200D01*
X165162800Y-113388200D02*
X162622800Y-113388200D01*
X164912800Y-113638200D02*
X164912800Y-122988200D01*
X149132800Y-113638200D02*
X164912800Y-113638200D01*
X149132800Y-122988200D02*
X149132800Y-113638200D01*
X164912800Y-122988200D02*
X149132800Y-122988200D01*
G04 #@! TO.C,J8*
X102130800Y-122239200D02*
X104730800Y-122239200D01*
X102130800Y-136939200D02*
X102130800Y-122239200D01*
X111330800Y-122239200D02*
X111330800Y-124139200D01*
X108630800Y-122239200D02*
X111330800Y-122239200D01*
X111330800Y-136939200D02*
X102130800Y-136939200D01*
X111330800Y-128139200D02*
X111330800Y-136939200D01*
G04 #@! TO.C,R1*
X162826400Y-81209600D02*
X163156400Y-81209600D01*
X162826400Y-74789600D02*
X162826400Y-81209600D01*
X163156400Y-74789600D02*
X162826400Y-74789600D01*
X165446400Y-81209600D02*
X165116400Y-81209600D01*
X165446400Y-74789600D02*
X165446400Y-81209600D01*
X165116400Y-74789600D02*
X165446400Y-74789600D01*
G04 #@! TO.C,R2*
X160116400Y-74789600D02*
X160446400Y-74789600D01*
X160446400Y-74789600D02*
X160446400Y-81209600D01*
X160446400Y-81209600D02*
X160116400Y-81209600D01*
X158156400Y-74789600D02*
X157826400Y-74789600D01*
X157826400Y-74789600D02*
X157826400Y-81209600D01*
X157826400Y-81209600D02*
X158156400Y-81209600D01*
G04 #@! TO.C,R3*
X155116400Y-74789600D02*
X155446400Y-74789600D01*
X155446400Y-74789600D02*
X155446400Y-81209600D01*
X155446400Y-81209600D02*
X155116400Y-81209600D01*
X153156400Y-74789600D02*
X152826400Y-74789600D01*
X152826400Y-74789600D02*
X152826400Y-81209600D01*
X152826400Y-81209600D02*
X153156400Y-81209600D01*
G04 #@! TO.C,R4*
X136387200Y-63236400D02*
X136057200Y-63236400D01*
X136387200Y-69656400D02*
X136387200Y-63236400D01*
X136057200Y-69656400D02*
X136387200Y-69656400D01*
X133767200Y-63236400D02*
X134097200Y-63236400D01*
X133767200Y-69656400D02*
X133767200Y-63236400D01*
X134097200Y-69656400D02*
X133767200Y-69656400D01*
G04 #@! TO.C,R5*
X147826400Y-81209600D02*
X148156400Y-81209600D01*
X147826400Y-74789600D02*
X147826400Y-81209600D01*
X148156400Y-74789600D02*
X147826400Y-74789600D01*
X150446400Y-81209600D02*
X150116400Y-81209600D01*
X150446400Y-74789600D02*
X150446400Y-81209600D01*
X150116400Y-74789600D02*
X150446400Y-74789600D01*
G04 #@! TO.C,R6*
X108907600Y-88682000D02*
X108907600Y-88352000D01*
X108907600Y-88352000D02*
X115327600Y-88352000D01*
X115327600Y-88352000D02*
X115327600Y-88682000D01*
X108907600Y-90642000D02*
X108907600Y-90972000D01*
X108907600Y-90972000D02*
X115327600Y-90972000D01*
X115327600Y-90972000D02*
X115327600Y-90642000D01*
G04 #@! TO.C,R7*
X117541600Y-107224000D02*
X117541600Y-106894000D01*
X117541600Y-106894000D02*
X123961600Y-106894000D01*
X123961600Y-106894000D02*
X123961600Y-107224000D01*
X117541600Y-109184000D02*
X117541600Y-109514000D01*
X117541600Y-109514000D02*
X123961600Y-109514000D01*
X123961600Y-109514000D02*
X123961600Y-109184000D01*
G04 #@! TO.C,R8*
X115327600Y-86044400D02*
X115327600Y-85714400D01*
X108907600Y-86044400D02*
X115327600Y-86044400D01*
X108907600Y-85714400D02*
X108907600Y-86044400D01*
X115327600Y-83424400D02*
X115327600Y-83754400D01*
X108907600Y-83424400D02*
X115327600Y-83424400D01*
X108907600Y-83754400D02*
X108907600Y-83424400D01*
G04 #@! TO.C,R9*
X123993200Y-130058800D02*
X123993200Y-130388800D01*
X130413200Y-130058800D02*
X123993200Y-130058800D01*
X130413200Y-130388800D02*
X130413200Y-130058800D01*
X123993200Y-132678800D02*
X123993200Y-132348800D01*
X130413200Y-132678800D02*
X123993200Y-132678800D01*
X130413200Y-132348800D02*
X130413200Y-132678800D01*
G04 #@! TO.C,SW1*
X122637600Y-66291200D02*
X122637600Y-67791200D01*
X123887600Y-70291200D02*
X128387600Y-70291200D01*
X129637600Y-67791200D02*
X129637600Y-66291200D01*
X128387600Y-63791200D02*
X123887600Y-63791200D01*
G04 #@! TO.C,SW2*
X119059200Y-119342800D02*
X123559200Y-119342800D01*
X117809200Y-115342800D02*
X117809200Y-116842800D01*
X123559200Y-112842800D02*
X119059200Y-112842800D01*
X124809200Y-116842800D02*
X124809200Y-115342800D01*
G04 #@! TO.C,U1*
X141137200Y-73701600D02*
X139887200Y-73701600D01*
X141137200Y-109381600D02*
X141137200Y-73701600D01*
X136637200Y-109381600D02*
X141137200Y-109381600D01*
X136637200Y-73701600D02*
X136637200Y-109381600D01*
X137887200Y-73701600D02*
X136637200Y-73701600D01*
X139887200Y-73701600D02*
G75*
G02X137887200Y-73701600I-1000000J0D01*
G01*
G04 #@! TO.C,U2*
X102384200Y-104212400D02*
X102384200Y-105722400D01*
X98683200Y-104212400D02*
X98683200Y-105722400D01*
X95413200Y-105722400D02*
X105653200Y-105722400D01*
X105653200Y-104212400D02*
X105653200Y-108853400D01*
X95413200Y-104212400D02*
X95413200Y-108853400D01*
X95413200Y-108853400D02*
X105653200Y-108853400D01*
X95413200Y-104212400D02*
X105653200Y-104212400D01*
G04 #@! TO.C,Y1*
X124699000Y-94917400D02*
G75*
G03X119649000Y-94917400I-2525000J0D01*
G01*
X124699000Y-101167400D02*
G75*
G02X119649000Y-101167400I-2525000J0D01*
G01*
X124699000Y-101167400D02*
X124699000Y-94917400D01*
X119649000Y-101167400D02*
X119649000Y-94917400D01*
G04 #@! TO.C,J7*
X100482400Y-126644400D02*
X90322400Y-126644400D01*
X100482400Y-134264400D02*
X100482400Y-126644400D01*
X90322400Y-134264400D02*
X100482400Y-134264400D01*
X90322400Y-126644400D02*
X90322400Y-134264400D01*
X90322400Y-127914400D02*
X100482400Y-127914400D01*
G04 #@! TO.C,J9*
X80690000Y-99212400D02*
X80690000Y-109372400D01*
X88310000Y-99212400D02*
X80690000Y-99212400D01*
X88310000Y-109372400D02*
X88310000Y-99212400D01*
X80690000Y-109372400D02*
X88310000Y-109372400D01*
X81960000Y-109372400D02*
X81960000Y-99212400D01*
G04 #@! TO.C,C1*
D10*
X148118533Y-91085942D02*
X148070914Y-91133561D01*
X147928057Y-91181180D01*
X147832819Y-91181180D01*
X147689961Y-91133561D01*
X147594723Y-91038323D01*
X147547104Y-90943085D01*
X147499485Y-90752609D01*
X147499485Y-90609752D01*
X147547104Y-90419276D01*
X147594723Y-90324038D01*
X147689961Y-90228800D01*
X147832819Y-90181180D01*
X147928057Y-90181180D01*
X148070914Y-90228800D01*
X148118533Y-90276419D01*
X149070914Y-91181180D02*
X148499485Y-91181180D01*
X148785200Y-91181180D02*
X148785200Y-90181180D01*
X148689961Y-90324038D01*
X148594723Y-90419276D01*
X148499485Y-90466895D01*
G04 #@! TO.C,C2*
X152334933Y-91035142D02*
X152287314Y-91082761D01*
X152144457Y-91130380D01*
X152049219Y-91130380D01*
X151906361Y-91082761D01*
X151811123Y-90987523D01*
X151763504Y-90892285D01*
X151715885Y-90701809D01*
X151715885Y-90558952D01*
X151763504Y-90368476D01*
X151811123Y-90273238D01*
X151906361Y-90178000D01*
X152049219Y-90130380D01*
X152144457Y-90130380D01*
X152287314Y-90178000D01*
X152334933Y-90225619D01*
X152715885Y-90225619D02*
X152763504Y-90178000D01*
X152858742Y-90130380D01*
X153096838Y-90130380D01*
X153192076Y-90178000D01*
X153239695Y-90225619D01*
X153287314Y-90320857D01*
X153287314Y-90416095D01*
X153239695Y-90558952D01*
X152668266Y-91130380D01*
X153287314Y-91130380D01*
G04 #@! TO.C,C3*
X166727142Y-85721866D02*
X166774761Y-85769485D01*
X166822380Y-85912342D01*
X166822380Y-86007580D01*
X166774761Y-86150438D01*
X166679523Y-86245676D01*
X166584285Y-86293295D01*
X166393809Y-86340914D01*
X166250952Y-86340914D01*
X166060476Y-86293295D01*
X165965238Y-86245676D01*
X165870000Y-86150438D01*
X165822380Y-86007580D01*
X165822380Y-85912342D01*
X165870000Y-85769485D01*
X165917619Y-85721866D01*
X165822380Y-85388533D02*
X165822380Y-84769485D01*
X166203333Y-85102819D01*
X166203333Y-84959961D01*
X166250952Y-84864723D01*
X166298571Y-84817104D01*
X166393809Y-84769485D01*
X166631904Y-84769485D01*
X166727142Y-84817104D01*
X166774761Y-84864723D01*
X166822380Y-84959961D01*
X166822380Y-85245676D01*
X166774761Y-85340914D01*
X166727142Y-85388533D01*
G04 #@! TO.C,C4*
X136412242Y-113958666D02*
X136459861Y-114006285D01*
X136507480Y-114149142D01*
X136507480Y-114244380D01*
X136459861Y-114387238D01*
X136364623Y-114482476D01*
X136269385Y-114530095D01*
X136078909Y-114577714D01*
X135936052Y-114577714D01*
X135745576Y-114530095D01*
X135650338Y-114482476D01*
X135555100Y-114387238D01*
X135507480Y-114244380D01*
X135507480Y-114149142D01*
X135555100Y-114006285D01*
X135602719Y-113958666D01*
X135840814Y-113101523D02*
X136507480Y-113101523D01*
X135459861Y-113339619D02*
X136174147Y-113577714D01*
X136174147Y-112958666D01*
G04 #@! TO.C,C5*
X142438333Y-111583742D02*
X142390714Y-111631361D01*
X142247857Y-111678980D01*
X142152619Y-111678980D01*
X142009761Y-111631361D01*
X141914523Y-111536123D01*
X141866904Y-111440885D01*
X141819285Y-111250409D01*
X141819285Y-111107552D01*
X141866904Y-110917076D01*
X141914523Y-110821838D01*
X142009761Y-110726600D01*
X142152619Y-110678980D01*
X142247857Y-110678980D01*
X142390714Y-110726600D01*
X142438333Y-110774219D01*
X143343095Y-110678980D02*
X142866904Y-110678980D01*
X142819285Y-111155171D01*
X142866904Y-111107552D01*
X142962142Y-111059933D01*
X143200238Y-111059933D01*
X143295476Y-111107552D01*
X143343095Y-111155171D01*
X143390714Y-111250409D01*
X143390714Y-111488504D01*
X143343095Y-111583742D01*
X143295476Y-111631361D01*
X143200238Y-111678980D01*
X142962142Y-111678980D01*
X142866904Y-111631361D01*
X142819285Y-111583742D01*
G04 #@! TO.C,C6*
X144359333Y-70816742D02*
X144311714Y-70864361D01*
X144168857Y-70911980D01*
X144073619Y-70911980D01*
X143930761Y-70864361D01*
X143835523Y-70769123D01*
X143787904Y-70673885D01*
X143740285Y-70483409D01*
X143740285Y-70340552D01*
X143787904Y-70150076D01*
X143835523Y-70054838D01*
X143930761Y-69959600D01*
X144073619Y-69911980D01*
X144168857Y-69911980D01*
X144311714Y-69959600D01*
X144359333Y-70007219D01*
X145216476Y-69911980D02*
X145026000Y-69911980D01*
X144930761Y-69959600D01*
X144883142Y-70007219D01*
X144787904Y-70150076D01*
X144740285Y-70340552D01*
X144740285Y-70721504D01*
X144787904Y-70816742D01*
X144835523Y-70864361D01*
X144930761Y-70911980D01*
X145121238Y-70911980D01*
X145216476Y-70864361D01*
X145264095Y-70816742D01*
X145311714Y-70721504D01*
X145311714Y-70483409D01*
X145264095Y-70388171D01*
X145216476Y-70340552D01*
X145121238Y-70292933D01*
X144930761Y-70292933D01*
X144835523Y-70340552D01*
X144787904Y-70388171D01*
X144740285Y-70483409D01*
G04 #@! TO.C,C7*
X140752533Y-70867542D02*
X140704914Y-70915161D01*
X140562057Y-70962780D01*
X140466819Y-70962780D01*
X140323961Y-70915161D01*
X140228723Y-70819923D01*
X140181104Y-70724685D01*
X140133485Y-70534209D01*
X140133485Y-70391352D01*
X140181104Y-70200876D01*
X140228723Y-70105638D01*
X140323961Y-70010400D01*
X140466819Y-69962780D01*
X140562057Y-69962780D01*
X140704914Y-70010400D01*
X140752533Y-70058019D01*
X141085866Y-69962780D02*
X141752533Y-69962780D01*
X141323961Y-70962780D01*
G04 #@! TO.C,C8*
X161853542Y-85606266D02*
X161901161Y-85653885D01*
X161948780Y-85796742D01*
X161948780Y-85891980D01*
X161901161Y-86034838D01*
X161805923Y-86130076D01*
X161710685Y-86177695D01*
X161520209Y-86225314D01*
X161377352Y-86225314D01*
X161186876Y-86177695D01*
X161091638Y-86130076D01*
X160996400Y-86034838D01*
X160948780Y-85891980D01*
X160948780Y-85796742D01*
X160996400Y-85653885D01*
X161044019Y-85606266D01*
X161377352Y-85034838D02*
X161329733Y-85130076D01*
X161282114Y-85177695D01*
X161186876Y-85225314D01*
X161139257Y-85225314D01*
X161044019Y-85177695D01*
X160996400Y-85130076D01*
X160948780Y-85034838D01*
X160948780Y-84844361D01*
X160996400Y-84749123D01*
X161044019Y-84701504D01*
X161139257Y-84653885D01*
X161186876Y-84653885D01*
X161282114Y-84701504D01*
X161329733Y-84749123D01*
X161377352Y-84844361D01*
X161377352Y-85034838D01*
X161424971Y-85130076D01*
X161472590Y-85177695D01*
X161567828Y-85225314D01*
X161758304Y-85225314D01*
X161853542Y-85177695D01*
X161901161Y-85130076D01*
X161948780Y-85034838D01*
X161948780Y-84844361D01*
X161901161Y-84749123D01*
X161853542Y-84701504D01*
X161758304Y-84653885D01*
X161567828Y-84653885D01*
X161472590Y-84701504D01*
X161424971Y-84749123D01*
X161377352Y-84844361D01*
G04 #@! TO.C,C9*
X128611333Y-85548742D02*
X128563714Y-85596361D01*
X128420857Y-85643980D01*
X128325619Y-85643980D01*
X128182761Y-85596361D01*
X128087523Y-85501123D01*
X128039904Y-85405885D01*
X127992285Y-85215409D01*
X127992285Y-85072552D01*
X128039904Y-84882076D01*
X128087523Y-84786838D01*
X128182761Y-84691600D01*
X128325619Y-84643980D01*
X128420857Y-84643980D01*
X128563714Y-84691600D01*
X128611333Y-84739219D01*
X129087523Y-85643980D02*
X129278000Y-85643980D01*
X129373238Y-85596361D01*
X129420857Y-85548742D01*
X129516095Y-85405885D01*
X129563714Y-85215409D01*
X129563714Y-84834457D01*
X129516095Y-84739219D01*
X129468476Y-84691600D01*
X129373238Y-84643980D01*
X129182761Y-84643980D01*
X129087523Y-84691600D01*
X129039904Y-84739219D01*
X128992285Y-84834457D01*
X128992285Y-85072552D01*
X129039904Y-85167790D01*
X129087523Y-85215409D01*
X129182761Y-85263028D01*
X129373238Y-85263028D01*
X129468476Y-85215409D01*
X129516095Y-85167790D01*
X129563714Y-85072552D01*
G04 #@! TO.C,C10*
X123664742Y-86005942D02*
X123617123Y-86053561D01*
X123474266Y-86101180D01*
X123379028Y-86101180D01*
X123236171Y-86053561D01*
X123140933Y-85958323D01*
X123093314Y-85863085D01*
X123045695Y-85672609D01*
X123045695Y-85529752D01*
X123093314Y-85339276D01*
X123140933Y-85244038D01*
X123236171Y-85148800D01*
X123379028Y-85101180D01*
X123474266Y-85101180D01*
X123617123Y-85148800D01*
X123664742Y-85196419D01*
X124617123Y-86101180D02*
X124045695Y-86101180D01*
X124331409Y-86101180D02*
X124331409Y-85101180D01*
X124236171Y-85244038D01*
X124140933Y-85339276D01*
X124045695Y-85386895D01*
X125236171Y-85101180D02*
X125331409Y-85101180D01*
X125426647Y-85148800D01*
X125474266Y-85196419D01*
X125521885Y-85291657D01*
X125569504Y-85482133D01*
X125569504Y-85720228D01*
X125521885Y-85910704D01*
X125474266Y-86005942D01*
X125426647Y-86053561D01*
X125331409Y-86101180D01*
X125236171Y-86101180D01*
X125140933Y-86053561D01*
X125093314Y-86005942D01*
X125045695Y-85910704D01*
X124998076Y-85720228D01*
X124998076Y-85482133D01*
X125045695Y-85291657D01*
X125093314Y-85196419D01*
X125140933Y-85148800D01*
X125236171Y-85101180D01*
G04 #@! TO.C,C11*
X127052342Y-94724457D02*
X127099961Y-94772076D01*
X127147580Y-94914933D01*
X127147580Y-95010171D01*
X127099961Y-95153028D01*
X127004723Y-95248266D01*
X126909485Y-95295885D01*
X126719009Y-95343504D01*
X126576152Y-95343504D01*
X126385676Y-95295885D01*
X126290438Y-95248266D01*
X126195200Y-95153028D01*
X126147580Y-95010171D01*
X126147580Y-94914933D01*
X126195200Y-94772076D01*
X126242819Y-94724457D01*
X127147580Y-93772076D02*
X127147580Y-94343504D01*
X127147580Y-94057790D02*
X126147580Y-94057790D01*
X126290438Y-94153028D01*
X126385676Y-94248266D01*
X126433295Y-94343504D01*
X127147580Y-92819695D02*
X127147580Y-93391123D01*
X127147580Y-93105409D02*
X126147580Y-93105409D01*
X126290438Y-93200647D01*
X126385676Y-93295885D01*
X126433295Y-93391123D01*
G04 #@! TO.C,C12*
X132691142Y-127338057D02*
X132738761Y-127385676D01*
X132786380Y-127528533D01*
X132786380Y-127623771D01*
X132738761Y-127766628D01*
X132643523Y-127861866D01*
X132548285Y-127909485D01*
X132357809Y-127957104D01*
X132214952Y-127957104D01*
X132024476Y-127909485D01*
X131929238Y-127861866D01*
X131834000Y-127766628D01*
X131786380Y-127623771D01*
X131786380Y-127528533D01*
X131834000Y-127385676D01*
X131881619Y-127338057D01*
X132786380Y-126385676D02*
X132786380Y-126957104D01*
X132786380Y-126671390D02*
X131786380Y-126671390D01*
X131929238Y-126766628D01*
X132024476Y-126861866D01*
X132072095Y-126957104D01*
X131881619Y-126004723D02*
X131834000Y-125957104D01*
X131786380Y-125861866D01*
X131786380Y-125623771D01*
X131834000Y-125528533D01*
X131881619Y-125480914D01*
X131976857Y-125433295D01*
X132072095Y-125433295D01*
X132214952Y-125480914D01*
X132786380Y-126052342D01*
X132786380Y-125433295D01*
G04 #@! TO.C,C13*
X132792742Y-113114057D02*
X132840361Y-113161676D01*
X132887980Y-113304533D01*
X132887980Y-113399771D01*
X132840361Y-113542628D01*
X132745123Y-113637866D01*
X132649885Y-113685485D01*
X132459409Y-113733104D01*
X132316552Y-113733104D01*
X132126076Y-113685485D01*
X132030838Y-113637866D01*
X131935600Y-113542628D01*
X131887980Y-113399771D01*
X131887980Y-113304533D01*
X131935600Y-113161676D01*
X131983219Y-113114057D01*
X132887980Y-112161676D02*
X132887980Y-112733104D01*
X132887980Y-112447390D02*
X131887980Y-112447390D01*
X132030838Y-112542628D01*
X132126076Y-112637866D01*
X132173695Y-112733104D01*
X131887980Y-111828342D02*
X131887980Y-111209295D01*
X132268933Y-111542628D01*
X132268933Y-111399771D01*
X132316552Y-111304533D01*
X132364171Y-111256914D01*
X132459409Y-111209295D01*
X132697504Y-111209295D01*
X132792742Y-111256914D01*
X132840361Y-111304533D01*
X132887980Y-111399771D01*
X132887980Y-111685485D01*
X132840361Y-111780723D01*
X132792742Y-111828342D01*
G04 #@! TO.C,C14*
X127103142Y-102090457D02*
X127150761Y-102138076D01*
X127198380Y-102280933D01*
X127198380Y-102376171D01*
X127150761Y-102519028D01*
X127055523Y-102614266D01*
X126960285Y-102661885D01*
X126769809Y-102709504D01*
X126626952Y-102709504D01*
X126436476Y-102661885D01*
X126341238Y-102614266D01*
X126246000Y-102519028D01*
X126198380Y-102376171D01*
X126198380Y-102280933D01*
X126246000Y-102138076D01*
X126293619Y-102090457D01*
X127198380Y-101138076D02*
X127198380Y-101709504D01*
X127198380Y-101423790D02*
X126198380Y-101423790D01*
X126341238Y-101519028D01*
X126436476Y-101614266D01*
X126484095Y-101709504D01*
X126531714Y-100280933D02*
X127198380Y-100280933D01*
X126150761Y-100519028D02*
X126865047Y-100757123D01*
X126865047Y-100138076D01*
G04 #@! TO.C,C15*
X156853542Y-86082457D02*
X156901161Y-86130076D01*
X156948780Y-86272933D01*
X156948780Y-86368171D01*
X156901161Y-86511028D01*
X156805923Y-86606266D01*
X156710685Y-86653885D01*
X156520209Y-86701504D01*
X156377352Y-86701504D01*
X156186876Y-86653885D01*
X156091638Y-86606266D01*
X155996400Y-86511028D01*
X155948780Y-86368171D01*
X155948780Y-86272933D01*
X155996400Y-86130076D01*
X156044019Y-86082457D01*
X156948780Y-85130076D02*
X156948780Y-85701504D01*
X156948780Y-85415790D02*
X155948780Y-85415790D01*
X156091638Y-85511028D01*
X156186876Y-85606266D01*
X156234495Y-85701504D01*
X155948780Y-84225314D02*
X155948780Y-84701504D01*
X156424971Y-84749123D01*
X156377352Y-84701504D01*
X156329733Y-84606266D01*
X156329733Y-84368171D01*
X156377352Y-84272933D01*
X156424971Y-84225314D01*
X156520209Y-84177695D01*
X156758304Y-84177695D01*
X156853542Y-84225314D01*
X156901161Y-84272933D01*
X156948780Y-84368171D01*
X156948780Y-84606266D01*
X156901161Y-84701504D01*
X156853542Y-84749123D01*
G04 #@! TO.C,C16*
X151853542Y-86082457D02*
X151901161Y-86130076D01*
X151948780Y-86272933D01*
X151948780Y-86368171D01*
X151901161Y-86511028D01*
X151805923Y-86606266D01*
X151710685Y-86653885D01*
X151520209Y-86701504D01*
X151377352Y-86701504D01*
X151186876Y-86653885D01*
X151091638Y-86606266D01*
X150996400Y-86511028D01*
X150948780Y-86368171D01*
X150948780Y-86272933D01*
X150996400Y-86130076D01*
X151044019Y-86082457D01*
X151948780Y-85130076D02*
X151948780Y-85701504D01*
X151948780Y-85415790D02*
X150948780Y-85415790D01*
X151091638Y-85511028D01*
X151186876Y-85606266D01*
X151234495Y-85701504D01*
X150948780Y-84272933D02*
X150948780Y-84463409D01*
X150996400Y-84558647D01*
X151044019Y-84606266D01*
X151186876Y-84701504D01*
X151377352Y-84749123D01*
X151758304Y-84749123D01*
X151853542Y-84701504D01*
X151901161Y-84653885D01*
X151948780Y-84558647D01*
X151948780Y-84368171D01*
X151901161Y-84272933D01*
X151853542Y-84225314D01*
X151758304Y-84177695D01*
X151520209Y-84177695D01*
X151424971Y-84225314D01*
X151377352Y-84272933D01*
X151329733Y-84368171D01*
X151329733Y-84558647D01*
X151377352Y-84653885D01*
X151424971Y-84701504D01*
X151520209Y-84749123D01*
G04 #@! TO.C,C17*
X113199942Y-75287142D02*
X113152323Y-75334761D01*
X113009466Y-75382380D01*
X112914228Y-75382380D01*
X112771371Y-75334761D01*
X112676133Y-75239523D01*
X112628514Y-75144285D01*
X112580895Y-74953809D01*
X112580895Y-74810952D01*
X112628514Y-74620476D01*
X112676133Y-74525238D01*
X112771371Y-74430000D01*
X112914228Y-74382380D01*
X113009466Y-74382380D01*
X113152323Y-74430000D01*
X113199942Y-74477619D01*
X114152323Y-75382380D02*
X113580895Y-75382380D01*
X113866609Y-75382380D02*
X113866609Y-74382380D01*
X113771371Y-74525238D01*
X113676133Y-74620476D01*
X113580895Y-74668095D01*
X114485657Y-74382380D02*
X115152323Y-74382380D01*
X114723752Y-75382380D01*
G04 #@! TO.C,C18*
X105919542Y-73490057D02*
X105967161Y-73537676D01*
X106014780Y-73680533D01*
X106014780Y-73775771D01*
X105967161Y-73918628D01*
X105871923Y-74013866D01*
X105776685Y-74061485D01*
X105586209Y-74109104D01*
X105443352Y-74109104D01*
X105252876Y-74061485D01*
X105157638Y-74013866D01*
X105062400Y-73918628D01*
X105014780Y-73775771D01*
X105014780Y-73680533D01*
X105062400Y-73537676D01*
X105110019Y-73490057D01*
X106014780Y-72537676D02*
X106014780Y-73109104D01*
X106014780Y-72823390D02*
X105014780Y-72823390D01*
X105157638Y-72918628D01*
X105252876Y-73013866D01*
X105300495Y-73109104D01*
X105443352Y-71966247D02*
X105395733Y-72061485D01*
X105348114Y-72109104D01*
X105252876Y-72156723D01*
X105205257Y-72156723D01*
X105110019Y-72109104D01*
X105062400Y-72061485D01*
X105014780Y-71966247D01*
X105014780Y-71775771D01*
X105062400Y-71680533D01*
X105110019Y-71632914D01*
X105205257Y-71585295D01*
X105252876Y-71585295D01*
X105348114Y-71632914D01*
X105395733Y-71680533D01*
X105443352Y-71775771D01*
X105443352Y-71966247D01*
X105490971Y-72061485D01*
X105538590Y-72109104D01*
X105633828Y-72156723D01*
X105824304Y-72156723D01*
X105919542Y-72109104D01*
X105967161Y-72061485D01*
X106014780Y-71966247D01*
X106014780Y-71775771D01*
X105967161Y-71680533D01*
X105919542Y-71632914D01*
X105824304Y-71585295D01*
X105633828Y-71585295D01*
X105538590Y-71632914D01*
X105490971Y-71680533D01*
X105443352Y-71775771D01*
G04 #@! TO.C,C21*
X168911542Y-118448057D02*
X168959161Y-118495676D01*
X169006780Y-118638533D01*
X169006780Y-118733771D01*
X168959161Y-118876628D01*
X168863923Y-118971866D01*
X168768685Y-119019485D01*
X168578209Y-119067104D01*
X168435352Y-119067104D01*
X168244876Y-119019485D01*
X168149638Y-118971866D01*
X168054400Y-118876628D01*
X168006780Y-118733771D01*
X168006780Y-118638533D01*
X168054400Y-118495676D01*
X168102019Y-118448057D01*
X168102019Y-118067104D02*
X168054400Y-118019485D01*
X168006780Y-117924247D01*
X168006780Y-117686152D01*
X168054400Y-117590914D01*
X168102019Y-117543295D01*
X168197257Y-117495676D01*
X168292495Y-117495676D01*
X168435352Y-117543295D01*
X169006780Y-118114723D01*
X169006780Y-117495676D01*
X169006780Y-116543295D02*
X169006780Y-117114723D01*
X169006780Y-116829009D02*
X168006780Y-116829009D01*
X168149638Y-116924247D01*
X168244876Y-117019485D01*
X168292495Y-117114723D01*
G04 #@! TO.C,C22*
X91035142Y-111691657D02*
X91082761Y-111739276D01*
X91130380Y-111882133D01*
X91130380Y-111977371D01*
X91082761Y-112120228D01*
X90987523Y-112215466D01*
X90892285Y-112263085D01*
X90701809Y-112310704D01*
X90558952Y-112310704D01*
X90368476Y-112263085D01*
X90273238Y-112215466D01*
X90178000Y-112120228D01*
X90130380Y-111977371D01*
X90130380Y-111882133D01*
X90178000Y-111739276D01*
X90225619Y-111691657D01*
X90225619Y-111310704D02*
X90178000Y-111263085D01*
X90130380Y-111167847D01*
X90130380Y-110929752D01*
X90178000Y-110834514D01*
X90225619Y-110786895D01*
X90320857Y-110739276D01*
X90416095Y-110739276D01*
X90558952Y-110786895D01*
X91130380Y-111358323D01*
X91130380Y-110739276D01*
X90225619Y-110358323D02*
X90178000Y-110310704D01*
X90130380Y-110215466D01*
X90130380Y-109977371D01*
X90178000Y-109882133D01*
X90225619Y-109834514D01*
X90320857Y-109786895D01*
X90416095Y-109786895D01*
X90558952Y-109834514D01*
X91130380Y-110405942D01*
X91130380Y-109786895D01*
G04 #@! TO.C,C23*
X103121542Y-111507542D02*
X103073923Y-111555161D01*
X102931066Y-111602780D01*
X102835828Y-111602780D01*
X102692971Y-111555161D01*
X102597733Y-111459923D01*
X102550114Y-111364685D01*
X102502495Y-111174209D01*
X102502495Y-111031352D01*
X102550114Y-110840876D01*
X102597733Y-110745638D01*
X102692971Y-110650400D01*
X102835828Y-110602780D01*
X102931066Y-110602780D01*
X103073923Y-110650400D01*
X103121542Y-110698019D01*
X103502495Y-110698019D02*
X103550114Y-110650400D01*
X103645352Y-110602780D01*
X103883447Y-110602780D01*
X103978685Y-110650400D01*
X104026304Y-110698019D01*
X104073923Y-110793257D01*
X104073923Y-110888495D01*
X104026304Y-111031352D01*
X103454876Y-111602780D01*
X104073923Y-111602780D01*
X104407257Y-110602780D02*
X105026304Y-110602780D01*
X104692971Y-110983733D01*
X104835828Y-110983733D01*
X104931066Y-111031352D01*
X104978685Y-111078971D01*
X105026304Y-111174209D01*
X105026304Y-111412304D01*
X104978685Y-111507542D01*
X104931066Y-111555161D01*
X104835828Y-111602780D01*
X104550114Y-111602780D01*
X104454876Y-111555161D01*
X104407257Y-111507542D01*
G04 #@! TO.C,C24*
X109928742Y-102566742D02*
X109881123Y-102614361D01*
X109738266Y-102661980D01*
X109643028Y-102661980D01*
X109500171Y-102614361D01*
X109404933Y-102519123D01*
X109357314Y-102423885D01*
X109309695Y-102233409D01*
X109309695Y-102090552D01*
X109357314Y-101900076D01*
X109404933Y-101804838D01*
X109500171Y-101709600D01*
X109643028Y-101661980D01*
X109738266Y-101661980D01*
X109881123Y-101709600D01*
X109928742Y-101757219D01*
X110309695Y-101757219D02*
X110357314Y-101709600D01*
X110452552Y-101661980D01*
X110690647Y-101661980D01*
X110785885Y-101709600D01*
X110833504Y-101757219D01*
X110881123Y-101852457D01*
X110881123Y-101947695D01*
X110833504Y-102090552D01*
X110262076Y-102661980D01*
X110881123Y-102661980D01*
X111738266Y-101995314D02*
X111738266Y-102661980D01*
X111500171Y-101614361D02*
X111262076Y-102328647D01*
X111881123Y-102328647D01*
G04 #@! TO.C,C25*
X109928742Y-110440742D02*
X109881123Y-110488361D01*
X109738266Y-110535980D01*
X109643028Y-110535980D01*
X109500171Y-110488361D01*
X109404933Y-110393123D01*
X109357314Y-110297885D01*
X109309695Y-110107409D01*
X109309695Y-109964552D01*
X109357314Y-109774076D01*
X109404933Y-109678838D01*
X109500171Y-109583600D01*
X109643028Y-109535980D01*
X109738266Y-109535980D01*
X109881123Y-109583600D01*
X109928742Y-109631219D01*
X110309695Y-109631219D02*
X110357314Y-109583600D01*
X110452552Y-109535980D01*
X110690647Y-109535980D01*
X110785885Y-109583600D01*
X110833504Y-109631219D01*
X110881123Y-109726457D01*
X110881123Y-109821695D01*
X110833504Y-109964552D01*
X110262076Y-110535980D01*
X110881123Y-110535980D01*
X111785885Y-109535980D02*
X111309695Y-109535980D01*
X111262076Y-110012171D01*
X111309695Y-109964552D01*
X111404933Y-109916933D01*
X111643028Y-109916933D01*
X111738266Y-109964552D01*
X111785885Y-110012171D01*
X111833504Y-110107409D01*
X111833504Y-110345504D01*
X111785885Y-110440742D01*
X111738266Y-110488361D01*
X111643028Y-110535980D01*
X111404933Y-110535980D01*
X111309695Y-110488361D01*
X111262076Y-110440742D01*
G04 #@! TO.C,D1*
X99839504Y-86810380D02*
X99839504Y-85810380D01*
X100077600Y-85810380D01*
X100220457Y-85858000D01*
X100315695Y-85953238D01*
X100363314Y-86048476D01*
X100410933Y-86238952D01*
X100410933Y-86381809D01*
X100363314Y-86572285D01*
X100315695Y-86667523D01*
X100220457Y-86762761D01*
X100077600Y-86810380D01*
X99839504Y-86810380D01*
X101363314Y-86810380D02*
X100791885Y-86810380D01*
X101077600Y-86810380D02*
X101077600Y-85810380D01*
X100982361Y-85953238D01*
X100887123Y-86048476D01*
X100791885Y-86096095D01*
G04 #@! TO.C,D2*
X99744304Y-76880980D02*
X99744304Y-75880980D01*
X99982400Y-75880980D01*
X100125257Y-75928600D01*
X100220495Y-76023838D01*
X100268114Y-76119076D01*
X100315733Y-76309552D01*
X100315733Y-76452409D01*
X100268114Y-76642885D01*
X100220495Y-76738123D01*
X100125257Y-76833361D01*
X99982400Y-76880980D01*
X99744304Y-76880980D01*
X100696685Y-75976219D02*
X100744304Y-75928600D01*
X100839542Y-75880980D01*
X101077638Y-75880980D01*
X101172876Y-75928600D01*
X101220495Y-75976219D01*
X101268114Y-76071457D01*
X101268114Y-76166695D01*
X101220495Y-76309552D01*
X100649066Y-76880980D01*
X101268114Y-76880980D01*
G04 #@! TO.C,D3*
X95499180Y-117120895D02*
X94499180Y-117120895D01*
X94499180Y-116882800D01*
X94546800Y-116739942D01*
X94642038Y-116644704D01*
X94737276Y-116597085D01*
X94927752Y-116549466D01*
X95070609Y-116549466D01*
X95261085Y-116597085D01*
X95356323Y-116644704D01*
X95451561Y-116739942D01*
X95499180Y-116882800D01*
X95499180Y-117120895D01*
X94499180Y-116216133D02*
X94499180Y-115597085D01*
X94880133Y-115930419D01*
X94880133Y-115787561D01*
X94927752Y-115692323D01*
X94975371Y-115644704D01*
X95070609Y-115597085D01*
X95308704Y-115597085D01*
X95403942Y-115644704D01*
X95451561Y-115692323D01*
X95499180Y-115787561D01*
X95499180Y-116073276D01*
X95451561Y-116168514D01*
X95403942Y-116216133D01*
G04 #@! TO.C,D4*
X117397304Y-126664980D02*
X117397304Y-125664980D01*
X117635400Y-125664980D01*
X117778257Y-125712600D01*
X117873495Y-125807838D01*
X117921114Y-125903076D01*
X117968733Y-126093552D01*
X117968733Y-126236409D01*
X117921114Y-126426885D01*
X117873495Y-126522123D01*
X117778257Y-126617361D01*
X117635400Y-126664980D01*
X117397304Y-126664980D01*
X118825876Y-125998314D02*
X118825876Y-126664980D01*
X118587780Y-125617361D02*
X118349685Y-126331647D01*
X118968733Y-126331647D01*
G04 #@! TO.C,J1*
X146072266Y-121016780D02*
X146072266Y-121731066D01*
X146024647Y-121873923D01*
X145929409Y-121969161D01*
X145786552Y-122016780D01*
X145691314Y-122016780D01*
X147072266Y-122016780D02*
X146500838Y-122016780D01*
X146786552Y-122016780D02*
X146786552Y-121016780D01*
X146691314Y-121159638D01*
X146596076Y-121254876D01*
X146500838Y-121302495D01*
G04 #@! TO.C,J2*
X145411866Y-63104780D02*
X145411866Y-63819066D01*
X145364247Y-63961923D01*
X145269009Y-64057161D01*
X145126152Y-64104780D01*
X145030914Y-64104780D01*
X145840438Y-63200019D02*
X145888057Y-63152400D01*
X145983295Y-63104780D01*
X146221390Y-63104780D01*
X146316628Y-63152400D01*
X146364247Y-63200019D01*
X146411866Y-63295257D01*
X146411866Y-63390495D01*
X146364247Y-63533352D01*
X145792819Y-64104780D01*
X146411866Y-64104780D01*
G04 #@! TO.C,J3*
X117471866Y-66355980D02*
X117471866Y-67070266D01*
X117424247Y-67213123D01*
X117329009Y-67308361D01*
X117186152Y-67355980D01*
X117090914Y-67355980D01*
X117852819Y-66355980D02*
X118471866Y-66355980D01*
X118138533Y-66736933D01*
X118281390Y-66736933D01*
X118376628Y-66784552D01*
X118424247Y-66832171D01*
X118471866Y-66927409D01*
X118471866Y-67165504D01*
X118424247Y-67260742D01*
X118376628Y-67308361D01*
X118281390Y-67355980D01*
X117995676Y-67355980D01*
X117900438Y-67308361D01*
X117852819Y-67260742D01*
G04 #@! TO.C,J4*
X159534266Y-92467180D02*
X159534266Y-93181466D01*
X159486647Y-93324323D01*
X159391409Y-93419561D01*
X159248552Y-93467180D01*
X159153314Y-93467180D01*
X160439028Y-92800514D02*
X160439028Y-93467180D01*
X160200933Y-92419561D02*
X159962838Y-93133847D01*
X160581885Y-93133847D01*
G04 #@! TO.C,J5*
X84115866Y-112380780D02*
X84115866Y-113095066D01*
X84068247Y-113237923D01*
X83973009Y-113333161D01*
X83830152Y-113380780D01*
X83734914Y-113380780D01*
X85068247Y-112380780D02*
X84592057Y-112380780D01*
X84544438Y-112856971D01*
X84592057Y-112809352D01*
X84687295Y-112761733D01*
X84925390Y-112761733D01*
X85020628Y-112809352D01*
X85068247Y-112856971D01*
X85115866Y-112952209D01*
X85115866Y-113190304D01*
X85068247Y-113285542D01*
X85020628Y-113333161D01*
X84925390Y-113380780D01*
X84687295Y-113380780D01*
X84592057Y-113333161D01*
X84544438Y-113285542D01*
G04 #@! TO.C,J6*
X147850266Y-117714780D02*
X147850266Y-118429066D01*
X147802647Y-118571923D01*
X147707409Y-118667161D01*
X147564552Y-118714780D01*
X147469314Y-118714780D01*
X148755028Y-117714780D02*
X148564552Y-117714780D01*
X148469314Y-117762400D01*
X148421695Y-117810019D01*
X148326457Y-117952876D01*
X148278838Y-118143352D01*
X148278838Y-118524304D01*
X148326457Y-118619542D01*
X148374076Y-118667161D01*
X148469314Y-118714780D01*
X148659790Y-118714780D01*
X148755028Y-118667161D01*
X148802647Y-118619542D01*
X148850266Y-118524304D01*
X148850266Y-118286209D01*
X148802647Y-118190971D01*
X148755028Y-118143352D01*
X148659790Y-118095733D01*
X148469314Y-118095733D01*
X148374076Y-118143352D01*
X148326457Y-118190971D01*
X148278838Y-118286209D01*
G04 #@! TO.C,J8*
X110664666Y-120534180D02*
X110664666Y-121248466D01*
X110617047Y-121391323D01*
X110521809Y-121486561D01*
X110378952Y-121534180D01*
X110283714Y-121534180D01*
X111283714Y-120962752D02*
X111188476Y-120915133D01*
X111140857Y-120867514D01*
X111093238Y-120772276D01*
X111093238Y-120724657D01*
X111140857Y-120629419D01*
X111188476Y-120581800D01*
X111283714Y-120534180D01*
X111474190Y-120534180D01*
X111569428Y-120581800D01*
X111617047Y-120629419D01*
X111664666Y-120724657D01*
X111664666Y-120772276D01*
X111617047Y-120867514D01*
X111569428Y-120915133D01*
X111474190Y-120962752D01*
X111283714Y-120962752D01*
X111188476Y-121010371D01*
X111140857Y-121057990D01*
X111093238Y-121153228D01*
X111093238Y-121343704D01*
X111140857Y-121438942D01*
X111188476Y-121486561D01*
X111283714Y-121534180D01*
X111474190Y-121534180D01*
X111569428Y-121486561D01*
X111617047Y-121438942D01*
X111664666Y-121343704D01*
X111664666Y-121153228D01*
X111617047Y-121057990D01*
X111569428Y-121010371D01*
X111474190Y-120962752D01*
G04 #@! TO.C,R1*
X164487180Y-71867066D02*
X164010990Y-72200400D01*
X164487180Y-72438495D02*
X163487180Y-72438495D01*
X163487180Y-72057542D01*
X163534800Y-71962304D01*
X163582419Y-71914685D01*
X163677657Y-71867066D01*
X163820514Y-71867066D01*
X163915752Y-71914685D01*
X163963371Y-71962304D01*
X164010990Y-72057542D01*
X164010990Y-72438495D01*
X164487180Y-70914685D02*
X164487180Y-71486114D01*
X164487180Y-71200400D02*
X163487180Y-71200400D01*
X163630038Y-71295638D01*
X163725276Y-71390876D01*
X163772895Y-71486114D01*
G04 #@! TO.C,R2*
X159588780Y-72070266D02*
X159112590Y-72403600D01*
X159588780Y-72641695D02*
X158588780Y-72641695D01*
X158588780Y-72260742D01*
X158636400Y-72165504D01*
X158684019Y-72117885D01*
X158779257Y-72070266D01*
X158922114Y-72070266D01*
X159017352Y-72117885D01*
X159064971Y-72165504D01*
X159112590Y-72260742D01*
X159112590Y-72641695D01*
X158684019Y-71689314D02*
X158636400Y-71641695D01*
X158588780Y-71546457D01*
X158588780Y-71308361D01*
X158636400Y-71213123D01*
X158684019Y-71165504D01*
X158779257Y-71117885D01*
X158874495Y-71117885D01*
X159017352Y-71165504D01*
X159588780Y-71736933D01*
X159588780Y-71117885D01*
G04 #@! TO.C,R3*
X154588780Y-72070266D02*
X154112590Y-72403600D01*
X154588780Y-72641695D02*
X153588780Y-72641695D01*
X153588780Y-72260742D01*
X153636400Y-72165504D01*
X153684019Y-72117885D01*
X153779257Y-72070266D01*
X153922114Y-72070266D01*
X154017352Y-72117885D01*
X154064971Y-72165504D01*
X154112590Y-72260742D01*
X154112590Y-72641695D01*
X153588780Y-71736933D02*
X153588780Y-71117885D01*
X153969733Y-71451219D01*
X153969733Y-71308361D01*
X154017352Y-71213123D01*
X154064971Y-71165504D01*
X154160209Y-71117885D01*
X154398304Y-71117885D01*
X154493542Y-71165504D01*
X154541161Y-71213123D01*
X154588780Y-71308361D01*
X154588780Y-71594076D01*
X154541161Y-71689314D01*
X154493542Y-71736933D01*
G04 #@! TO.C,R4*
X133219580Y-66613066D02*
X132743390Y-66946400D01*
X133219580Y-67184495D02*
X132219580Y-67184495D01*
X132219580Y-66803542D01*
X132267200Y-66708304D01*
X132314819Y-66660685D01*
X132410057Y-66613066D01*
X132552914Y-66613066D01*
X132648152Y-66660685D01*
X132695771Y-66708304D01*
X132743390Y-66803542D01*
X132743390Y-67184495D01*
X132552914Y-65755923D02*
X133219580Y-65755923D01*
X132171961Y-65994019D02*
X132886247Y-66232114D01*
X132886247Y-65613066D01*
G04 #@! TO.C,R5*
X149588780Y-72019466D02*
X149112590Y-72352800D01*
X149588780Y-72590895D02*
X148588780Y-72590895D01*
X148588780Y-72209942D01*
X148636400Y-72114704D01*
X148684019Y-72067085D01*
X148779257Y-72019466D01*
X148922114Y-72019466D01*
X149017352Y-72067085D01*
X149064971Y-72114704D01*
X149112590Y-72209942D01*
X149112590Y-72590895D01*
X148588780Y-71114704D02*
X148588780Y-71590895D01*
X149064971Y-71638514D01*
X149017352Y-71590895D01*
X148969733Y-71495657D01*
X148969733Y-71257561D01*
X149017352Y-71162323D01*
X149064971Y-71114704D01*
X149160209Y-71067085D01*
X149398304Y-71067085D01*
X149493542Y-71114704D01*
X149541161Y-71162323D01*
X149588780Y-71257561D01*
X149588780Y-71495657D01*
X149541161Y-71590895D01*
X149493542Y-71638514D01*
G04 #@! TO.C,R6*
X111950933Y-87804380D02*
X111617600Y-87328190D01*
X111379504Y-87804380D02*
X111379504Y-86804380D01*
X111760457Y-86804380D01*
X111855695Y-86852000D01*
X111903314Y-86899619D01*
X111950933Y-86994857D01*
X111950933Y-87137714D01*
X111903314Y-87232952D01*
X111855695Y-87280571D01*
X111760457Y-87328190D01*
X111379504Y-87328190D01*
X112808076Y-86804380D02*
X112617600Y-86804380D01*
X112522361Y-86852000D01*
X112474742Y-86899619D01*
X112379504Y-87042476D01*
X112331885Y-87232952D01*
X112331885Y-87613904D01*
X112379504Y-87709142D01*
X112427123Y-87756761D01*
X112522361Y-87804380D01*
X112712838Y-87804380D01*
X112808076Y-87756761D01*
X112855695Y-87709142D01*
X112903314Y-87613904D01*
X112903314Y-87375809D01*
X112855695Y-87280571D01*
X112808076Y-87232952D01*
X112712838Y-87185333D01*
X112522361Y-87185333D01*
X112427123Y-87232952D01*
X112379504Y-87280571D01*
X112331885Y-87375809D01*
G04 #@! TO.C,R7*
X120584933Y-106346380D02*
X120251600Y-105870190D01*
X120013504Y-106346380D02*
X120013504Y-105346380D01*
X120394457Y-105346380D01*
X120489695Y-105394000D01*
X120537314Y-105441619D01*
X120584933Y-105536857D01*
X120584933Y-105679714D01*
X120537314Y-105774952D01*
X120489695Y-105822571D01*
X120394457Y-105870190D01*
X120013504Y-105870190D01*
X120918266Y-105346380D02*
X121584933Y-105346380D01*
X121156361Y-106346380D01*
G04 #@! TO.C,R8*
X111950933Y-82876780D02*
X111617600Y-82400590D01*
X111379504Y-82876780D02*
X111379504Y-81876780D01*
X111760457Y-81876780D01*
X111855695Y-81924400D01*
X111903314Y-81972019D01*
X111950933Y-82067257D01*
X111950933Y-82210114D01*
X111903314Y-82305352D01*
X111855695Y-82352971D01*
X111760457Y-82400590D01*
X111379504Y-82400590D01*
X112522361Y-82305352D02*
X112427123Y-82257733D01*
X112379504Y-82210114D01*
X112331885Y-82114876D01*
X112331885Y-82067257D01*
X112379504Y-81972019D01*
X112427123Y-81924400D01*
X112522361Y-81876780D01*
X112712838Y-81876780D01*
X112808076Y-81924400D01*
X112855695Y-81972019D01*
X112903314Y-82067257D01*
X112903314Y-82114876D01*
X112855695Y-82210114D01*
X112808076Y-82257733D01*
X112712838Y-82305352D01*
X112522361Y-82305352D01*
X112427123Y-82352971D01*
X112379504Y-82400590D01*
X112331885Y-82495828D01*
X112331885Y-82686304D01*
X112379504Y-82781542D01*
X112427123Y-82829161D01*
X112522361Y-82876780D01*
X112712838Y-82876780D01*
X112808076Y-82829161D01*
X112855695Y-82781542D01*
X112903314Y-82686304D01*
X112903314Y-82495828D01*
X112855695Y-82400590D01*
X112808076Y-82352971D01*
X112712838Y-82305352D01*
G04 #@! TO.C,R9*
X126985733Y-129636780D02*
X126652400Y-129160590D01*
X126414304Y-129636780D02*
X126414304Y-128636780D01*
X126795257Y-128636780D01*
X126890495Y-128684400D01*
X126938114Y-128732019D01*
X126985733Y-128827257D01*
X126985733Y-128970114D01*
X126938114Y-129065352D01*
X126890495Y-129112971D01*
X126795257Y-129160590D01*
X126414304Y-129160590D01*
X127461923Y-129636780D02*
X127652400Y-129636780D01*
X127747638Y-129589161D01*
X127795257Y-129541542D01*
X127890495Y-129398685D01*
X127938114Y-129208209D01*
X127938114Y-128827257D01*
X127890495Y-128732019D01*
X127842876Y-128684400D01*
X127747638Y-128636780D01*
X127557161Y-128636780D01*
X127461923Y-128684400D01*
X127414304Y-128732019D01*
X127366685Y-128827257D01*
X127366685Y-129065352D01*
X127414304Y-129160590D01*
X127461923Y-129208209D01*
X127557161Y-129255828D01*
X127747638Y-129255828D01*
X127842876Y-129208209D01*
X127890495Y-129160590D01*
X127938114Y-129065352D01*
G04 #@! TO.C,SW1*
X124804266Y-71695961D02*
X124947123Y-71743580D01*
X125185219Y-71743580D01*
X125280457Y-71695961D01*
X125328076Y-71648342D01*
X125375695Y-71553104D01*
X125375695Y-71457866D01*
X125328076Y-71362628D01*
X125280457Y-71315009D01*
X125185219Y-71267390D01*
X124994742Y-71219771D01*
X124899504Y-71172152D01*
X124851885Y-71124533D01*
X124804266Y-71029295D01*
X124804266Y-70934057D01*
X124851885Y-70838819D01*
X124899504Y-70791200D01*
X124994742Y-70743580D01*
X125232838Y-70743580D01*
X125375695Y-70791200D01*
X125709028Y-70743580D02*
X125947123Y-71743580D01*
X126137600Y-71029295D01*
X126328076Y-71743580D01*
X126566171Y-70743580D01*
X127470933Y-71743580D02*
X126899504Y-71743580D01*
X127185219Y-71743580D02*
X127185219Y-70743580D01*
X127089980Y-70886438D01*
X126994742Y-70981676D01*
X126899504Y-71029295D01*
G04 #@! TO.C,SW2*
X119975866Y-112247561D02*
X120118723Y-112295180D01*
X120356819Y-112295180D01*
X120452057Y-112247561D01*
X120499676Y-112199942D01*
X120547295Y-112104704D01*
X120547295Y-112009466D01*
X120499676Y-111914228D01*
X120452057Y-111866609D01*
X120356819Y-111818990D01*
X120166342Y-111771371D01*
X120071104Y-111723752D01*
X120023485Y-111676133D01*
X119975866Y-111580895D01*
X119975866Y-111485657D01*
X120023485Y-111390419D01*
X120071104Y-111342800D01*
X120166342Y-111295180D01*
X120404438Y-111295180D01*
X120547295Y-111342800D01*
X120880628Y-111295180D02*
X121118723Y-112295180D01*
X121309200Y-111580895D01*
X121499676Y-112295180D01*
X121737771Y-111295180D01*
X122071104Y-111390419D02*
X122118723Y-111342800D01*
X122213961Y-111295180D01*
X122452057Y-111295180D01*
X122547295Y-111342800D01*
X122594914Y-111390419D01*
X122642533Y-111485657D01*
X122642533Y-111580895D01*
X122594914Y-111723752D01*
X122023485Y-112295180D01*
X122642533Y-112295180D01*
G04 #@! TO.C,U1*
X138125295Y-72153980D02*
X138125295Y-72963504D01*
X138172914Y-73058742D01*
X138220533Y-73106361D01*
X138315771Y-73153980D01*
X138506247Y-73153980D01*
X138601485Y-73106361D01*
X138649104Y-73058742D01*
X138696723Y-72963504D01*
X138696723Y-72153980D01*
X139696723Y-73153980D02*
X139125295Y-73153980D01*
X139411009Y-73153980D02*
X139411009Y-72153980D01*
X139315771Y-72296838D01*
X139220533Y-72392076D01*
X139125295Y-72439695D01*
G04 #@! TO.C,U2*
X99771295Y-102664780D02*
X99771295Y-103474304D01*
X99818914Y-103569542D01*
X99866533Y-103617161D01*
X99961771Y-103664780D01*
X100152247Y-103664780D01*
X100247485Y-103617161D01*
X100295104Y-103569542D01*
X100342723Y-103474304D01*
X100342723Y-102664780D01*
X100771295Y-102760019D02*
X100818914Y-102712400D01*
X100914152Y-102664780D01*
X101152247Y-102664780D01*
X101247485Y-102712400D01*
X101295104Y-102760019D01*
X101342723Y-102855257D01*
X101342723Y-102950495D01*
X101295104Y-103093352D01*
X100723676Y-103664780D01*
X101342723Y-103664780D01*
G04 #@! TO.C,Y1*
X118625190Y-98518590D02*
X119101380Y-98518590D01*
X118101380Y-98851923D02*
X118625190Y-98518590D01*
X118101380Y-98185257D01*
X119101380Y-97328114D02*
X119101380Y-97899542D01*
X119101380Y-97613828D02*
X118101380Y-97613828D01*
X118244238Y-97709066D01*
X118339476Y-97804304D01*
X118387095Y-97899542D01*
G04 #@! TO.C,J7*
X94815066Y-123505980D02*
X94815066Y-124220266D01*
X94767447Y-124363123D01*
X94672209Y-124458361D01*
X94529352Y-124505980D01*
X94434114Y-124505980D01*
X95196019Y-123505980D02*
X95862685Y-123505980D01*
X95434114Y-124505980D01*
G04 #@! TO.C,J9*
X84319066Y-97851980D02*
X84319066Y-98566266D01*
X84271447Y-98709123D01*
X84176209Y-98804361D01*
X84033352Y-98851980D01*
X83938114Y-98851980D01*
X84842876Y-98851980D02*
X85033352Y-98851980D01*
X85128590Y-98804361D01*
X85176209Y-98756742D01*
X85271447Y-98613885D01*
X85319066Y-98423409D01*
X85319066Y-98042457D01*
X85271447Y-97947219D01*
X85223828Y-97899600D01*
X85128590Y-97851980D01*
X84938114Y-97851980D01*
X84842876Y-97899600D01*
X84795257Y-97947219D01*
X84747638Y-98042457D01*
X84747638Y-98280552D01*
X84795257Y-98375790D01*
X84842876Y-98423409D01*
X84938114Y-98471028D01*
X85128590Y-98471028D01*
X85223828Y-98423409D01*
X85271447Y-98375790D01*
X85319066Y-98280552D01*
G04 #@! TD*
M02*
