G04 #@! TF.GenerationSoftware,KiCad,Pcbnew,(5.0.0)*
G04 #@! TF.CreationDate,2019-06-02T19:33:40-03:00*
G04 #@! TF.ProjectId,arduino-unoesc,61726475696E6F2D756E6F6573632E6B,0*
G04 #@! TF.SameCoordinates,Original*
G04 #@! TF.FileFunction,Copper,L2,Bot,Signal*
G04 #@! TF.FilePolarity,Positive*
%FSLAX46Y46*%
G04 Gerber Fmt 4.6, Leading zero omitted, Abs format (unit mm)*
G04 Created by KiCad (PCBNEW (5.0.0)) date 06/02/19 19:33:40*
%MOMM*%
%LPD*%
G01*
G04 APERTURE LIST*
G04 #@! TA.AperFunction,ComponentPad*
%ADD10C,6.400000*%
G04 #@! TD*
G04 #@! TA.AperFunction,ComponentPad*
%ADD11C,0.800000*%
G04 #@! TD*
G04 #@! TA.AperFunction,ComponentPad*
%ADD12C,1.600000*%
G04 #@! TD*
G04 #@! TA.AperFunction,ComponentPad*
%ADD13C,1.200000*%
G04 #@! TD*
G04 #@! TA.AperFunction,ComponentPad*
%ADD14R,1.200000X1.200000*%
G04 #@! TD*
G04 #@! TA.AperFunction,ComponentPad*
%ADD15R,1.600000X1.600000*%
G04 #@! TD*
G04 #@! TA.AperFunction,ComponentPad*
%ADD16R,1.800000X1.800000*%
G04 #@! TD*
G04 #@! TA.AperFunction,ComponentPad*
%ADD17C,1.800000*%
G04 #@! TD*
G04 #@! TA.AperFunction,ComponentPad*
%ADD18O,2.200000X2.200000*%
G04 #@! TD*
G04 #@! TA.AperFunction,ComponentPad*
%ADD19R,2.200000X2.200000*%
G04 #@! TD*
G04 #@! TA.AperFunction,ComponentPad*
%ADD20R,2.000000X2.600000*%
G04 #@! TD*
G04 #@! TA.AperFunction,ComponentPad*
%ADD21O,2.000000X2.600000*%
G04 #@! TD*
G04 #@! TA.AperFunction,ComponentPad*
%ADD22O,2.600000X2.000000*%
G04 #@! TD*
G04 #@! TA.AperFunction,ComponentPad*
%ADD23R,2.600000X2.000000*%
G04 #@! TD*
G04 #@! TA.AperFunction,ComponentPad*
%ADD24C,3.000000*%
G04 #@! TD*
G04 #@! TA.AperFunction,ComponentPad*
%ADD25R,3.000000X3.000000*%
G04 #@! TD*
G04 #@! TA.AperFunction,ComponentPad*
%ADD26O,1.727200X1.727200*%
G04 #@! TD*
G04 #@! TA.AperFunction,ComponentPad*
%ADD27R,1.727200X1.727200*%
G04 #@! TD*
G04 #@! TA.AperFunction,ComponentPad*
%ADD28R,3.500000X3.500000*%
G04 #@! TD*
G04 #@! TA.AperFunction,ComponentPad*
%ADD29O,1.600000X1.600000*%
G04 #@! TD*
G04 #@! TA.AperFunction,ComponentPad*
%ADD30C,2.000000*%
G04 #@! TD*
G04 #@! TA.AperFunction,ComponentPad*
%ADD31O,2.400000X1.600000*%
G04 #@! TD*
G04 #@! TA.AperFunction,ComponentPad*
%ADD32R,2.400000X1.600000*%
G04 #@! TD*
G04 #@! TA.AperFunction,ComponentPad*
%ADD33O,1.800000X1.800000*%
G04 #@! TD*
G04 #@! TA.AperFunction,ComponentPad*
%ADD34C,1.500000*%
G04 #@! TD*
G04 #@! TA.AperFunction,ViaPad*
%ADD35C,0.890000*%
G04 #@! TD*
G04 #@! TA.AperFunction,ViaPad*
%ADD36C,0.889000*%
G04 #@! TD*
G04 #@! TA.AperFunction,Conductor*
%ADD37C,1.524000*%
G04 #@! TD*
G04 #@! TA.AperFunction,Conductor*
%ADD38C,2.048000*%
G04 #@! TD*
G04 #@! TA.AperFunction,Conductor*
%ADD39C,1.016000*%
G04 #@! TD*
G04 #@! TA.AperFunction,Conductor*
%ADD40C,1.270000*%
G04 #@! TD*
G04 #@! TA.AperFunction,Conductor*
%ADD41C,0.508000*%
G04 #@! TD*
G04 #@! TA.AperFunction,Conductor*
%ADD42C,3.000000*%
G04 #@! TD*
G04 #@! TA.AperFunction,Conductor*
%ADD43C,0.254000*%
G04 #@! TD*
G04 #@! TA.AperFunction,Conductor*
%ADD44C,0.127000*%
G04 #@! TD*
G04 APERTURE END LIST*
D10*
G04 #@! TO.P,REF\002A\002A,*
G04 #@! TO.N,*
X107340400Y-97612200D03*
D11*
G04 #@! TO.P,REF\002A\002A,1*
G04 #@! TO.N,N/C*
X109740400Y-97612200D03*
X109037456Y-99309256D03*
X107340400Y-100012200D03*
X105643344Y-99309256D03*
X104940400Y-97612200D03*
X105643344Y-95915144D03*
X107340400Y-95212200D03*
X109037456Y-95915144D03*
G04 #@! TD*
G04 #@! TO.P,REF\002A\002A,1*
G04 #@! TO.N,N/C*
X85697056Y-129302944D03*
X84000000Y-128600000D03*
X82302944Y-129302944D03*
X81600000Y-131000000D03*
X82302944Y-132697056D03*
X84000000Y-133400000D03*
X85697056Y-132697056D03*
X86400000Y-131000000D03*
D10*
G04 #@! TO.P,REF\002A\002A,*
G04 #@! TO.N,*
X84000000Y-131000000D03*
G04 #@! TD*
D11*
G04 #@! TO.P,REF\002A\002A,1*
G04 #@! TO.N,N/C*
X167697056Y-129302944D03*
X166000000Y-128600000D03*
X164302944Y-129302944D03*
X163600000Y-131000000D03*
X164302944Y-132697056D03*
X166000000Y-133400000D03*
X167697056Y-132697056D03*
X168400000Y-131000000D03*
D10*
G04 #@! TO.P,REF\002A\002A,*
G04 #@! TO.N,*
X166000000Y-131000000D03*
G04 #@! TD*
D12*
G04 #@! TO.P,C1,1*
G04 #@! TO.N,+5V*
X148132800Y-94945200D03*
G04 #@! TO.P,C1,2*
G04 #@! TO.N,GND*
X148132800Y-92445200D03*
G04 #@! TD*
D13*
G04 #@! TO.P,C2,2*
G04 #@! TO.N,GND*
X152450800Y-92488000D03*
D14*
G04 #@! TO.P,C2,1*
G04 #@! TO.N,+5V*
X152450800Y-94488000D03*
G04 #@! TD*
D12*
G04 #@! TO.P,C3,2*
G04 #@! TO.N,GND*
X164136400Y-86689600D03*
G04 #@! TO.P,C3,1*
G04 #@! TO.N,/REFLECT-1*
X164136400Y-84189600D03*
G04 #@! TD*
G04 #@! TO.P,C4,1*
G04 #@! TO.N,+5V*
X137985500Y-115112800D03*
G04 #@! TO.P,C4,2*
G04 #@! TO.N,GND*
X137985500Y-112612800D03*
G04 #@! TD*
D14*
G04 #@! TO.P,C5,1*
G04 #@! TO.N,+5V*
X141605000Y-113919000D03*
D13*
G04 #@! TO.P,C5,2*
G04 #@! TO.N,GND*
X143605000Y-113919000D03*
G04 #@! TD*
D12*
G04 #@! TO.P,C6,2*
G04 #@! TO.N,GND*
X144576800Y-68540000D03*
G04 #@! TO.P,C6,1*
G04 #@! TO.N,+5V*
X144576800Y-66040000D03*
G04 #@! TD*
D14*
G04 #@! TO.P,C7,1*
G04 #@! TO.N,+5V*
X140919200Y-66446400D03*
D13*
G04 #@! TO.P,C7,2*
G04 #@! TO.N,GND*
X140919200Y-68446400D03*
G04 #@! TD*
D12*
G04 #@! TO.P,C8,1*
G04 #@! TO.N,/REFLECT-2*
X159136400Y-84189600D03*
G04 #@! TO.P,C8,2*
G04 #@! TO.N,GND*
X159136400Y-86689600D03*
G04 #@! TD*
G04 #@! TO.P,C9,1*
G04 #@! TO.N,+5V*
X128625600Y-89560400D03*
G04 #@! TO.P,C9,2*
G04 #@! TO.N,GND*
X128625600Y-87060400D03*
G04 #@! TD*
D13*
G04 #@! TO.P,C10,2*
G04 #@! TO.N,GND*
X124256800Y-87560400D03*
D14*
G04 #@! TO.P,C10,1*
G04 #@! TO.N,+5V*
X124256800Y-89560400D03*
G04 #@! TD*
D12*
G04 #@! TO.P,C11,2*
G04 #@! TO.N,Net-(C11-Pad2)*
X128625600Y-95210000D03*
G04 #@! TO.P,C11,1*
G04 #@! TO.N,GND*
X128625600Y-92710000D03*
G04 #@! TD*
G04 #@! TO.P,C12,2*
G04 #@! TO.N,GND*
X132435600Y-124166000D03*
G04 #@! TO.P,C12,1*
G04 #@! TO.N,/ULTRASONIC-TRIGGER*
X132435600Y-121666000D03*
G04 #@! TD*
G04 #@! TO.P,C13,1*
G04 #@! TO.N,/328P_ICSP_MIS0*
X132486400Y-117551200D03*
G04 #@! TO.P,C13,2*
G04 #@! TO.N,GND*
X132486400Y-115051200D03*
G04 #@! TD*
G04 #@! TO.P,C14,2*
G04 #@! TO.N,Net-(C14-Pad2)*
X128625600Y-100217600D03*
G04 #@! TO.P,C14,1*
G04 #@! TO.N,GND*
X128625600Y-102717600D03*
G04 #@! TD*
G04 #@! TO.P,C15,2*
G04 #@! TO.N,GND*
X154136400Y-86689600D03*
G04 #@! TO.P,C15,1*
G04 #@! TO.N,/REFLECT-3*
X154136400Y-84189600D03*
G04 #@! TD*
G04 #@! TO.P,C16,1*
G04 #@! TO.N,/REFLECT-4*
X149136400Y-84189600D03*
G04 #@! TO.P,C16,2*
G04 #@! TO.N,GND*
X149136400Y-86689600D03*
G04 #@! TD*
G04 #@! TO.P,C17,2*
G04 #@! TO.N,GND*
X115022000Y-72999600D03*
G04 #@! TO.P,C17,1*
G04 #@! TO.N,+5V*
X112522000Y-72999600D03*
G04 #@! TD*
D14*
G04 #@! TO.P,C18,1*
G04 #@! TO.N,+5V*
X109423200Y-72898000D03*
D13*
G04 #@! TO.P,C18,2*
G04 #@! TO.N,GND*
X107423200Y-72898000D03*
G04 #@! TD*
D12*
G04 #@! TO.P,C21,2*
G04 #@! TO.N,GND*
X166522400Y-116778400D03*
G04 #@! TO.P,C21,1*
G04 #@! TO.N,+5V*
X166522400Y-119278400D03*
G04 #@! TD*
G04 #@! TO.P,C22,1*
G04 #@! TO.N,Net-(C22-Pad1)*
X92608400Y-112369600D03*
G04 #@! TO.P,C22,2*
G04 #@! TO.N,GND*
X92608400Y-109869600D03*
G04 #@! TD*
D15*
G04 #@! TO.P,C23,1*
G04 #@! TO.N,Net-(C22-Pad1)*
X102514400Y-114401600D03*
D12*
G04 #@! TO.P,C23,2*
G04 #@! TO.N,GND*
X105014400Y-114401600D03*
G04 #@! TD*
G04 #@! TO.P,C24,2*
G04 #@! TO.N,GND*
X111821600Y-106019600D03*
D15*
G04 #@! TO.P,C24,1*
G04 #@! TO.N,+5V*
X109321600Y-106019600D03*
G04 #@! TD*
D12*
G04 #@! TO.P,C25,2*
G04 #@! TO.N,GND*
X111821600Y-112166400D03*
G04 #@! TO.P,C25,1*
G04 #@! TO.N,+5V*
X109321600Y-112166400D03*
G04 #@! TD*
D16*
G04 #@! TO.P,D1,1*
G04 #@! TO.N,GND*
X99307600Y-90318000D03*
D17*
G04 #@! TO.P,D1,2*
G04 #@! TO.N,Net-(D1-Pad2)*
X101847600Y-90318000D03*
G04 #@! TD*
G04 #@! TO.P,D2,2*
G04 #@! TO.N,Net-(D2-Pad2)*
X101847600Y-80318000D03*
D16*
G04 #@! TO.P,D2,1*
G04 #@! TO.N,GND*
X99307600Y-80318000D03*
G04 #@! TD*
D18*
G04 #@! TO.P,D3,2*
G04 #@! TO.N,Net-(D3-Pad2)*
X97383600Y-119837200D03*
D19*
G04 #@! TO.P,D3,1*
G04 #@! TO.N,Net-(C22-Pad1)*
X97383600Y-112217200D03*
G04 #@! TD*
D17*
G04 #@! TO.P,D4,2*
G04 #@! TO.N,+5V*
X118110000Y-128879600D03*
D16*
G04 #@! TO.P,D4,1*
G04 #@! TO.N,Net-(D4-Pad1)*
X118110000Y-131419600D03*
G04 #@! TD*
D20*
G04 #@! TO.P,J1,1*
G04 #@! TO.N,GND*
X143764000Y-121666000D03*
D21*
G04 #@! TO.P,J1,2*
G04 #@! TO.N,+5V*
X141224000Y-121666000D03*
G04 #@! TO.P,J1,3*
G04 #@! TO.N,/328P_ICSP_MIS0*
X138684000Y-121666000D03*
G04 #@! TO.P,J1,4*
G04 #@! TO.N,/ULTRASONIC-TRIGGER*
X136144000Y-121666000D03*
G04 #@! TD*
D20*
G04 #@! TO.P,J2,1*
G04 #@! TO.N,GND*
X148234400Y-66548000D03*
D21*
G04 #@! TO.P,J2,2*
G04 #@! TO.N,+5V*
X150774400Y-66548000D03*
G04 #@! TO.P,J2,3*
G04 #@! TO.N,/REFLECT-4IN*
X153314400Y-66548000D03*
G04 #@! TO.P,J2,4*
G04 #@! TO.N,/REFLECT-3IN*
X155854400Y-66548000D03*
G04 #@! TO.P,J2,5*
G04 #@! TO.N,/REFLECT-2IN*
X158394400Y-66548000D03*
G04 #@! TO.P,J2,6*
G04 #@! TO.N,/REFLECT-1IN*
X160934400Y-66548000D03*
G04 #@! TD*
G04 #@! TO.P,J3,4*
G04 #@! TO.N,/UART_RX*
X115468400Y-66954400D03*
G04 #@! TO.P,J3,3*
G04 #@! TO.N,/UART_TX*
X112928400Y-66954400D03*
G04 #@! TO.P,J3,2*
G04 #@! TO.N,+5V*
X110388400Y-66954400D03*
D20*
G04 #@! TO.P,J3,1*
G04 #@! TO.N,GND*
X107848400Y-66954400D03*
G04 #@! TD*
D22*
G04 #@! TO.P,J4,6*
G04 #@! TO.N,/PWM-1*
X159664400Y-108204000D03*
G04 #@! TO.P,J4,5*
G04 #@! TO.N,/PWM-2*
X159664400Y-105664000D03*
G04 #@! TO.P,J4,4*
G04 #@! TO.N,/328P_ICSP_MOSI*
X159664400Y-103124000D03*
G04 #@! TO.P,J4,3*
G04 #@! TO.N,/PWM-4*
X159664400Y-100584000D03*
G04 #@! TO.P,J4,2*
G04 #@! TO.N,+5V*
X159664400Y-98044000D03*
D23*
G04 #@! TO.P,J4,1*
G04 #@! TO.N,GND*
X159664400Y-95504000D03*
G04 #@! TD*
D24*
G04 #@! TO.P,J5,2*
G04 #@! TO.N,Net-(D3-Pad2)*
X84500000Y-116535200D03*
D25*
G04 #@! TO.P,J5,1*
G04 #@! TO.N,GND*
X84500000Y-121615200D03*
G04 #@! TD*
D26*
G04 #@! TO.P,J6,6*
G04 #@! TO.N,GND*
X154482800Y-119583200D03*
G04 #@! TO.P,J6,5*
G04 #@! TO.N,/328P_ICSP_RESET*
X154482800Y-117043200D03*
G04 #@! TO.P,J6,4*
G04 #@! TO.N,/328P_ICSP_MOSI*
X157022800Y-119583200D03*
G04 #@! TO.P,J6,3*
G04 #@! TO.N,/328P_ICSP_SCK*
X157022800Y-117043200D03*
G04 #@! TO.P,J6,2*
G04 #@! TO.N,+5V*
X159562800Y-119583200D03*
D27*
G04 #@! TO.P,J6,1*
G04 #@! TO.N,/328P_ICSP_MIS0*
X159562800Y-117043200D03*
G04 #@! TD*
D28*
G04 #@! TO.P,J8,3*
G04 #@! TO.N,GND*
X111430800Y-126139200D03*
G04 #@! TO.P,J8,2*
X106730800Y-129139200D03*
G04 #@! TO.P,J8,1*
G04 #@! TO.N,Net-(D3-Pad2)*
X106730800Y-123139200D03*
G04 #@! TD*
D29*
G04 #@! TO.P,R1,2*
G04 #@! TO.N,/REFLECT-1*
X164136400Y-81809600D03*
D12*
G04 #@! TO.P,R1,1*
G04 #@! TO.N,/REFLECT-1IN*
X164136400Y-74189600D03*
G04 #@! TD*
G04 #@! TO.P,R2,1*
G04 #@! TO.N,/REFLECT-2IN*
X159136400Y-74189600D03*
D29*
G04 #@! TO.P,R2,2*
G04 #@! TO.N,/REFLECT-2*
X159136400Y-81809600D03*
G04 #@! TD*
D12*
G04 #@! TO.P,R3,1*
G04 #@! TO.N,/REFLECT-3IN*
X154136400Y-74189600D03*
D29*
G04 #@! TO.P,R3,2*
G04 #@! TO.N,/REFLECT-3*
X154136400Y-81809600D03*
G04 #@! TD*
G04 #@! TO.P,R4,2*
G04 #@! TO.N,+5V*
X135077200Y-62636400D03*
D12*
G04 #@! TO.P,R4,1*
G04 #@! TO.N,/328P_ICSP_RESET*
X135077200Y-70256400D03*
G04 #@! TD*
D29*
G04 #@! TO.P,R5,2*
G04 #@! TO.N,/REFLECT-4*
X149136400Y-81809600D03*
D12*
G04 #@! TO.P,R5,1*
G04 #@! TO.N,/REFLECT-4IN*
X149136400Y-74189600D03*
G04 #@! TD*
G04 #@! TO.P,R6,1*
G04 #@! TO.N,Net-(D1-Pad2)*
X108307600Y-89662000D03*
D29*
G04 #@! TO.P,R6,2*
G04 #@! TO.N,Net-(R6-Pad2)*
X115927600Y-89662000D03*
G04 #@! TD*
D12*
G04 #@! TO.P,R7,1*
G04 #@! TO.N,GND*
X116941600Y-108204000D03*
D29*
G04 #@! TO.P,R7,2*
G04 #@! TO.N,/START*
X124561600Y-108204000D03*
G04 #@! TD*
G04 #@! TO.P,R8,2*
G04 #@! TO.N,/INIT*
X115927600Y-84734400D03*
D12*
G04 #@! TO.P,R8,1*
G04 #@! TO.N,Net-(D2-Pad2)*
X108307600Y-84734400D03*
G04 #@! TD*
D29*
G04 #@! TO.P,R9,2*
G04 #@! TO.N,Net-(D4-Pad1)*
X123393200Y-131368800D03*
D12*
G04 #@! TO.P,R9,1*
G04 #@! TO.N,GND*
X131013200Y-131368800D03*
G04 #@! TD*
D30*
G04 #@! TO.P,SW1,1*
G04 #@! TO.N,/328P_ICSP_RESET*
X122887600Y-69291200D03*
G04 #@! TO.P,SW1,2*
G04 #@! TO.N,GND*
X122887600Y-64791200D03*
G04 #@! TO.P,SW1,1*
G04 #@! TO.N,/328P_ICSP_RESET*
X129387600Y-69291200D03*
G04 #@! TO.P,SW1,2*
G04 #@! TO.N,GND*
X129387600Y-64791200D03*
G04 #@! TD*
G04 #@! TO.P,SW2,2*
G04 #@! TO.N,+5V*
X118059200Y-118342800D03*
G04 #@! TO.P,SW2,1*
G04 #@! TO.N,/START*
X118059200Y-113842800D03*
G04 #@! TO.P,SW2,2*
G04 #@! TO.N,+5V*
X124559200Y-118342800D03*
G04 #@! TO.P,SW2,1*
G04 #@! TO.N,/START*
X124559200Y-113842800D03*
G04 #@! TD*
D31*
G04 #@! TO.P,U1,28*
G04 #@! TO.N,Net-(U1-Pad28)*
X142697200Y-75031600D03*
G04 #@! TO.P,U1,14*
G04 #@! TO.N,/START*
X135077200Y-108051600D03*
G04 #@! TO.P,U1,27*
G04 #@! TO.N,Net-(U1-Pad27)*
X142697200Y-77571600D03*
G04 #@! TO.P,U1,13*
G04 #@! TO.N,/ULTRASONIC-TRIGGER*
X135077200Y-105511600D03*
G04 #@! TO.P,U1,26*
G04 #@! TO.N,/REFLECT-3*
X142697200Y-80111600D03*
G04 #@! TO.P,U1,12*
G04 #@! TO.N,Net-(U1-Pad12)*
X135077200Y-102971600D03*
G04 #@! TO.P,U1,25*
G04 #@! TO.N,/REFLECT-4*
X142697200Y-82651600D03*
G04 #@! TO.P,U1,11*
G04 #@! TO.N,/PWM-4*
X135077200Y-100431600D03*
G04 #@! TO.P,U1,24*
G04 #@! TO.N,/REFLECT-2*
X142697200Y-85191600D03*
G04 #@! TO.P,U1,10*
G04 #@! TO.N,Net-(C14-Pad2)*
X135077200Y-97891600D03*
G04 #@! TO.P,U1,23*
G04 #@! TO.N,/REFLECT-1*
X142697200Y-87731600D03*
G04 #@! TO.P,U1,9*
G04 #@! TO.N,Net-(C11-Pad2)*
X135077200Y-95351600D03*
G04 #@! TO.P,U1,22*
G04 #@! TO.N,GND*
X142697200Y-90271600D03*
G04 #@! TO.P,U1,8*
X135077200Y-92811600D03*
G04 #@! TO.P,U1,21*
G04 #@! TO.N,+5V*
X142697200Y-92811600D03*
G04 #@! TO.P,U1,7*
X135077200Y-90271600D03*
G04 #@! TO.P,U1,20*
X142697200Y-95351600D03*
G04 #@! TO.P,U1,6*
G04 #@! TO.N,Net-(U1-Pad6)*
X135077200Y-87731600D03*
G04 #@! TO.P,U1,19*
G04 #@! TO.N,/328P_ICSP_SCK*
X142697200Y-97891600D03*
G04 #@! TO.P,U1,5*
G04 #@! TO.N,Net-(R6-Pad2)*
X135077200Y-85191600D03*
G04 #@! TO.P,U1,18*
G04 #@! TO.N,/328P_ICSP_MIS0*
X142697200Y-100431600D03*
G04 #@! TO.P,U1,4*
G04 #@! TO.N,/INIT*
X135077200Y-82651600D03*
G04 #@! TO.P,U1,17*
G04 #@! TO.N,/328P_ICSP_MOSI*
X142697200Y-102971600D03*
G04 #@! TO.P,U1,3*
G04 #@! TO.N,/UART_TX*
X135077200Y-80111600D03*
G04 #@! TO.P,U1,16*
G04 #@! TO.N,/PWM-2*
X142697200Y-105511600D03*
G04 #@! TO.P,U1,2*
G04 #@! TO.N,/UART_RX*
X135077200Y-77571600D03*
G04 #@! TO.P,U1,15*
G04 #@! TO.N,/PWM-1*
X142697200Y-108051600D03*
D32*
G04 #@! TO.P,U1,1*
G04 #@! TO.N,/328P_ICSP_RESET*
X135077200Y-75031600D03*
G04 #@! TD*
D33*
G04 #@! TO.P,U2,3*
G04 #@! TO.N,+5V*
X103073200Y-106832400D03*
G04 #@! TO.P,U2,2*
G04 #@! TO.N,GND*
X100533200Y-106832400D03*
D16*
G04 #@! TO.P,U2,1*
G04 #@! TO.N,Net-(C22-Pad1)*
X97993200Y-106832400D03*
G04 #@! TD*
D34*
G04 #@! TO.P,Y1,2*
G04 #@! TO.N,Net-(C11-Pad2)*
X122174000Y-95602400D03*
G04 #@! TO.P,Y1,1*
G04 #@! TO.N,Net-(C14-Pad2)*
X122174000Y-100482400D03*
G04 #@! TD*
D24*
G04 #@! TO.P,J7,2*
G04 #@! TO.N,Net-(D3-Pad2)*
X92862400Y-130454400D03*
D25*
G04 #@! TO.P,J7,1*
G04 #@! TO.N,GND*
X97942400Y-130454400D03*
G04 #@! TD*
D10*
G04 #@! TO.P,REF\002A\002A,*
G04 #@! TO.N,*
X84000000Y-61000000D03*
D11*
G04 #@! TO.P,REF\002A\002A,1*
G04 #@! TO.N,N/C*
X86400000Y-61000000D03*
X85697056Y-62697056D03*
X84000000Y-63400000D03*
X82302944Y-62697056D03*
X81600000Y-61000000D03*
X82302944Y-59302944D03*
X84000000Y-58600000D03*
X85697056Y-59302944D03*
G04 #@! TD*
D10*
G04 #@! TO.P,REF\002A\002A,*
G04 #@! TO.N,*
X166000000Y-61000000D03*
D11*
G04 #@! TO.P,REF\002A\002A,1*
G04 #@! TO.N,N/C*
X168400000Y-61000000D03*
X167697056Y-62697056D03*
X166000000Y-63400000D03*
X164302944Y-62697056D03*
X163600000Y-61000000D03*
X164302944Y-59302944D03*
X166000000Y-58600000D03*
X167697056Y-59302944D03*
G04 #@! TD*
D24*
G04 #@! TO.P,J9,2*
G04 #@! TO.N,+5V*
X84500000Y-106832400D03*
D25*
G04 #@! TO.P,J9,1*
G04 #@! TO.N,GND*
X84500000Y-101752400D03*
G04 #@! TD*
D35*
G04 #@! TO.N,GND*
X149555200Y-113893600D03*
G04 #@! TO.N,/328P_ICSP_MIS0*
X145034000Y-116967000D03*
D36*
G04 #@! TO.N,/328P_ICSP_MOSI*
X147637500Y-112204500D03*
G04 #@! TO.N,/328P_ICSP_SCK*
X152298400Y-99618800D03*
X155892500Y-112204500D03*
G04 #@! TD*
D37*
G04 #@! TO.N,GND*
X143605000Y-113919000D02*
X149529800Y-113919000D01*
X149529800Y-113919000D02*
X149555200Y-113893600D01*
D38*
G04 #@! TO.N,+5V*
X88747600Y-106832400D02*
X84632800Y-106832400D01*
X93980000Y-101600000D02*
X88747600Y-106832400D01*
X93980000Y-101600000D02*
X93980000Y-64135000D01*
X93980000Y-64135000D02*
X97790000Y-60325000D01*
X97790000Y-60325000D02*
X108585000Y-60325000D01*
X110388400Y-62128400D02*
X110388400Y-66954400D01*
X108585000Y-60325000D02*
X110388400Y-62128400D01*
X135077200Y-62636400D02*
X133756400Y-62636400D01*
X133756400Y-62636400D02*
X131445000Y-60325000D01*
X108585000Y-60325000D02*
X131445000Y-60325000D01*
D39*
X137109200Y-62636400D02*
X140919200Y-66446400D01*
X135077200Y-62636400D02*
X137109200Y-62636400D01*
X109423200Y-70235600D02*
X109423200Y-72898000D01*
X110388400Y-66954400D02*
X110388400Y-69270400D01*
X110388400Y-69270400D02*
X109423200Y-70235600D01*
X112420400Y-72898000D02*
X112522000Y-72999600D01*
X109423200Y-72898000D02*
X112420400Y-72898000D01*
X135077200Y-90271600D02*
X131419600Y-90271600D01*
X130708400Y-89560400D02*
X128625600Y-89560400D01*
X131419600Y-90271600D02*
X130708400Y-89560400D01*
X128625600Y-89560400D02*
X124256800Y-89560400D01*
X141224000Y-121666000D02*
X141224000Y-119380000D01*
X166217600Y-119583200D02*
X166522400Y-119278400D01*
X159562800Y-119583200D02*
X166217600Y-119583200D01*
X118059200Y-118342800D02*
X118059200Y-124663200D01*
X118110000Y-124714000D02*
X118110000Y-128879600D01*
X118059200Y-124663200D02*
X118110000Y-124714000D01*
D38*
X93980000Y-101600000D02*
X101600000Y-101600000D01*
X103073200Y-103073200D02*
X103073200Y-106832400D01*
X101600000Y-101600000D02*
X103073200Y-103073200D01*
D40*
X150774400Y-66548000D02*
X150774400Y-62890400D01*
X150774400Y-62890400D02*
X149910800Y-62026800D01*
X149910800Y-62026800D02*
X146278600Y-62026800D01*
X144576800Y-63728600D02*
X144576800Y-66040000D01*
X146278600Y-62026800D02*
X144576800Y-63728600D01*
D39*
X144576800Y-66040000D02*
X142722600Y-66040000D01*
X142535200Y-66446400D02*
X140919200Y-66446400D01*
X142722600Y-66259000D02*
X142535200Y-66446400D01*
X142722600Y-66040000D02*
X142722600Y-66259000D01*
D41*
G04 #@! TO.N,/328P_ICSP_MIS0*
X142697200Y-100431600D02*
X147980400Y-100431600D01*
X147980400Y-100431600D02*
X150368000Y-102819200D01*
X150368000Y-102819200D02*
X150368000Y-112166400D01*
X150368000Y-112166400D02*
X151993600Y-113792000D01*
X151993600Y-113792000D02*
X158648400Y-113792000D01*
X159562800Y-114706400D02*
X159562800Y-117043200D01*
X158648400Y-113792000D02*
X159562800Y-114706400D01*
X148818600Y-116967000D02*
X151993600Y-113792000D01*
X145034000Y-116967000D02*
X148818600Y-116967000D01*
G04 #@! TO.N,/ULTRASONIC-TRIGGER*
X131635601Y-120866001D02*
X131635601Y-120840601D01*
X132435600Y-121666000D02*
X131635601Y-120866001D01*
X131635601Y-120840601D02*
X130111500Y-119316500D01*
X130111500Y-119316500D02*
X130111500Y-106616500D01*
X131216400Y-105511600D02*
X135077200Y-105511600D01*
X130111500Y-106616500D02*
X131216400Y-105511600D01*
D39*
G04 #@! TO.N,Net-(C22-Pad1)*
X97383600Y-112217200D02*
X97383600Y-109270800D01*
X97993200Y-108748400D02*
X97993200Y-106832400D01*
X97470800Y-109270800D02*
X97993200Y-108748400D01*
X97383600Y-109270800D02*
X97470800Y-109270800D01*
X97231200Y-112369600D02*
X97383600Y-112217200D01*
X92608400Y-112369600D02*
X97231200Y-112369600D01*
X100698400Y-114401600D02*
X100076000Y-113779200D01*
X102514400Y-114401600D02*
X100698400Y-114401600D01*
X99499600Y-112217200D02*
X97383600Y-112217200D01*
X100076000Y-112793600D02*
X99499600Y-112217200D01*
X100076000Y-113779200D02*
X100076000Y-112793600D01*
D41*
G04 #@! TO.N,Net-(D4-Pad1)*
X118160800Y-131368800D02*
X118110000Y-131419600D01*
X123393200Y-131368800D02*
X118160800Y-131368800D01*
G04 #@! TO.N,/328P_ICSP_MOSI*
X147624800Y-104495600D02*
X146100800Y-102971600D01*
X146100800Y-102971600D02*
X142697200Y-102971600D01*
X147637500Y-112204500D02*
X147624800Y-104495600D01*
D42*
G04 #@! TO.N,Net-(D3-Pad2)*
X84378800Y-116535200D02*
X87299800Y-116535200D01*
X96283601Y-120937199D02*
X96172199Y-120937199D01*
X97383600Y-119837200D02*
X96283601Y-120937199D01*
X106730800Y-123139200D02*
X103555800Y-123139200D01*
X92862400Y-128333080D02*
X92799320Y-128270000D01*
X92862400Y-130454400D02*
X92862400Y-128333080D01*
X84023200Y-116890800D02*
X84378800Y-116535200D01*
X83540600Y-116890800D02*
X84023200Y-116890800D01*
X92862400Y-130454400D02*
X92862400Y-130683000D01*
D38*
X92862400Y-130454400D02*
X91643200Y-130454400D01*
X92862400Y-130454400D02*
X94259400Y-130454400D01*
X106730800Y-123139200D02*
X106730800Y-122504200D01*
X106730800Y-123139200D02*
X106730800Y-122783600D01*
X106730800Y-123139200D02*
X106730800Y-122859800D01*
X84378800Y-116535200D02*
X84378800Y-115265200D01*
D41*
G04 #@! TO.N,/328P_ICSP_RESET*
X135077200Y-75031600D02*
X135477200Y-75031600D01*
X137439400Y-75031600D02*
X135077200Y-75031600D01*
X141503400Y-70967600D02*
X137439400Y-75031600D01*
X165633400Y-70967600D02*
X141503400Y-70967600D01*
X168783000Y-74117200D02*
X165633400Y-70967600D01*
X168783000Y-122555000D02*
X168783000Y-74117200D01*
X152349200Y-117043200D02*
X150571200Y-118821200D01*
X150571200Y-118821200D02*
X150571200Y-123774200D01*
X150571200Y-123774200D02*
X151688800Y-124891800D01*
X151688800Y-124891800D02*
X166446200Y-124891800D01*
X166446200Y-124891800D02*
X168783000Y-122555000D01*
X154482800Y-117043200D02*
X152349200Y-117043200D01*
G04 #@! TO.N,/328P_ICSP_SCK*
X152298400Y-108610400D02*
X152298400Y-99618800D01*
X155892500Y-112204500D02*
X152298400Y-108610400D01*
G04 #@! TD*
D43*
G04 #@! TO.N,+5V*
G36*
X133572700Y-89346704D02*
X133302833Y-89839781D01*
X133285296Y-89922561D01*
X133407285Y-90144600D01*
X134950200Y-90144600D01*
X134950200Y-90124600D01*
X135204200Y-90124600D01*
X135204200Y-90144600D01*
X136747115Y-90144600D01*
X136869104Y-89922561D01*
X136851567Y-89839781D01*
X136581700Y-89346704D01*
X136184176Y-89027000D01*
X141576944Y-89027000D01*
X141262623Y-89237023D01*
X140945460Y-89711691D01*
X140834087Y-90271600D01*
X140945460Y-90831509D01*
X141262623Y-91306177D01*
X141618699Y-91544099D01*
X141192700Y-91886704D01*
X140922833Y-92379781D01*
X140905296Y-92462561D01*
X141027285Y-92684600D01*
X142570200Y-92684600D01*
X142570200Y-92664600D01*
X142824200Y-92664600D01*
X142824200Y-92684600D01*
X144367115Y-92684600D01*
X144489104Y-92462561D01*
X144471567Y-92379781D01*
X144351148Y-92159761D01*
X146697800Y-92159761D01*
X146697800Y-92730639D01*
X146916266Y-93258062D01*
X147319938Y-93661734D01*
X147385099Y-93688725D01*
X147378795Y-93691336D01*
X147304661Y-93937455D01*
X148132800Y-94765595D01*
X148960939Y-93937455D01*
X148886805Y-93691336D01*
X148880054Y-93688910D01*
X148945662Y-93661734D01*
X149349334Y-93258062D01*
X149567800Y-92730639D01*
X149567800Y-92242343D01*
X151215800Y-92242343D01*
X151215800Y-92733657D01*
X151403818Y-93187571D01*
X151544006Y-93327759D01*
X151491101Y-93349673D01*
X151312473Y-93528302D01*
X151215800Y-93761691D01*
X151215800Y-94202250D01*
X151374550Y-94361000D01*
X152323800Y-94361000D01*
X152323800Y-94341000D01*
X152577800Y-94341000D01*
X152577800Y-94361000D01*
X153527050Y-94361000D01*
X153685800Y-94202250D01*
X153685800Y-93761691D01*
X153589127Y-93528302D01*
X153410499Y-93349673D01*
X153357594Y-93327759D01*
X153497782Y-93187571D01*
X153685800Y-92733657D01*
X153685800Y-92242343D01*
X153497782Y-91788429D01*
X153150371Y-91441018D01*
X152696457Y-91253000D01*
X152205143Y-91253000D01*
X151751229Y-91441018D01*
X151403818Y-91788429D01*
X151215800Y-92242343D01*
X149567800Y-92242343D01*
X149567800Y-92159761D01*
X149349334Y-91632338D01*
X148945662Y-91228666D01*
X148418239Y-91010200D01*
X147847361Y-91010200D01*
X147319938Y-91228666D01*
X146916266Y-91632338D01*
X146697800Y-92159761D01*
X144351148Y-92159761D01*
X144201700Y-91886704D01*
X143775701Y-91544099D01*
X144131777Y-91306177D01*
X144448940Y-90831509D01*
X144560313Y-90271600D01*
X144448940Y-89711691D01*
X144131777Y-89237023D01*
X143817456Y-89027000D01*
X166243000Y-89027000D01*
X166243000Y-115343400D01*
X166236961Y-115343400D01*
X165709538Y-115561866D01*
X165305866Y-115965538D01*
X165087400Y-116492961D01*
X165087400Y-117063839D01*
X165305866Y-117591262D01*
X165709538Y-117994934D01*
X165774699Y-118021925D01*
X165768395Y-118024536D01*
X165694261Y-118270655D01*
X166243000Y-118819395D01*
X166243000Y-119178605D01*
X165514655Y-118450261D01*
X165268536Y-118524395D01*
X165075435Y-119061623D01*
X165102622Y-119631854D01*
X165268536Y-120032405D01*
X165514655Y-120106539D01*
X166243000Y-119378195D01*
X166243000Y-119737405D01*
X165694261Y-120286145D01*
X165765605Y-120523000D01*
X160713407Y-120523000D01*
X160769621Y-120471690D01*
X161017768Y-119942227D01*
X160897269Y-119710200D01*
X159689800Y-119710200D01*
X159689800Y-119730200D01*
X159435800Y-119730200D01*
X159435800Y-119710200D01*
X159415800Y-119710200D01*
X159415800Y-119456200D01*
X159435800Y-119456200D01*
X159435800Y-119436200D01*
X159689800Y-119436200D01*
X159689800Y-119456200D01*
X160897269Y-119456200D01*
X161017768Y-119224173D01*
X160769621Y-118694710D01*
X160581850Y-118523319D01*
X160674165Y-118504957D01*
X160884209Y-118364609D01*
X161024557Y-118154565D01*
X161073840Y-117906800D01*
X161073840Y-116179600D01*
X161024557Y-115931835D01*
X160884209Y-115721791D01*
X160674165Y-115581443D01*
X160451800Y-115537212D01*
X160451800Y-114793955D01*
X160469216Y-114706400D01*
X160451800Y-114618844D01*
X160400219Y-114359530D01*
X160203733Y-114065467D01*
X160129507Y-114015871D01*
X159338931Y-113225296D01*
X159289333Y-113151067D01*
X158995270Y-112954581D01*
X158735956Y-112903000D01*
X158735955Y-112903000D01*
X158648400Y-112885584D01*
X158560845Y-112903000D01*
X156720644Y-112903000D01*
X156807656Y-112815988D01*
X156972000Y-112419226D01*
X156972000Y-111989774D01*
X156807656Y-111593012D01*
X156503988Y-111289344D01*
X156107226Y-111125000D01*
X156070236Y-111125000D01*
X153187400Y-108242165D01*
X153187400Y-100584000D01*
X157697369Y-100584000D01*
X157824264Y-101221945D01*
X158185631Y-101762769D01*
X158322168Y-101854000D01*
X158185631Y-101945231D01*
X157824264Y-102486055D01*
X157697369Y-103124000D01*
X157824264Y-103761945D01*
X158185631Y-104302769D01*
X158322168Y-104394000D01*
X158185631Y-104485231D01*
X157824264Y-105026055D01*
X157697369Y-105664000D01*
X157824264Y-106301945D01*
X158185631Y-106842769D01*
X158322168Y-106934000D01*
X158185631Y-107025231D01*
X157824264Y-107566055D01*
X157697369Y-108204000D01*
X157824264Y-108841945D01*
X158185631Y-109382769D01*
X158726455Y-109744136D01*
X159203369Y-109839000D01*
X160125431Y-109839000D01*
X160602345Y-109744136D01*
X161143169Y-109382769D01*
X161504536Y-108841945D01*
X161631431Y-108204000D01*
X161504536Y-107566055D01*
X161143169Y-107025231D01*
X161006632Y-106934000D01*
X161143169Y-106842769D01*
X161504536Y-106301945D01*
X161631431Y-105664000D01*
X161504536Y-105026055D01*
X161143169Y-104485231D01*
X161006632Y-104394000D01*
X161143169Y-104302769D01*
X161504536Y-103761945D01*
X161631431Y-103124000D01*
X161504536Y-102486055D01*
X161143169Y-101945231D01*
X161006632Y-101854000D01*
X161143169Y-101762769D01*
X161504536Y-101221945D01*
X161631431Y-100584000D01*
X161504536Y-99946055D01*
X161143169Y-99405231D01*
X160976771Y-99294048D01*
X161210322Y-99110317D01*
X161523544Y-98552355D01*
X161554524Y-98424434D01*
X161435177Y-98171000D01*
X159791400Y-98171000D01*
X159791400Y-98191000D01*
X159537400Y-98191000D01*
X159537400Y-98171000D01*
X157893623Y-98171000D01*
X157774276Y-98424434D01*
X157805256Y-98552355D01*
X158118478Y-99110317D01*
X158352029Y-99294048D01*
X158185631Y-99405231D01*
X157824264Y-99946055D01*
X157697369Y-100584000D01*
X153187400Y-100584000D01*
X153187400Y-100256444D01*
X153213556Y-100230288D01*
X153377900Y-99833526D01*
X153377900Y-99404074D01*
X153213556Y-99007312D01*
X152909888Y-98703644D01*
X152513126Y-98539300D01*
X152083674Y-98539300D01*
X151686912Y-98703644D01*
X151383244Y-99007312D01*
X151218900Y-99404074D01*
X151218900Y-99833526D01*
X151383244Y-100230288D01*
X151409401Y-100256445D01*
X151409400Y-108522845D01*
X151391984Y-108610400D01*
X151409400Y-108697955D01*
X151460981Y-108957269D01*
X151657467Y-109251333D01*
X151731696Y-109300931D01*
X154813000Y-112382236D01*
X154813000Y-112419226D01*
X154977344Y-112815988D01*
X155064356Y-112903000D01*
X152361836Y-112903000D01*
X151257000Y-111798165D01*
X151257000Y-102906750D01*
X151274415Y-102819199D01*
X151257000Y-102731648D01*
X151257000Y-102731644D01*
X151205419Y-102472330D01*
X151008933Y-102178267D01*
X150934707Y-102128671D01*
X148670931Y-99864896D01*
X148621333Y-99790667D01*
X148327270Y-99594181D01*
X148067956Y-99542600D01*
X148067955Y-99542600D01*
X147980400Y-99525184D01*
X147892845Y-99542600D01*
X144229048Y-99542600D01*
X144131777Y-99397023D01*
X143779442Y-99161600D01*
X144131777Y-98926177D01*
X144448940Y-98451509D01*
X144560313Y-97891600D01*
X144448940Y-97331691D01*
X144131777Y-96857023D01*
X143775701Y-96619101D01*
X144201700Y-96276496D01*
X144378783Y-95952945D01*
X147304661Y-95952945D01*
X147378795Y-96199064D01*
X147916023Y-96392165D01*
X148486254Y-96364978D01*
X148886805Y-96199064D01*
X148960939Y-95952945D01*
X148132800Y-95124805D01*
X147304661Y-95952945D01*
X144378783Y-95952945D01*
X144471567Y-95783419D01*
X144489104Y-95700639D01*
X144367115Y-95478600D01*
X142824200Y-95478600D01*
X142824200Y-95498600D01*
X142570200Y-95498600D01*
X142570200Y-95478600D01*
X141027285Y-95478600D01*
X140905296Y-95700639D01*
X140922833Y-95783419D01*
X141192700Y-96276496D01*
X141618699Y-96619101D01*
X141262623Y-96857023D01*
X140945460Y-97331691D01*
X140834087Y-97891600D01*
X140945460Y-98451509D01*
X141262623Y-98926177D01*
X141614958Y-99161600D01*
X141262623Y-99397023D01*
X140945460Y-99871691D01*
X140834087Y-100431600D01*
X140945460Y-100991509D01*
X141262623Y-101466177D01*
X141614958Y-101701600D01*
X141262623Y-101937023D01*
X140945460Y-102411691D01*
X140834087Y-102971600D01*
X140945460Y-103531509D01*
X141262623Y-104006177D01*
X141614958Y-104241600D01*
X141262623Y-104477023D01*
X140945460Y-104951691D01*
X140834087Y-105511600D01*
X140945460Y-106071509D01*
X141262623Y-106546177D01*
X141614958Y-106781600D01*
X141262623Y-107017023D01*
X140945460Y-107491691D01*
X140834087Y-108051600D01*
X140945460Y-108611509D01*
X141262623Y-109086177D01*
X141737291Y-109403340D01*
X142155867Y-109486600D01*
X143238533Y-109486600D01*
X143657109Y-109403340D01*
X144131777Y-109086177D01*
X144448940Y-108611509D01*
X144560313Y-108051600D01*
X144448940Y-107491691D01*
X144131777Y-107017023D01*
X143779442Y-106781600D01*
X144131777Y-106546177D01*
X144448940Y-106071509D01*
X144560313Y-105511600D01*
X144448940Y-104951691D01*
X144131777Y-104477023D01*
X143779442Y-104241600D01*
X144131777Y-104006177D01*
X144229048Y-103860600D01*
X145732565Y-103860600D01*
X146736407Y-104864442D01*
X146747451Y-111567905D01*
X146722344Y-111593012D01*
X146558000Y-111989774D01*
X146558000Y-112419226D01*
X146600570Y-112522000D01*
X143467412Y-112522000D01*
X143059918Y-112603056D01*
X142656582Y-112872556D01*
X142564698Y-112780673D01*
X142331309Y-112684000D01*
X141890750Y-112684000D01*
X141732000Y-112842750D01*
X141732000Y-113792000D01*
X141752000Y-113792000D01*
X141752000Y-114046000D01*
X141732000Y-114046000D01*
X141732000Y-114995250D01*
X141890750Y-115154000D01*
X142331309Y-115154000D01*
X142564698Y-115057327D01*
X142656582Y-114965444D01*
X143059918Y-115234944D01*
X143467412Y-115316000D01*
X149212365Y-115316000D01*
X148450365Y-116078000D01*
X145672350Y-116078000D01*
X145645771Y-116051421D01*
X145248825Y-115887000D01*
X144819175Y-115887000D01*
X144422229Y-116051421D01*
X144118421Y-116355229D01*
X143954000Y-116752175D01*
X143954000Y-117181825D01*
X144118421Y-117578771D01*
X144422229Y-117882579D01*
X144819175Y-118047000D01*
X145248825Y-118047000D01*
X145645771Y-117882579D01*
X145672350Y-117856000D01*
X148731045Y-117856000D01*
X148818600Y-117873416D01*
X148906155Y-117856000D01*
X148906156Y-117856000D01*
X149165470Y-117804419D01*
X149459533Y-117607933D01*
X149509131Y-117533704D01*
X152361836Y-114681000D01*
X158280165Y-114681000D01*
X158673800Y-115074636D01*
X158673800Y-115537212D01*
X158451435Y-115581443D01*
X158241391Y-115721791D01*
X158101043Y-115931835D01*
X158095868Y-115957851D01*
X157607525Y-115631550D01*
X157170398Y-115544600D01*
X156875202Y-115544600D01*
X156438075Y-115631550D01*
X155942370Y-115962770D01*
X155752800Y-116246481D01*
X155563230Y-115962770D01*
X155067525Y-115631550D01*
X154630398Y-115544600D01*
X154335202Y-115544600D01*
X153898075Y-115631550D01*
X153402370Y-115962770D01*
X153274460Y-116154200D01*
X152436755Y-116154200D01*
X152349200Y-116136784D01*
X152261645Y-116154200D01*
X152261644Y-116154200D01*
X152002330Y-116205781D01*
X151708267Y-116402267D01*
X151658671Y-116476493D01*
X150004496Y-118130669D01*
X149930267Y-118180267D01*
X149733781Y-118474331D01*
X149689945Y-118694710D01*
X149664784Y-118821200D01*
X149682200Y-118908755D01*
X149682200Y-120523000D01*
X145411440Y-120523000D01*
X145411440Y-120366000D01*
X145362157Y-120118235D01*
X145221809Y-119908191D01*
X145011765Y-119767843D01*
X144764000Y-119718560D01*
X142764000Y-119718560D01*
X142516235Y-119767843D01*
X142306191Y-119908191D01*
X142198901Y-120068760D01*
X141732355Y-119806856D01*
X141604434Y-119775876D01*
X141351000Y-119895223D01*
X141351000Y-120523000D01*
X141097000Y-120523000D01*
X141097000Y-119895223D01*
X140843566Y-119775876D01*
X140715645Y-119806856D01*
X140157683Y-120120078D01*
X139973952Y-120353629D01*
X139862769Y-120187231D01*
X139321945Y-119825864D01*
X138684000Y-119698969D01*
X138046056Y-119825864D01*
X137505231Y-120187231D01*
X137414000Y-120323768D01*
X137322769Y-120187231D01*
X136781945Y-119825864D01*
X136144000Y-119698969D01*
X135506056Y-119825864D01*
X134965231Y-120187231D01*
X134740877Y-120523000D01*
X133321996Y-120523000D01*
X133248462Y-120449466D01*
X132721039Y-120231000D01*
X132297469Y-120231000D01*
X132276534Y-120199668D01*
X132202308Y-120150072D01*
X131000500Y-118948265D01*
X131000500Y-114765761D01*
X131051400Y-114765761D01*
X131051400Y-115336639D01*
X131269866Y-115864062D01*
X131673538Y-116267734D01*
X131754332Y-116301200D01*
X131673538Y-116334666D01*
X131269866Y-116738338D01*
X131051400Y-117265761D01*
X131051400Y-117836639D01*
X131269866Y-118364062D01*
X131673538Y-118767734D01*
X132200961Y-118986200D01*
X132771839Y-118986200D01*
X133299262Y-118767734D01*
X133702934Y-118364062D01*
X133921400Y-117836639D01*
X133921400Y-117265761D01*
X133702934Y-116738338D01*
X133299262Y-116334666D01*
X133218468Y-116301200D01*
X133299262Y-116267734D01*
X133446451Y-116120545D01*
X137157361Y-116120545D01*
X137231495Y-116366664D01*
X137768723Y-116559765D01*
X138338954Y-116532578D01*
X138739505Y-116366664D01*
X138813639Y-116120545D01*
X137985500Y-115292405D01*
X137157361Y-116120545D01*
X133446451Y-116120545D01*
X133702934Y-115864062D01*
X133921400Y-115336639D01*
X133921400Y-114896023D01*
X136538535Y-114896023D01*
X136565722Y-115466254D01*
X136731636Y-115866805D01*
X136977755Y-115940939D01*
X137805895Y-115112800D01*
X138165105Y-115112800D01*
X138993245Y-115940939D01*
X139239364Y-115866805D01*
X139432465Y-115329577D01*
X139405278Y-114759346D01*
X139239364Y-114358795D01*
X138993245Y-114284661D01*
X138165105Y-115112800D01*
X137805895Y-115112800D01*
X136977755Y-114284661D01*
X136731636Y-114358795D01*
X136538535Y-114896023D01*
X133921400Y-114896023D01*
X133921400Y-114765761D01*
X133702934Y-114238338D01*
X133299262Y-113834666D01*
X132771839Y-113616200D01*
X132200961Y-113616200D01*
X131673538Y-113834666D01*
X131269866Y-114238338D01*
X131051400Y-114765761D01*
X131000500Y-114765761D01*
X131000500Y-112327361D01*
X136550500Y-112327361D01*
X136550500Y-112898239D01*
X136768966Y-113425662D01*
X137172638Y-113829334D01*
X137237799Y-113856325D01*
X137231495Y-113858936D01*
X137157361Y-114105055D01*
X137985500Y-114933195D01*
X138713944Y-114204750D01*
X140370000Y-114204750D01*
X140370000Y-114645310D01*
X140466673Y-114878699D01*
X140645302Y-115057327D01*
X140878691Y-115154000D01*
X141319250Y-115154000D01*
X141478000Y-114995250D01*
X141478000Y-114046000D01*
X140528750Y-114046000D01*
X140370000Y-114204750D01*
X138713944Y-114204750D01*
X138813639Y-114105055D01*
X138739505Y-113858936D01*
X138732754Y-113856510D01*
X138798362Y-113829334D01*
X139202034Y-113425662D01*
X139298534Y-113192690D01*
X140370000Y-113192690D01*
X140370000Y-113633250D01*
X140528750Y-113792000D01*
X141478000Y-113792000D01*
X141478000Y-112842750D01*
X141319250Y-112684000D01*
X140878691Y-112684000D01*
X140645302Y-112780673D01*
X140466673Y-112959301D01*
X140370000Y-113192690D01*
X139298534Y-113192690D01*
X139420500Y-112898239D01*
X139420500Y-112327361D01*
X139202034Y-111799938D01*
X138798362Y-111396266D01*
X138270939Y-111177800D01*
X137700061Y-111177800D01*
X137172638Y-111396266D01*
X136768966Y-111799938D01*
X136550500Y-112327361D01*
X131000500Y-112327361D01*
X131000500Y-106984735D01*
X131584636Y-106400600D01*
X133545352Y-106400600D01*
X133642623Y-106546177D01*
X133994958Y-106781600D01*
X133642623Y-107017023D01*
X133325460Y-107491691D01*
X133214087Y-108051600D01*
X133325460Y-108611509D01*
X133642623Y-109086177D01*
X134117291Y-109403340D01*
X134535867Y-109486600D01*
X135618533Y-109486600D01*
X136037109Y-109403340D01*
X136511777Y-109086177D01*
X136828940Y-108611509D01*
X136940313Y-108051600D01*
X136828940Y-107491691D01*
X136511777Y-107017023D01*
X136159442Y-106781600D01*
X136511777Y-106546177D01*
X136828940Y-106071509D01*
X136940313Y-105511600D01*
X136828940Y-104951691D01*
X136511777Y-104477023D01*
X136159442Y-104241600D01*
X136511777Y-104006177D01*
X136828940Y-103531509D01*
X136940313Y-102971600D01*
X136828940Y-102411691D01*
X136511777Y-101937023D01*
X136159442Y-101701600D01*
X136511777Y-101466177D01*
X136828940Y-100991509D01*
X136940313Y-100431600D01*
X136828940Y-99871691D01*
X136511777Y-99397023D01*
X136159442Y-99161600D01*
X136511777Y-98926177D01*
X136828940Y-98451509D01*
X136940313Y-97891600D01*
X136828940Y-97331691D01*
X136511777Y-96857023D01*
X136159442Y-96621600D01*
X136511777Y-96386177D01*
X136828940Y-95911509D01*
X136940313Y-95351600D01*
X136828940Y-94791691D01*
X136511777Y-94317023D01*
X136159442Y-94081600D01*
X136511777Y-93846177D01*
X136828940Y-93371509D01*
X136870884Y-93160639D01*
X140905296Y-93160639D01*
X140922833Y-93243419D01*
X141192700Y-93736496D01*
X141621807Y-94081600D01*
X141192700Y-94426704D01*
X140922833Y-94919781D01*
X140905296Y-95002561D01*
X141027285Y-95224600D01*
X142570200Y-95224600D01*
X142570200Y-92938600D01*
X142824200Y-92938600D01*
X142824200Y-95224600D01*
X144367115Y-95224600D01*
X144489104Y-95002561D01*
X144471567Y-94919781D01*
X144366835Y-94728423D01*
X146685835Y-94728423D01*
X146713022Y-95298654D01*
X146878936Y-95699205D01*
X147125055Y-95773339D01*
X147953195Y-94945200D01*
X148312405Y-94945200D01*
X149140545Y-95773339D01*
X149386664Y-95699205D01*
X149579765Y-95161977D01*
X149561256Y-94773750D01*
X151215800Y-94773750D01*
X151215800Y-95214309D01*
X151312473Y-95447698D01*
X151491101Y-95626327D01*
X151724490Y-95723000D01*
X152165050Y-95723000D01*
X152323800Y-95564250D01*
X152323800Y-94615000D01*
X152577800Y-94615000D01*
X152577800Y-95564250D01*
X152736550Y-95723000D01*
X153177110Y-95723000D01*
X153410499Y-95626327D01*
X153589127Y-95447698D01*
X153685800Y-95214309D01*
X153685800Y-94773750D01*
X153527050Y-94615000D01*
X152577800Y-94615000D01*
X152323800Y-94615000D01*
X151374550Y-94615000D01*
X151215800Y-94773750D01*
X149561256Y-94773750D01*
X149552578Y-94591746D01*
X149516233Y-94504000D01*
X157716960Y-94504000D01*
X157716960Y-96504000D01*
X157766243Y-96751765D01*
X157906591Y-96961809D01*
X158067160Y-97069099D01*
X157805256Y-97535645D01*
X157774276Y-97663566D01*
X157893623Y-97917000D01*
X159537400Y-97917000D01*
X159537400Y-97897000D01*
X159791400Y-97897000D01*
X159791400Y-97917000D01*
X161435177Y-97917000D01*
X161554524Y-97663566D01*
X161523544Y-97535645D01*
X161261640Y-97069099D01*
X161422209Y-96961809D01*
X161562557Y-96751765D01*
X161611840Y-96504000D01*
X161611840Y-94504000D01*
X161562557Y-94256235D01*
X161422209Y-94046191D01*
X161212165Y-93905843D01*
X160964400Y-93856560D01*
X158364400Y-93856560D01*
X158116635Y-93905843D01*
X157906591Y-94046191D01*
X157766243Y-94256235D01*
X157716960Y-94504000D01*
X149516233Y-94504000D01*
X149386664Y-94191195D01*
X149140545Y-94117061D01*
X148312405Y-94945200D01*
X147953195Y-94945200D01*
X147125055Y-94117061D01*
X146878936Y-94191195D01*
X146685835Y-94728423D01*
X144366835Y-94728423D01*
X144201700Y-94426704D01*
X143772593Y-94081600D01*
X144201700Y-93736496D01*
X144471567Y-93243419D01*
X144489104Y-93160639D01*
X144367115Y-92938600D01*
X142824200Y-92938600D01*
X142570200Y-92938600D01*
X141027285Y-92938600D01*
X140905296Y-93160639D01*
X136870884Y-93160639D01*
X136940313Y-92811600D01*
X136828940Y-92251691D01*
X136511777Y-91777023D01*
X136155701Y-91539101D01*
X136581700Y-91196496D01*
X136851567Y-90703419D01*
X136869104Y-90620639D01*
X136747115Y-90398600D01*
X135204200Y-90398600D01*
X135204200Y-90418600D01*
X134950200Y-90418600D01*
X134950200Y-90398600D01*
X133407285Y-90398600D01*
X133285296Y-90620639D01*
X133302833Y-90703419D01*
X133572700Y-91196496D01*
X133998699Y-91539101D01*
X133642623Y-91777023D01*
X133325460Y-92251691D01*
X133214087Y-92811600D01*
X133325460Y-93371509D01*
X133642623Y-93846177D01*
X133994958Y-94081600D01*
X133642623Y-94317023D01*
X133325460Y-94791691D01*
X133214087Y-95351600D01*
X133325460Y-95911509D01*
X133642623Y-96386177D01*
X133994958Y-96621600D01*
X133642623Y-96857023D01*
X133325460Y-97331691D01*
X133214087Y-97891600D01*
X133325460Y-98451509D01*
X133642623Y-98926177D01*
X133994958Y-99161600D01*
X133642623Y-99397023D01*
X133325460Y-99871691D01*
X133214087Y-100431600D01*
X133325460Y-100991509D01*
X133642623Y-101466177D01*
X133994958Y-101701600D01*
X133642623Y-101937023D01*
X133325460Y-102411691D01*
X133214087Y-102971600D01*
X133325460Y-103531509D01*
X133642623Y-104006177D01*
X133994958Y-104241600D01*
X133642623Y-104477023D01*
X133545352Y-104622600D01*
X131303956Y-104622600D01*
X131216400Y-104605184D01*
X130869529Y-104674181D01*
X130742589Y-104759000D01*
X130575467Y-104870667D01*
X130525871Y-104944894D01*
X129544794Y-105925971D01*
X129470568Y-105975567D01*
X129420972Y-106049793D01*
X129420971Y-106049794D01*
X129274082Y-106269630D01*
X129205084Y-106616500D01*
X129222501Y-106704059D01*
X129222500Y-119228945D01*
X129205084Y-119316500D01*
X129222500Y-119404055D01*
X129274081Y-119663369D01*
X129470567Y-119957433D01*
X129544796Y-120007031D01*
X130060765Y-120523000D01*
X115697000Y-120523000D01*
X115697000Y-119495332D01*
X117086273Y-119495332D01*
X117184936Y-119762187D01*
X117794661Y-119988708D01*
X118444660Y-119964656D01*
X118933464Y-119762187D01*
X119032127Y-119495332D01*
X123586273Y-119495332D01*
X123684936Y-119762187D01*
X124294661Y-119988708D01*
X124944660Y-119964656D01*
X125433464Y-119762187D01*
X125532127Y-119495332D01*
X124559200Y-118522405D01*
X123586273Y-119495332D01*
X119032127Y-119495332D01*
X118059200Y-118522405D01*
X117086273Y-119495332D01*
X115697000Y-119495332D01*
X115697000Y-118078261D01*
X116413292Y-118078261D01*
X116437344Y-118728260D01*
X116639813Y-119217064D01*
X116906668Y-119315727D01*
X117879595Y-118342800D01*
X118238805Y-118342800D01*
X119211732Y-119315727D01*
X119478587Y-119217064D01*
X119705108Y-118607339D01*
X119685531Y-118078261D01*
X122913292Y-118078261D01*
X122937344Y-118728260D01*
X123139813Y-119217064D01*
X123406668Y-119315727D01*
X124379595Y-118342800D01*
X124738805Y-118342800D01*
X125711732Y-119315727D01*
X125978587Y-119217064D01*
X126205108Y-118607339D01*
X126181056Y-117957340D01*
X125978587Y-117468536D01*
X125711732Y-117369873D01*
X124738805Y-118342800D01*
X124379595Y-118342800D01*
X123406668Y-117369873D01*
X123139813Y-117468536D01*
X122913292Y-118078261D01*
X119685531Y-118078261D01*
X119681056Y-117957340D01*
X119478587Y-117468536D01*
X119211732Y-117369873D01*
X118238805Y-118342800D01*
X117879595Y-118342800D01*
X116906668Y-117369873D01*
X116639813Y-117468536D01*
X116413292Y-118078261D01*
X115697000Y-118078261D01*
X115697000Y-117190268D01*
X117086273Y-117190268D01*
X118059200Y-118163195D01*
X119032127Y-117190268D01*
X123586273Y-117190268D01*
X124559200Y-118163195D01*
X125532127Y-117190268D01*
X125433464Y-116923413D01*
X124823739Y-116696892D01*
X124173740Y-116720944D01*
X123684936Y-116923413D01*
X123586273Y-117190268D01*
X119032127Y-117190268D01*
X118933464Y-116923413D01*
X118323739Y-116696892D01*
X117673740Y-116720944D01*
X117184936Y-116923413D01*
X117086273Y-117190268D01*
X115697000Y-117190268D01*
X115697000Y-113517578D01*
X116424200Y-113517578D01*
X116424200Y-114168022D01*
X116673114Y-114768953D01*
X117133047Y-115228886D01*
X117733978Y-115477800D01*
X118384422Y-115477800D01*
X118985353Y-115228886D01*
X119445286Y-114768953D01*
X119694200Y-114168022D01*
X119694200Y-113517578D01*
X122924200Y-113517578D01*
X122924200Y-114168022D01*
X123173114Y-114768953D01*
X123633047Y-115228886D01*
X124233978Y-115477800D01*
X124884422Y-115477800D01*
X125485353Y-115228886D01*
X125945286Y-114768953D01*
X126194200Y-114168022D01*
X126194200Y-113517578D01*
X125945286Y-112916647D01*
X125485353Y-112456714D01*
X124884422Y-112207800D01*
X124233978Y-112207800D01*
X123633047Y-112456714D01*
X123173114Y-112916647D01*
X122924200Y-113517578D01*
X119694200Y-113517578D01*
X119445286Y-112916647D01*
X118985353Y-112456714D01*
X118384422Y-112207800D01*
X117733978Y-112207800D01*
X117133047Y-112456714D01*
X116673114Y-112916647D01*
X116424200Y-113517578D01*
X115697000Y-113517578D01*
X115697000Y-113030000D01*
X115687333Y-112981399D01*
X115659803Y-112940197D01*
X115618601Y-112912667D01*
X115570000Y-112903000D01*
X113069723Y-112903000D01*
X113256600Y-112451839D01*
X113256600Y-111880961D01*
X113038134Y-111353538D01*
X112634462Y-110949866D01*
X112107039Y-110731400D01*
X111536161Y-110731400D01*
X111008738Y-110949866D01*
X110605066Y-111353538D01*
X110578075Y-111418699D01*
X110575464Y-111412395D01*
X110329345Y-111338261D01*
X109501205Y-112166400D01*
X109515348Y-112180542D01*
X109335742Y-112360148D01*
X109321600Y-112346005D01*
X109307458Y-112360148D01*
X109127852Y-112180542D01*
X109141995Y-112166400D01*
X108313855Y-111338261D01*
X108067736Y-111412395D01*
X107874635Y-111949623D01*
X107901822Y-112519854D01*
X108060527Y-112903000D01*
X101219631Y-112903000D01*
X101241392Y-112793600D01*
X101152682Y-112347623D01*
X101065536Y-112217201D01*
X100900057Y-111969543D01*
X100804618Y-111905773D01*
X100387427Y-111488582D01*
X100323657Y-111393143D01*
X99972721Y-111158655D01*
X108493461Y-111158655D01*
X109321600Y-111986795D01*
X110149739Y-111158655D01*
X110075605Y-110912536D01*
X109538377Y-110719435D01*
X108968146Y-110746622D01*
X108567595Y-110912536D01*
X108493461Y-111158655D01*
X99972721Y-111158655D01*
X99945576Y-111140518D01*
X99612172Y-111074200D01*
X99612171Y-111074200D01*
X99499600Y-111051808D01*
X99387029Y-111074200D01*
X99122487Y-111074200D01*
X99081757Y-110869435D01*
X98941409Y-110659391D01*
X98731365Y-110519043D01*
X98526600Y-110478313D01*
X98526600Y-109831445D01*
X98721818Y-109636227D01*
X98817257Y-109572457D01*
X99069882Y-109194376D01*
X99136200Y-108860972D01*
X99136200Y-108860971D01*
X99158592Y-108748401D01*
X99136200Y-108635830D01*
X99136200Y-108331505D01*
X99140965Y-108330557D01*
X99351009Y-108190209D01*
X99490329Y-107981704D01*
X99934273Y-108278338D01*
X100382018Y-108367400D01*
X100684382Y-108367400D01*
X101132127Y-108278338D01*
X101639873Y-107939073D01*
X101810824Y-107683226D01*
X102165624Y-108070366D01*
X102708458Y-108323446D01*
X102946200Y-108203397D01*
X102946200Y-106959400D01*
X103200200Y-106959400D01*
X103200200Y-108203397D01*
X103437942Y-108323446D01*
X103980776Y-108070366D01*
X104119899Y-107918561D01*
X115506600Y-107918561D01*
X115506600Y-108489439D01*
X115725066Y-109016862D01*
X116128738Y-109420534D01*
X116656161Y-109639000D01*
X117227039Y-109639000D01*
X117754462Y-109420534D01*
X118158134Y-109016862D01*
X118376600Y-108489439D01*
X118376600Y-108204000D01*
X123098487Y-108204000D01*
X123209860Y-108763909D01*
X123527023Y-109238577D01*
X124001691Y-109555740D01*
X124420267Y-109639000D01*
X124702933Y-109639000D01*
X125121509Y-109555740D01*
X125596177Y-109238577D01*
X125913340Y-108763909D01*
X126024713Y-108204000D01*
X125913340Y-107644091D01*
X125596177Y-107169423D01*
X125121509Y-106852260D01*
X124702933Y-106769000D01*
X124420267Y-106769000D01*
X124001691Y-106852260D01*
X123527023Y-107169423D01*
X123209860Y-107644091D01*
X123098487Y-108204000D01*
X118376600Y-108204000D01*
X118376600Y-107918561D01*
X118158134Y-107391138D01*
X117754462Y-106987466D01*
X117227039Y-106769000D01*
X116656161Y-106769000D01*
X116128738Y-106987466D01*
X115725066Y-107391138D01*
X115506600Y-107918561D01*
X104119899Y-107918561D01*
X104385440Y-107628817D01*
X104564236Y-107197140D01*
X104443578Y-106959400D01*
X103200200Y-106959400D01*
X102946200Y-106959400D01*
X102926200Y-106959400D01*
X102926200Y-106705400D01*
X102946200Y-106705400D01*
X102946200Y-105461403D01*
X103200200Y-105461403D01*
X103200200Y-106705400D01*
X104443578Y-106705400D01*
X104564236Y-106467660D01*
X104497009Y-106305350D01*
X107886600Y-106305350D01*
X107886600Y-106945910D01*
X107983273Y-107179299D01*
X108161902Y-107357927D01*
X108395291Y-107454600D01*
X109035850Y-107454600D01*
X109194600Y-107295850D01*
X109194600Y-106146600D01*
X108045350Y-106146600D01*
X107886600Y-106305350D01*
X104497009Y-106305350D01*
X104385440Y-106035983D01*
X103980776Y-105594434D01*
X103437942Y-105341354D01*
X103200200Y-105461403D01*
X102946200Y-105461403D01*
X102708458Y-105341354D01*
X102165624Y-105594434D01*
X101810824Y-105981574D01*
X101639873Y-105725727D01*
X101132127Y-105386462D01*
X100684382Y-105297400D01*
X100382018Y-105297400D01*
X99934273Y-105386462D01*
X99490329Y-105683096D01*
X99351009Y-105474591D01*
X99140965Y-105334243D01*
X98893200Y-105284960D01*
X97093200Y-105284960D01*
X96845435Y-105334243D01*
X96635391Y-105474591D01*
X96495043Y-105684635D01*
X96445760Y-105932400D01*
X96445760Y-107732400D01*
X96495043Y-107980165D01*
X96635391Y-108190209D01*
X96789432Y-108293137D01*
X96559543Y-108446743D01*
X96306918Y-108824824D01*
X96218208Y-109270800D01*
X96240601Y-109383377D01*
X96240601Y-110478313D01*
X96035835Y-110519043D01*
X95825791Y-110659391D01*
X95685443Y-110869435D01*
X95636160Y-111117200D01*
X95636160Y-111226600D01*
X95377000Y-111226600D01*
X95377000Y-105093290D01*
X107886600Y-105093290D01*
X107886600Y-105733850D01*
X108045350Y-105892600D01*
X109194600Y-105892600D01*
X109194600Y-104743350D01*
X109448600Y-104743350D01*
X109448600Y-105892600D01*
X109468600Y-105892600D01*
X109468600Y-106146600D01*
X109448600Y-106146600D01*
X109448600Y-107295850D01*
X109607350Y-107454600D01*
X110247909Y-107454600D01*
X110481298Y-107357927D01*
X110659927Y-107179299D01*
X110745445Y-106972841D01*
X111008738Y-107236134D01*
X111536161Y-107454600D01*
X112107039Y-107454600D01*
X112634462Y-107236134D01*
X113038134Y-106832462D01*
X113256600Y-106305039D01*
X113256600Y-105734161D01*
X113038134Y-105206738D01*
X112634462Y-104803066D01*
X112107039Y-104584600D01*
X111536161Y-104584600D01*
X111008738Y-104803066D01*
X110745445Y-105066359D01*
X110659927Y-104859901D01*
X110481298Y-104681273D01*
X110247909Y-104584600D01*
X109607350Y-104584600D01*
X109448600Y-104743350D01*
X109194600Y-104743350D01*
X109035850Y-104584600D01*
X108395291Y-104584600D01*
X108161902Y-104681273D01*
X107983273Y-104859901D01*
X107886600Y-105093290D01*
X95377000Y-105093290D01*
X95377000Y-104267000D01*
X132080000Y-104267000D01*
X132128601Y-104257333D01*
X132169803Y-104229803D01*
X132197333Y-104188601D01*
X132207000Y-104140000D01*
X132207000Y-89027000D01*
X133970224Y-89027000D01*
X133572700Y-89346704D01*
X133572700Y-89346704D01*
G37*
X133572700Y-89346704D02*
X133302833Y-89839781D01*
X133285296Y-89922561D01*
X133407285Y-90144600D01*
X134950200Y-90144600D01*
X134950200Y-90124600D01*
X135204200Y-90124600D01*
X135204200Y-90144600D01*
X136747115Y-90144600D01*
X136869104Y-89922561D01*
X136851567Y-89839781D01*
X136581700Y-89346704D01*
X136184176Y-89027000D01*
X141576944Y-89027000D01*
X141262623Y-89237023D01*
X140945460Y-89711691D01*
X140834087Y-90271600D01*
X140945460Y-90831509D01*
X141262623Y-91306177D01*
X141618699Y-91544099D01*
X141192700Y-91886704D01*
X140922833Y-92379781D01*
X140905296Y-92462561D01*
X141027285Y-92684600D01*
X142570200Y-92684600D01*
X142570200Y-92664600D01*
X142824200Y-92664600D01*
X142824200Y-92684600D01*
X144367115Y-92684600D01*
X144489104Y-92462561D01*
X144471567Y-92379781D01*
X144351148Y-92159761D01*
X146697800Y-92159761D01*
X146697800Y-92730639D01*
X146916266Y-93258062D01*
X147319938Y-93661734D01*
X147385099Y-93688725D01*
X147378795Y-93691336D01*
X147304661Y-93937455D01*
X148132800Y-94765595D01*
X148960939Y-93937455D01*
X148886805Y-93691336D01*
X148880054Y-93688910D01*
X148945662Y-93661734D01*
X149349334Y-93258062D01*
X149567800Y-92730639D01*
X149567800Y-92242343D01*
X151215800Y-92242343D01*
X151215800Y-92733657D01*
X151403818Y-93187571D01*
X151544006Y-93327759D01*
X151491101Y-93349673D01*
X151312473Y-93528302D01*
X151215800Y-93761691D01*
X151215800Y-94202250D01*
X151374550Y-94361000D01*
X152323800Y-94361000D01*
X152323800Y-94341000D01*
X152577800Y-94341000D01*
X152577800Y-94361000D01*
X153527050Y-94361000D01*
X153685800Y-94202250D01*
X153685800Y-93761691D01*
X153589127Y-93528302D01*
X153410499Y-93349673D01*
X153357594Y-93327759D01*
X153497782Y-93187571D01*
X153685800Y-92733657D01*
X153685800Y-92242343D01*
X153497782Y-91788429D01*
X153150371Y-91441018D01*
X152696457Y-91253000D01*
X152205143Y-91253000D01*
X151751229Y-91441018D01*
X151403818Y-91788429D01*
X151215800Y-92242343D01*
X149567800Y-92242343D01*
X149567800Y-92159761D01*
X149349334Y-91632338D01*
X148945662Y-91228666D01*
X148418239Y-91010200D01*
X147847361Y-91010200D01*
X147319938Y-91228666D01*
X146916266Y-91632338D01*
X146697800Y-92159761D01*
X144351148Y-92159761D01*
X144201700Y-91886704D01*
X143775701Y-91544099D01*
X144131777Y-91306177D01*
X144448940Y-90831509D01*
X144560313Y-90271600D01*
X144448940Y-89711691D01*
X144131777Y-89237023D01*
X143817456Y-89027000D01*
X166243000Y-89027000D01*
X166243000Y-115343400D01*
X166236961Y-115343400D01*
X165709538Y-115561866D01*
X165305866Y-115965538D01*
X165087400Y-116492961D01*
X165087400Y-117063839D01*
X165305866Y-117591262D01*
X165709538Y-117994934D01*
X165774699Y-118021925D01*
X165768395Y-118024536D01*
X165694261Y-118270655D01*
X166243000Y-118819395D01*
X166243000Y-119178605D01*
X165514655Y-118450261D01*
X165268536Y-118524395D01*
X165075435Y-119061623D01*
X165102622Y-119631854D01*
X165268536Y-120032405D01*
X165514655Y-120106539D01*
X166243000Y-119378195D01*
X166243000Y-119737405D01*
X165694261Y-120286145D01*
X165765605Y-120523000D01*
X160713407Y-120523000D01*
X160769621Y-120471690D01*
X161017768Y-119942227D01*
X160897269Y-119710200D01*
X159689800Y-119710200D01*
X159689800Y-119730200D01*
X159435800Y-119730200D01*
X159435800Y-119710200D01*
X159415800Y-119710200D01*
X159415800Y-119456200D01*
X159435800Y-119456200D01*
X159435800Y-119436200D01*
X159689800Y-119436200D01*
X159689800Y-119456200D01*
X160897269Y-119456200D01*
X161017768Y-119224173D01*
X160769621Y-118694710D01*
X160581850Y-118523319D01*
X160674165Y-118504957D01*
X160884209Y-118364609D01*
X161024557Y-118154565D01*
X161073840Y-117906800D01*
X161073840Y-116179600D01*
X161024557Y-115931835D01*
X160884209Y-115721791D01*
X160674165Y-115581443D01*
X160451800Y-115537212D01*
X160451800Y-114793955D01*
X160469216Y-114706400D01*
X160451800Y-114618844D01*
X160400219Y-114359530D01*
X160203733Y-114065467D01*
X160129507Y-114015871D01*
X159338931Y-113225296D01*
X159289333Y-113151067D01*
X158995270Y-112954581D01*
X158735956Y-112903000D01*
X158735955Y-112903000D01*
X158648400Y-112885584D01*
X158560845Y-112903000D01*
X156720644Y-112903000D01*
X156807656Y-112815988D01*
X156972000Y-112419226D01*
X156972000Y-111989774D01*
X156807656Y-111593012D01*
X156503988Y-111289344D01*
X156107226Y-111125000D01*
X156070236Y-111125000D01*
X153187400Y-108242165D01*
X153187400Y-100584000D01*
X157697369Y-100584000D01*
X157824264Y-101221945D01*
X158185631Y-101762769D01*
X158322168Y-101854000D01*
X158185631Y-101945231D01*
X157824264Y-102486055D01*
X157697369Y-103124000D01*
X157824264Y-103761945D01*
X158185631Y-104302769D01*
X158322168Y-104394000D01*
X158185631Y-104485231D01*
X157824264Y-105026055D01*
X157697369Y-105664000D01*
X157824264Y-106301945D01*
X158185631Y-106842769D01*
X158322168Y-106934000D01*
X158185631Y-107025231D01*
X157824264Y-107566055D01*
X157697369Y-108204000D01*
X157824264Y-108841945D01*
X158185631Y-109382769D01*
X158726455Y-109744136D01*
X159203369Y-109839000D01*
X160125431Y-109839000D01*
X160602345Y-109744136D01*
X161143169Y-109382769D01*
X161504536Y-108841945D01*
X161631431Y-108204000D01*
X161504536Y-107566055D01*
X161143169Y-107025231D01*
X161006632Y-106934000D01*
X161143169Y-106842769D01*
X161504536Y-106301945D01*
X161631431Y-105664000D01*
X161504536Y-105026055D01*
X161143169Y-104485231D01*
X161006632Y-104394000D01*
X161143169Y-104302769D01*
X161504536Y-103761945D01*
X161631431Y-103124000D01*
X161504536Y-102486055D01*
X161143169Y-101945231D01*
X161006632Y-101854000D01*
X161143169Y-101762769D01*
X161504536Y-101221945D01*
X161631431Y-100584000D01*
X161504536Y-99946055D01*
X161143169Y-99405231D01*
X160976771Y-99294048D01*
X161210322Y-99110317D01*
X161523544Y-98552355D01*
X161554524Y-98424434D01*
X161435177Y-98171000D01*
X159791400Y-98171000D01*
X159791400Y-98191000D01*
X159537400Y-98191000D01*
X159537400Y-98171000D01*
X157893623Y-98171000D01*
X157774276Y-98424434D01*
X157805256Y-98552355D01*
X158118478Y-99110317D01*
X158352029Y-99294048D01*
X158185631Y-99405231D01*
X157824264Y-99946055D01*
X157697369Y-100584000D01*
X153187400Y-100584000D01*
X153187400Y-100256444D01*
X153213556Y-100230288D01*
X153377900Y-99833526D01*
X153377900Y-99404074D01*
X153213556Y-99007312D01*
X152909888Y-98703644D01*
X152513126Y-98539300D01*
X152083674Y-98539300D01*
X151686912Y-98703644D01*
X151383244Y-99007312D01*
X151218900Y-99404074D01*
X151218900Y-99833526D01*
X151383244Y-100230288D01*
X151409401Y-100256445D01*
X151409400Y-108522845D01*
X151391984Y-108610400D01*
X151409400Y-108697955D01*
X151460981Y-108957269D01*
X151657467Y-109251333D01*
X151731696Y-109300931D01*
X154813000Y-112382236D01*
X154813000Y-112419226D01*
X154977344Y-112815988D01*
X155064356Y-112903000D01*
X152361836Y-112903000D01*
X151257000Y-111798165D01*
X151257000Y-102906750D01*
X151274415Y-102819199D01*
X151257000Y-102731648D01*
X151257000Y-102731644D01*
X151205419Y-102472330D01*
X151008933Y-102178267D01*
X150934707Y-102128671D01*
X148670931Y-99864896D01*
X148621333Y-99790667D01*
X148327270Y-99594181D01*
X148067956Y-99542600D01*
X148067955Y-99542600D01*
X147980400Y-99525184D01*
X147892845Y-99542600D01*
X144229048Y-99542600D01*
X144131777Y-99397023D01*
X143779442Y-99161600D01*
X144131777Y-98926177D01*
X144448940Y-98451509D01*
X144560313Y-97891600D01*
X144448940Y-97331691D01*
X144131777Y-96857023D01*
X143775701Y-96619101D01*
X144201700Y-96276496D01*
X144378783Y-95952945D01*
X147304661Y-95952945D01*
X147378795Y-96199064D01*
X147916023Y-96392165D01*
X148486254Y-96364978D01*
X148886805Y-96199064D01*
X148960939Y-95952945D01*
X148132800Y-95124805D01*
X147304661Y-95952945D01*
X144378783Y-95952945D01*
X144471567Y-95783419D01*
X144489104Y-95700639D01*
X144367115Y-95478600D01*
X142824200Y-95478600D01*
X142824200Y-95498600D01*
X142570200Y-95498600D01*
X142570200Y-95478600D01*
X141027285Y-95478600D01*
X140905296Y-95700639D01*
X140922833Y-95783419D01*
X141192700Y-96276496D01*
X141618699Y-96619101D01*
X141262623Y-96857023D01*
X140945460Y-97331691D01*
X140834087Y-97891600D01*
X140945460Y-98451509D01*
X141262623Y-98926177D01*
X141614958Y-99161600D01*
X141262623Y-99397023D01*
X140945460Y-99871691D01*
X140834087Y-100431600D01*
X140945460Y-100991509D01*
X141262623Y-101466177D01*
X141614958Y-101701600D01*
X141262623Y-101937023D01*
X140945460Y-102411691D01*
X140834087Y-102971600D01*
X140945460Y-103531509D01*
X141262623Y-104006177D01*
X141614958Y-104241600D01*
X141262623Y-104477023D01*
X140945460Y-104951691D01*
X140834087Y-105511600D01*
X140945460Y-106071509D01*
X141262623Y-106546177D01*
X141614958Y-106781600D01*
X141262623Y-107017023D01*
X140945460Y-107491691D01*
X140834087Y-108051600D01*
X140945460Y-108611509D01*
X141262623Y-109086177D01*
X141737291Y-109403340D01*
X142155867Y-109486600D01*
X143238533Y-109486600D01*
X143657109Y-109403340D01*
X144131777Y-109086177D01*
X144448940Y-108611509D01*
X144560313Y-108051600D01*
X144448940Y-107491691D01*
X144131777Y-107017023D01*
X143779442Y-106781600D01*
X144131777Y-106546177D01*
X144448940Y-106071509D01*
X144560313Y-105511600D01*
X144448940Y-104951691D01*
X144131777Y-104477023D01*
X143779442Y-104241600D01*
X144131777Y-104006177D01*
X144229048Y-103860600D01*
X145732565Y-103860600D01*
X146736407Y-104864442D01*
X146747451Y-111567905D01*
X146722344Y-111593012D01*
X146558000Y-111989774D01*
X146558000Y-112419226D01*
X146600570Y-112522000D01*
X143467412Y-112522000D01*
X143059918Y-112603056D01*
X142656582Y-112872556D01*
X142564698Y-112780673D01*
X142331309Y-112684000D01*
X141890750Y-112684000D01*
X141732000Y-112842750D01*
X141732000Y-113792000D01*
X141752000Y-113792000D01*
X141752000Y-114046000D01*
X141732000Y-114046000D01*
X141732000Y-114995250D01*
X141890750Y-115154000D01*
X142331309Y-115154000D01*
X142564698Y-115057327D01*
X142656582Y-114965444D01*
X143059918Y-115234944D01*
X143467412Y-115316000D01*
X149212365Y-115316000D01*
X148450365Y-116078000D01*
X145672350Y-116078000D01*
X145645771Y-116051421D01*
X145248825Y-115887000D01*
X144819175Y-115887000D01*
X144422229Y-116051421D01*
X144118421Y-116355229D01*
X143954000Y-116752175D01*
X143954000Y-117181825D01*
X144118421Y-117578771D01*
X144422229Y-117882579D01*
X144819175Y-118047000D01*
X145248825Y-118047000D01*
X145645771Y-117882579D01*
X145672350Y-117856000D01*
X148731045Y-117856000D01*
X148818600Y-117873416D01*
X148906155Y-117856000D01*
X148906156Y-117856000D01*
X149165470Y-117804419D01*
X149459533Y-117607933D01*
X149509131Y-117533704D01*
X152361836Y-114681000D01*
X158280165Y-114681000D01*
X158673800Y-115074636D01*
X158673800Y-115537212D01*
X158451435Y-115581443D01*
X158241391Y-115721791D01*
X158101043Y-115931835D01*
X158095868Y-115957851D01*
X157607525Y-115631550D01*
X157170398Y-115544600D01*
X156875202Y-115544600D01*
X156438075Y-115631550D01*
X155942370Y-115962770D01*
X155752800Y-116246481D01*
X155563230Y-115962770D01*
X155067525Y-115631550D01*
X154630398Y-115544600D01*
X154335202Y-115544600D01*
X153898075Y-115631550D01*
X153402370Y-115962770D01*
X153274460Y-116154200D01*
X152436755Y-116154200D01*
X152349200Y-116136784D01*
X152261645Y-116154200D01*
X152261644Y-116154200D01*
X152002330Y-116205781D01*
X151708267Y-116402267D01*
X151658671Y-116476493D01*
X150004496Y-118130669D01*
X149930267Y-118180267D01*
X149733781Y-118474331D01*
X149689945Y-118694710D01*
X149664784Y-118821200D01*
X149682200Y-118908755D01*
X149682200Y-120523000D01*
X145411440Y-120523000D01*
X145411440Y-120366000D01*
X145362157Y-120118235D01*
X145221809Y-119908191D01*
X145011765Y-119767843D01*
X144764000Y-119718560D01*
X142764000Y-119718560D01*
X142516235Y-119767843D01*
X142306191Y-119908191D01*
X142198901Y-120068760D01*
X141732355Y-119806856D01*
X141604434Y-119775876D01*
X141351000Y-119895223D01*
X141351000Y-120523000D01*
X141097000Y-120523000D01*
X141097000Y-119895223D01*
X140843566Y-119775876D01*
X140715645Y-119806856D01*
X140157683Y-120120078D01*
X139973952Y-120353629D01*
X139862769Y-120187231D01*
X139321945Y-119825864D01*
X138684000Y-119698969D01*
X138046056Y-119825864D01*
X137505231Y-120187231D01*
X137414000Y-120323768D01*
X137322769Y-120187231D01*
X136781945Y-119825864D01*
X136144000Y-119698969D01*
X135506056Y-119825864D01*
X134965231Y-120187231D01*
X134740877Y-120523000D01*
X133321996Y-120523000D01*
X133248462Y-120449466D01*
X132721039Y-120231000D01*
X132297469Y-120231000D01*
X132276534Y-120199668D01*
X132202308Y-120150072D01*
X131000500Y-118948265D01*
X131000500Y-114765761D01*
X131051400Y-114765761D01*
X131051400Y-115336639D01*
X131269866Y-115864062D01*
X131673538Y-116267734D01*
X131754332Y-116301200D01*
X131673538Y-116334666D01*
X131269866Y-116738338D01*
X131051400Y-117265761D01*
X131051400Y-117836639D01*
X131269866Y-118364062D01*
X131673538Y-118767734D01*
X132200961Y-118986200D01*
X132771839Y-118986200D01*
X133299262Y-118767734D01*
X133702934Y-118364062D01*
X133921400Y-117836639D01*
X133921400Y-117265761D01*
X133702934Y-116738338D01*
X133299262Y-116334666D01*
X133218468Y-116301200D01*
X133299262Y-116267734D01*
X133446451Y-116120545D01*
X137157361Y-116120545D01*
X137231495Y-116366664D01*
X137768723Y-116559765D01*
X138338954Y-116532578D01*
X138739505Y-116366664D01*
X138813639Y-116120545D01*
X137985500Y-115292405D01*
X137157361Y-116120545D01*
X133446451Y-116120545D01*
X133702934Y-115864062D01*
X133921400Y-115336639D01*
X133921400Y-114896023D01*
X136538535Y-114896023D01*
X136565722Y-115466254D01*
X136731636Y-115866805D01*
X136977755Y-115940939D01*
X137805895Y-115112800D01*
X138165105Y-115112800D01*
X138993245Y-115940939D01*
X139239364Y-115866805D01*
X139432465Y-115329577D01*
X139405278Y-114759346D01*
X139239364Y-114358795D01*
X138993245Y-114284661D01*
X138165105Y-115112800D01*
X137805895Y-115112800D01*
X136977755Y-114284661D01*
X136731636Y-114358795D01*
X136538535Y-114896023D01*
X133921400Y-114896023D01*
X133921400Y-114765761D01*
X133702934Y-114238338D01*
X133299262Y-113834666D01*
X132771839Y-113616200D01*
X132200961Y-113616200D01*
X131673538Y-113834666D01*
X131269866Y-114238338D01*
X131051400Y-114765761D01*
X131000500Y-114765761D01*
X131000500Y-112327361D01*
X136550500Y-112327361D01*
X136550500Y-112898239D01*
X136768966Y-113425662D01*
X137172638Y-113829334D01*
X137237799Y-113856325D01*
X137231495Y-113858936D01*
X137157361Y-114105055D01*
X137985500Y-114933195D01*
X138713944Y-114204750D01*
X140370000Y-114204750D01*
X140370000Y-114645310D01*
X140466673Y-114878699D01*
X140645302Y-115057327D01*
X140878691Y-115154000D01*
X141319250Y-115154000D01*
X141478000Y-114995250D01*
X141478000Y-114046000D01*
X140528750Y-114046000D01*
X140370000Y-114204750D01*
X138713944Y-114204750D01*
X138813639Y-114105055D01*
X138739505Y-113858936D01*
X138732754Y-113856510D01*
X138798362Y-113829334D01*
X139202034Y-113425662D01*
X139298534Y-113192690D01*
X140370000Y-113192690D01*
X140370000Y-113633250D01*
X140528750Y-113792000D01*
X141478000Y-113792000D01*
X141478000Y-112842750D01*
X141319250Y-112684000D01*
X140878691Y-112684000D01*
X140645302Y-112780673D01*
X140466673Y-112959301D01*
X140370000Y-113192690D01*
X139298534Y-113192690D01*
X139420500Y-112898239D01*
X139420500Y-112327361D01*
X139202034Y-111799938D01*
X138798362Y-111396266D01*
X138270939Y-111177800D01*
X137700061Y-111177800D01*
X137172638Y-111396266D01*
X136768966Y-111799938D01*
X136550500Y-112327361D01*
X131000500Y-112327361D01*
X131000500Y-106984735D01*
X131584636Y-106400600D01*
X133545352Y-106400600D01*
X133642623Y-106546177D01*
X133994958Y-106781600D01*
X133642623Y-107017023D01*
X133325460Y-107491691D01*
X133214087Y-108051600D01*
X133325460Y-108611509D01*
X133642623Y-109086177D01*
X134117291Y-109403340D01*
X134535867Y-109486600D01*
X135618533Y-109486600D01*
X136037109Y-109403340D01*
X136511777Y-109086177D01*
X136828940Y-108611509D01*
X136940313Y-108051600D01*
X136828940Y-107491691D01*
X136511777Y-107017023D01*
X136159442Y-106781600D01*
X136511777Y-106546177D01*
X136828940Y-106071509D01*
X136940313Y-105511600D01*
X136828940Y-104951691D01*
X136511777Y-104477023D01*
X136159442Y-104241600D01*
X136511777Y-104006177D01*
X136828940Y-103531509D01*
X136940313Y-102971600D01*
X136828940Y-102411691D01*
X136511777Y-101937023D01*
X136159442Y-101701600D01*
X136511777Y-101466177D01*
X136828940Y-100991509D01*
X136940313Y-100431600D01*
X136828940Y-99871691D01*
X136511777Y-99397023D01*
X136159442Y-99161600D01*
X136511777Y-98926177D01*
X136828940Y-98451509D01*
X136940313Y-97891600D01*
X136828940Y-97331691D01*
X136511777Y-96857023D01*
X136159442Y-96621600D01*
X136511777Y-96386177D01*
X136828940Y-95911509D01*
X136940313Y-95351600D01*
X136828940Y-94791691D01*
X136511777Y-94317023D01*
X136159442Y-94081600D01*
X136511777Y-93846177D01*
X136828940Y-93371509D01*
X136870884Y-93160639D01*
X140905296Y-93160639D01*
X140922833Y-93243419D01*
X141192700Y-93736496D01*
X141621807Y-94081600D01*
X141192700Y-94426704D01*
X140922833Y-94919781D01*
X140905296Y-95002561D01*
X141027285Y-95224600D01*
X142570200Y-95224600D01*
X142570200Y-92938600D01*
X142824200Y-92938600D01*
X142824200Y-95224600D01*
X144367115Y-95224600D01*
X144489104Y-95002561D01*
X144471567Y-94919781D01*
X144366835Y-94728423D01*
X146685835Y-94728423D01*
X146713022Y-95298654D01*
X146878936Y-95699205D01*
X147125055Y-95773339D01*
X147953195Y-94945200D01*
X148312405Y-94945200D01*
X149140545Y-95773339D01*
X149386664Y-95699205D01*
X149579765Y-95161977D01*
X149561256Y-94773750D01*
X151215800Y-94773750D01*
X151215800Y-95214309D01*
X151312473Y-95447698D01*
X151491101Y-95626327D01*
X151724490Y-95723000D01*
X152165050Y-95723000D01*
X152323800Y-95564250D01*
X152323800Y-94615000D01*
X152577800Y-94615000D01*
X152577800Y-95564250D01*
X152736550Y-95723000D01*
X153177110Y-95723000D01*
X153410499Y-95626327D01*
X153589127Y-95447698D01*
X153685800Y-95214309D01*
X153685800Y-94773750D01*
X153527050Y-94615000D01*
X152577800Y-94615000D01*
X152323800Y-94615000D01*
X151374550Y-94615000D01*
X151215800Y-94773750D01*
X149561256Y-94773750D01*
X149552578Y-94591746D01*
X149516233Y-94504000D01*
X157716960Y-94504000D01*
X157716960Y-96504000D01*
X157766243Y-96751765D01*
X157906591Y-96961809D01*
X158067160Y-97069099D01*
X157805256Y-97535645D01*
X157774276Y-97663566D01*
X157893623Y-97917000D01*
X159537400Y-97917000D01*
X159537400Y-97897000D01*
X159791400Y-97897000D01*
X159791400Y-97917000D01*
X161435177Y-97917000D01*
X161554524Y-97663566D01*
X161523544Y-97535645D01*
X161261640Y-97069099D01*
X161422209Y-96961809D01*
X161562557Y-96751765D01*
X161611840Y-96504000D01*
X161611840Y-94504000D01*
X161562557Y-94256235D01*
X161422209Y-94046191D01*
X161212165Y-93905843D01*
X160964400Y-93856560D01*
X158364400Y-93856560D01*
X158116635Y-93905843D01*
X157906591Y-94046191D01*
X157766243Y-94256235D01*
X157716960Y-94504000D01*
X149516233Y-94504000D01*
X149386664Y-94191195D01*
X149140545Y-94117061D01*
X148312405Y-94945200D01*
X147953195Y-94945200D01*
X147125055Y-94117061D01*
X146878936Y-94191195D01*
X146685835Y-94728423D01*
X144366835Y-94728423D01*
X144201700Y-94426704D01*
X143772593Y-94081600D01*
X144201700Y-93736496D01*
X144471567Y-93243419D01*
X144489104Y-93160639D01*
X144367115Y-92938600D01*
X142824200Y-92938600D01*
X142570200Y-92938600D01*
X141027285Y-92938600D01*
X140905296Y-93160639D01*
X136870884Y-93160639D01*
X136940313Y-92811600D01*
X136828940Y-92251691D01*
X136511777Y-91777023D01*
X136155701Y-91539101D01*
X136581700Y-91196496D01*
X136851567Y-90703419D01*
X136869104Y-90620639D01*
X136747115Y-90398600D01*
X135204200Y-90398600D01*
X135204200Y-90418600D01*
X134950200Y-90418600D01*
X134950200Y-90398600D01*
X133407285Y-90398600D01*
X133285296Y-90620639D01*
X133302833Y-90703419D01*
X133572700Y-91196496D01*
X133998699Y-91539101D01*
X133642623Y-91777023D01*
X133325460Y-92251691D01*
X133214087Y-92811600D01*
X133325460Y-93371509D01*
X133642623Y-93846177D01*
X133994958Y-94081600D01*
X133642623Y-94317023D01*
X133325460Y-94791691D01*
X133214087Y-95351600D01*
X133325460Y-95911509D01*
X133642623Y-96386177D01*
X133994958Y-96621600D01*
X133642623Y-96857023D01*
X133325460Y-97331691D01*
X133214087Y-97891600D01*
X133325460Y-98451509D01*
X133642623Y-98926177D01*
X133994958Y-99161600D01*
X133642623Y-99397023D01*
X133325460Y-99871691D01*
X133214087Y-100431600D01*
X133325460Y-100991509D01*
X133642623Y-101466177D01*
X133994958Y-101701600D01*
X133642623Y-101937023D01*
X133325460Y-102411691D01*
X133214087Y-102971600D01*
X133325460Y-103531509D01*
X133642623Y-104006177D01*
X133994958Y-104241600D01*
X133642623Y-104477023D01*
X133545352Y-104622600D01*
X131303956Y-104622600D01*
X131216400Y-104605184D01*
X130869529Y-104674181D01*
X130742589Y-104759000D01*
X130575467Y-104870667D01*
X130525871Y-104944894D01*
X129544794Y-105925971D01*
X129470568Y-105975567D01*
X129420972Y-106049793D01*
X129420971Y-106049794D01*
X129274082Y-106269630D01*
X129205084Y-106616500D01*
X129222501Y-106704059D01*
X129222500Y-119228945D01*
X129205084Y-119316500D01*
X129222500Y-119404055D01*
X129274081Y-119663369D01*
X129470567Y-119957433D01*
X129544796Y-120007031D01*
X130060765Y-120523000D01*
X115697000Y-120523000D01*
X115697000Y-119495332D01*
X117086273Y-119495332D01*
X117184936Y-119762187D01*
X117794661Y-119988708D01*
X118444660Y-119964656D01*
X118933464Y-119762187D01*
X119032127Y-119495332D01*
X123586273Y-119495332D01*
X123684936Y-119762187D01*
X124294661Y-119988708D01*
X124944660Y-119964656D01*
X125433464Y-119762187D01*
X125532127Y-119495332D01*
X124559200Y-118522405D01*
X123586273Y-119495332D01*
X119032127Y-119495332D01*
X118059200Y-118522405D01*
X117086273Y-119495332D01*
X115697000Y-119495332D01*
X115697000Y-118078261D01*
X116413292Y-118078261D01*
X116437344Y-118728260D01*
X116639813Y-119217064D01*
X116906668Y-119315727D01*
X117879595Y-118342800D01*
X118238805Y-118342800D01*
X119211732Y-119315727D01*
X119478587Y-119217064D01*
X119705108Y-118607339D01*
X119685531Y-118078261D01*
X122913292Y-118078261D01*
X122937344Y-118728260D01*
X123139813Y-119217064D01*
X123406668Y-119315727D01*
X124379595Y-118342800D01*
X124738805Y-118342800D01*
X125711732Y-119315727D01*
X125978587Y-119217064D01*
X126205108Y-118607339D01*
X126181056Y-117957340D01*
X125978587Y-117468536D01*
X125711732Y-117369873D01*
X124738805Y-118342800D01*
X124379595Y-118342800D01*
X123406668Y-117369873D01*
X123139813Y-117468536D01*
X122913292Y-118078261D01*
X119685531Y-118078261D01*
X119681056Y-117957340D01*
X119478587Y-117468536D01*
X119211732Y-117369873D01*
X118238805Y-118342800D01*
X117879595Y-118342800D01*
X116906668Y-117369873D01*
X116639813Y-117468536D01*
X116413292Y-118078261D01*
X115697000Y-118078261D01*
X115697000Y-117190268D01*
X117086273Y-117190268D01*
X118059200Y-118163195D01*
X119032127Y-117190268D01*
X123586273Y-117190268D01*
X124559200Y-118163195D01*
X125532127Y-117190268D01*
X125433464Y-116923413D01*
X124823739Y-116696892D01*
X124173740Y-116720944D01*
X123684936Y-116923413D01*
X123586273Y-117190268D01*
X119032127Y-117190268D01*
X118933464Y-116923413D01*
X118323739Y-116696892D01*
X117673740Y-116720944D01*
X117184936Y-116923413D01*
X117086273Y-117190268D01*
X115697000Y-117190268D01*
X115697000Y-113517578D01*
X116424200Y-113517578D01*
X116424200Y-114168022D01*
X116673114Y-114768953D01*
X117133047Y-115228886D01*
X117733978Y-115477800D01*
X118384422Y-115477800D01*
X118985353Y-115228886D01*
X119445286Y-114768953D01*
X119694200Y-114168022D01*
X119694200Y-113517578D01*
X122924200Y-113517578D01*
X122924200Y-114168022D01*
X123173114Y-114768953D01*
X123633047Y-115228886D01*
X124233978Y-115477800D01*
X124884422Y-115477800D01*
X125485353Y-115228886D01*
X125945286Y-114768953D01*
X126194200Y-114168022D01*
X126194200Y-113517578D01*
X125945286Y-112916647D01*
X125485353Y-112456714D01*
X124884422Y-112207800D01*
X124233978Y-112207800D01*
X123633047Y-112456714D01*
X123173114Y-112916647D01*
X122924200Y-113517578D01*
X119694200Y-113517578D01*
X119445286Y-112916647D01*
X118985353Y-112456714D01*
X118384422Y-112207800D01*
X117733978Y-112207800D01*
X117133047Y-112456714D01*
X116673114Y-112916647D01*
X116424200Y-113517578D01*
X115697000Y-113517578D01*
X115697000Y-113030000D01*
X115687333Y-112981399D01*
X115659803Y-112940197D01*
X115618601Y-112912667D01*
X115570000Y-112903000D01*
X113069723Y-112903000D01*
X113256600Y-112451839D01*
X113256600Y-111880961D01*
X113038134Y-111353538D01*
X112634462Y-110949866D01*
X112107039Y-110731400D01*
X111536161Y-110731400D01*
X111008738Y-110949866D01*
X110605066Y-111353538D01*
X110578075Y-111418699D01*
X110575464Y-111412395D01*
X110329345Y-111338261D01*
X109501205Y-112166400D01*
X109515348Y-112180542D01*
X109335742Y-112360148D01*
X109321600Y-112346005D01*
X109307458Y-112360148D01*
X109127852Y-112180542D01*
X109141995Y-112166400D01*
X108313855Y-111338261D01*
X108067736Y-111412395D01*
X107874635Y-111949623D01*
X107901822Y-112519854D01*
X108060527Y-112903000D01*
X101219631Y-112903000D01*
X101241392Y-112793600D01*
X101152682Y-112347623D01*
X101065536Y-112217201D01*
X100900057Y-111969543D01*
X100804618Y-111905773D01*
X100387427Y-111488582D01*
X100323657Y-111393143D01*
X99972721Y-111158655D01*
X108493461Y-111158655D01*
X109321600Y-111986795D01*
X110149739Y-111158655D01*
X110075605Y-110912536D01*
X109538377Y-110719435D01*
X108968146Y-110746622D01*
X108567595Y-110912536D01*
X108493461Y-111158655D01*
X99972721Y-111158655D01*
X99945576Y-111140518D01*
X99612172Y-111074200D01*
X99612171Y-111074200D01*
X99499600Y-111051808D01*
X99387029Y-111074200D01*
X99122487Y-111074200D01*
X99081757Y-110869435D01*
X98941409Y-110659391D01*
X98731365Y-110519043D01*
X98526600Y-110478313D01*
X98526600Y-109831445D01*
X98721818Y-109636227D01*
X98817257Y-109572457D01*
X99069882Y-109194376D01*
X99136200Y-108860972D01*
X99136200Y-108860971D01*
X99158592Y-108748401D01*
X99136200Y-108635830D01*
X99136200Y-108331505D01*
X99140965Y-108330557D01*
X99351009Y-108190209D01*
X99490329Y-107981704D01*
X99934273Y-108278338D01*
X100382018Y-108367400D01*
X100684382Y-108367400D01*
X101132127Y-108278338D01*
X101639873Y-107939073D01*
X101810824Y-107683226D01*
X102165624Y-108070366D01*
X102708458Y-108323446D01*
X102946200Y-108203397D01*
X102946200Y-106959400D01*
X103200200Y-106959400D01*
X103200200Y-108203397D01*
X103437942Y-108323446D01*
X103980776Y-108070366D01*
X104119899Y-107918561D01*
X115506600Y-107918561D01*
X115506600Y-108489439D01*
X115725066Y-109016862D01*
X116128738Y-109420534D01*
X116656161Y-109639000D01*
X117227039Y-109639000D01*
X117754462Y-109420534D01*
X118158134Y-109016862D01*
X118376600Y-108489439D01*
X118376600Y-108204000D01*
X123098487Y-108204000D01*
X123209860Y-108763909D01*
X123527023Y-109238577D01*
X124001691Y-109555740D01*
X124420267Y-109639000D01*
X124702933Y-109639000D01*
X125121509Y-109555740D01*
X125596177Y-109238577D01*
X125913340Y-108763909D01*
X126024713Y-108204000D01*
X125913340Y-107644091D01*
X125596177Y-107169423D01*
X125121509Y-106852260D01*
X124702933Y-106769000D01*
X124420267Y-106769000D01*
X124001691Y-106852260D01*
X123527023Y-107169423D01*
X123209860Y-107644091D01*
X123098487Y-108204000D01*
X118376600Y-108204000D01*
X118376600Y-107918561D01*
X118158134Y-107391138D01*
X117754462Y-106987466D01*
X117227039Y-106769000D01*
X116656161Y-106769000D01*
X116128738Y-106987466D01*
X115725066Y-107391138D01*
X115506600Y-107918561D01*
X104119899Y-107918561D01*
X104385440Y-107628817D01*
X104564236Y-107197140D01*
X104443578Y-106959400D01*
X103200200Y-106959400D01*
X102946200Y-106959400D01*
X102926200Y-106959400D01*
X102926200Y-106705400D01*
X102946200Y-106705400D01*
X102946200Y-105461403D01*
X103200200Y-105461403D01*
X103200200Y-106705400D01*
X104443578Y-106705400D01*
X104564236Y-106467660D01*
X104497009Y-106305350D01*
X107886600Y-106305350D01*
X107886600Y-106945910D01*
X107983273Y-107179299D01*
X108161902Y-107357927D01*
X108395291Y-107454600D01*
X109035850Y-107454600D01*
X109194600Y-107295850D01*
X109194600Y-106146600D01*
X108045350Y-106146600D01*
X107886600Y-106305350D01*
X104497009Y-106305350D01*
X104385440Y-106035983D01*
X103980776Y-105594434D01*
X103437942Y-105341354D01*
X103200200Y-105461403D01*
X102946200Y-105461403D01*
X102708458Y-105341354D01*
X102165624Y-105594434D01*
X101810824Y-105981574D01*
X101639873Y-105725727D01*
X101132127Y-105386462D01*
X100684382Y-105297400D01*
X100382018Y-105297400D01*
X99934273Y-105386462D01*
X99490329Y-105683096D01*
X99351009Y-105474591D01*
X99140965Y-105334243D01*
X98893200Y-105284960D01*
X97093200Y-105284960D01*
X96845435Y-105334243D01*
X96635391Y-105474591D01*
X96495043Y-105684635D01*
X96445760Y-105932400D01*
X96445760Y-107732400D01*
X96495043Y-107980165D01*
X96635391Y-108190209D01*
X96789432Y-108293137D01*
X96559543Y-108446743D01*
X96306918Y-108824824D01*
X96218208Y-109270800D01*
X96240601Y-109383377D01*
X96240601Y-110478313D01*
X96035835Y-110519043D01*
X95825791Y-110659391D01*
X95685443Y-110869435D01*
X95636160Y-111117200D01*
X95636160Y-111226600D01*
X95377000Y-111226600D01*
X95377000Y-105093290D01*
X107886600Y-105093290D01*
X107886600Y-105733850D01*
X108045350Y-105892600D01*
X109194600Y-105892600D01*
X109194600Y-104743350D01*
X109448600Y-104743350D01*
X109448600Y-105892600D01*
X109468600Y-105892600D01*
X109468600Y-106146600D01*
X109448600Y-106146600D01*
X109448600Y-107295850D01*
X109607350Y-107454600D01*
X110247909Y-107454600D01*
X110481298Y-107357927D01*
X110659927Y-107179299D01*
X110745445Y-106972841D01*
X111008738Y-107236134D01*
X111536161Y-107454600D01*
X112107039Y-107454600D01*
X112634462Y-107236134D01*
X113038134Y-106832462D01*
X113256600Y-106305039D01*
X113256600Y-105734161D01*
X113038134Y-105206738D01*
X112634462Y-104803066D01*
X112107039Y-104584600D01*
X111536161Y-104584600D01*
X111008738Y-104803066D01*
X110745445Y-105066359D01*
X110659927Y-104859901D01*
X110481298Y-104681273D01*
X110247909Y-104584600D01*
X109607350Y-104584600D01*
X109448600Y-104743350D01*
X109194600Y-104743350D01*
X109035850Y-104584600D01*
X108395291Y-104584600D01*
X108161902Y-104681273D01*
X107983273Y-104859901D01*
X107886600Y-105093290D01*
X95377000Y-105093290D01*
X95377000Y-104267000D01*
X132080000Y-104267000D01*
X132128601Y-104257333D01*
X132169803Y-104229803D01*
X132197333Y-104188601D01*
X132207000Y-104140000D01*
X132207000Y-89027000D01*
X133970224Y-89027000D01*
X133572700Y-89346704D01*
D44*
G04 #@! TO.N,Net-(D3-Pad2)*
G36*
X95186500Y-117475000D02*
X95187720Y-117487388D01*
X95191334Y-117499300D01*
X95197202Y-117510279D01*
X95205099Y-117519901D01*
X95214721Y-117527798D01*
X95225700Y-117533666D01*
X95237612Y-117537280D01*
X95250000Y-117538500D01*
X100901500Y-117538500D01*
X100901500Y-120015000D01*
X100902720Y-120027388D01*
X100906334Y-120039300D01*
X100912202Y-120050279D01*
X100920099Y-120059901D01*
X100929721Y-120067798D01*
X100940700Y-120073666D01*
X100952612Y-120077280D01*
X100965000Y-120078500D01*
X109156500Y-120078500D01*
X109156500Y-125666500D01*
X95250000Y-125666500D01*
X95237612Y-125667720D01*
X95225700Y-125671334D01*
X95214721Y-125677202D01*
X95205099Y-125685099D01*
X95197202Y-125694721D01*
X95191334Y-125705700D01*
X95187720Y-125717612D01*
X95186500Y-125730000D01*
X95186500Y-133286500D01*
X90233500Y-133286500D01*
X90233500Y-131709194D01*
X91789332Y-131709194D01*
X91970760Y-131900254D01*
X92269965Y-132046423D01*
X92591937Y-132131411D01*
X92924303Y-132151953D01*
X93254290Y-132107258D01*
X93569216Y-131999044D01*
X93754040Y-131900254D01*
X93935468Y-131709194D01*
X92862400Y-130636126D01*
X91789332Y-131709194D01*
X90233500Y-131709194D01*
X90233500Y-130516303D01*
X91164847Y-130516303D01*
X91209542Y-130846290D01*
X91317756Y-131161216D01*
X91416546Y-131346040D01*
X91607606Y-131527468D01*
X92680674Y-130454400D01*
X93044126Y-130454400D01*
X94117194Y-131527468D01*
X94308254Y-131346040D01*
X94454423Y-131046835D01*
X94539411Y-130724863D01*
X94559953Y-130392497D01*
X94515258Y-130062510D01*
X94407044Y-129747584D01*
X94308254Y-129562760D01*
X94117194Y-129381332D01*
X93044126Y-130454400D01*
X92680674Y-130454400D01*
X91607606Y-129381332D01*
X91416546Y-129562760D01*
X91270377Y-129861965D01*
X91185389Y-130183937D01*
X91164847Y-130516303D01*
X90233500Y-130516303D01*
X90233500Y-129199606D01*
X91789332Y-129199606D01*
X92862400Y-130272674D01*
X93935468Y-129199606D01*
X93754040Y-129008546D01*
X93454835Y-128862377D01*
X93132863Y-128777389D01*
X92800497Y-128756847D01*
X92470510Y-128801542D01*
X92155584Y-128909756D01*
X91970760Y-129008546D01*
X91789332Y-129199606D01*
X90233500Y-129199606D01*
X90233500Y-123315325D01*
X104790300Y-123315325D01*
X104790300Y-124907963D01*
X104797621Y-124944767D01*
X104811981Y-124979436D01*
X104832829Y-125010637D01*
X104859364Y-125037171D01*
X104890565Y-125058019D01*
X104925234Y-125072379D01*
X104962038Y-125079700D01*
X106554675Y-125079700D01*
X106602300Y-125032075D01*
X106602300Y-123267700D01*
X106859300Y-123267700D01*
X106859300Y-125032075D01*
X106906925Y-125079700D01*
X108499562Y-125079700D01*
X108536366Y-125072379D01*
X108571035Y-125058019D01*
X108602236Y-125037171D01*
X108628771Y-125010637D01*
X108649619Y-124979436D01*
X108663979Y-124944767D01*
X108671300Y-124907963D01*
X108671300Y-123315325D01*
X108623675Y-123267700D01*
X106859300Y-123267700D01*
X106602300Y-123267700D01*
X104837925Y-123267700D01*
X104790300Y-123315325D01*
X90233500Y-123315325D01*
X90233500Y-121370437D01*
X104790300Y-121370437D01*
X104790300Y-122963075D01*
X104837925Y-123010700D01*
X106602300Y-123010700D01*
X106602300Y-121246325D01*
X106859300Y-121246325D01*
X106859300Y-123010700D01*
X108623675Y-123010700D01*
X108671300Y-122963075D01*
X108671300Y-121370437D01*
X108663979Y-121333633D01*
X108649619Y-121298964D01*
X108628771Y-121267763D01*
X108602236Y-121241229D01*
X108571035Y-121220381D01*
X108536366Y-121206021D01*
X108499562Y-121198700D01*
X106906925Y-121198700D01*
X106859300Y-121246325D01*
X106602300Y-121246325D01*
X106554675Y-121198700D01*
X104962038Y-121198700D01*
X104925234Y-121206021D01*
X104890565Y-121220381D01*
X104859364Y-121241229D01*
X104832829Y-121267763D01*
X104811981Y-121298964D01*
X104797621Y-121333633D01*
X104790300Y-121370437D01*
X90233500Y-121370437D01*
X90233500Y-120164994D01*
X96135419Y-120164994D01*
X96223352Y-120402204D01*
X96355873Y-120617701D01*
X96527889Y-120803203D01*
X96732789Y-120951582D01*
X96962699Y-121057136D01*
X97055807Y-121085375D01*
X97255100Y-121073414D01*
X97255100Y-119965700D01*
X97512100Y-119965700D01*
X97512100Y-121073414D01*
X97711393Y-121085375D01*
X97804501Y-121057136D01*
X98034411Y-120951582D01*
X98239311Y-120803203D01*
X98411327Y-120617701D01*
X98543848Y-120402204D01*
X98631781Y-120164994D01*
X98620067Y-119965700D01*
X97512100Y-119965700D01*
X97255100Y-119965700D01*
X96147133Y-119965700D01*
X96135419Y-120164994D01*
X90233500Y-120164994D01*
X90233500Y-119509406D01*
X96135419Y-119509406D01*
X96147133Y-119708700D01*
X97255100Y-119708700D01*
X97255100Y-118600986D01*
X97512100Y-118600986D01*
X97512100Y-119708700D01*
X98620067Y-119708700D01*
X98631781Y-119509406D01*
X98543848Y-119272196D01*
X98411327Y-119056699D01*
X98239311Y-118871197D01*
X98034411Y-118722818D01*
X97804501Y-118617264D01*
X97711393Y-118589025D01*
X97512100Y-118600986D01*
X97255100Y-118600986D01*
X97055807Y-118589025D01*
X96962699Y-118617264D01*
X96732789Y-118722818D01*
X96527889Y-118871197D01*
X96355873Y-119056699D01*
X96223352Y-119272196D01*
X96135419Y-119509406D01*
X90233500Y-119509406D01*
X90233500Y-119380000D01*
X90232280Y-119367612D01*
X90228666Y-119355700D01*
X90222798Y-119344721D01*
X90214901Y-119335099D01*
X90205279Y-119327202D01*
X90194300Y-119321334D01*
X90182388Y-119317720D01*
X90170000Y-119316500D01*
X81978500Y-119316500D01*
X81978500Y-117789994D01*
X83426932Y-117789994D01*
X83608360Y-117981054D01*
X83907565Y-118127223D01*
X84229537Y-118212211D01*
X84561903Y-118232753D01*
X84891890Y-118188058D01*
X85206816Y-118079844D01*
X85391640Y-117981054D01*
X85573068Y-117789994D01*
X84500000Y-116716926D01*
X83426932Y-117789994D01*
X81978500Y-117789994D01*
X81978500Y-116597103D01*
X82802447Y-116597103D01*
X82847142Y-116927090D01*
X82955356Y-117242016D01*
X83054146Y-117426840D01*
X83245206Y-117608268D01*
X84318274Y-116535200D01*
X84681726Y-116535200D01*
X85754794Y-117608268D01*
X85945854Y-117426840D01*
X86092023Y-117127635D01*
X86177011Y-116805663D01*
X86197553Y-116473297D01*
X86152858Y-116143310D01*
X86044644Y-115828384D01*
X85945854Y-115643560D01*
X85754794Y-115462132D01*
X84681726Y-116535200D01*
X84318274Y-116535200D01*
X83245206Y-115462132D01*
X83054146Y-115643560D01*
X82907977Y-115942765D01*
X82822989Y-116264737D01*
X82802447Y-116597103D01*
X81978500Y-116597103D01*
X81978500Y-115280406D01*
X83426932Y-115280406D01*
X84500000Y-116353474D01*
X85573068Y-115280406D01*
X85391640Y-115089346D01*
X85092435Y-114943177D01*
X84770463Y-114858189D01*
X84438097Y-114837647D01*
X84108110Y-114882342D01*
X83793184Y-114990556D01*
X83608360Y-115089346D01*
X83426932Y-115280406D01*
X81978500Y-115280406D01*
X81978500Y-113728500D01*
X95186500Y-113728500D01*
X95186500Y-117475000D01*
X95186500Y-117475000D01*
G37*
X95186500Y-117475000D02*
X95187720Y-117487388D01*
X95191334Y-117499300D01*
X95197202Y-117510279D01*
X95205099Y-117519901D01*
X95214721Y-117527798D01*
X95225700Y-117533666D01*
X95237612Y-117537280D01*
X95250000Y-117538500D01*
X100901500Y-117538500D01*
X100901500Y-120015000D01*
X100902720Y-120027388D01*
X100906334Y-120039300D01*
X100912202Y-120050279D01*
X100920099Y-120059901D01*
X100929721Y-120067798D01*
X100940700Y-120073666D01*
X100952612Y-120077280D01*
X100965000Y-120078500D01*
X109156500Y-120078500D01*
X109156500Y-125666500D01*
X95250000Y-125666500D01*
X95237612Y-125667720D01*
X95225700Y-125671334D01*
X95214721Y-125677202D01*
X95205099Y-125685099D01*
X95197202Y-125694721D01*
X95191334Y-125705700D01*
X95187720Y-125717612D01*
X95186500Y-125730000D01*
X95186500Y-133286500D01*
X90233500Y-133286500D01*
X90233500Y-131709194D01*
X91789332Y-131709194D01*
X91970760Y-131900254D01*
X92269965Y-132046423D01*
X92591937Y-132131411D01*
X92924303Y-132151953D01*
X93254290Y-132107258D01*
X93569216Y-131999044D01*
X93754040Y-131900254D01*
X93935468Y-131709194D01*
X92862400Y-130636126D01*
X91789332Y-131709194D01*
X90233500Y-131709194D01*
X90233500Y-130516303D01*
X91164847Y-130516303D01*
X91209542Y-130846290D01*
X91317756Y-131161216D01*
X91416546Y-131346040D01*
X91607606Y-131527468D01*
X92680674Y-130454400D01*
X93044126Y-130454400D01*
X94117194Y-131527468D01*
X94308254Y-131346040D01*
X94454423Y-131046835D01*
X94539411Y-130724863D01*
X94559953Y-130392497D01*
X94515258Y-130062510D01*
X94407044Y-129747584D01*
X94308254Y-129562760D01*
X94117194Y-129381332D01*
X93044126Y-130454400D01*
X92680674Y-130454400D01*
X91607606Y-129381332D01*
X91416546Y-129562760D01*
X91270377Y-129861965D01*
X91185389Y-130183937D01*
X91164847Y-130516303D01*
X90233500Y-130516303D01*
X90233500Y-129199606D01*
X91789332Y-129199606D01*
X92862400Y-130272674D01*
X93935468Y-129199606D01*
X93754040Y-129008546D01*
X93454835Y-128862377D01*
X93132863Y-128777389D01*
X92800497Y-128756847D01*
X92470510Y-128801542D01*
X92155584Y-128909756D01*
X91970760Y-129008546D01*
X91789332Y-129199606D01*
X90233500Y-129199606D01*
X90233500Y-123315325D01*
X104790300Y-123315325D01*
X104790300Y-124907963D01*
X104797621Y-124944767D01*
X104811981Y-124979436D01*
X104832829Y-125010637D01*
X104859364Y-125037171D01*
X104890565Y-125058019D01*
X104925234Y-125072379D01*
X104962038Y-125079700D01*
X106554675Y-125079700D01*
X106602300Y-125032075D01*
X106602300Y-123267700D01*
X106859300Y-123267700D01*
X106859300Y-125032075D01*
X106906925Y-125079700D01*
X108499562Y-125079700D01*
X108536366Y-125072379D01*
X108571035Y-125058019D01*
X108602236Y-125037171D01*
X108628771Y-125010637D01*
X108649619Y-124979436D01*
X108663979Y-124944767D01*
X108671300Y-124907963D01*
X108671300Y-123315325D01*
X108623675Y-123267700D01*
X106859300Y-123267700D01*
X106602300Y-123267700D01*
X104837925Y-123267700D01*
X104790300Y-123315325D01*
X90233500Y-123315325D01*
X90233500Y-121370437D01*
X104790300Y-121370437D01*
X104790300Y-122963075D01*
X104837925Y-123010700D01*
X106602300Y-123010700D01*
X106602300Y-121246325D01*
X106859300Y-121246325D01*
X106859300Y-123010700D01*
X108623675Y-123010700D01*
X108671300Y-122963075D01*
X108671300Y-121370437D01*
X108663979Y-121333633D01*
X108649619Y-121298964D01*
X108628771Y-121267763D01*
X108602236Y-121241229D01*
X108571035Y-121220381D01*
X108536366Y-121206021D01*
X108499562Y-121198700D01*
X106906925Y-121198700D01*
X106859300Y-121246325D01*
X106602300Y-121246325D01*
X106554675Y-121198700D01*
X104962038Y-121198700D01*
X104925234Y-121206021D01*
X104890565Y-121220381D01*
X104859364Y-121241229D01*
X104832829Y-121267763D01*
X104811981Y-121298964D01*
X104797621Y-121333633D01*
X104790300Y-121370437D01*
X90233500Y-121370437D01*
X90233500Y-120164994D01*
X96135419Y-120164994D01*
X96223352Y-120402204D01*
X96355873Y-120617701D01*
X96527889Y-120803203D01*
X96732789Y-120951582D01*
X96962699Y-121057136D01*
X97055807Y-121085375D01*
X97255100Y-121073414D01*
X97255100Y-119965700D01*
X97512100Y-119965700D01*
X97512100Y-121073414D01*
X97711393Y-121085375D01*
X97804501Y-121057136D01*
X98034411Y-120951582D01*
X98239311Y-120803203D01*
X98411327Y-120617701D01*
X98543848Y-120402204D01*
X98631781Y-120164994D01*
X98620067Y-119965700D01*
X97512100Y-119965700D01*
X97255100Y-119965700D01*
X96147133Y-119965700D01*
X96135419Y-120164994D01*
X90233500Y-120164994D01*
X90233500Y-119509406D01*
X96135419Y-119509406D01*
X96147133Y-119708700D01*
X97255100Y-119708700D01*
X97255100Y-118600986D01*
X97512100Y-118600986D01*
X97512100Y-119708700D01*
X98620067Y-119708700D01*
X98631781Y-119509406D01*
X98543848Y-119272196D01*
X98411327Y-119056699D01*
X98239311Y-118871197D01*
X98034411Y-118722818D01*
X97804501Y-118617264D01*
X97711393Y-118589025D01*
X97512100Y-118600986D01*
X97255100Y-118600986D01*
X97055807Y-118589025D01*
X96962699Y-118617264D01*
X96732789Y-118722818D01*
X96527889Y-118871197D01*
X96355873Y-119056699D01*
X96223352Y-119272196D01*
X96135419Y-119509406D01*
X90233500Y-119509406D01*
X90233500Y-119380000D01*
X90232280Y-119367612D01*
X90228666Y-119355700D01*
X90222798Y-119344721D01*
X90214901Y-119335099D01*
X90205279Y-119327202D01*
X90194300Y-119321334D01*
X90182388Y-119317720D01*
X90170000Y-119316500D01*
X81978500Y-119316500D01*
X81978500Y-117789994D01*
X83426932Y-117789994D01*
X83608360Y-117981054D01*
X83907565Y-118127223D01*
X84229537Y-118212211D01*
X84561903Y-118232753D01*
X84891890Y-118188058D01*
X85206816Y-118079844D01*
X85391640Y-117981054D01*
X85573068Y-117789994D01*
X84500000Y-116716926D01*
X83426932Y-117789994D01*
X81978500Y-117789994D01*
X81978500Y-116597103D01*
X82802447Y-116597103D01*
X82847142Y-116927090D01*
X82955356Y-117242016D01*
X83054146Y-117426840D01*
X83245206Y-117608268D01*
X84318274Y-116535200D01*
X84681726Y-116535200D01*
X85754794Y-117608268D01*
X85945854Y-117426840D01*
X86092023Y-117127635D01*
X86177011Y-116805663D01*
X86197553Y-116473297D01*
X86152858Y-116143310D01*
X86044644Y-115828384D01*
X85945854Y-115643560D01*
X85754794Y-115462132D01*
X84681726Y-116535200D01*
X84318274Y-116535200D01*
X83245206Y-115462132D01*
X83054146Y-115643560D01*
X82907977Y-115942765D01*
X82822989Y-116264737D01*
X82802447Y-116597103D01*
X81978500Y-116597103D01*
X81978500Y-115280406D01*
X83426932Y-115280406D01*
X84500000Y-116353474D01*
X85573068Y-115280406D01*
X85391640Y-115089346D01*
X85092435Y-114943177D01*
X84770463Y-114858189D01*
X84438097Y-114837647D01*
X84108110Y-114882342D01*
X83793184Y-114990556D01*
X83608360Y-115089346D01*
X83426932Y-115280406D01*
X81978500Y-115280406D01*
X81978500Y-113728500D01*
X95186500Y-113728500D01*
X95186500Y-117475000D01*
G04 #@! TD*
M02*
